<?xml version="1.0" encoding="iso-8859-1"?>
<!-- Generator: Adobe Illustrator 19.0.0, SVG Export Plug-In . SVG Version: 6.00 Build 0)  -->
<svg version="1.1" id="Capa_1" xmlns="http://www.w3.org/2000/svg" xmlns:xlink="http://www.w3.org/1999/xlink" x="0px" y="0px"
	 viewBox="0 0 512 512" style="enable-background:new 0 0 512 512;" xml:space="preserve">
<path style="fill:#AA4141;" d="M396.078,510.007L158.86,474.026c-20.765-3.15-35.045-22.536-31.895-43.301L187.393,32.33
	c3.15-20.765,22.536-35.045,43.301-31.895l237.218,35.981c20.765,3.15,35.045,22.536,31.895,43.301l-60.428,398.395
	C436.229,498.877,416.843,513.157,396.078,510.007z"/>
<path style="fill:#963737;" d="M187.393,32.33l-60.428,398.395c-3.15,20.765,11.13,40.151,31.895,43.301l207.723,31.507V34.165
	c0-4.753-0.879-9.298-2.472-13.492L230.694,0.435C209.929-2.714,190.543,11.566,187.393,32.33z"/>
<path style="fill:#FFEBBE;" d="M390.566,489.587L170.18,456.16c-12.838-1.947-21.666-13.933-19.719-26.771l58.514-385.774
	c1.947-12.838,13.933-21.666,26.771-19.719l220.385,33.428c12.838,1.947,21.666,13.933,19.719,26.771l-58.514,385.774
	C415.389,482.706,403.404,491.535,390.566,489.587z"/>
<path style="fill:#F7DBB5;" d="M366.924,485.95V43.741L236.085,23.896c-12.838-1.947-24.823,6.881-26.771,19.719l-58.513,385.774
	c-1.947,12.838,6.881,24.823,19.719,26.771L366.924,485.95z"/>
<circle style="fill:#FF7955;" cx="287.09" cy="240.93" r="148.06"/>
<path style="fill:#F44D4D;" d="M366.924,116.212c-23.035-14.776-50.433-23.345-79.831-23.345c-33.795,0-64.939,11.33-89.858,30.389
	L166.38,326.68c26.837,37.71,70.902,62.308,120.713,62.308c29.399,0,56.796-8.569,79.831-23.345V116.212z"/>
<circle style="fill:#FFCF65;" cx="288.21" cy="242.05" r="104.68"/>
<path style="fill:#FFB864;" d="M366.924,173.043c-19.186-21.867-47.334-35.675-78.711-35.675
	c-57.814,0-104.681,46.867-104.681,104.681c0,57.813,46.867,104.681,104.681,104.681c31.377,0,59.525-13.809,78.711-35.675V173.043z
	"/>
<path style="fill:#FF554D;" d="M283.404,349.166L193.2,200.929c-1.99-3.27,0.364-7.459,4.192-7.459h180.409
	c3.828,0,6.182,4.188,4.192,7.459l-90.205,148.236C289.877,352.307,285.316,352.307,283.404,349.166z"/>
<path style="fill:#ED4A4A;" d="M193.2,200.929l88.599,145.599c2.122,0.129,4.26,0.201,6.414,0.201c1.723,0,3.435-0.049,5.138-0.131
	l73.573-120.905V193.47H197.392c-0.809,0-1.546,0.195-2.196,0.521c-0.917,1.771-1.785,3.572-2.602,5.4
	C192.706,199.914,192.897,200.432,193.2,200.929z"/>
<path style="fill:#AA4141;" d="M289.717,512H49.786c-21.002,0-38.028-17.026-38.028-38.028V71.02
	c0-21.002,17.026-38.028,38.028-38.028h239.931c21.002,0,38.028,17.026,38.028,38.028v402.952
	C327.745,494.974,310.719,512,289.717,512z"/>
<path style="fill:#FFEBBE;" d="M284.149,488.04H51.054c-9.674,0-17.516-7.842-17.516-17.516V71.445
	c0-9.674,7.842-17.516,17.516-17.516h233.095c9.674,0,17.516,7.842,17.516,17.516v399.078
	C301.665,480.197,293.823,488.04,284.149,488.04z"/>
<path style="fill:#FF7955;" d="M164.698,146.926L55.83,326.829c-2.382,3.936,0.452,8.964,5.053,8.964h217.736
	c4.601,0,7.435-5.028,5.053-8.964L174.805,146.926C172.506,143.128,166.996,143.128,164.698,146.926z"/>
<path style="fill:#FF915A;" d="M164.7,398.07L56.362,219.287c-2.385-3.936,0.449-8.967,5.051-8.967h216.676
	c4.603,0,7.437,5.031,5.051,8.967L174.803,398.07C172.504,401.864,166.999,401.864,164.7,398.07z"/>
<polygon style="fill:#FFB864;" points="88.667,272.582 126.971,335.793 212.55,335.793 250.855,272.582 213.177,210.32 
	126.345,210.32 "/>
<circle style="fill:#FF554D;" cx="169.75" cy="272.38" r="20.78"/>
<g>
</g>
<g>
</g>
<g>
</g>
<g>
</g>
<g>
</g>
<g>
</g>
<g>
</g>
<g>
</g>
<g>
</g>
<g>
</g>
<g>
</g>
<g>
</g>
<g>
</g>
<g>
</g>
<g>
</g>
</svg>
