<?xml version="1.0" encoding="iso-8859-1"?>
<!-- Generator: Adobe Illustrator 19.0.0, SVG Export Plug-In . SVG Version: 6.00 Build 0)  -->
<svg version="1.1" id="Capa_1" xmlns="http://www.w3.org/2000/svg" xmlns:xlink="http://www.w3.org/1999/xlink" x="0px" y="0px"
	 viewBox="0 0 512 512" style="enable-background:new 0 0 512 512;" xml:space="preserve">
<path style="fill:#FFCF65;" d="M172.944,509.295l-65.979-166.08c-0.597-1.504-0.517-3.192,0.222-4.632l15.592-30.413h108.3
	l15.592,30.413c0.738,1.44,0.819,3.128,0.222,4.632l-65.979,166.08C179.48,512.902,174.376,512.902,172.944,509.295z"/>
<path style="fill:#FFB864;" d="M246.671,338.584l-15.592-30.413h-32.238l15.593,30.413c0.738,1.439,0.819,3.128,0.222,4.632
	l-37.167,168.746c1.437-0.183,2.791-1.069,3.425-2.666l65.979-166.079C247.49,341.712,247.409,340.023,246.671,338.584z"/>
<rect x="122.78" y="272.86" style="fill:#FFCF65;" width="108.3" height="35.31"/>
<path style="fill:#FFEBBE;" d="M176.929,180.183c-4.283,0-7.755-3.472-7.755-7.755V48.451C169.174,21.735,190.909,0,217.624,0
	h34.327c26.717,0,48.452,21.735,48.452,48.451v24.142c0,18.164,14.778,32.942,32.942,32.942h24.179
	c18.164,0,32.942-14.778,32.942-32.942V7.755c0-4.283,3.472-7.755,7.755-7.755s7.755,3.472,7.755,7.755v64.837
	c0,26.716-21.735,48.452-48.452,48.452h-24.179c-26.716,0-48.452-21.735-48.452-48.452V48.451c0-18.164-14.778-32.941-32.942-32.941
	h-34.327c-18.164,0-32.941,14.777-32.941,32.941v123.978C184.684,176.712,181.212,180.183,176.929,180.183z"/>
<g>
	<rect x="199.02" y="272.86" style="fill:#FFB864;" width="32.05" height="35.31"/>
	<rect x="122.78" y="272.86" style="fill:#FFB864;" width="108.3" height="15.11"/>
</g>
<rect x="199.02" y="272.86" style="fill:#FFA161;" width="32.05" height="15.11"/>
<path style="fill:#FFCF65;" d="M190.01,172.429h-26.163c-3.657,0-6.621,2.964-6.621,6.621v28.686h39.406V179.05
	C196.631,175.393,193.667,172.429,190.01,172.429z"/>
<path style="fill:#FFB864;" d="M190.01,172.428h-12.408c3.657,0,6.621,2.965,6.621,6.622v28.687h12.408V179.05
	C196.631,175.393,193.667,172.428,190.01,172.428z"/>
<path style="fill:#FFCF65;" d="M247.832,237.775l-51.201-30.039h-39.406l-51.201,30.039v29.696c0,3.099,2.512,5.612,5.612,5.612
	h130.585c3.099,0,5.612-2.512,5.612-5.612v-29.696H247.832z"/>
<path style="fill:#FFB864;" d="M196.631,207.736h-36.966l51.201,30.039v29.696c0,3.099-2.512,5.612-5.612,5.612h36.966
	c3.099,0,5.612-2.512,5.612-5.612v-29.696L196.631,207.736z"/>
<polygon style="fill:#FFEBBE;" points="157.225,207.736 106.024,237.775 247.832,237.775 196.631,207.736 "/>
<polygon style="fill:#FFE0B3;" points="196.631,207.736 184.245,207.736 210.92,237.775 247.832,237.775 "/>
<path style="fill:#FFB864;" d="M247.277,340.823c-0.044-0.772-0.245-1.535-0.606-2.239l-15.592-30.413h-108.3l-15.592,30.413
	c-0.361,0.704-0.562,1.467-0.606,2.239H247.277z"/>
<path style="fill:#FFA161;" d="M246.671,338.584l-15.592-30.413h-32.226l15.592,30.413c0.361,0.704,0.562,1.467,0.606,2.239h32.226
	C247.233,340.051,247.032,339.288,246.671,338.584z"/>
<g>
</g>
<g>
</g>
<g>
</g>
<g>
</g>
<g>
</g>
<g>
</g>
<g>
</g>
<g>
</g>
<g>
</g>
<g>
</g>
<g>
</g>
<g>
</g>
<g>
</g>
<g>
</g>
<g>
</g>
</svg>
