<?xml version="1.0" encoding="iso-8859-1"?>
<!-- Generator: Adobe Illustrator 19.0.0, SVG Export Plug-In . SVG Version: 6.00 Build 0)  -->
<svg version="1.1" id="Capa_1" xmlns="http://www.w3.org/2000/svg" xmlns:xlink="http://www.w3.org/1999/xlink" x="0px" y="0px"
	 viewBox="0 0 512 512" style="enable-background:new 0 0 512 512;" xml:space="preserve">
<path style="fill:#AA4141;" d="M432.182,512H79.816c-9.915,0-17.953-8.038-17.953-17.953V17.953C61.862,8.038,69.9,0,79.816,0
	h352.367c9.915,0,17.953,8.038,17.953,17.953v476.093C450.136,503.962,442.098,512,432.182,512z"/>
<path style="fill:#FFCF65;" d="M251.167,135.933L147.07,307.951c-2.278,3.764,0.432,8.571,4.832,8.571h208.194
	c4.399,0,7.109-4.808,4.832-8.571L260.831,135.933C258.633,132.301,253.365,132.301,251.167,135.933z"/>
<path style="fill:#FF915A;" d="M251.169,376.07l-103.59-170.947c-2.281-3.764,0.429-8.574,4.83-8.574h207.18
	c4.401,0,7.111,4.811,4.83,8.574L260.829,376.07C258.631,379.698,253.367,379.698,251.169,376.07z"/>
<polygon style="fill:#FFB864;" points="178.468,256.082 215.094,316.523 296.922,316.523 333.548,256.082 297.521,196.548 
	214.495,196.548 "/>
<circle style="fill:#FF554D;" cx="255.999" cy="255.89" r="19.869"/>
<path style="fill:#963737;" d="M432.182,0h-45.34c12.66,47.938,19.414,98.276,19.414,150.193
	c0,136.513-46.631,262.134-124.83,361.807h150.755c9.915,0,17.953-8.038,17.953-17.954V17.953C450.136,8.038,442.098,0,432.182,0z"
	/>
<g>
	<path style="fill:#772C2C;" d="M359.886,79.582H152.112c-10.271,0-18.597-8.326-18.597-18.597l0,0
		c0-10.271,8.326-18.597,18.597-18.597h207.775c10.271,0,18.597,8.326,18.597,18.597l0,0
		C378.484,71.256,370.157,79.582,359.886,79.582z"/>
	<path style="fill:#772C2C;" d="M335.527,431.272H176.471c-4.309,0-7.802-3.493-7.802-7.802s3.493-7.802,7.802-7.802h159.056
		c4.309,0,7.802,3.493,7.802,7.802S339.836,431.272,335.527,431.272z"/>
	<path style="fill:#772C2C;" d="M293.034,466.295h-74.069c-4.309,0-7.802-3.493-7.802-7.802s3.493-7.802,7.802-7.802h74.069
		c4.309,0,7.802,3.493,7.802,7.802S297.343,466.295,293.034,466.295z"/>
</g>
<g>
</g>
<g>
</g>
<g>
</g>
<g>
</g>
<g>
</g>
<g>
</g>
<g>
</g>
<g>
</g>
<g>
</g>
<g>
</g>
<g>
</g>
<g>
</g>
<g>
</g>
<g>
</g>
<g>
</g>
</svg>
