<?xml version="1.0" encoding="iso-8859-1"?>
<!-- Generator: Adobe Illustrator 19.0.0, SVG Export Plug-In . SVG Version: 6.00 Build 0)  -->
<svg version="1.1" id="Capa_1" xmlns="http://www.w3.org/2000/svg" xmlns:xlink="http://www.w3.org/1999/xlink" x="0px" y="0px"
	 viewBox="0 0 512 512" style="enable-background:new 0 0 512 512;" xml:space="preserve">
<path style="fill:#FF9B50;" d="M256,0C114.615,0,0,114.615,0,256s114.615,256,256,256s256-114.615,256-256S397.385,0,256,0z
	 M322.957,308.458c0,8.008-6.491,14.499-14.499,14.499H203.542c-8.007,0-14.499-6.491-14.499-14.499V203.542
	c0-8.008,6.491-14.499,14.499-14.499h104.917c8.007,0,14.499,6.491,14.499,14.499v104.916H322.957z"/>
<path style="fill:#FF7F5C;" d="M356.101,20.317c9.109,33.651,13.97,69.049,13.97,105.582c0,158.348-91.31,295.367-224.147,361.282
	C179.27,503.087,216.593,512,256,512c141.385,0,256-114.615,256-256C512,150.138,447.74,59.288,356.101,20.317z"/>
<path style="fill:#FFCF65;" d="M256,58.038C146.669,58.038,58.038,146.669,58.038,256S146.669,453.962,256,453.962
	S453.962,365.331,453.962,256S365.331,58.038,256,58.038z M322.957,308.458c0,8.008-6.491,14.499-14.499,14.499H203.542
	c-8.007,0-14.499-6.491-14.499-14.499V203.542c0-8.008,6.491-14.499,14.499-14.499h104.917c8.007,0,14.499,6.491,14.499,14.499
	v104.916H322.957z"/>
<path style="fill:#FFB864;" d="M369.572,93.289c0.861,10.757,1.309,21.631,1.309,32.61c0,131.834-63.299,248.874-161.153,322.415
	c15.092,3.682,30.856,5.649,47.082,5.649c109.331,0,197.962-88.631,197.962-197.962C454.772,188.575,421.056,129.035,369.572,93.289
	z"/>
<g>
	<path style="fill:#AA4141;" d="M156.704,230.47h-7.5v-20.868c0-4.326-3.506-7.831-7.831-7.831s-7.831,3.506-7.831,7.831v20.868
		h-36.03c-2.667,0-5.152,1.358-6.592,3.604c-1.44,2.245-1.638,5.07-0.525,7.495l16.741,36.473c1.318,2.872,4.156,4.566,7.123,4.566
		c1.093,0,2.204-0.23,3.262-0.716c3.93-1.805,5.654-6.454,3.85-10.384l-11.647-25.375h23.819v50.593l-2.782-2.783
		c-3.058-3.057-8.017-3.057-11.075,0c-3.059,3.059-3.059,8.017,0,11.076l16.151,16.151c1.498,1.498,3.501,2.293,5.539,2.293
		c1.009,0,2.027-0.195,2.995-0.596c2.926-1.211,4.834-4.068,4.834-7.235v-69.499h7.5c4.325,0,7.831-3.506,7.831-7.831
		S161.029,230.47,156.704,230.47z"/>
	<path style="fill:#AA4141;" d="M422.743,266.659l-13.594-11.757h8.471c4.325,0,7.831-3.506,7.831-7.831
		c0-4.326-3.506-7.831-7.831-7.831h-58.993c-4.325,0-7.831,3.506-7.831,7.831c0,4.326,3.506,7.831,7.831,7.831h14.493
		l-26.983,38.713c-2.473,3.547-1.601,8.429,1.947,10.902c3.547,2.471,8.429,1.602,10.902-1.948l30.59-43.888l17.891,15.474
		l-13.875,22.618l-6.153-5.646c-3.187-2.925-8.14-2.712-11.065,0.474c-2.924,3.187-2.712,8.14,0.475,11.065l13.154,12.072
		c1.454,1.335,3.347,2.062,5.295,2.062c0.361,0,0.723-0.024,1.085-0.075c2.317-0.324,4.367-1.667,5.59-3.661l22.322-36.387
		C426.301,273.408,425.644,269.168,422.743,266.659z"/>
	<circle style="fill:#AA4141;" cx="389.02" cy="219.77" r="8.969"/>
	<path style="fill:#AA4141;" d="M291.731,370.039c4.325,0,7.831-3.506,7.831-7.831c0-4.326-3.506-7.831-7.831-7.831h-20.877v-4.812
		c0-4.326-3.506-7.831-7.831-7.831c-4.325,0-7.831,3.506-7.831,7.831v34.549c0,4.326,3.506,7.831,7.831,7.831h28.708
		c4.325,0,7.831-3.506,7.831-7.831c0-4.326-3.506-7.831-7.831-7.831h-20.877v-6.244L291.731,370.039L291.731,370.039z"/>
	<path style="fill:#AA4141;" d="M268.957,414.217c-2.849,0.922-12.892,3.534-22.533-1.554c-7.619-4.021-12.942-11.743-14.685-20.718
		h6.081c4.325,0,7.831-3.506,7.831-7.831v-34.549c0-4.326-3.506-7.831-7.831-7.831s-7.831,3.506-7.831,7.831v26.718h-17.205
		c-4.325,0-7.831,3.506-7.831,7.831c0,3.803,2.711,6.97,6.305,7.68l-7.787,17.314c-1.774,3.944-0.014,8.581,3.93,10.354
		c3.946,1.775,8.58,0.015,10.354-3.93l3.287-7.311c4.117,7.765,10.333,14.211,18.069,18.293c7.052,3.722,14.061,4.88,20.054,4.88
		c6.459,0,11.738-1.346,14.612-2.276c4.115-1.332,6.371-5.747,5.039-9.862C277.487,415.141,273.075,412.888,268.957,414.217z"/>
	<path style="fill:#AA4141;" d="M287.922,401.513c-3.564-3.28-7.973-5.44-12.748-6.246l-25.784-4.355
		c-4.269-0.715-8.306,2.154-9.026,6.418s2.153,8.305,6.417,9.026l25.785,4.355c1.779,0.3,3.422,1.104,4.75,2.327l9.112,8.383
		c1.505,1.385,3.405,2.068,5.3,2.068c2.114,0,4.222-0.85,5.765-2.529c2.929-3.183,2.722-8.137-0.461-11.066L287.922,401.513z"/>
	<path style="fill:#AA4141;" d="M291.731,105.135c4.325,0,7.831-3.506,7.831-7.831c0-4.326-3.506-7.831-7.831-7.831h-20.877v-4.812
		c0-4.326-3.506-7.831-7.831-7.831c-4.325,0-7.831,3.506-7.831,7.831v34.549c0,4.326,3.506,7.831,7.831,7.831h28.708
		c4.325,0,7.831-3.506,7.831-7.831c0-4.326-3.506-7.831-7.831-7.831h-20.877v-6.244H291.731z"/>
	<path style="fill:#AA4141;" d="M207.403,154.56c3.944,1.774,8.58,0.014,10.354-3.93l3.288-7.312
		c4.117,7.765,10.334,14.211,18.069,18.294c7.054,3.723,14.063,4.881,20.054,4.881c6.461,0,11.74-1.348,14.614-2.279
		c4.114-1.333,6.369-5.749,5.036-9.863c-1.333-4.115-5.748-6.372-9.864-5.036c-2.847,0.923-12.884,3.536-22.529-1.554
		c-7.619-4.022-12.942-11.744-14.685-20.719h6.081c4.325,0,7.831-3.506,7.831-7.831v-34.55c0-4.326-3.506-7.831-7.831-7.831
		s-7.831,3.506-7.831,7.831v26.718h-17.205c-4.325,0-7.831,3.506-7.831,7.831c0,3.803,2.711,6.97,6.306,7.68l-7.787,17.315
		C201.699,148.151,203.459,152.786,207.403,154.56z"/>
	<path style="fill:#AA4141;" d="M240.364,132.427c-0.72,4.264,2.153,8.305,6.417,9.026l25.785,4.355
		c1.778,0.3,3.422,1.105,4.75,2.327l9.112,8.384c1.505,1.385,3.405,2.068,5.3,2.068c2.114,0,4.221-0.85,5.765-2.529
		c2.928-3.182,2.722-8.137-0.461-11.066l-9.113-8.385c-3.565-3.279-7.973-5.438-12.747-6.244l-25.784-4.355
		C245.121,125.289,241.084,128.164,240.364,132.427z"/>
</g>
<g>
</g>
<g>
</g>
<g>
</g>
<g>
</g>
<g>
</g>
<g>
</g>
<g>
</g>
<g>
</g>
<g>
</g>
<g>
</g>
<g>
</g>
<g>
</g>
<g>
</g>
<g>
</g>
<g>
</g>
</svg>
