<?xml version="1.0" encoding="iso-8859-1"?>
<!-- Generator: Adobe Illustrator 19.0.0, SVG Export Plug-In . SVG Version: 6.00 Build 0)  -->
<svg version="1.1" id="Capa_1" xmlns="http://www.w3.org/2000/svg" xmlns:xlink="http://www.w3.org/1999/xlink" x="0px" y="0px"
	 viewBox="0 0 512 512" style="enable-background:new 0 0 512 512;" xml:space="preserve">
<circle style="fill:#FFCF65;" cx="155.27" cy="152.05" r="144.5"/>
<circle style="fill:#FFA664;" cx="356.73" cy="152.05" r="144.5"/>
<path style="fill:#ED5A5A;" d="M212.231,152.047c0,40.629,16.775,77.335,43.769,103.588c26.994-26.253,43.769-62.959,43.769-103.588
	S282.994,74.712,256,48.459C229.006,74.712,212.231,111.418,212.231,152.047z"/>
<circle style="fill:#FF915A;" cx="356.73" cy="359.95" r="144.5"/>
<path style="fill:#ED5A5A;" d="M256.374,256c25.993,25.099,61.369,40.545,100.356,40.545S431.092,281.099,457.086,256
	c-25.993-25.099-61.369-40.545-100.356-40.545S282.367,230.901,256.374,256z"/>
<circle style="fill:#FFA664;" cx="155.27" cy="359.95" r="144.5"/>
<g>
	<path style="fill:#ED5A5A;" d="M54.914,256c25.993,25.099,61.369,40.545,100.356,40.545S229.633,281.099,255.626,256
		c-25.993-25.099-61.369-40.545-100.356-40.545S80.908,230.901,54.914,256z"/>
	<path style="fill:#ED5A5A;" d="M212.231,359.953c0,40.629,16.775,77.335,43.769,103.588
		c26.994-26.253,43.769-62.959,43.769-103.588S282.994,282.618,256,256.365C229.006,282.618,212.231,319.324,212.231,359.953z"/>
</g>
<path style="fill:#AA4141;" d="M508.776,152.047C508.776,68.208,440.569,0,356.73,0C318.126,0,282.843,14.47,256,38.26
	C229.157,14.47,193.874,0,155.27,0C71.431,0,3.224,68.208,3.224,152.047c0,40.169,15.665,76.743,41.197,103.953
	C18.889,283.21,3.224,319.784,3.224,359.953C3.224,443.792,71.431,512,155.27,512c38.604,0,73.887-14.47,100.73-38.26
	C282.843,497.53,318.126,512,356.73,512c83.839,0,152.046-68.208,152.046-152.047c0-40.169-15.665-76.743-41.197-103.953
	C493.111,228.79,508.776,192.216,508.776,152.047z M493.68,152.047c0,36.1-14.047,68.977-36.954,93.468
	c-26.75-23.404-61.744-37.608-99.996-37.608c-24.182,0-47.058,5.684-67.378,15.772c11.456-21.357,17.965-45.748,17.965-71.632
	c0-39.805-15.382-76.079-40.505-103.21c24.075-21.002,55.536-33.742,89.918-33.742C432.245,15.096,493.68,76.532,493.68,152.047z
	 M256,452.633c-22.474-24.406-36.221-56.966-36.221-92.68s13.747-68.274,36.221-92.68c22.474,24.407,36.221,56.966,36.221,92.68
	S278.474,428.227,256,452.633z M256,59.367c22.474,24.406,36.221,56.966,36.221,92.68s-13.747,68.274-36.221,92.68
	c-22.474-24.407-36.221-56.966-36.221-92.68S233.526,83.773,256,59.367z M445.786,256c-23.962,20.558-55.082,32.997-89.056,32.997
	s-65.094-12.44-89.056-32.997c23.962-20.558,55.082-32.997,89.056-32.997S421.824,235.442,445.786,256z M155.27,15.096
	c34.382,0,65.843,12.739,89.918,33.742c-25.123,27.131-40.505,63.405-40.505,103.21c0,25.884,6.509,50.275,17.965,71.632
	c-20.32-10.087-43.196-15.772-67.378-15.772c-38.252,0-73.246,14.204-99.996,37.608c-22.907-24.491-36.954-57.368-36.954-93.468
	C18.32,76.532,79.755,15.096,155.27,15.096z M244.326,256c-23.962,20.558-55.082,32.997-89.056,32.997S90.176,276.558,66.214,256
	c23.962-20.558,55.082-32.997,89.056-32.997S220.364,235.442,244.326,256z M18.32,359.953c0-36.1,14.047-68.977,36.954-93.468
	c26.75,23.404,61.744,37.608,99.996,37.608c24.182,0,47.058-5.684,67.378-15.772c-11.456,21.357-17.965,45.748-17.965,71.632
	c0,39.805,15.382,76.079,40.505,103.21c-24.075,21.002-55.536,33.742-89.918,33.742C79.755,496.904,18.32,435.468,18.32,359.953z
	 M356.73,496.904c-34.382,0-65.843-12.739-89.918-33.742c25.123-27.131,40.505-63.405,40.505-103.21
	c0-25.884-6.509-50.275-17.965-71.632c20.32,10.087,43.196,15.772,67.378,15.772c38.252,0,73.245-14.204,99.996-37.608
	c22.907,24.491,36.954,57.368,36.954,93.468C493.68,435.468,432.245,496.904,356.73,496.904z"/>
<g>
</g>
<g>
</g>
<g>
</g>
<g>
</g>
<g>
</g>
<g>
</g>
<g>
</g>
<g>
</g>
<g>
</g>
<g>
</g>
<g>
</g>
<g>
</g>
<g>
</g>
<g>
</g>
<g>
</g>
</svg>
