<?xml version="1.0" encoding="iso-8859-1"?>
<!-- Generator: Adobe Illustrator 19.0.0, SVG Export Plug-In . SVG Version: 6.00 Build 0)  -->
<svg version="1.1" id="Capa_1" xmlns="http://www.w3.org/2000/svg" xmlns:xlink="http://www.w3.org/1999/xlink" x="0px" y="0px"
	 viewBox="0 0 512.001 512.001" style="enable-background:new 0 0 512.001 512.001;" xml:space="preserve">
<path style="fill:#FFEBBE;" d="M483.164,140.954v86.169h-44.439V83.321c0-5.547-4.497-10.044-10.044-10.044H284.878V28.029h86.169
	c7.74,0,14.014-6.274,14.014-14.014l0,0c0-7.74-6.274-14.014-14.014-14.014H140.953c-7.74,0-14.014,6.274-14.014,14.014l0,0
	c0,7.74,6.274,14.014,14.014,14.014h86.169v45.247H83.32c-5.547,0-10.044,4.497-10.044,10.044v143.803H28.837v-86.169
	c0-7.74-6.274-14.014-14.014-14.014l0,0c-7.74,0-14.014,6.274-14.014,14.014v230.094c0,7.74,6.274,14.014,14.014,14.014l0,0
	c7.74,0,14.014-6.274,14.014-14.014v-86.169h44.439v143.802c0,5.547,4.497,10.044,10.044,10.044h143.803v45.247h-86.169
	c-7.74,0-14.014,6.274-14.014,14.014l0,0c0,7.74,6.274,14.014,14.014,14.014h230.094c7.74,0,14.014-6.274,14.014-14.014l0,0
	c0-7.74-6.274-14.014-14.014-14.014h-86.169v-45.247H428.68c5.547,0,10.044-4.497,10.044-10.044V284.879h44.439v86.169
	c0,7.74,6.274,14.014,14.014,14.014l0,0c7.74,0,14.014-6.274,14.014-14.014V140.954c0-7.74-6.274-14.014-14.014-14.014l0,0
	C489.438,126.94,483.164,133.214,483.164,140.954z"/>
<g>
	<path style="fill:#F7DBB5;" d="M344.281,28.029h26.766c7.74,0,14.014-6.274,14.014-14.014v-0.001
		c0-7.74-6.274-14.014-14.014-14.014h-36.915C337.865,9.173,341.251,18.522,344.281,28.029z"/>
	<path style="fill:#F7DBB5;" d="M497.178,126.94L497.178,126.94c-7.74,0-14.014,6.274-14.014,14.014v86.169h-44.439V83.321
		c0-5.547-4.497-10.044-10.044-10.044h-72.962c4.397,23.297,6.703,47.333,6.703,71.908c0,117.581-52.664,222.857-135.686,293.541
		h0.388v45.246h-66.267c-10.931,5.943-22.182,11.373-33.721,16.256c1.075,6.671,6.843,11.773,13.819,11.773h230.094
		c7.74,0,14.014-6.275,14.014-14.014l0,0c0-7.74-6.274-14.014-14.014-14.014H284.88v-45.246h143.8
		c5.547,0,10.044-4.497,10.044-10.045V284.879h44.439v86.169c0,7.74,6.274,14.014,14.014,14.014l0,0
		c7.74,0,14.014-6.274,14.014-14.014V140.954C511.192,133.214,504.918,126.94,497.178,126.94z"/>
</g>
<g>
	<path style="fill:#AA4141;" d="M305.279,145.242c-0.161-11.015-7.578-22.219-17.692-28.833c-5.668-3.706-10.63-7.998-14.446-12.899
		l-8.037-10.321c-4.447-5.71-15.352-5.551-19.629,0.287l-7.731,10.551c-3.671,5.011-8.506,9.446-14.063,13.317
		c-9.917,6.907-16.091,16.882-15.93,27.897"/>
	<path style="fill:#AA4141;" d="M206.722,140.667c-7.903-7.675-21.07-10.353-32.898-7.877c-6.628,1.387-13.172,1.861-19.336,1.094
		l-12.981-1.615c-7.182-0.894-14.78,6.93-13.677,14.083l1.994,12.928c0.947,6.139,0.665,12.694-0.528,19.36
		c-2.128,11.896,3.152,30.191,11.055,37.866"/>
	<path style="fill:#AA4141;" d="M136.833,212.156c-11.015,0.161-20.789,5.777-27.403,15.891c-3.706,5.668-7.998,9.579-12.899,13.396
		L86.21,249.48c-5.71,4.447-5.551,15.352,0.287,19.629l10.551,7.731c5.011,3.671,9.446,8.506,13.317,14.063
		c6.907,9.917,16.787,19.119,27.802,18.958"/>
	<path style="fill:#AA4141;" d="M145.416,306.36c-7.885,7.694-10.545,19.12-8.389,31.01c1.209,6.663,1.506,13.218,0.574,19.359
		l-1.963,12.932c-1.086,7.155,6.53,14.961,13.71,14.051l12.977-1.646c6.162-0.782,12.707-0.324,19.339,1.048
		c11.834,2.448,25.541-2.151,33.425-9.844"/>
	<path style="fill:#AA4141;" d="M212.885,365.906c-0.36,11.01,5.633,21.096,15.424,28.18c5.486,3.97,10.24,8.492,13.82,13.568
		l7.54,10.689c4.171,5.914,15.072,6.271,19.621,0.641l8.222-10.174c3.904-4.831,8.943-9.034,14.677-12.637
		c16.075-10.101,16.945-18.347,17.231-27.113"/>
	<path style="fill:#AA4141;" d="M309.391,368.182c8.02,7.553,19.548,9.728,31.337,7.071c6.606-1.489,13.142-2.063,19.317-1.391
		l13.004,1.415c7.195,0.783,14.672-7.157,13.459-14.292l-2.193-12.896c-1.041-6.124,1.358-14.901,2.449-21.585
		c1.945-11.927-10.972-20.634-18.992-28.186"/>
	<path style="fill:#AA4141;" d="M375.034,305.153c13.06-0.16,24.693-12.466,27.459-16.674c3.719-5.659,8.024-10.611,12.934-14.416
		l10.34-8.012c5.721-4.433,5.587-15.338-0.241-19.63l-10.533-7.756c-5.002-3.683-9.426-8.528-13.283-14.094
		c-6.883-9.933-16.036-17.621-27.052-17.486"/>
	<path style="fill:#AA4141;" d="M367.425,215.147c8.204-7.352,17.855-21.433,16.205-33.404c-0.925-6.708-0.944-13.27,0.247-19.366
		l2.51-12.838c1.389-7.103-5.89-15.225-13.102-14.619l-13.035,1.094c-6.19,0.52-12.71-0.215-19.277-1.867
		c-11.72-2.947-29.807,1.721-38.011,9.073"/>
	<path style="fill:#AA4141;" d="M136.833,212.156L136.833,212.156L136.833,212.156z"/>
</g>
<g>
	<path style="fill:#963737;" d="M269.29,418.985l8.222-10.174c3.904-4.832,8.943-9.034,14.677-12.637
		c16.075-10.101,16.945-18.347,17.231-27.113l-18.252-0.597c-12.555,17.629-26.552,34.16-41.827,49.413l0.329,0.466
		C253.84,424.258,264.741,424.614,269.29,418.985z"/>
	<path style="fill:#963737;" d="M375.033,304.806c-2.517-2.275-5.071-4.424-7.26-6.486l-58.381,69.862
		c8.02,7.553,19.548,9.728,31.337,7.071c6.606-1.489,13.142-2.063,19.317-1.391l13.004,1.416
		c7.195,0.783,14.672-7.157,13.459-14.292l-2.193-12.896c-1.041-6.124,1.358-14.901,2.448-21.584
		c1.389-8.513-4.795-15.385-11.365-21.368c-0.122,0.003-0.242,0.013-0.365,0.015L375.033,304.806z"/>
	<path style="fill:#963737;" d="M375.033,304.806c0.122,0.11,0.244,0.221,0.366,0.332c12.911-0.381,24.355-12.491,27.094-16.659
		c3.719-5.659,8.024-10.611,12.934-14.416l10.34-8.012c5.721-4.433,5.587-15.338-0.24-19.63l-10.533-7.756
		c-5.002-3.683-9.426-8.528-13.283-14.094c-6.864-9.905-15.986-17.574-26.96-17.483c-0.03,0.04-0.06,0.081-0.091,0.121
		L375.033,304.806z"/>
</g>
<path style="fill:#F7DBB5;" d="M375.034,305.152c0.122-0.001,0.243-0.011,0.365-0.015c-0.122-0.111-0.244-0.222-0.366-0.332
	L375.034,305.152z"/>
<path style="fill:#963737;" d="M375,207.208v-0.124c0,0-0.11,0.003-0.08,0.003c5.596-7.437,9.957-16.912,8.794-25.344
	c-0.925-6.708-0.987-13.27,0.205-19.366l2.488-12.837c1.389-7.103-5.901-15.225-13.113-14.619l-10.982,0.922
	c0.074,3.105,0.11,6.219,0.11,9.342c0,20.172-1.552,39.981-4.539,59.316l9.712,10.646C369.99,213.001,372,210.28,375,207.208z"/>
<path style="fill:#F7DBB5;" d="M374.658,207.208c0.031-0.041,0.061-0.081,0.091-0.121c-0.031,0-0.061-0.003-0.091-0.003V207.208z"/>
<circle style="fill:#FFCF65;" cx="255.63" cy="255.261" r="131"/>
<path style="fill:#FFB864;" d="M279.432,384.098c60.982-11.195,107.194-64.614,107.194-128.832c0-29.101-9.495-55.98-25.547-77.723
	C354.62,255.222,325.119,326.356,279.432,384.098z"/>
<path style="fill:#ED5A5A;" d="M149.426,193.193L255.63,378.122l106.204-184.929H149.426z M212.635,230.621h85.99l-42.995,74.866
	L212.635,230.621z"/>
<path style="fill:#FF915A;" d="M255.631,386.261c-2.893,0-5.565-1.551-7.011-4.069L142.415,197.263
	c-1.446-2.518-1.446-5.621,0-8.139s4.118-4.069,7.011-4.069h212.409c2.893,0,5.565,1.551,7.011,4.069s1.446,5.621,0,8.139
	L262.642,382.192C261.197,384.709,258.523,386.261,255.631,386.261z M163.448,201.332l92.183,160.513l92.182-160.513H163.448z
	 M255.631,313.625c-2.893,0-5.565-1.551-7.011-4.069l-42.996-74.866c-1.446-2.518-1.446-5.621,0-8.139s4.118-4.069,7.011-4.069
	h85.99c2.893,0,5.565,1.551,7.011,4.069s1.446,5.621,0,8.139l-42.995,74.866C261.197,312.074,258.523,313.625,255.631,313.625z
	 M226.657,238.759l28.974,50.449l28.973-50.449H226.657z"/>
<path style="fill:#FF7F5C;" d="M369.376,190.26c-0.455-0.795-0.938-1.571-1.409-2.355c-1.522-1.783-3.746-2.851-6.132-2.851h-1.456
	c-1.275,12.4-3.144,24.622-5.566,36.645l14.034-24.436C370.081,195.111,370.253,192.536,369.376,190.26z"/>
<path style="fill:#FF915A;" d="M497.178,126.94L497.178,126.94c-7.74,0-14.014,6.274-14.014,14.014v86.169h-44.439V83.321
	c0-5.547-4.497-10.044-10.044-10.044H284.878V28.029h85.802c7.194,0,13.506-5.271,14.294-12.421
	c0.931-8.454-5.663-15.607-13.927-15.607H141.321c-7.194,0-13.506,5.27-14.294,12.421c-0.933,8.453,5.661,15.608,13.926,15.608
	h86.169v45.247H83.32c-5.547,0-10.044,4.497-10.044,10.044v143.802h-44.44v-86.169c0-7.74-6.274-14.014-14.014-14.014l0,0
	c-7.74,0-14.014,6.274-14.014,14.014v230.094c0,7.74,6.274,14.014,14.014,14.014h0.001c7.74,0,14.014-6.274,14.014-14.014v-86.169
	h44.439v143.803c0,5.547,4.497,10.044,10.044,10.044h143.803v45.246h-85.801c-7.194,0-13.505,5.27-14.294,12.42
	c-0.933,8.454,5.661,15.609,13.926,15.609H370.68c7.194,0,13.505-5.27,14.294-12.42c0.933-8.454-5.661-15.609-13.926-15.609h-86.169
	v-45.246H428.68c5.547,0,10.044-4.497,10.044-10.044V284.879h44.439v86.169c0,7.74,6.274,14.014,14.014,14.014h0.001
	c7.74,0,14.014-6.274,14.014-14.014V140.954C511.192,133.214,504.918,126.94,497.178,126.94z M422.955,284.879v138.077H284.878
	c-8.71,0-15.77,7.06-15.77,15.77v45.246c0,0.027,0.004,0.052,0.005,0.079v12.18h-26.224v-12.176c0-0.028,0.005-0.054,0.005-0.083
	v-45.246c0-8.71-7.06-15.77-15.77-15.77H89.046V284.879c0-8.71-7.06-15.77-15.77-15.77h-44.44c-0.052,0-0.101,0.008-0.152,0.009
	H16.578v-26.224h12.258h6.443h37.996c8.71,0,15.77-7.06,15.77-15.77V89.047h138.077c8.71,0,15.77-7.06,15.77-15.77V28.029
	c0-0.028-0.005-0.055-0.005-0.083V15.771h26.224v12.18c0,0.026-0.005,0.051-0.005,0.078v45.247c0,8.71,7.06,15.77,15.77,15.77
	h138.077v138.076c0,8.71,7.06,15.77,15.77,15.77h37.918h6.521h12.258v26.224h-12.107c-0.051,0-0.101-0.009-0.152-0.009h-44.439
	C430.016,269.109,422.955,276.169,422.955,284.879z"/>
<g>
	<path style="fill:#FF7F5C;" d="M344.281,28.029h26.398c7.194,0,13.506-5.271,14.294-12.421c0.932-8.453-5.662-15.607-13.926-15.607
		h-36.915C337.865,9.173,341.251,18.522,344.281,28.029z"/>
	<path style="fill:#FF7F5C;" d="M497.178,126.94c-7.74,0-14.014,6.274-14.014,14.014v86.169h-44.439V83.321
		c0-5.547-4.497-10.044-10.044-10.044h-72.962c0.985,5.22,1.863,10.478,2.635,15.77h64.601v138.076c0,8.709,7.061,15.77,15.77,15.77
		h37.918h6.521h12.258v26.224h-12.107c-0.051,0-0.101-0.009-0.152-0.009h-44.439c-8.709,0-15.77,7.061-15.77,15.77v138.077H284.878
		c-8.709,0-15.77,7.061-15.77,15.77v45.246c0,0.027,0.004,0.052,0.005,0.079v12.18h-26.224v-12.176c0-0.028,0.005-0.054,0.005-0.083
		v-45.246c0-4.11-1.586-7.841-4.162-10.648c-3.924,3.631-7.923,7.181-11.996,10.648h0.388v45.246h-66.266
		c-10.931,5.943-22.181,11.372-33.719,16.255c1.075,6.672,6.841,11.774,13.816,11.774h229.726c7.194,0,13.505-5.27,14.294-12.42
		c0.933-8.453-5.661-15.608-13.926-15.608H284.88v-45.246h143.8c5.547,0,10.044-4.497,10.044-10.045V284.879h44.439v86.169
		c0,7.74,6.274,14.014,14.014,14.014h0.001c7.74,0,14.014-6.274,14.014-14.014V140.954
		C511.192,133.215,504.918,126.94,497.178,126.94z"/>
</g>
<g>
</g>
<g>
</g>
<g>
</g>
<g>
</g>
<g>
</g>
<g>
</g>
<g>
</g>
<g>
</g>
<g>
</g>
<g>
</g>
<g>
</g>
<g>
</g>
<g>
</g>
<g>
</g>
<g>
</g>
</svg>
