<?xml version="1.0" encoding="iso-8859-1"?>
<!-- Generator: Adobe Illustrator 19.0.0, SVG Export Plug-In . SVG Version: 6.00 Build 0)  -->
<svg version="1.1" id="Capa_1" xmlns="http://www.w3.org/2000/svg" xmlns:xlink="http://www.w3.org/1999/xlink" x="0px" y="0px"
	 viewBox="0 0 512 512" style="enable-background:new 0 0 512 512;" xml:space="preserve">
<path style="fill:#AA4141;" d="M256,0C114.615,0,0,114.615,0,256s114.615,256,256,256s256-114.615,256-256S397.385,0,256,0z"/>
<path style="fill:#FFEBBE;" d="M256,468.026c-116.029,0-210.089-94.06-210.089-210.089S139.971,47.849,256,47.849
	s210.089,94.06,210.089,210.089S372.029,468.026,256,468.026z"/>
<path style="fill:#F7DBB5;" d="M386.142,93.009c5.305,24.216,8.126,49.36,8.126,75.168c0,125.982-66.629,236.389-166.561,297.947
	c9.255,1.246,18.697,1.903,28.293,1.903c116.029,0,210.089-94.06,210.089-210.088C466.089,191.06,434.835,131.485,386.142,93.009z"
	/>
<path style="fill:#FFCF65;" d="M247.475,46.1L63.815,349.596c-4.019,6.641,0.763,15.123,8.525,15.123h367.32
	c7.762,0,12.543-8.482,8.525-15.123L264.525,46.1C260.647,39.693,251.353,39.693,247.475,46.1z"/>
<path style="fill:#FFA664;" d="M436.949,364.719c3.445-5.825,6.616-11.829,9.496-17.998l-60.901-100.637
	c-9.813,43.119-27.586,83.209-51.707,118.635L436.949,364.719L436.949,364.719z"/>
<path style="fill:#FF915A;" d="M247.478,469.78L64.713,168.174c-4.024-6.64,0.757-15.128,8.522-15.128h365.532
	c7.765,0,12.546,8.487,8.522,15.128L264.522,469.78C260.643,476.18,251.357,476.18,247.478,469.78z"/>
<g>
	<path style="fill:#FF7F5C;" d="M446.582,169.382c-2.6-5.585-5.444-11.032-8.507-16.337h-44.108
		c0.215,5.017,0.328,10.061,0.328,15.131c0,44.543-8.339,87.134-23.524,126.313L446.582,169.382z"/>
	<path style="fill:#FF7F5C;" d="M246.303,467.795c3.223,0.149,6.464,0.231,9.724,0.231s6.501-0.085,9.725-0.232l42.063-69.413
		c-19.808,22.628-42.487,42.677-67.468,59.585L246.303,467.795z"/>
</g>
<g>
	<path style="fill:#FF7955;" d="M64.741,168.221l54.453,89.861l33.341-55.095l-88.987-42.173
		C62.995,163.205,63.293,165.832,64.741,168.221z"/>
	<path style="fill:#FF7955;" d="M247.506,469.825c1.193,1.969,2.897,3.326,4.795,4.082l2.801-109.188h-71.288L247.506,469.825z"/>
</g>
<path style="fill:#FF7F5C;" d="M252.019,467.996l0.487-18.987c-4.138,3.075-8.344,6.063-12.62,8.956l5.957,9.83
	C247.894,467.89,249.952,467.961,252.019,467.996z"/>
<path style="fill:#FF554D;" d="M255.102,364.719l-3.098,109.051c4.315,1.887,9.746,0.583,12.49-3.945l63.692-105.106H255.102z"/>
<path style="fill:#F44D4D;" d="M252.702,449.185l-0.534,18.804c1.275,0.024,2.552,0.037,3.832,0.037
	c3.261,0,6.501-0.085,9.725-0.232l42.063-69.413C291.305,417.209,272.833,434.251,252.702,449.185z"/>
<path style="fill:#FF554D;" d="M447.942,159.199l-88.477,43.788l33.341,55.095l54.453-89.861
	C449.042,165.279,449.099,161.973,447.942,159.199z"/>
<path style="fill:#F44D4D;" d="M392.805,258.082l53.75-88.699c-1.2-2.576-2.458-5.119-3.758-7.638l-48.977,24.239
	c-1.031,20.552-3.846,40.633-8.276,60.1L392.805,258.082z"/>
<polygon style="fill:#FFB864;" points="119.211,258.082 183.83,364.719 328.202,364.719 392.821,258.082 329.258,153.046 
	182.773,153.046 "/>
<path style="fill:#FF9B50;" d="M392.813,258.095l-7.269-12.011c-3.792,16.664-8.787,32.87-14.864,48.536L392.813,258.095z"/>
<path style="fill:#ED5A5A;" d="M247.871,326.315l-61.496-61.754c-3.993-4.01-3.993-10.512,0-14.522l61.496-61.754
	c3.993-4.01,10.468-4.01,14.461,0l61.496,61.754c3.993,4.01,3.993,10.512,0,14.522l-61.496,61.754
	C258.339,330.325,251.864,330.325,247.871,326.315z"/>
<ellipse style="fill:#FFCF65;" cx="255.1" cy="257.3" rx="20.711" ry="20.798"/>
<path style="fill:#AA4141;" d="M256,0C114.615,0,0,114.615,0,256s114.615,256,256,256s256-114.615,256-256S397.385,0,256,0z
	 M256,468.026c-116.029,0-210.089-94.06-210.089-210.088S139.971,47.849,256,47.849s210.089,94.06,210.089,210.089
	S372.029,468.026,256,468.026z"/>
<path style="fill:#963737;" d="M362.957,23.363c10.059,22.08,17.872,45.394,23.185,69.646
	c48.694,38.476,79.947,98.051,79.947,164.929c0,116.029-94.06,210.088-210.089,210.088c-9.597,0-19.038-0.657-28.293-1.903
	c-19.203,11.829-39.633,21.853-61.06,29.836C194.467,506.323,224.569,512,256,512c141.385,0,256-114.615,256-256
	C512,152.799,450.926,63.875,362.957,23.363z"/>
<g>
</g>
<g>
</g>
<g>
</g>
<g>
</g>
<g>
</g>
<g>
</g>
<g>
</g>
<g>
</g>
<g>
</g>
<g>
</g>
<g>
</g>
<g>
</g>
<g>
</g>
<g>
</g>
<g>
</g>
</svg>
