<?xml version="1.0" encoding="iso-8859-1"?>
<!-- Generator: Adobe Illustrator 19.0.0, SVG Export Plug-In . SVG Version: 6.00 Build 0)  -->
<svg version="1.1" id="Capa_1" xmlns="http://www.w3.org/2000/svg" xmlns:xlink="http://www.w3.org/1999/xlink" x="0px" y="0px"
	 viewBox="0 0 512 512" style="enable-background:new 0 0 512 512;" xml:space="preserve">
<path style="fill:#AA4141;" d="M501.577,512H10.423C4.667,512,0,507.333,0,501.577V10.423C0,4.667,4.667,0,10.423,0h491.153
	C507.333,0,512,4.667,512,10.423v491.153C512,507.333,507.333,512,501.577,512z"/>
<path style="fill:#963737;" d="M501.577,0H369.648c14.212,41.877,21.922,86.757,21.922,133.438
	c0,168.52-100.453,313.575-244.745,378.562h354.751c5.757,0,10.423-4.667,10.423-10.423V10.424C512,4.667,507.333,0,501.577,0z"/>
<path style="fill:#FFEBBE;" d="M455.64,469.66H56.36c-5.757,0-10.423-4.667-10.423-10.423V59.956
	c0-5.757,4.667-10.423,10.423-10.423h399.28c5.757,0,10.423,4.667,10.423,10.423v399.28
	C466.063,464.993,461.397,469.66,455.64,469.66z"/>
<path style="fill:#F7DBB5;" d="M455.64,49.533h-72.569c5.565,27.1,8.499,55.159,8.499,83.906
	c0,138.319-67.685,260.818-171.729,336.221H455.64c5.757,0,10.423-4.666,10.423-10.423V59.956
	C466.063,54.2,461.397,49.533,455.64,49.533z"/>
<path style="fill:#FFCF65;" d="M248.63,171.534l-49.185-49.185c-4.071-4.071-4.071-10.67,0-14.741l49.185-49.185
	c4.071-4.071,10.67-4.071,14.741,0l49.185,49.185c4.071,4.071,4.071,10.67,0,14.741l-49.185,49.185
	C259.3,175.604,252.7,175.604,248.63,171.534z"/>
<path style="fill:#ED5A5A;" d="M248.753,319.123l-49.185-49.185c-4.071-4.071-4.071-10.67,0-14.741l49.185-49.185
	c4.071-4.071,10.67-4.071,14.741,0l49.185,49.185c4.071,4.071,4.071,10.67,0,14.741l-49.185,49.185
	C259.423,323.193,252.823,323.193,248.753,319.123z"/>
<path style="fill:#FFCF65;" d="M248.63,466.711l-49.185-49.185c-4.071-4.071-4.071-10.67,0-14.741L248.63,353.6
	c4.071-4.071,10.67-4.071,14.741,0l49.185,49.185c4.071,4.071,4.071,10.67,0,14.741l-49.185,49.185
	C259.3,470.782,252.7,470.782,248.63,466.711z"/>
<path style="fill:#FF9B50;" d="M263.37,466.711l49.185-49.185c4.07-4.071,4.07-10.67,0-14.741l-11.122-11.122
	c-18.822,23.643-40.171,45.182-63.638,64.215l10.833,10.833c1.679,1.679,3.791,2.655,5.976,2.948h2.789
	C259.58,469.366,261.691,468.391,263.37,466.711z"/>
<g>
	<path style="fill:#FFB450;" d="M98.352,319.123l-49.185-49.185c-4.071-4.071-4.071-10.67,0-14.741l49.185-49.185
		c4.071-4.071,10.67-4.071,14.741,0l49.185,49.185c4.071,4.071,4.071,10.67,0,14.741l-49.185,49.185
		C109.022,323.193,102.423,323.193,98.352,319.123z"/>
	<path style="fill:#FFB450;" d="M399.154,319.123l-49.185-49.185c-4.071-4.071-4.071-10.67,0-14.741l49.185-49.185
		c4.071-4.071,10.67-4.071,14.741,0l49.185,49.185c4.071,4.071,4.071,10.67,0,14.741l-49.185,49.185
		C409.824,323.193,403.224,323.193,399.154,319.123z"/>
</g>
<path style="fill:#FF9B50;" d="M466.029,263.716v-2.299c-0.251-2.272-1.241-4.478-2.984-6.221L413.86,206.01
	c-4.071-4.07-10.67-4.07-14.741,0l-17.368,17.369c-4.57,20.677-10.684,40.772-18.212,60.163l35.58,35.58
	c4.07,4.07,10.67,4.07,14.741,0l49.185-49.186C464.788,268.195,465.778,265.989,466.029,263.716z"/>
<g>
	<path style="fill:#FF915A;" d="M256.123,330.061c-4.89,0-9.488-1.905-12.945-5.362l0,0c-0.001-0.001-0.001-0.001-0.001-0.001
		l-49.185-49.185c-3.458-3.458-5.362-8.055-5.362-12.946c0-4.891,1.905-9.489,5.363-12.947l49.185-49.186
		c3.457-3.458,8.055-5.362,12.945-5.362c4.891,0,9.489,1.905,12.947,5.363l49.186,49.185c3.458,3.458,5.362,8.055,5.362,12.947
		c0,4.89-1.905,9.488-5.363,12.946l-49.185,49.186C265.611,328.157,261.014,330.061,256.123,330.061z M256.123,210.842
		c-0.392,0-1.147,0.096-1.794,0.743l-49.186,49.187c-0.647,0.646-0.743,1.401-0.743,1.795c0,0.392,0.096,1.148,0.743,1.794
		l49.187,49.186v0.001c0.647,0.647,1.401,0.743,1.794,0.743c0.393,0,1.148-0.096,1.795-0.743l49.186-49.187
		c0.648-0.647,0.744-1.401,0.744-1.794s-0.096-1.148-0.743-1.795l-49.187-49.186C257.271,210.939,256.516,210.842,256.123,210.842z"
		/>
	<path style="fill:#FF915A;" d="M243.054,52.847l-49.186,49.186c-7.138,7.139-7.138,18.753,0.001,25.892l49.186,49.185
		c3.457,3.458,8.055,5.362,12.945,5.362s9.488-1.905,12.947-5.362l49.186-49.185c7.139-7.139,7.139-18.755,0-25.893l-49.186-49.185
		c-1.352-1.352-2.883-2.457-4.532-3.314h-16.828C245.936,50.389,244.406,51.494,243.054,52.847z M257.794,63.998l49.186,49.185
		c0.648,0.647,0.744,1.402,0.744,1.795s-0.096,1.148-0.744,1.795l-49.186,49.185c-0.647,0.648-1.401,0.744-1.795,0.744
		c-0.392,0-1.147-0.097-1.794-0.743c0,0,0,0,0-0.001l-49.186-49.184c-0.99-0.991-0.99-2.601-0.001-3.59l49.186-49.186
		c0.647-0.647,1.401-0.743,1.794-0.743C256.393,63.254,257.147,63.351,257.794,63.998z"/>
	<path style="fill:#FF915A;" d="M318.132,423.102c7.139-7.139,7.139-18.755,0-25.893l-49.186-49.185
		c-3.459-3.458-8.056-5.362-12.947-5.362s-9.488,1.905-12.945,5.362l-49.186,49.186c-7.138,7.139-7.138,18.753,0.001,25.892
		l46.558,46.557h31.148L318.132,423.102z M254.206,461.136l-49.186-49.185c-0.99-0.991-0.99-2.601-0.001-3.59l49.186-49.186
		c0.647-0.647,1.401-0.743,1.794-0.743s1.148,0.097,1.795,0.744l49.186,49.185c0.648,0.647,0.744,1.402,0.744,1.795
		c0,0.392-0.096,1.148-0.744,1.795l-49.185,49.186C256.805,462.126,255.194,462.126,254.206,461.136z"/>
</g>
<path style="fill:#FF7955;" d="M318.132,397.209l-11.808-11.808c-3.217,4.204-6.517,8.34-9.889,12.415l10.545,10.545
	c0.648,0.647,0.744,1.402,0.744,1.795c0,0.392-0.096,1.148-0.744,1.795l-49.185,49.186c-0.99,0.99-2.602,0.99-3.589,0
	l-10.302-10.302c-4.04,3.406-8.151,6.73-12.321,9.983l8.843,8.843h31.148l46.558-46.557
	C325.271,415.964,325.271,404.348,318.132,397.209z"/>
<path style="fill:#FF915A;" d="M466.063,247.028l-46.593-46.593c-7.14-7.138-18.754-7.138-25.893,0l-49.184,49.186
	c-3.459,3.458-5.363,8.055-5.363,12.947c0,4.89,1.905,9.488,5.362,12.946l49.185,49.186c3.57,3.569,8.258,5.353,12.947,5.353
	s9.377-1.784,12.947-5.353l46.593-46.594L466.063,247.028L466.063,247.028z M408.319,313.547c-0.99,0.99-2.6,0.99-3.589,0
	l-49.186-49.186c-0.647-0.647-0.743-1.401-0.743-1.794s0.096-1.148,0.744-1.795l49.185-49.186c0.647-0.648,1.402-0.744,1.795-0.744
	c0.392,0,1.148,0.096,1.795,0.744l49.186,49.186c0.647,0.647,0.743,1.401,0.743,1.795c0,0.392-0.097,1.147-0.744,1.794
	L408.319,313.547z"/>
<path style="fill:#FF7955;" d="M393.578,200.435l-8.941,8.941c-1.791,9.684-3.928,19.247-6.379,28.683l26.471-26.472
	c0.647-0.648,1.402-0.744,1.795-0.744c0.392,0,1.148,0.096,1.795,0.744l49.186,49.186c0.647,0.647,0.743,1.401,0.743,1.795
	c0,0.392-0.097,1.147-0.744,1.794l-49.185,49.186c-0.99,0.99-2.6,0.99-3.589,0l-38.101-38.102
	c-1.97,5.409-4.051,10.765-6.237,16.067l33.186,33.187c3.57,3.569,8.258,5.353,12.947,5.353s9.377-1.784,12.947-5.353l46.593-46.594
	V247.03l-46.593-46.593C412.331,193.297,400.717,193.297,393.578,200.435z"/>
<g>
	<path style="fill:#FF915A;" d="M45.937,277.858l46.84,46.839c0,0,0,0,0.001,0.001c3.458,3.458,8.055,5.362,12.946,5.362
		s9.488-1.905,12.946-5.362l49.185-49.186c3.458-3.458,5.363-8.055,5.363-12.946c0-4.891-1.905-9.489-5.362-12.947l-49.185-49.186
		c-3.458-3.458-8.056-5.362-12.946-5.362c-4.891,0-9.488,1.905-12.946,5.362l-46.84,46.841v30.584H45.937z M103.928,211.586
		c0.647-0.647,1.401-0.743,1.794-0.743s1.148,0.096,1.795,0.744l49.186,49.186c0.646,0.646,0.743,1.401,0.743,1.795
		c0,0.392-0.096,1.148-0.743,1.794l-49.185,49.186c-0.647,0.648-1.402,0.744-1.795,0.744s-1.147-0.096-1.794-0.743l-0.001-0.001
		l-49.186-49.186c-0.646-0.646-0.743-1.401-0.743-1.794s0.097-1.149,0.743-1.795L103.928,211.586z"/>
	<path style="fill:#FF915A;" d="M466.059,459.333L266.481,260.426L466.063,61.819v-1.863c0-5.624-4.457-10.195-10.03-10.403
		L255.311,249.294L54.979,49.635c-5.102,0.677-9.042,5.034-9.042,10.321v2.932l198.195,197.529L45.937,457.643v1.593
		c0,5.711,4.594,10.343,10.288,10.416L255.302,271.55l198.779,198.11h1.56C461.364,469.66,466.006,465.045,466.059,459.333z"/>
</g>
<g>
	<path style="fill:#FF7955;" d="M455.64,469.66c5.724,0,10.366-4.615,10.418-10.327L340.077,333.775
		c-2.633,4.766-5.352,9.478-8.164,14.128L454.081,469.66H455.64z"/>
	<path style="fill:#FF7955;" d="M456.033,49.553l-64.918,64.601c0.293,6.393,0.455,12.82,0.455,19.285
		c0,0.846-0.018,1.688-0.024,2.533l74.517-74.152v-1.863C466.063,54.332,461.606,49.761,456.033,49.553z"/>
</g>
<g>
</g>
<g>
</g>
<g>
</g>
<g>
</g>
<g>
</g>
<g>
</g>
<g>
</g>
<g>
</g>
<g>
</g>
<g>
</g>
<g>
</g>
<g>
</g>
<g>
</g>
<g>
</g>
<g>
</g>
</svg>
