<?xml version="1.0" encoding="iso-8859-1"?>
<!-- Generator: Adobe Illustrator 19.0.0, SVG Export Plug-In . SVG Version: 6.00 Build 0)  -->
<svg version="1.1" id="Capa_1" xmlns="http://www.w3.org/2000/svg" xmlns:xlink="http://www.w3.org/1999/xlink" x="0px" y="0px"
	 viewBox="0 0 512 512" style="enable-background:new 0 0 512 512;" xml:space="preserve">
<path style="fill:#FFEBBE;" d="M249.025,1.869L39.403,122.894c-4.316,2.492-6.975,7.097-6.975,12.08v242.051
	c0,4.984,2.659,9.589,6.975,12.08l209.622,121.026c4.316,2.492,9.633,2.492,13.949,0l209.622-121.026
	c4.316-2.492,6.975-7.097,6.975-12.08V134.974c0-4.984-2.659-9.589-6.975-12.08L262.975,1.869
	C258.659-0.623,253.341-0.623,249.025,1.869z"/>
<path style="fill:#F7DBB5;" d="M472.597,122.894L371.472,64.51c1.561,14.033,2.368,28.294,2.368,42.743
	c0,153.747-90.768,286.291-221.639,346.977l96.824,55.901c4.316,2.492,9.633,2.492,13.949,0l209.622-121.025
	c4.316-2.492,6.975-7.097,6.975-12.08V134.974C479.571,129.991,476.912,125.386,472.597,122.894z"/>
<path style="fill:#FFCF65;" d="M369.414,398.948c-1.424,0-2.853-0.382-4.126-1.155L256,331.397l-109.288,66.396
	c-2.856,1.733-6.492,1.498-9.099-0.591c-2.607-2.09-3.629-5.586-2.558-8.752l36.646-108.268L78.253,223.41
	c-3.047-1.852-4.489-5.505-3.528-8.937c0.961-3.433,4.09-5.807,7.655-5.807h113.526l52.762-155.882
	c1.093-3.228,4.122-5.401,7.53-5.401c0.002,0,0.003,0,0.004,0c3.41,0.002,6.439,2.178,7.528,5.408l52.575,155.875h113.313
	c3.565,0,6.694,2.373,7.655,5.807c0.961,3.432-0.481,7.085-3.528,8.937l-93.341,56.707l36.542,108.34
	c1.068,3.165,0.043,6.66-2.564,8.746C372.939,398.36,371.18,398.948,369.414,398.948z"/>
<path style="fill:#FFB864;" d="M429.619,208.667h-69.393c-14.42,52.533-39.764,100.54-73.443,141.432l78.504,47.693
	c1.274,0.773,2.703,1.155,4.126,1.155c1.766,0,3.525-0.588,4.969-1.744c2.607-2.087,3.632-5.581,2.564-8.746l-36.542-108.34
	l93.341-56.707c3.047-1.852,4.489-5.505,3.528-8.937C436.313,211.04,433.184,208.667,429.619,208.667z"/>
<path style="fill:#FF915A;" d="M369.414,398.948c-1.424,0-2.853-0.382-4.126-1.155L256,331.397l-109.288,66.396
	c-2.856,1.733-6.492,1.498-9.099-0.591c-2.607-2.09-3.629-5.586-2.558-8.752l36.646-108.268L78.253,223.41
	c-3.047-1.852-4.489-5.505-3.528-8.937c0.961-3.433,4.09-5.807,7.655-5.807h113.526l52.762-155.882
	c1.093-3.228,4.122-5.401,7.53-5.401c0.002,0,0.003,0,0.004,0c3.41,0.002,6.439,2.178,7.528,5.408l52.575,155.875h113.313
	c3.565,0,6.694,2.373,7.655,5.807c0.961,3.432-0.481,7.085-3.528,8.937l-93.341,56.707l36.542,108.34
	c1.068,3.165,0.043,6.66-2.564,8.746C372.939,398.36,371.18,398.948,369.414,398.948z M271.31,322.095l83.608,50.795l-28.437-84.313
	L271.31,322.095z M185.622,288.64l-28.509,84.231l83.577-50.776L185.622,288.64z M190.845,273.21L256,312.794l65.273-39.656
	l-16.383-48.573h-97.58L190.845,273.21z M110.776,224.565l66.148,40.187l13.602-40.187L110.776,224.565L110.776,224.565z
	 M321.668,224.565l13.53,40.113l66.026-40.113H321.668z M212.692,208.667h86.836L256.186,80.166L212.692,208.667z"/>
<path style="fill:#FF7955;" d="M429.664,208.667h-69.393c-1.467,5.346-3.036,10.649-4.727,15.899h45.725l-59.431,36.106
	c-4.466,10.179-9.363,20.125-14.668,29.818l27.792,82.4l-58.199-35.358c-3.222,4.263-6.541,8.447-9.935,12.568l78.504,47.693
	c1.274,0.773,2.703,1.155,4.126,1.155c1.766,0,3.525-0.588,4.969-1.744c2.607-2.087,3.632-5.581,2.564-8.746l-36.542-108.34
	l93.341-56.707c3.047-1.852,4.489-5.505,3.528-8.937C436.358,211.04,433.229,208.667,429.664,208.667z"/>
<path style="fill:#AA4141;" d="M249.025,1.869L39.403,122.894c-4.316,2.492-6.975,7.097-6.975,12.08v242.051
	c0,4.984,2.659,9.589,6.975,12.08l209.622,121.026c4.316,2.492,9.633,2.492,13.949,0l209.622-121.026
	c4.316-2.492,6.975-7.097,6.975-12.08V134.974c0-4.984-2.659-9.589-6.975-12.08L262.975,1.869
	C258.659-0.623,253.341-0.623,249.025,1.869z M423.233,359.926l-160.847,92.865c-3.952,2.282-8.821,2.282-12.772,0L88.767,359.926
	c-3.952-2.282-6.386-6.498-6.386-11.061v-185.73c0-4.563,2.434-8.78,6.386-11.061l160.847-92.865c3.952-2.282,8.821-2.282,12.772,0
	l160.847,92.865c3.952,2.282,6.386,6.498,6.386,11.061v185.73C429.619,353.428,427.185,357.645,423.233,359.926z"/>
<g>
	<circle style="fill:#963737;" cx="161.16" cy="165.56" r="7.949"/>
	<circle style="fill:#963737;" cx="123.71" cy="309" r="7.949"/>
	<circle style="fill:#963737;" cx="256" cy="391" r="7.949"/>
	<circle style="fill:#963737;" cx="387.43" cy="309" r="7.949"/>
	<circle style="fill:#963737;" cx="350.53" cy="165.56" r="7.949"/>
	<path style="fill:#963737;" d="M472.597,122.894L371.472,64.51c1.561,14.033,2.368,28.294,2.368,42.743
		c0,5.397-0.118,10.766-0.339,16.108l49.732,28.713c3.952,2.281,6.386,6.498,6.386,11.061v185.73c0,4.564-2.434,8.78-6.386,11.061
		l-160.847,92.865c-3.952,2.282-8.821,2.282-12.772,0l-46.701-26.963c-16.089,10.695-33.033,20.205-50.711,28.402l96.824,55.901
		c4.316,2.492,9.633,2.492,13.949,0l209.622-121.025c4.316-2.492,6.975-7.097,6.975-12.08V134.974
		C479.571,129.991,476.912,125.386,472.597,122.894z"/>
</g>
<g>
</g>
<g>
</g>
<g>
</g>
<g>
</g>
<g>
</g>
<g>
</g>
<g>
</g>
<g>
</g>
<g>
</g>
<g>
</g>
<g>
</g>
<g>
</g>
<g>
</g>
<g>
</g>
<g>
</g>
</svg>
