<?xml version="1.0" encoding="iso-8859-1"?>
<!-- Generator: Adobe Illustrator 19.0.0, SVG Export Plug-In . SVG Version: 6.00 Build 0)  -->
<svg version="1.1" id="Capa_1" xmlns="http://www.w3.org/2000/svg" xmlns:xlink="http://www.w3.org/1999/xlink" x="0px" y="0px"
	 viewBox="0 0 512 512" style="enable-background:new 0 0 512 512;" xml:space="preserve">
<path style="fill:#AA4141;" d="M256,0C114.615,0,0,114.615,0,256s114.615,256,256,256s256-114.615,256-256S397.385,0,256,0z"/>
<path style="fill:#963737;" d="M336.599,12.961c30.649,48.586,48.399,106.123,48.399,167.814
	c0,148.115-102.24,272.33-239.991,305.978C178.583,502.933,216.233,512,256,512c141.385,0,256-114.615,256-256
	C512,142.777,438.491,46.735,336.599,12.961z"/>
<path style="fill:#FFEBBE;" d="M257.938,468.026c-116.029,0-210.089-94.06-210.089-210.089s94.06-210.089,210.089-210.089
	s210.089,94.06,210.089,210.089S373.966,468.026,257.938,468.026z"/>
<path style="fill:#F7DBB5;" d="M368.199,79.09c10.881,31.9,16.798,66.099,16.798,101.684c0,123.426-71.004,230.243-174.384,281.898
	c15.21,3.502,31.05,5.353,47.323,5.353c116.029,0,210.089-94.06,210.089-210.088C468.026,182.352,428.102,116.1,368.199,79.09z"/>
<path style="fill:#FFCF65;" d="M248.635,461.197L71.432,169.992c-3.909-6.425,0.715-14.652,8.236-14.652h354.406
	c7.521,0,12.145,8.228,8.236,14.652L265.107,461.197C261.351,467.369,252.391,467.369,248.635,461.197z"/>
<g>
	<path style="fill:#FFB864;" d="M239.538,446.247l9.097,14.95c3.756,6.172,12.716,6.172,16.471,0l51.098-83.971
		C294.639,404.207,268.733,427.569,239.538,446.247z"/>
	<path style="fill:#FFB864;" d="M442.31,169.992c3.909-6.425-0.715-14.652-8.236-14.652h-50.1c0.672,8.39,1.023,16.871,1.023,25.435
		c0,45.523-9.669,88.781-27.049,127.851L442.31,169.992z"/>
</g>
<path style="fill:#FF915A;" d="M449.907,172.482c-3.831-8.593-8.224-16.88-13.129-24.818c-0.884-0.133-1.785-0.209-2.704-0.209
	H79.668c-0.151,0-0.299,0.011-0.449,0.014c-5.362,8.657-10.113,17.731-14.192,27.165l176.872,290.66
	c0.483,0.795,1.027,1.534,1.613,2.228c4.768,0.323,9.576,0.503,14.426,0.503c4.086,0,8.142-0.129,12.17-0.359
	c0.633-0.735,1.218-1.523,1.735-2.372L449.046,174.09C449.366,173.565,449.646,173.027,449.907,172.482z M435.574,165.894
	L258.37,457.098c-0.424,0.697-1.049,0.843-1.499,0.843c-0.45,0-1.075-0.146-1.499-0.843L78.168,165.894
	c-0.441-0.726-0.26-1.364-0.031-1.773c0.229-0.409,0.682-0.895,1.531-0.895h354.406c0.849,0,1.301,0.487,1.531,0.895
	C435.834,164.529,436.015,165.168,435.574,165.894z"/>
<path style="fill:#FFEBBE;" d="M256,202.58c-51.315,0-94.985,32.707-111.318,78.41C161.015,326.692,204.685,359.4,256,359.4
	s94.985-32.707,111.318-78.41C350.985,235.287,307.315,202.58,256,202.58z"/>
<path style="fill:#FF915A;" d="M256,367.284c-53.145,0-100.864-33.613-118.743-83.641c-0.613-1.717-0.613-3.591,0-5.308
	c17.879-50.028,65.598-83.641,118.743-83.641s100.864,33.613,118.743,83.641c0.613,1.717,0.613,3.591,0,5.308
	C356.864,333.671,309.145,367.284,256,367.284z M153.094,280.989c16.355,42.303,57.351,70.525,102.906,70.525
	s86.55-28.222,102.906-70.525C342.55,238.686,301.554,210.465,256,210.465S169.449,238.686,153.094,280.989z"/>
<path style="fill:#FF7955;" d="M264.829,467.916c1.881-0.061,3.758-0.141,5.627-0.247c0.019-0.001,0.038-0.003,0.056-0.004
	c0.633-0.734,1.217-1.522,1.734-2.371L449.449,174.09c0.32-0.526,0.6-1.064,0.861-1.608c-3.831-8.593-8.224-16.88-13.129-24.818
	c-0.884-0.133-1.785-0.209-2.704-0.209h-50.826c0.55,5.219,0.961,10.478,1.252,15.77h49.574c0.849,0,1.301,0.487,1.531,0.895
	c0.229,0.409,0.41,1.047-0.031,1.773L372.53,270.158c-15.661,53.001-44.895,100.172-83.674,137.504l-30.083,49.436
	c-0.424,0.697-1.049,0.843-1.499,0.843c-0.45,0-1.075-0.146-1.499-0.843l-9.243-15.19c-4.353,2.941-8.783,5.776-13.287,8.502
	l9.058,14.885c0.482,0.793,1.024,1.53,1.608,2.223c0.165,0.011,0.329,0.024,0.494,0.035c0.994,0.066,1.989,0.127,2.987,0.179
	c1.357,0.07,2.717,0.13,4.08,0.174c0.59,0.02,1.183,0.033,1.774,0.048c1.694,0.041,3.391,0.072,5.095,0.072
	c2.013,0,4.018-0.033,6.016-0.092C264.514,467.93,264.671,467.921,264.829,467.916z"/>
<g>
	<circle style="fill:#AA4141;" cx="256" cy="280.99" r="33.02"/>
	<path style="fill:#AA4141;" d="M257.467,174.305c4.355,0,7.885-3.53,7.885-7.885V95.124c0-4.355-3.53-7.885-7.885-7.885
		c-4.355,0-7.885,3.53-7.885,7.885v71.296C249.582,170.775,253.112,174.305,257.467,174.305z"/>
	<path style="fill:#AA4141;" d="M292.395,177.282c0.678,0.18,1.358,0.266,2.028,0.266c3.489,0,6.679-2.334,7.616-5.864
		l17.266-65.068c1.117-4.209-1.39-8.527-5.599-9.644c-4.21-1.113-8.527,1.391-9.644,5.599l-17.266,65.068
		C285.679,171.848,288.186,176.165,292.395,177.282z"/>
	<path style="fill:#AA4141;" d="M324.521,189.328c1.377,0.964,2.955,1.428,4.518,1.428c2.485,0,4.93-1.171,6.464-3.361
		l30.996-44.237c2.499-3.567,1.634-8.484-1.933-10.983c-3.565-2.497-8.483-1.635-10.982,1.933l-30.996,44.237
		C320.09,181.912,320.955,186.829,324.521,189.328z"/>
	<path style="fill:#AA4141;" d="M352.582,212.32c1.554,1.676,3.665,2.523,5.782,2.523c1.919,0,3.843-0.696,5.361-2.105
		l36.759-34.104c3.193-2.962,3.379-7.951,0.417-11.143c-2.961-3.193-7.95-3.381-11.143-0.418l-36.759,34.104
		C349.807,204.139,349.62,209.128,352.582,212.32z"/>
	<path style="fill:#AA4141;" d="M374.623,241.686c1.458,2.539,4.113,3.96,6.845,3.96c1.332,0,2.681-0.338,3.919-1.048l30.159-17.315
		c3.777-2.168,5.08-6.987,2.912-10.764c-2.168-3.776-6.987-5.079-10.764-2.912l-30.159,17.315
		C373.759,233.091,372.455,237.909,374.623,241.686z"/>
	<path style="fill:#AA4141;" d="M419.741,265.361h-28.873c-4.355,0-7.885,3.53-7.885,7.885s3.53,7.885,7.885,7.885h28.873
		c4.355,0,7.885-3.53,7.885-7.885S424.095,265.361,419.741,265.361z"/>
	<path style="fill:#AA4141;" d="M215.361,171.683c0.937,3.532,4.127,5.864,7.616,5.864c0.669,0,1.35-0.086,2.028-0.266
		c4.209-1.117,6.716-5.434,5.599-9.644l-17.266-65.068c-1.117-4.209-5.435-6.715-9.644-5.599c-4.209,1.117-6.716,5.434-5.599,9.644
		L215.361,171.683z"/>
	<path style="fill:#AA4141;" d="M181.896,187.395c1.534,2.19,3.979,3.361,6.464,3.361c1.563,0,3.141-0.464,4.518-1.428
		c3.567-2.499,4.432-7.416,1.933-10.983l-30.996-44.237c-2.498-3.567-7.415-4.43-10.982-1.933
		c-3.567,2.499-4.432,7.416-1.933,10.983L181.896,187.395z"/>
	<path style="fill:#AA4141;" d="M153.674,212.738c1.518,1.409,3.442,2.105,5.361,2.105c2.118,0,4.229-0.848,5.782-2.523
		c2.962-3.192,2.775-8.181-0.417-11.143l-36.759-34.104c-3.193-2.963-8.182-2.774-11.143,0.418
		c-2.962,3.192-2.775,8.181,0.417,11.143L153.674,212.738z"/>
	<path style="fill:#AA4141;" d="M101.853,227.283l30.159,17.315c1.238,0.71,2.587,1.048,3.919,1.048c2.732,0,5.388-1.421,6.845-3.96
		c2.168-3.777,0.864-8.595-2.912-10.764l-30.159-17.315c-3.777-2.168-8.595-0.864-10.764,2.912
		C96.773,220.296,98.076,225.115,101.853,227.283z"/>
	<path style="fill:#AA4141;" d="M134.417,273.246c0-4.355-3.53-7.885-7.885-7.885H97.659c-4.355,0-7.885,3.53-7.885,7.885
		s3.53,7.885,7.885,7.885h28.873C130.887,281.131,134.417,277.601,134.417,273.246z"/>
	<path style="fill:#AA4141;" d="M398.285,391.309c-0.451-5.865-6.935-9.274-11.901-6.123c-5.214,3.309-8.711,8.361-11.558,12.491
		c-4.509,6.542-6.759,9.206-10.901,9.206c-4.143,0-6.391-2.664-10.9-9.205c-4.662-6.764-11.046-16.027-23.885-16.027
		c-12.838,0-19.222,9.263-23.884,16.027c-4.508,6.541-6.756,9.205-10.897,9.205s-6.39-2.664-10.899-9.205
		c-4.661-6.764-11.045-16.027-23.883-16.027c-12.837,0-19.221,9.263-23.883,16.027c-4.508,6.541-6.756,9.205-10.897,9.205
		c-4.142,0-6.389-2.664-10.897-9.205c-4.662-6.764-11.046-16.027-23.883-16.027c-12.836,0-19.22,9.263-23.881,16.027
		c-4.507,6.541-6.755,9.205-10.895,9.205s-6.387-2.664-10.894-9.205c-2.846-4.129-6.341-9.181-11.553-12.49
		c-4.966-3.153-11.451,0.257-11.902,6.122c-0.004,0.052-0.008,0.105-0.012,0.158c-0.216,2.847,1.199,5.559,3.6,7.103
		c2.09,1.343,4.036,3.927,6.881,8.056c4.661,6.764,11.044,16.027,23.88,16.027s19.22-9.263,23.881-16.027
		c4.507-6.541,6.755-9.205,10.895-9.205c4.142,0,6.389,2.664,10.897,9.205c4.662,6.764,11.046,16.027,23.883,16.027
		c12.837,0,19.221-9.263,23.883-16.027c4.508-6.541,6.756-9.205,10.897-9.205c4.142,0,6.39,2.664,10.899,9.205
		c4.661,6.764,11.045,16.027,23.883,16.027c12.837,0,19.221-9.263,23.882-16.026c4.509-6.542,6.758-9.206,10.899-9.206
		c4.143,0,6.392,2.664,10.901,9.206c4.662,6.763,11.046,16.026,23.884,16.026s19.223-9.263,23.885-16.026
		c2.847-4.131,4.794-6.714,6.886-8.057c2.403-1.544,3.818-4.256,3.602-7.104C398.293,391.414,398.289,391.362,398.285,391.309z"/>
</g>
<g>
</g>
<g>
</g>
<g>
</g>
<g>
</g>
<g>
</g>
<g>
</g>
<g>
</g>
<g>
</g>
<g>
</g>
<g>
</g>
<g>
</g>
<g>
</g>
<g>
</g>
<g>
</g>
<g>
</g>
</svg>
