<?xml version="1.0" encoding="iso-8859-1"?>
<!-- Generator: Adobe Illustrator 19.0.0, SVG Export Plug-In . SVG Version: 6.00 Build 0)  -->
<svg version="1.1" id="Capa_1" xmlns="http://www.w3.org/2000/svg" xmlns:xlink="http://www.w3.org/1999/xlink" x="0px" y="0px"
	 viewBox="0 0 512 512" style="enable-background:new 0 0 512 512;" xml:space="preserve">
<path style="fill:#736F7B;" d="M256,485.453c-4.225,0-7.649-3.424-7.649-7.649V7.649C248.351,3.424,251.776,0,256,0
	c4.225,0,7.649,3.424,7.649,7.649v470.155C263.65,482.029,260.225,485.453,256,485.453z"/>
<circle style="fill:#FFCF65;" cx="256" cy="332.04" r="108.41"/>
<path style="fill:#FFB450;" d="M256,223.632c-6.727,0-13.309,0.618-19.696,1.79c50.469,9.264,88.714,53.474,88.714,106.621
	s-38.245,97.356-88.714,106.62c6.388,1.173,12.97,1.79,19.696,1.79c59.874,0,108.411-48.537,108.411-108.41
	C364.411,272.169,315.874,223.632,256,223.632z"/>
<path style="fill:#49BC6E;" d="M172.739,58.27c-6.388,0.101-8.022,8.876-2.107,11.29c24.97,10.193,57.067,20.217,95.416,25.362
	c19.182,2.573,36.989,3.531,52.964,3.541c10.563,0.007,19.108-8.602,19.108-19.165V47.445c0-13.701-13.941-22.942-26.585-17.665
	c-14.446,6.028-31.175,11.893-50.104,16.729C228.023,55.044,197.541,57.879,172.739,58.27z"/>
<g>
	<path style="fill:#3CA56D;" d="M311.536,29.779c-0.968,0.404-1.973,0.805-2.962,1.207c5.503,3.273,9.369,9.246,9.369,16.458v31.854
		c0,9.307-6.636,17.088-15.439,18.805c5.688,0.237,11.208,0.357,16.509,0.36c10.563,0.007,19.108-8.602,19.108-19.165V47.444
		C338.121,33.744,324.18,24.503,311.536,29.779z"/>
	<path style="fill:#3CA56D;" d="M367.561,70.982H338.12c-4.206,0-7.614-3.408-7.614-7.614s3.408-7.614,7.614-7.614h29.441
		c4.206,0,7.614,3.408,7.614,7.614S371.767,70.982,367.561,70.982z"/>
</g>
<path style="fill:#49BC6E;" d="M172.739,172.202c-6.388,0.101-8.022,8.876-2.107,11.29c24.97,10.193,57.067,20.217,95.416,25.362
	c19.182,2.573,36.989,3.531,52.964,3.541c10.563,0.007,19.108-8.602,19.108-19.165v-31.854c0-13.701-13.941-22.942-26.585-17.665
	c-14.446,6.028-31.175,11.893-50.104,16.729C228.023,168.977,197.541,171.811,172.739,172.202z"/>
<g>
	<path style="fill:#3CA56D;" d="M311.536,143.712c-0.971,0.405-1.98,0.807-2.971,1.211c5.5,3.274,9.362,9.245,9.362,16.455v31.854
		c0,9.305-6.635,17.086-15.436,18.804c5.692,0.237,11.217,0.357,16.522,0.361c10.563,0.007,19.108-8.602,19.108-19.164v-31.854
		C338.121,147.676,324.18,138.435,311.536,143.712z"/>
	<path style="fill:#3CA56D;" d="M367.561,184.914H338.12c-4.206,0-7.614-3.408-7.614-7.614s3.408-7.614,7.614-7.614h29.441
		c4.206,0,7.614,3.408,7.614,7.614C375.175,181.506,371.767,184.914,367.561,184.914z"/>
</g>
<path style="fill:#49BC6E;" d="M339.261,115.186c6.388,0.101,8.022,8.876,2.107,11.29c-24.97,10.193-57.067,20.217-95.416,25.362
	c-19.182,2.573-36.989,3.531-52.964,3.541c-10.563,0.007-19.108-8.602-19.108-19.165V104.36c0-13.701,13.941-22.942,26.585-17.665
	c14.446,6.028,31.175,11.893,50.104,16.729C283.977,111.96,314.46,114.795,339.261,115.186z"/>
<g>
	<path style="fill:#3CA56D;" d="M216.203,103.425c44.867,11.464,84.452,12.642,112.092,11.431
		c-22.604-0.99-49.087-4.114-77.727-11.431c-18.929-4.837-35.657-10.701-50.104-16.73c-8.042-3.356-16.602-0.834-21.773,4.967
		C190.034,95.901,202.536,99.932,216.203,103.425z"/>
	<path style="fill:#3CA56D;" d="M332.385,115.013c-26.806,13.308-67.836,29.72-120.799,36.825
		c-8.533,1.144-16.776,1.954-24.725,2.518c1.925,0.654,3.98,1.024,6.126,1.023c15.975-0.01,33.782-0.969,52.964-3.541
		c38.35-5.145,70.449-15.17,95.419-25.363c5.923-2.418,4.268-11.191-2.129-11.293C337.003,115.146,334.716,115.091,332.385,115.013z
		"/>
	<path style="fill:#3CA56D;" d="M173.879,127.899h-29.441c-4.206,0-7.614-3.408-7.614-7.614s3.408-7.614,7.614-7.614h29.441
		c4.206,0,7.614,3.408,7.614,7.614S178.085,127.899,173.879,127.899z"/>
</g>
<g>
	<path style="fill:#736F7B;" d="M246.761,497.265c-1.647,0-3.307-0.53-4.706-1.622c-3.328-2.603-3.917-7.409-1.315-10.738
		l9.234-11.812c2.601-3.328,7.408-3.917,10.738-1.316c3.328,2.603,3.917,7.409,1.315,10.738l-9.234,11.812
		C251.285,496.256,249.035,497.265,246.761,497.265z"/>
	<path style="fill:#736F7B;" d="M274.05,512c-2.967,0-5.79-1.737-7.034-4.636l-11.384-26.545c-1.665-3.882,0.133-8.38,4.015-10.045
		c3.883-1.668,8.38,0.132,10.045,4.015l11.384,26.545c1.665,3.882-0.133,8.38-4.015,10.045C276.079,511.801,275.056,512,274.05,512z
		"/>
</g>
<path style="fill:#ED5A5A;" d="M278.505,477.804h-45.009c-5.748,0-10.408-4.66-10.408-10.408v-16.534
	c0-5.748,4.66-10.408,10.408-10.408h45.009c5.748,0,10.408,4.66,10.408,10.408v16.534
	C288.913,473.144,284.253,477.804,278.505,477.804z"/>
<path style="fill:#E04B4B;" d="M278.505,440.453H258.81c5.748,0,10.408,4.66,10.408,10.408v16.534
	c0,5.748-4.66,10.408-10.408,10.408h19.696c5.749,0,10.408-4.66,10.408-10.408v-16.534
	C288.913,445.113,284.253,440.453,278.505,440.453z"/>
<g>
	<circle style="fill:#FFB450;" cx="201.13" cy="281.41" r="10.879"/>
	<circle style="fill:#FFB450;" cx="227.91" cy="270.54" r="3.95"/>
	<circle style="fill:#FFB450;" cx="222.73" cy="283.5" r="3.95"/>
</g>
<g>
</g>
<g>
</g>
<g>
</g>
<g>
</g>
<g>
</g>
<g>
</g>
<g>
</g>
<g>
</g>
<g>
</g>
<g>
</g>
<g>
</g>
<g>
</g>
<g>
</g>
<g>
</g>
<g>
</g>
</svg>
