<?xml version="1.0" encoding="iso-8859-1"?>
<!-- Generator: Adobe Illustrator 19.0.0, SVG Export Plug-In . SVG Version: 6.00 Build 0)  -->
<svg version="1.1" id="Capa_1" xmlns="http://www.w3.org/2000/svg" xmlns:xlink="http://www.w3.org/1999/xlink" x="0px" y="0px"
	 viewBox="0 0 512.001 512.001" style="enable-background:new 0 0 512.001 512.001;" xml:space="preserve">
<path style="fill:#EDEDEE;" d="M257.824,512h-3.646c-67.166,0-121.615-54.449-121.615-121.615v-141.31h246.876v141.31
	C379.439,457.551,324.99,512,257.824,512z"/>
<path style="fill:#DCDBDE;" d="M310.241,249.075v141.31c0,55.809-37.595,102.833-88.839,117.142
	c10.428,2.911,21.419,4.474,32.776,4.474h3.646c67.166,0,121.615-54.449,121.615-121.615v-141.31h-69.198V249.075z"/>
<path style="fill:#C1C2C4;" d="M379.667,305.999c-2.13-0.121-4.226-0.464-6.255-1.071c-10.059-3.011-20.776-1.47-29.372,4.214
	l-0.595,0.39c-9.911,6.491-15.828,17.375-15.828,29.115v31.997c0,26.267-21.369,47.636-47.636,47.636h-47.503
	c-26.267,0-47.636-21.369-47.636-47.636v-31.999c0-11.75-5.906-22.623-15.797-29.087c-0.456-0.298-0.91-0.598-1.364-0.901
	c-5.816-3.885-12.484-5.877-19.25-5.877c-3.757,0-7.546,0.615-11.234,1.862c-1.439,0.486-2.911,0.84-4.406,1.077v31.664
	c4.932-0.358,9.779-1.331,14.487-2.922c0.999-0.337,2.062-0.202,2.919,0.37c0.54,0.362,1.082,0.719,1.627,1.076
	c0.965,0.63,1.541,1.654,1.541,2.739v31.999c0,43.623,35.489,79.112,79.113,79.112h47.503c43.623,0,79.112-35.489,79.112-79.112
	v-31.997c0-1.088,0.596-2.128,1.584-2.775l0.698-0.458c1.117-0.74,2.366-0.526,3.009-0.332c4.967,1.486,10.09,2.295,15.283,2.433
	V305.999z"/>
<path style="fill:#EDEDEE;" d="M431.578,175.577c0-96.264-77.47-174.434-173.466-175.565C162.099-1.119,82.414,75.92,80.461,171.919
	c-0.565,27.773,5.339,54.103,16.278,77.618c-7.744,8.336-12.228,19.74-11.401,32.194c1.412,21.251,18.561,38.47,39.806,39.964
	c5.93,0.417,11.624-0.372,16.865-2.144c5.619-1.899,11.77-1.102,16.702,2.193c0.496,0.332,0.995,0.661,1.494,0.987
	c5.385,3.519,8.669,9.48,8.669,15.913v31.999c0,35,28.373,63.374,63.374,63.374h47.503c35.001,0,63.374-28.374,63.374-63.374
	v-31.997c0-6.452,3.314-12.413,8.712-15.948c0.21-0.137,0.42-0.275,0.629-0.414c4.79-3.167,10.702-3.927,16.203-2.28
	c4.623,1.384,9.574,2.011,14.707,1.737c21.512-1.149,39.082-18.44,40.547-39.932c0.784-11.501-2.96-22.115-9.621-30.246
	C425.363,228.567,431.578,202.801,431.578,175.577z"/>
<path style="fill:#DCDBDE;" d="M431.578,175.577c0-96.264-77.47-174.434-173.466-175.565c-7.55-0.089-14.999,0.307-22.317,1.156
	c87.395,10.073,155.254,84.314,155.254,174.409c0,27.027-6.096,45.981-6.096,45.981c-13.149,33.206-38.506,39.551-58.944,67.524
	c-11.263,15.415-23.265,40.454-23.411,81.562c0,35-28.374,63.374-63.374,63.374h40.528c35.001,0,63.374-28.374,63.374-63.374
	v-31.997c0-6.453,3.314-12.413,8.712-15.948c0.21-0.137,0.42-0.276,0.629-0.414c4.79-3.166,10.702-3.927,16.203-2.28
	c4.623,1.384,9.574,2.011,14.707,1.737c21.512-1.149,39.082-18.44,40.547-39.933c0.784-11.501-2.96-22.114-9.621-30.246
	C425.363,228.567,431.578,202.801,431.578,175.577z"/>
<path style="fill:#C1C2C4;" d="M246.035,234.966l-21.951,38.021c-4.429,7.672,1.107,17.261,9.966,17.261l17.561-8.529
	c2.772-1.346,6.008-1.346,8.78,0l17.561,8.529c8.858,0,14.395-9.59,9.966-17.261l-21.951-38.021
	C261.538,227.294,250.464,227.294,246.035,234.966z"/>
<path style="fill:#FFFFFF;" d="M168.875,370.645c0,35,28.373,63.374,63.374,63.374h47.503c35.001,0,63.374-28.374,63.374-63.374
	v-23.752H168.875V370.645z"/>
<path style="fill:#EDEDEE;" d="M279.752,434.019c0.517,0,1.028-0.027,1.543-0.039v-37.13h19.112v33.708
	c5.651-1.948,10.938-4.67,15.738-8.044V396.85h21.306c2.248-4.941,3.881-10.217,4.799-15.738h-26.106v-34.218h-15.738v34.218
	h-19.112v-34.218l0,0h-15.738l0,0v34.218h-19.112v-34.218h-15.738v34.218h-19.112v-34.218l0,0h-15.738l0,0v34.218h-26.105
	c0.918,5.521,2.552,10.798,4.799,15.738h21.306v25.663c4.8,3.374,10.087,6.096,15.738,8.044V396.85h19.112v37.13
	c0.514,0.012,1.025,0.039,1.543,0.039h14.196V396.85h19.112v37.169H279.752z"/>
<g>
	<circle style="fill:#C1C2C4;" cx="186.801" cy="164.58" r="51.773"/>
	<circle style="fill:#C1C2C4;" cx="325.201" cy="164.58" r="51.773"/>
</g>
<g>
	<path style="fill:#A5A5A5;" d="M325.199,156.184c-20.847,0-38.805,12.328-47.011,30.087c8.206,17.758,26.164,30.087,47.011,30.087
		s38.805-12.328,47.011-30.087C364.004,168.513,346.046,156.184,325.199,156.184z"/>
	<path style="fill:#A5A5A5;" d="M186.803,156.184c-20.847,0-38.805,12.328-47.011,30.087c8.206,17.758,26.164,30.087,47.011,30.087
		s38.805-12.328,47.011-30.087C225.608,168.513,207.65,156.184,186.803,156.184z"/>
	<path style="fill:#A5A5A5;" d="M247.71,271.639c-1.971,4.848-4.736,11.648-10.492,12.984c-0.42,0.097-4.627,1.013-6.951-1.443
		c-2.017-2.131-1.396-5.513-1.18-6.689c0.597-3.253,2.424-5.759,8.918-11.542c7.099-6.32,10.648-9.48,12.066-8.656
		C252.618,257.775,249.4,267.481,247.71,271.639z"/>
	<path style="fill:#A5A5A5;" d="M264.292,271.639c1.971,4.848,4.736,11.648,10.492,12.984c0.42,0.097,4.627,1.013,6.951-1.443
		c2.017-2.131,1.396-5.513,1.18-6.689c-0.597-3.253-2.424-5.759-8.918-11.542c-7.099-6.32-10.648-9.48-12.066-8.656
		C259.384,257.775,262.601,267.481,264.292,271.639z"/>
</g>
<g>
</g>
<g>
</g>
<g>
</g>
<g>
</g>
<g>
</g>
<g>
</g>
<g>
</g>
<g>
</g>
<g>
</g>
<g>
</g>
<g>
</g>
<g>
</g>
<g>
</g>
<g>
</g>
<g>
</g>
</svg>
