<?xml version="1.0" encoding="iso-8859-1"?>
<!-- Generator: Adobe Illustrator 19.0.0, SVG Export Plug-In . SVG Version: 6.00 Build 0)  -->
<svg version="1.1" id="Capa_1" xmlns="http://www.w3.org/2000/svg" xmlns:xlink="http://www.w3.org/1999/xlink" x="0px" y="0px"
	 viewBox="0 0 512 512" style="enable-background:new 0 0 512 512;" xml:space="preserve">
<path style="fill:#EDEDEE;" d="M455.773,0.477l-59.735,10.144c-15.493,2.631-30.124,8.956-42.654,18.44l-125.429,94.936v65.936
	l-37.456-28.197l-96.683,97.415c-9.216,9.286-14.388,21.839-14.388,34.922v124.051h123.833c13.213,0,25.878-5.274,35.186-14.652
	l39.67-39.971l-33.959-14.24l59.258-11.252l160.623-205.408c9.355-11.963,15.795-25.94,18.812-40.824l10.617-52.391
	C498.05,16.781,478.515-3.384,455.773,0.477z"/>
<path style="fill:#DCDBDE;" d="M455.773,0.477l-30.02,5.098c10.476,7.057,16.719,19.972,13.914,33.813L429.05,91.779
	c-3.016,14.884-9.457,28.861-18.812,40.824L249.615,338.012l-59.258,11.252l33.959,14.239l-39.67,39.971
	c-9.307,9.378-21.973,14.652-35.186,14.652h53.801c13.213,0,25.878-5.275,35.186-14.652l39.67-39.971l-33.959-14.239l59.258-11.252
	l160.623-205.408c9.355-11.963,15.796-25.94,18.812-40.824l10.617-52.391C498.05,16.781,478.515-3.385,455.773,0.477z"/>
<path style="fill:#B2B1B0;" d="M417.089,79.135c-3.027-3.04-7.944-3.049-10.982-0.021l-97.383,97.011v-61.713
	c0-4.289-3.477-7.765-7.765-7.765s-7.765,3.476-7.765,7.765v77.185l-46.053,45.878c-0.001,0.001-0.002,0.002-0.003,0.003
	L164.34,319.96v-61.163c0-4.289-3.477-7.765-7.765-7.765c-4.289,0-7.765,3.476-7.765,7.765v76.634L52.342,431.53
	c-10.867,10.833-19.121,24.272-23.869,38.864l-10.23,31.436c-1.327,4.078,0.903,8.46,4.981,9.787
	c0.798,0.26,1.608,0.383,2.404,0.383c3.272,0,6.315-2.085,7.383-5.364l10.23-31.436c3.992-12.267,10.931-23.564,20.064-32.669
	l192.534-191.799h68.659c4.289,0,7.765-3.476,7.765-7.765s-3.477-7.765-7.765-7.765h-53.069l145.64-145.084
	C420.107,87.089,420.116,82.173,417.089,79.135z"/>
<g>
</g>
<g>
</g>
<g>
</g>
<g>
</g>
<g>
</g>
<g>
</g>
<g>
</g>
<g>
</g>
<g>
</g>
<g>
</g>
<g>
</g>
<g>
</g>
<g>
</g>
<g>
</g>
<g>
</g>
</svg>
