<?xml version="1.0" encoding="iso-8859-1"?>
<!-- Generator: Adobe Illustrator 19.0.0, SVG Export Plug-In . SVG Version: 6.00 Build 0)  -->
<svg version="1.1" id="Capa_1" xmlns="http://www.w3.org/2000/svg" xmlns:xlink="http://www.w3.org/1999/xlink" x="0px" y="0px"
	 viewBox="0 0 512.001 512.001" style="enable-background:new 0 0 512.001 512.001;" xml:space="preserve">
<g>
	<rect x="89.4" y="32.56" style="fill:#EAE4D6;" width="32.646" height="446.88"/>
	<rect x="389.95" y="32.56" style="fill:#EAE4D6;" width="32.646" height="446.88"/>
</g>
<g>
	<path style="fill:#DBD4CA;" d="M389.952,316.096c5.204,1.41,10.673,2.176,16.323,2.176s11.119-0.766,16.323-2.176V195.904
		c-5.204-1.41-10.673-2.176-16.323-2.176s-11.119,0.766-16.323,2.176V316.096z"/>
	<path style="fill:#DBD4CA;" d="M89.402,316.096c5.204,1.41,10.673,2.176,16.323,2.176s11.119-0.766,16.323-2.176V195.904
		c-5.204-1.41-10.673-2.176-16.323-2.176s-11.119,0.766-16.323,2.176V316.096z"/>
</g>
<g>
	<circle style="fill:#CEC2AA;" cx="406.27" cy="256" r="40.808"/>
	<circle style="fill:#CEC2AA;" cx="105.72" cy="256" r="40.808"/>
</g>
<path style="fill:#AA4141;" d="M434.762,0H77.238C66.796,0,58.331,8.465,58.331,18.908l0,0c0,10.442,8.465,18.908,18.908,18.908
	h357.524c10.442,0,18.908-8.465,18.908-18.908l0,0C453.669,8.465,445.204,0,434.762,0z"/>
<path style="fill:#963737;" d="M434.762,0h-72.967c10.442,0,18.908,8.465,18.908,18.908l0,0c0,10.442-8.465,18.908-18.908,18.908
	h72.967c10.442,0,18.908-8.465,18.908-18.908l0,0C453.669,8.465,445.204,0,434.762,0z"/>
<path style="fill:#AA4141;" d="M434.762,474.185H77.238c-10.442,0-18.908,8.465-18.908,18.908l0,0
	c0,10.442,8.465,18.908,18.908,18.908h357.524c10.442,0,18.908-8.465,18.908-18.908l0,0
	C453.669,482.65,445.204,474.185,434.762,474.185z"/>
<path style="fill:#F9F6ED;" d="M354.636,37.815H157.364v112.789c0,18.547,7.316,36.345,20.36,49.529l35.953,36.341
	c10.702,10.817,10.702,28.233,0,39.05l-35.953,36.341c-13.044,13.185-20.36,30.983-20.36,49.529v112.789h197.272V361.331
	c0-18.508-7.286-36.273-20.283-49.451l-35.885-36.387c-10.661-10.81-10.661-28.178,0-38.988l35.885-36.387
	c12.996-13.178,20.283-30.942,20.283-49.451V37.815z"/>
<g>
	<path style="fill:#EAE4D6;" d="M170.522,320.432l15.36-15.526c1.711-1.729,3.145-3.628,4.309-5.641l-12.466,12.601
		C175.079,314.54,172.683,317.411,170.522,320.432z"/>
	<path style="fill:#EAE4D6;" d="M157.364,37.815v29.382h39.255c76.181,0,134.119,69.142,119.953,143.994
		c-0.951,5.027-1.965,8.551-3.039,10.041l20.821-21.112c12.996-13.178,20.283-30.942,20.283-49.451V37.815H157.364z"/>
	<path style="fill:#EAE4D6;" d="M298.468,275.494c-9.014-9.14-10.405-22.968-4.176-33.557l-23.62,23.95
		c-10.661,10.81-10.661,28.178,0,38.988l35.885,36.387c12.996,13.178,20.283,30.942,20.283,49.451v83.472h27.796V361.331
		c0-18.508-7.286-36.273-20.283-49.451L298.468,275.494z"/>
</g>
<path style="fill:#FFCF65;" d="M191.111,119.906c5.331-4.564,13.78-10.563,24.858-13.152c21.299-4.976,34.519,6.812,61.822,12.098
	c9.993,1.935,24.58,3.523,42.914,1.053c3.006,15.854,1.135,26.7-0.853,33.35c-6.448,21.57-22.39,26.644-44.335,53.36
	c-9.343,11.374-15.831,21.87-19.61,28.435c-4.967-6.772-13.057-17.304-23.872-29.138c-21.176-23.171-32.473-29.092-38.651-46.69
	C190.627,151.369,188.038,138.762,191.111,119.906z"/>
<path style="fill:#FFB450;" d="M297.968,121.097c8.45,12.511,14.609,26.612,17.93,41.65c1.564-2.831,2.891-5.934,3.954-9.491
	c1.988-6.65,3.859-17.497,0.853-33.35C312.309,121.037,304.711,121.311,297.968,121.097z"/>
<g>
	<path style="fill:#FFCF65;" d="M184.768,474.185c-3.31-14.129-1.25-23.796,0.939-29.723c7.098-19.224,24.648-23.746,48.808-47.556
		c6.687-6.59,12.045-12.85,16.119-18.031c2.93-3.726,8.474-3.99,11.753-0.567c5.185,5.411,11.897,12.049,19.997,19.224
		c23.313,20.651,35.749,25.928,42.55,41.612c3.036,7.001,5.886,18.237,2.503,35.041H184.768z"/>
	<path style="fill:#FFCF65;" d="M256,300.889c-4.507,0-8.162-3.654-8.162-8.162v-84.966c0-4.508,3.654-8.162,8.162-8.162
		c4.507,0,8.162,3.654,8.162,8.162v84.966C264.162,297.235,260.508,300.889,256,300.889z"/>
	<circle style="fill:#FFCF65;" cx="256" cy="320.2" r="8.162"/>
</g>
<path style="fill:#963737;" d="M434.762,474.185h-72.967c10.442,0,18.908,8.465,18.908,18.908l0,0
	c0,10.442-8.465,18.908-18.908,18.908h72.967c10.442,0,18.908-8.465,18.908-18.908l0,0
	C453.669,482.65,445.204,474.185,434.762,474.185z"/>
<g>
</g>
<g>
</g>
<g>
</g>
<g>
</g>
<g>
</g>
<g>
</g>
<g>
</g>
<g>
</g>
<g>
</g>
<g>
</g>
<g>
</g>
<g>
</g>
<g>
</g>
<g>
</g>
<g>
</g>
</svg>
