<?xml version="1.0" encoding="iso-8859-1"?>
<!-- Generator: Adobe Illustrator 19.0.0, SVG Export Plug-In . SVG Version: 6.00 Build 0)  -->
<svg version="1.1" id="Capa_1" xmlns="http://www.w3.org/2000/svg" xmlns:xlink="http://www.w3.org/1999/xlink" x="0px" y="0px"
	 viewBox="0 0 512 512" style="enable-background:new 0 0 512 512;" xml:space="preserve">
<path style="fill:#FFD5C2;" d="M383.641,163.8c-16.463,0-29.808,13.346-29.808,29.808V86.434c0-18.011-14.6-32.611-32.611-32.611
	l0,0c-18.011,0-32.611,14.6-32.611,32.611V32.611C288.61,14.6,274.01,0,255.999,0l0,0c-18.011,0-32.611,14.6-32.611,32.611v53.823
	c0-18.011-14.601-32.611-32.611-32.611l0,0c-18.011,0-32.611,14.6-32.611,32.611v40.184c0-17.559-14.234-31.793-31.793-31.793
	h-1.636c-17.559,0-31.793,14.234-31.793,31.793v96.717v9.441v110.656C92.943,436.529,165.947,512,255.999,512l0,0
	c90.053,0,163.056-75.471,163.056-168.568v-33.064v-87.033v-54.907c0-2.556-2.072-4.628-4.628-4.628L383.641,163.8L383.641,163.8z"
	/>
<g>
	<path style="fill:#FFBBAE;" d="M126.372,94.825h-1.636c-3.736,0-7.319,0.65-10.648,1.833c12.321,4.38,21.145,16.137,21.145,29.96
		v83.225c0,12.665,10.267,22.932,22.932,22.932l0,0V126.618C158.167,109.059,143.931,94.825,126.372,94.825z"/>
	<path style="fill:#FFBBAE;" d="M190.777,53.823L190.777,53.823c-3.936,0-7.708,0.697-11.201,1.975
		c12.493,4.569,21.41,16.561,21.41,30.636v123.939c0,12.373,10.03,22.403,22.403,22.403l0,0V86.434
		C223.388,68.423,208.787,53.823,190.777,53.823z"/>
	<path style="fill:#FFBBAE;" d="M321.221,53.823L321.221,53.823c-4.089,0-7.998,0.759-11.604,2.133
		c12.279,4.678,21.007,16.556,21.007,30.478v123.133c0,12.818,10.391,23.209,23.209,23.209l0,0V86.434
		C353.832,68.423,339.232,53.823,321.221,53.823z"/>
	<path style="fill:#FFBBAE;" d="M255.999,0L255.999,0c-4.29,0-8.383,0.836-12.135,2.342c11.999,4.815,20.476,16.549,20.476,30.269
		v175.895c0,13.404,10.866,24.269,24.269,24.269l0,0V32.611C288.61,14.6,274.01,0,255.999,0z"/>
	<path style="fill:#FFBBAE;" d="M397.031,163.8v68.975h-0.03v116.169c0,86.346-67.12,157.005-152.029,162.676
		c3.646,0.244,7.32,0.38,11.027,0.38l0,0c90.053,0,163.056-73.002,163.056-163.056v-38.577v-77.592v-64.348
		c0-2.556-2.072-4.628-4.628-4.628h-17.396V163.8z"/>
</g>
<g>
	<path style="fill:#F4A7A2;" d="M321.341,275.066c-1.479-4.096-6.001-6.216-10.094-4.737
		c-96.969,35.029-146.912,40.884-179.589,42.071c-4.352,0.158-7.752,3.814-7.593,8.166c0.155,4.255,3.652,7.599,7.875,7.599
		c0.097,0,0.194-0.002,0.292-0.005c33.824-1.229,85.349-7.227,184.374-42.999C320.701,283.681,322.821,279.162,321.341,275.066z"/>
	<path style="fill:#F4A7A2;" d="M364.849,307.838c-1.397-4.125-5.873-6.336-9.998-4.938c-1.02,0.345-102.539,34.666-154.11,46.356
		c-30.25,6.857-45.255,8.973-52.141,9.607c-3.146,0.29-5.754,2.537-6.52,5.602l0,0c-1.248,4.994,2.821,9.72,7.943,9.209
		c11.198-1.116,26.134-1.923,54.204-9.039c22.771-5.773,54.773-14.529,83.719-23.507c-21.31,23.99-27.878,51.991-31.255,66.392
		c-4.422,18.851-5.728,38.427-3.885,58.186c0.382,4.086,3.817,7.153,7.842,7.153c0.282,0,0.567-0.016,0.855-0.046
		c4.271-0.438,7.404-4.298,7.005-8.573c-1.685-18.057-0.496-35.929,3.536-53.119c3.756-16.016,10.747-45.83,36.455-68.198
		c7.159-6.229,15.26-11.435,24.079-15.475c0.656-0.3,1.244-0.685,1.772-1.126c14.506-4.747,24.304-8.06,25.561-8.486
		C364.034,316.439,366.246,311.962,364.849,307.838z"/>
</g>
<g>
</g>
<g>
</g>
<g>
</g>
<g>
</g>
<g>
</g>
<g>
</g>
<g>
</g>
<g>
</g>
<g>
</g>
<g>
</g>
<g>
</g>
<g>
</g>
<g>
</g>
<g>
</g>
<g>
</g>
</svg>
