<?xml version="1.0" encoding="iso-8859-1"?>
<!-- Generator: Adobe Illustrator 19.0.0, SVG Export Plug-In . SVG Version: 6.00 Build 0)  -->
<svg version="1.1" id="Capa_1" xmlns="http://www.w3.org/2000/svg" xmlns:xlink="http://www.w3.org/1999/xlink" x="0px" y="0px"
	 viewBox="0 0 512.001 512.001" style="enable-background:new 0 0 512.001 512.001;" xml:space="preserve">
<path style="fill:#FFCF65;" d="M396.993,362.371c0,77.868-63.124,140.992-140.992,140.992c-25.316,0-49.074-6.672-69.611-18.354
	c-42.631-24.25-71.382-70.086-71.382-122.638c0-77.868,63.124-140.992,140.992-140.992S396.993,284.503,396.993,362.371z"/>
<path style="fill:#FFB450;" d="M256.001,221.379c-8.486,0-16.796,0.751-24.868,2.187c66.007,11.747,116.124,69.423,116.124,138.805
	c0,69.366-50.093,127.032-116.077,138.797c8.06,1.432,16.35,2.195,24.821,2.195c77.868,0,140.992-63.125,140.992-140.992
	C396.993,284.503,333.869,221.379,256.001,221.379z"/>
<path style="fill:#AA4141;" d="M354.995,142.132c0,54.673-44.321,98.994-98.994,98.994s-98.994-44.321-98.994-98.994
	c0-42.83,60.752-110.001,87.071-137.092c6.528-6.72,17.317-6.72,23.846,0C294.243,32.132,354.995,99.303,354.995,142.132z"/>
<path style="fill:#963737;" d="M244.081,5.04c-2.942,3.028-6.314,6.557-9.982,10.496c29.157,31.304,77.092,88.55,77.092,126.597
	c0,47.146-32.959,86.59-77.092,96.558c7.046,1.591,14.375,2.436,21.902,2.436c54.673,0,98.994-44.321,98.994-98.994
	c0-42.829-60.75-109.999-87.07-137.091C261.398-1.676,250.608-1.678,244.081,5.04z"/>
<rect x="167.081" y="217.501" style="fill:#FFE92F;" width="177.85" height="35.26"/>
<rect x="167.081" y="217.501" style="fill:#FFB450;" width="177.85" height="35.464"/>
<path style="fill:#FF8948;" d="M356.867,217.5H155.135c-8.561,0-15.502-6.94-15.502-15.502l0,0c0-8.561,6.94-15.502,15.502-15.502
	h201.732c8.561,0,15.502,6.94,15.502,15.502l0,0C372.369,210.56,365.428,217.5,356.867,217.5z"/>
<path style="fill:#FF703E;" d="M356.867,186.497H316.82c8.561,0,15.502,6.94,15.502,15.502s-6.94,15.502-15.502,15.502h40.047
	c8.561,0,15.502-6.94,15.502-15.502S365.428,186.497,356.867,186.497z"/>
<path style="fill:#FF8948;" d="M358.263,512.001H153.394l0,0c0-14.86,12.047-26.907,26.907-26.907h151.055
	C346.217,485.094,358.263,497.141,358.263,512.001L358.263,512.001z"/>
<path style="fill:#FF703E;" d="M331.356,485.094h-44.129c14.86,0,26.907,12.047,26.907,26.907h44.129
	C358.263,497.141,346.217,485.094,331.356,485.094z"/>
<path style="fill:#49BC6E;" d="M193.141,127.278c-7.198,7.9-16.477,20.102-23.581,37.186c-3.308,7.956-5.513,15.453-7.008,22.033
	c19.446,0,38.892,0,58.339,0c-1.86-6.752-4.262-14.088-7.391-21.789C207.213,149.234,199.826,136.802,193.141,127.278z"/>
<path style="fill:#3CA56D;" d="M213.5,164.708c-6.016-14.806-13.037-26.819-19.488-36.173c5.689,11.564,4.418,47.479,1.079,57.695
	c-12.367,0-22.059,0-32.476,0c-0.02,0.087-0.043,0.179-0.063,0.266c19.446,0,38.892,0,58.339,0
	C219.031,179.745,216.629,172.408,213.5,164.708z"/>
<path style="fill:#49BC6E;" d="M251.479,127.278c-7.198,7.9-16.477,20.102-23.581,37.186c-3.308,7.956-5.513,15.453-7.008,22.033
	c19.446,0,38.892,0,58.339,0c-1.86-6.752-4.262-14.088-7.391-21.789C265.551,149.234,258.164,136.802,251.479,127.278z"/>
<path style="fill:#3CA56D;" d="M271.839,164.708c-6.016-14.806-13.037-26.819-19.488-36.173c5.689,11.564,4.418,47.479,1.079,57.695
	c-12.367,0-22.059,0-32.476,0c-0.02,0.087-0.043,0.179-0.063,0.266c19.446,0,38.892,0,58.339,0
	C277.37,179.745,274.967,172.408,271.839,164.708z"/>
<path style="fill:#49BC6E;" d="M309.818,127.278c-7.198,7.9-16.477,20.102-23.581,37.186c-3.308,7.956-5.513,15.453-7.008,22.033
	c19.446,0,38.892,0,58.339,0c-1.86-6.752-4.262-14.088-7.391-21.789C323.89,149.234,316.503,136.802,309.818,127.278z"/>
<path style="fill:#3CA56D;" d="M330.177,164.708c-6.016-14.806-13.037-26.819-19.488-36.173c5.689,11.564,4.418,47.479,1.079,57.695
	c-12.367,0-22.059,0-32.476,0c-0.02,0.087-0.043,0.179-0.063,0.266c19.446,0,38.892,0,58.338,0
	C335.708,179.745,333.306,172.408,330.177,164.708z"/>
<g>
	<circle style="fill:#ED5A5A;" cx="150.051" cy="307.981" r="7.455"/>
	<circle style="fill:#ED5A5A;" cx="180.181" cy="307.981" r="7.455"/>
	<circle style="fill:#ED5A5A;" cx="210.311" cy="307.981" r="7.455"/>
	<circle style="fill:#ED5A5A;" cx="240.441" cy="307.981" r="7.455"/>
	<circle style="fill:#ED5A5A;" cx="270.571" cy="307.981" r="7.455"/>
	<circle style="fill:#ED5A5A;" cx="300.701" cy="307.981" r="7.455"/>
	<circle style="fill:#ED5A5A;" cx="330.841" cy="307.981" r="7.455"/>
</g>
<circle style="fill:#E04B4B;" cx="360.971" cy="307.981" r="7.455"/>
<g>
	<circle style="fill:#ED5A5A;" cx="150.051" cy="416.761" r="7.455"/>
	<circle style="fill:#ED5A5A;" cx="180.181" cy="416.761" r="7.455"/>
	<circle style="fill:#ED5A5A;" cx="210.311" cy="416.761" r="7.455"/>
	<circle style="fill:#ED5A5A;" cx="240.441" cy="416.761" r="7.455"/>
	<circle style="fill:#ED5A5A;" cx="270.571" cy="416.761" r="7.455"/>
	<circle style="fill:#ED5A5A;" cx="300.701" cy="416.761" r="7.455"/>
	<circle style="fill:#ED5A5A;" cx="330.841" cy="416.761" r="7.455"/>
</g>
<circle style="fill:#E04B4B;" cx="360.971" cy="416.761" r="7.455"/>
<path style="fill:#FFEBBE;" d="M395.476,341.664c-11.992,0.705-18.153,9.594-22.688,16.172c-4.57,6.63-6.85,9.33-11.048,9.33
	s-6.477-2.7-11.047-9.329c-4.725-6.855-11.195-16.242-24.206-16.242c-13.01,0-19.48,9.387-24.205,16.242
	c-4.569,6.629-6.846,9.329-11.044,9.329c-4.197,0-6.476-2.7-11.046-9.329c-4.724-6.855-11.194-16.242-24.204-16.242
	c-13.009,0-19.479,9.387-24.204,16.242c-4.569,6.629-6.846,9.329-11.044,9.329c-4.197,0-6.475-2.7-11.044-9.329
	c-4.725-6.855-11.195-16.242-24.204-16.242c-13.008,0-19.478,9.387-24.202,16.242c-4.568,6.629-6.845,9.329-11.042,9.329
	c-4.195,0-6.473-2.7-11.041-9.329c-4.534-6.578-10.693-15.468-22.684-16.173c-0.768,5.218-1.248,10.529-1.428,15.917
	c4.137,0.04,6.417,2.745,10.951,9.325c4.724,6.855,11.193,16.242,24.201,16.242s19.478-9.387,24.202-16.242
	c4.568-6.629,6.845-9.329,11.042-9.329s6.475,2.7,11.044,9.329c4.725,6.855,11.195,16.242,24.204,16.242s19.479-9.387,24.204-16.242
	c4.569-6.629,6.846-9.329,11.044-9.329c4.198,0,6.476,2.7,11.046,9.329c4.724,6.855,11.194,16.242,24.204,16.242
	c13.009,0,19.479-9.387,24.203-16.241c4.57-6.63,6.848-9.33,11.046-9.33s6.478,2.7,11.048,9.33
	c4.725,6.854,11.195,16.241,24.205,16.241c13.01,0,19.481-9.387,24.206-16.241c4.536-6.581,6.818-9.287,10.958-9.326
	C396.723,352.193,396.244,346.882,395.476,341.664z"/>
<path style="fill:#FFE2B8;" d="M361.695,383.148c13.01,0,19.481-9.387,24.206-16.241c4.536-6.581,6.818-9.287,10.958-9.326
	c-0.044-1.315-0.107-2.625-0.186-3.93c-0.005-0.074-0.009-0.147-0.014-0.221c-0.077-1.232-0.17-2.46-0.279-3.683
	c-0.01-0.117-0.02-0.233-0.031-0.349c-0.109-1.204-0.235-2.403-0.374-3.598c-0.012-0.106-0.024-0.212-0.036-0.318
	c-0.152-1.276-0.32-2.547-0.506-3.812c0-0.002-0.001-0.004-0.001-0.006c-11.992,0.705-18.153,9.594-22.688,16.172
	c-4.57,6.63-6.85,9.33-11.048,9.33s-6.477-2.7-11.047-9.329c-1.132-1.642-2.369-3.43-3.767-5.199
	c0.219,3.216,0.331,6.462,0.331,9.733c0,5.119-0.28,10.173-0.812,15.151C350.248,380.763,355.14,383.148,361.695,383.148z"/>
<g>
</g>
<g>
</g>
<g>
</g>
<g>
</g>
<g>
</g>
<g>
</g>
<g>
</g>
<g>
</g>
<g>
</g>
<g>
</g>
<g>
</g>
<g>
</g>
<g>
</g>
<g>
</g>
<g>
</g>
</svg>
