<?xml version="1.0" encoding="iso-8859-1"?>
<!-- Generator: Adobe Illustrator 19.0.0, SVG Export Plug-In . SVG Version: 6.00 Build 0)  -->
<svg version="1.1" id="Capa_1" xmlns="http://www.w3.org/2000/svg" xmlns:xlink="http://www.w3.org/1999/xlink" x="0px" y="0px"
	 viewBox="0 0 512 512" style="enable-background:new 0 0 512 512;" xml:space="preserve">
<path style="fill:#1D89FF;" d="M335.584,151.323l-38.259-35.466L260.05,81.304c-4.19-3.884-10.735-3.636-14.619,0.554
	l-34.553,37.275l-35.465,38.259c-3.884,4.19-3.636,10.735,0.554,14.619l29.688,27.521c4.19,3.884,10.735,3.636,14.619-0.554
	l3.775-4.072v310.559c0,2.855,2.314,5.17,5.17,5.17h53.114c2.855,0,5.17-2.315,5.17-5.17V190.162l6.496,6.022
	c4.19,3.884,10.735,3.636,14.619-0.554l27.521-29.689C340.022,161.752,339.774,155.207,335.584,151.323z"/>
<path style="fill:#1574D1;" d="M335.584,151.323l-38.259-35.466L266.249,87.05v214.13c-2.797,0.148-5.614,0.23-8.455,0.23
	c-11.568,0-22.854-1.238-33.745-3.579v71.411c10.365,1.445,20.942,2.209,31.694,2.209c0.035,0,0.07,0,0.106,0
	c5.73-0.003,10.401,4.583,10.401,10.314v29.547h-42.2v61.171h26.502c8.67,0,15.698,7.028,15.698,15.698v22.454h16.083
	c2.855,0,5.17-2.314,5.17-5.17v-32.983v-61.171v-42.079v-70.616V190.162l6.496,6.022c4.19,3.884,10.735,3.636,14.619-0.554
	l27.521-29.689C340.022,161.752,339.774,155.207,335.584,151.323z"/>
<path style="fill:#2BB7FF;" d="M508.688,74.143l-38.259-35.466L433.154,4.124c-4.19-3.884-10.735-3.636-14.619,0.554l-34.553,37.275
	l-35.465,38.259c-3.884,4.19-3.636,10.735,0.554,14.619l29.688,27.521c4.19,3.884,10.735,3.636,14.619-0.554l3.592-3.875
	l0.098,1.248v19.09v0.113h-0.001c-0.056,81.068-60.558,146.767-139.502,146.767s-142.946-65.699-143.006-146.767h-0.077v-20.719
	v-4.493l6.861,6.36c4.19,3.884,10.735,3.636,14.619-0.554l27.521-29.689c3.884-4.19,3.636-10.735-0.554-14.619L124.67,39.194
	L87.396,4.642c-4.19-3.884-10.735-3.636-14.619,0.554L38.224,42.471L2.758,80.729c-3.884,4.19-3.636,10.735,0.554,14.619L33,122.869
	c4.19,3.884,10.735,3.636,14.619-0.554l4.455-4.806v4.357v23.671h0.181c4.347,111.603,93.794,200.713,203.52,200.713
	s199.173-89.11,203.519-200.713h0.181v-26.121l-1.125-8.524l8.75,8.112c4.19,3.884,10.735,3.636,14.619-0.554l27.521-29.689
	C513.126,84.572,512.878,78.026,508.688,74.143z"/>
<path style="fill:#1D89FF;" d="M166.065,442.053v-41.751c0-5.363,4.347-9.71,9.71-9.71h160c5.363,0,9.71,4.347,9.71,9.71v41.751
	c0,5.363-4.347,9.71-9.71,9.71h-160C170.412,451.763,166.065,447.415,166.065,442.053z"/>
<path style="fill:#1574D1;" d="M335.775,390.591h-27.626c5.363,0,9.71,4.348,9.71,9.71v41.751c0,5.363-4.347,9.71-9.71,9.71h27.626
	c5.363,0,9.71-4.347,9.71-9.71v-41.751C345.486,394.939,341.138,390.591,335.775,390.591z"/>
<g>
	<path style="fill:#2B96F5;" d="M508.688,74.143l-38.259-35.466L433.154,4.124c-4.19-3.884-10.735-3.636-14.619,0.554l-1.677,1.809
		c12.91,31.705,20.042,66.378,20.042,102.722c0,95.908-49.544,180.235-124.426,228.814
		c82.367-24.472,143.254-100.897,146.821-192.485h0.181v-26.121l-1.125-8.524l8.75,8.112c4.19,3.884,10.735,3.636,14.619-0.554
		l27.521-29.689C513.126,84.572,512.878,78.026,508.688,74.143z"/>
	<path style="fill:#2B96F5;" d="M149.154,234.045c-21.536-25.691-34.568-59.117-34.595-95.672h-0.077v-20.719v-4.493l6.861,6.36
		c4.19,3.884,10.735,3.636,14.619-0.554l27.521-29.689c3.884-4.19,3.636-10.735-0.554-14.619L124.67,39.193L87.396,4.642
		c-0.267-0.248-0.545-0.478-0.83-0.693c-6.851,21.166-10.568,43.742-10.568,67.189C75.998,135.933,104.277,194.115,149.154,234.045z
		"/>
</g>
<g>
</g>
<g>
</g>
<g>
</g>
<g>
</g>
<g>
</g>
<g>
</g>
<g>
</g>
<g>
</g>
<g>
</g>
<g>
</g>
<g>
</g>
<g>
</g>
<g>
</g>
<g>
</g>
<g>
</g>
</svg>
