<?xml version="1.0" encoding="iso-8859-1"?>
<!-- Generator: Adobe Illustrator 19.0.0, SVG Export Plug-In . SVG Version: 6.00 Build 0)  -->
<svg version="1.1" id="Capa_1" xmlns="http://www.w3.org/2000/svg" xmlns:xlink="http://www.w3.org/1999/xlink" x="0px" y="0px"
	 viewBox="0 0 512 512" style="enable-background:new 0 0 512 512;" xml:space="preserve">
<path style="fill:#FFEBBE;" d="M445.596,180.468l-16.568-9.724c-33.282-19.534-75.196,4.465-75.196,43.056V86.434
	c0-18.011-14.601-32.611-32.611-32.611l0,0c-18.011,0-32.611,14.6-32.611,32.611V32.611C288.611,14.601,274.011,0,256,0l0,0
	c-18.011,0-32.611,14.601-32.611,32.611v53.823c0-18.011-14.6-32.611-32.611-32.611l0,0c-18.011,0-32.611,14.6-32.611,32.611
	v127.367c0-38.591-41.914-62.59-75.196-43.056l-16.568,9.724c-1.831,1.075-1.098,3.878,1.025,3.918l0,0
	c14.17,0.27,25.516,11.834,25.516,26.006v22.383v77.592v38.577C92.944,438.998,165.947,512,256,512l0,0
	c90.053,0,163.055-73.002,163.055-163.055v-38.577v-43.725v-56.25c0-14.172,11.346-25.736,25.516-26.006
	C446.695,184.346,447.428,181.543,445.596,180.468z"/>
<g>
	<path style="fill:#F7DBB5;" d="M429.029,170.744c-11.573-6.793-24.189-8.317-35.724-5.799c4.988,1.099,9.947,3.006,14.728,5.816
		c6.878,4.043,7.267,13.857,0.798,18.527c-6.55,4.728-10.802,12.427-10.802,21.104v56.25v43.725v38.577
		c0,86.52-67.39,157.288-152.542,162.708c3.477,0.222,6.98,0.347,10.513,0.347h7.597c12.721-0.649,63.377-4.71,105.959-46.041
		c44.799-43.484,48.883-97.375,49.5-109.418v-46.173v-43.725v-56.25c0-14.166,11.336-25.727,25.498-26.006
		c2.126-0.042,2.847-2.859,1.013-3.936L429.029,170.744z"/>
	<path style="fill:#F7DBB5;" d="M190.734,53.823L190.734,53.823c-3.594,0-7.047,0.59-10.28,1.663
		c12.972,4.307,22.331,16.53,22.331,30.948v119.698c0,11.355,9.205,20.56,20.56,20.56l0,0V86.434
		C223.345,68.424,208.745,53.823,190.734,53.823z"/>
	<path style="fill:#F7DBB5;" d="M321.179,53.823L321.179,53.823c-3.594,0-7.047,0.59-10.28,1.663
		c12.971,4.307,22.331,16.53,22.331,30.948v123.774c0,11.702,8.909,21.481,20.56,22.568l0,0V86.434
		C353.79,68.424,339.189,53.823,321.179,53.823z"/>
</g>
<path style="fill:#FFCF65;" d="M333.229,375.456c0,42.677-34.596,77.273-77.273,77.273s-77.273-34.596-77.273-77.273
	c0-61.854,77.273-116.523,77.273-116.523S333.229,313.602,333.229,375.456z"/>
<path style="fill:#FFB864;" d="M255.956,258.932c0,0-2.153,1.525-5.728,4.34c14.492,19.209,26.431,42.408,26.431,66.72
	c0,42.677-34.596,77.273-77.273,77.273c-4.947,0-9.78-0.484-14.468-1.372c11.816,27.541,39.171,46.835,71.038,46.835
	c42.677,0,77.273-34.597,77.273-77.273C333.229,313.602,255.956,258.932,255.956,258.932z"/>
<path style="fill:#F7DBB5;" d="M255.956,0L255.956,0c-3.593,0-7.047,0.59-10.28,1.663c12.971,4.307,22.331,16.531,22.331,30.948
	v173.52c0,11.355,9.205,20.56,20.56,20.56l0,0V32.611C288.567,14.601,273.967,0,255.956,0z"/>
<path style="fill:#EDEDEE;" d="M255.818,338.778c29.607-0.118,56.433,11.875,75.796,31.318c2.15,2.158,2.163,5.649,0.031,7.824
	c-19.208,19.596-45.937,31.801-75.544,31.919s-56.433-11.875-75.796-31.318c-2.15-2.158-2.163-5.649-0.031-7.824
	C199.481,351.101,226.211,338.896,255.818,338.778z"/>
<path style="fill:#DCDBDE;" d="M185.154,383.086c18.736-16.847,43.486-27.147,70.665-27.255
	c27.212-0.108,52.069,10.02,70.947,26.753c1.674-1.505,3.305-3.057,4.88-4.664c2.132-2.176,2.119-5.666-0.031-7.824
	c-19.363-19.442-46.188-31.435-75.795-31.318c-29.607,0.118-56.337,12.323-75.544,31.919c-2.132,2.176-2.119,5.666,0.031,7.824
	C181.871,380.094,183.492,381.613,185.154,383.086z"/>
<path style="fill:#736F7B;" d="M283.723,346.319c-0.005-1.372-0.121-2.716-0.319-4.034c-8.803-2.319-18.049-3.545-27.586-3.507
	c-9.54,0.038-18.779,1.338-27.566,3.728c-0.186,1.319-0.291,2.663-0.286,4.034c0.061,15.397,12.592,27.829,27.989,27.767
	S283.784,361.716,283.723,346.319z"/>
<path style="fill:#625D6B;" d="M228.137,342.507L228.137,342.507c-0.186,1.319-0.291,2.663-0.286,4.034
	c0.018,4.434,1.074,8.619,2.93,12.333c7.989-1.954,16.334-3.008,24.921-3.043c8.628-0.034,17.019,0.964,25.058,2.872
	c1.836-3.736,2.864-7.939,2.847-12.384c-0.005-1.372-0.121-2.716-0.319-4.034c-8.803-2.32-18.049-3.545-27.586-3.507
	C246.163,338.816,236.925,340.116,228.137,342.507z"/>
<g>
	<circle style="fill:#AA4141;" cx="191.5" cy="201" r="7.885"/>
	<circle style="fill:#AA4141;" cx="191.5" cy="237.84" r="7.885"/>
	<circle style="fill:#AA4141;" cx="191.5" cy="164.16" r="7.885"/>
	<circle style="fill:#AA4141;" cx="119.65" cy="201" r="7.885"/>
	<circle style="fill:#AA4141;" cx="191.5" cy="127.32" r="7.885"/>
	<circle style="fill:#AA4141;" cx="191.5" cy="90.48" r="7.885"/>
	<circle style="fill:#AA4141;" cx="321.22" cy="201" r="7.885"/>
	<circle style="fill:#AA4141;" cx="321.22" cy="237.84" r="7.885"/>
	<circle style="fill:#AA4141;" cx="259.64" cy="481.64" r="7.885"/>
	<circle style="fill:#AA4141;" cx="293.99" cy="475.86" r="7.885"/>
	<circle style="fill:#AA4141;" cx="326.4" cy="459.04" r="7.885"/>
	<circle style="fill:#AA4141;" cx="353.83" cy="427.46" r="7.885"/>
	<circle style="fill:#AA4141;" cx="222.4" cy="475.86" r="7.885"/>
	<circle style="fill:#AA4141;" cx="189.98" cy="459.04" r="7.885"/>
	<circle style="fill:#AA4141;" cx="162.55" cy="427.46" r="7.885"/>
	<circle style="fill:#AA4141;" cx="321.22" cy="164.16" r="7.885"/>
	<circle style="fill:#AA4141;" cx="321.22" cy="127.32" r="7.885"/>
	<circle style="fill:#AA4141;" cx="321.22" cy="90.48" r="7.885"/>
	<circle style="fill:#AA4141;" cx="256" cy="145.26" r="7.885"/>
	<circle style="fill:#AA4141;" cx="256" cy="182.1" r="7.885"/>
	<circle style="fill:#AA4141;" cx="256" cy="108.42" r="7.885"/>
	<circle style="fill:#AA4141;" cx="256" cy="71.58" r="7.885"/>
	<circle style="fill:#AA4141;" cx="256" cy="34.735" r="7.885"/>
</g>
<polyline style="fill:#FF5F5B;" points="92.944,245.728 158.167,220.253 158.167,252.619 92.944,280.047 92.944,245.728 "/>
<circle style="fill:#AA4141;" cx="392.35" cy="201" r="7.885"/>
<polyline style="fill:#FF5F5B;" points="419.055,245.728 353.833,220.253 353.833,252.619 419.055,280.047 419.055,245.728 "/>
<polygon style="fill:#FF554D;" points="398.03,266.642 398.03,271.205 419.055,280.047 419.055,266.642 419.055,245.728 
	398.03,237.515 "/>
<g>
	<path style="fill:#FF915A;" d="M100.184,307.237c-2.492,0-4.914,0.298-7.239,0.844v40.863c0,7.05,0.448,13.995,1.316,20.809
		c1.919,0.365,3.898,0.563,5.923,0.563c17.419,0,31.54-14.121,31.54-31.54S117.603,307.237,100.184,307.237z"/>
	<path style="fill:#FF915A;" d="M411.327,307.237c-22.495,0-39.489,23.548-27.676,47.339c2.396,4.826,6.182,8.791,10.931,11.337
		c8.041,4.311,16.042,5.223,23.17,3.748c0.86-6.784,1.304-13.698,1.304-20.716v-40.75
		C416.582,307.572,413.994,307.237,411.327,307.237z"/>
</g>
<path style="fill:#FF7955;" d="M398.03,310.182v0.186v38.577c0,6.141-0.351,12.199-1.012,18.163
	c7.213,3.267,14.326,3.879,20.734,2.553c0.86-6.784,1.304-13.698,1.304-20.716v-38.577v-2.173c-2.473-0.623-5.062-0.957-7.729-0.957
	C406.574,307.237,402.072,308.299,398.03,310.182z"/>
<path style="fill:#AA4141;" d="M362.667,366.424h-22.042c-0.79-7.475-2.543-15.05-5.272-22.714l22.132-11.565
	c3.86-2.016,5.354-6.78,3.337-10.64c-2.016-3.859-6.779-5.353-10.64-3.337l-21.107,11.03c-3.416-6.738-7.554-13.534-12.413-20.379
	l19.79-14.051c3.551-2.521,4.385-7.443,1.864-10.994c-2.521-3.55-7.443-4.386-10.994-1.864l-20.294,14.408
	c-2.1-2.529-4.289-5.063-6.582-7.603c-2.466-2.732-4.929-5.339-7.351-7.81l15.389-20.804c2.59-3.501,1.851-8.439-1.65-11.029
	c-3.501-2.589-8.438-1.851-11.029,1.65l-14.165,19.149c-7.661-6.979-14.104-12.096-17.799-14.908v-28.271
	c0-4.355-3.53-7.885-7.885-7.885s-7.885,3.53-7.885,7.885v28.271c-3.698,2.815-10.152,7.94-17.824,14.931l-14.182-19.172
	c-2.59-3.501-7.528-4.239-11.029-1.65c-3.501,2.59-4.24,7.528-1.65,11.029l15.408,20.829c-2.415,2.464-4.869,5.063-7.327,7.786
	c-2.299,2.546-4.493,5.087-6.598,7.622l-20.32-14.427c-3.55-2.522-8.473-1.688-10.994,1.864c-2.521,3.551-1.686,8.473,1.864,10.994
	l19.818,14.071c-4.857,6.843-8.994,13.639-12.408,20.376l-21.141-11.047c-3.861-2.016-8.624-0.523-10.641,3.337
	c-2.016,3.86-0.523,8.624,3.337,10.64l22.168,11.584c-2.725,7.657-4.476,15.226-5.265,22.695h-22.085
	c-4.355,0-7.885,3.53-7.885,7.885s3.53,7.885,7.885,7.885h21.886c3.45,43.815,40.18,78.42,84.867,78.42s81.417-34.605,84.867-78.42
	h21.844c4.355,0,7.885-3.53,7.885-7.885S367.021,366.424,362.667,366.424z M255.956,444.844c-38.261,0-69.388-31.127-69.388-69.388
	c0-48.628,53.277-94.025,69.388-106.638c16.113,12.614,69.388,58.01,69.388,106.638
	C325.344,413.716,294.217,444.844,255.956,444.844z"/>
<g>
</g>
<g>
</g>
<g>
</g>
<g>
</g>
<g>
</g>
<g>
</g>
<g>
</g>
<g>
</g>
<g>
</g>
<g>
</g>
<g>
</g>
<g>
</g>
<g>
</g>
<g>
</g>
<g>
</g>
</svg>
