<?xml version="1.0" encoding="iso-8859-1"?>
<!-- Generator: Adobe Illustrator 19.0.0, SVG Export Plug-In . SVG Version: 6.00 Build 0)  -->
<svg version="1.1" id="Capa_1" xmlns="http://www.w3.org/2000/svg" xmlns:xlink="http://www.w3.org/1999/xlink" x="0px" y="0px"
	 viewBox="0 0 512 512" style="enable-background:new 0 0 512 512;" xml:space="preserve">
<path style="fill:#FFA5B5;" d="M334.911,504.109H169.724v-328.27c0-9.878,8.008-17.887,17.887-17.887h129.414
	c9.878,0,17.887,8.008,17.887,17.887L334.911,504.109L334.911,504.109z"/>
<path style="fill:#FF728B;" d="M317.025,157.952h-56.816c9.878,0,17.887,8.008,17.887,17.887V504.11h56.816V175.838
	C334.911,165.96,326.903,157.952,317.025,157.952z"/>
<path style="fill:#736F7B;" d="M252.436,165.843c-4.358,0-7.891-3.533-7.891-7.891v-43.619c0-4.359,3.533-7.891,7.891-7.891
	s7.891,3.533,7.891,7.891v43.619C260.327,162.31,256.794,165.843,252.436,165.843z"/>
<path style="fill:#E26477;" d="M273.185,157.952h-31.214h-31.214v74.089c0,8.62,6.987,15.607,15.607,15.607l0,0
	c8.619,0,15.607-6.987,15.607-15.607v-12.538c0-10.169,6.987-18.413,15.607-18.413s15.607,8.244,15.607,18.413v48.048
	c0,8.62,6.987,15.607,15.607,15.607l0,0c8.619,0,15.607-6.987,15.607-15.607V157.952H273.185z"/>
<path style="fill:#FFCF65;" d="M295.112,71.275c0,23.78-19.277,43.057-43.057,43.057s-43.057-19.277-43.057-43.057
	c0-19.235,28.171-55.966,38.94-69.305c2.121-2.627,6.114-2.627,8.235,0C266.941,15.309,295.112,52.041,295.112,71.275z"/>
<path style="fill:#FFB450;" d="M247.939,1.969c-1.165,1.443-2.533,3.159-4.047,5.097c12.587,16.187,34.304,46.562,34.304,63.452
	c0,21.543-15.822,39.391-36.48,42.557c3.313,0.817,6.773,1.258,10.338,1.258c23.78,0,43.057-19.277,43.057-43.057
	c0-19.234-28.17-55.966-38.939-69.304C254.052-0.655,250.059-0.658,247.939,1.969z"/>
<path style="fill:#625D6B;" d="M399.092,512H112.908c-4.358,0-7.891-3.533-7.891-7.891s3.533-7.891,7.891-7.891h286.185
	c4.358,0,7.891,3.533,7.891,7.891S403.45,512,399.092,512z"/>
<g>
</g>
<g>
</g>
<g>
</g>
<g>
</g>
<g>
</g>
<g>
</g>
<g>
</g>
<g>
</g>
<g>
</g>
<g>
</g>
<g>
</g>
<g>
</g>
<g>
</g>
<g>
</g>
<g>
</g>
</svg>
