<?xml version="1.0" encoding="iso-8859-1"?>
<!-- Generator: Adobe Illustrator 19.0.0, SVG Export Plug-In . SVG Version: 6.00 Build 0)  -->
<svg version="1.1" id="Capa_1" xmlns="http://www.w3.org/2000/svg" xmlns:xlink="http://www.w3.org/1999/xlink" x="0px" y="0px"
	 viewBox="0 0 511.98 511.98" style="enable-background:new 0 0 511.98 511.98;" xml:space="preserve">
<circle style="fill:#736F7B;" cx="92.37" cy="166.788" r="92.37"/>
<g>
	<circle style="fill:#F9F9F9;" cx="59.04" cy="178.748" r="18.206"/>
	<path style="fill:#F9F9F9;" d="M113.005,115.107c-1.822-3.963-6.51-5.701-10.477-3.878l-5.295,2.434l-0.921-5.755
		c-0.689-4.308-4.737-7.242-9.048-6.551c-4.308,0.689-7.241,4.741-6.551,9.048l1.618,10.109l-9.302,4.276
		c-3.964,1.823-5.7,6.513-3.878,10.477c1.331,2.895,4.191,4.602,7.182,4.602c1.104,0,2.226-0.232,3.294-0.724l5.295-2.434
		l0.921,5.755c0.621,3.885,3.977,6.652,7.79,6.652c0.415,0,0.835-0.033,1.258-0.101c4.308-0.689,7.241-4.741,6.551-9.048
		l-1.618-10.109l9.302-4.276C113.092,123.761,114.828,119.071,113.005,115.107z"/>
</g>
<path style="fill:#4D4A54;" d="M155.836,157.035l-6.638-3.31l1.012-2.029c1.947-3.904,0.36-8.647-3.544-10.594
	c-3.906-1.947-8.647-0.359-10.594,3.544l-1.012,2.029l-8.281-4.129c-3.905-1.947-8.647-0.358-10.594,3.544
	c-1.947,3.904-0.36,8.647,3.544,10.594l8.282,4.129l-4.963,9.953l-8.426-4.201c-3.905-1.948-8.647-0.361-10.594,3.544
	c-1.947,3.904-0.36,8.647,3.544,10.594l8.426,4.202l-5.358,10.747l-8.282-4.129c-3.906-1.948-8.647-0.359-10.594,3.544
	c-1.947,3.904-0.36,8.648,3.544,10.594l8.282,4.129l-1.834,3.679c-1.947,3.904-0.36,8.647,3.544,10.594
	c1.132,0.565,2.335,0.832,3.519,0.832c2.9,0,5.693-1.605,7.075-4.376l1.834-3.679l6.637,3.309c1.132,0.565,2.335,0.832,3.519,0.832
	c2.9,0,5.693-1.605,7.075-4.376c1.947-3.904,0.36-8.648-3.544-10.594l-6.637-3.309l5.358-10.746l6.492,3.237
	c1.132,0.565,2.334,0.832,3.519,0.832c2.9,0,5.693-1.605,7.075-4.376c1.947-3.904,0.36-8.647-3.544-10.594l-6.492-3.237l4.963-9.953
	l6.637,3.309c1.132,0.565,2.335,0.832,3.519,0.832c2.9,0,5.693-1.605,7.075-4.376C161.327,163.725,159.74,158.982,155.836,157.035z"
	/>
<path style="fill:#736F7B;" d="M293.443,53.529l-82.481,77.203c-0.886,0.829-1.496,1.841-1.836,2.922
	c-0.443,0.542-0.839,1.135-1.164,1.787l-35.741,71.682l-35.741,71.683c-0.393,0.789-0.657,1.607-0.818,2.432
	c-0.852,1.004-1.423,2.264-1.573,3.672l-12.022,112.334c-1.758,16.429,10.135,31.173,26.564,32.931l0,0
	c16.429,1.758,31.173-10.135,32.931-26.564l7.756-72.474c0.754-7.049,8.308-11.183,14.652-8.02l85.605,42.683
	c1.772,0.884,3.248,2.265,4.246,3.975l54.123,92.722c7.622,13.057,24.384,17.463,37.441,9.842l0,0
	c13.057-7.621,17.463-24.385,9.842-37.441l-36.435-62.42c-3.828-6.558-4.093-14.603-0.705-21.399l41.128-82.487
	c3.388-6.795,9.973-11.426,17.514-12.315l71.08-8.382c15.014-1.77,25.751-15.377,23.98-30.392l0,0
	c-1.771-15.015-15.377-25.751-30.392-23.98l-106.624,12.574c-1.966,0.232-3.958-0.115-5.73-0.999l-84.753-42.26
	c-6.344-3.163-7.588-11.684-2.412-16.528l52.454-49.097c12.063-11.291,12.689-30.223,1.398-42.286l0,0
	C324.438,42.864,305.506,42.238,293.443,53.529z"/>
<g>
	<path style="fill:#625D6B;" d="M511.789,217.502c-1.771-15.015-15.378-25.751-30.392-23.98l-26.895,3.171
		c13.605,0.646,25.147,11.037,26.795,25.01c1.45,12.293-5.195,23.67-15.721,28.812l22.232-2.622
		C502.823,246.124,513.56,232.517,511.789,217.502z"/>
	<path style="fill:#625D6B;" d="M382.786,261.885c-7.815,0.922-14.639,5.72-18.15,12.762l-32.798,65.781
		c-9.641,19.336-8.887,42.228,2.005,60.888l26.66,45.674c5.03,8.616,4.998,18.786,0.823,27.08c7.584,3.06,16.449,2.71,24.059-1.732
		c13.057-7.621,17.464-24.385,9.842-37.442l-36.435-62.42c-3.828-6.558-4.093-14.603-0.705-21.399l41.128-82.487
		c2.098-4.208,5.424-7.583,9.443-9.757L382.786,261.885z"/>
	<path style="fill:#625D6B;" d="M295.91,54.926L295.91,54.926c11.642,11.642,11.332,30.372-0.688,41.622l-53.164,49.761
		c-5.176,4.844-3.932,13.365,2.412,16.528l58.451,29.143c18.934,9.44,40.211,13.149,61.222,10.671l0,0l-79.853-39.813
		c-6.344-3.164-7.588-11.684-2.412-16.528l53.164-49.761c12.02-11.251,12.329-29.981,0.688-41.622l0,0
		c-11.126-11.887-29.667-12.659-41.748-1.876C294.644,53.643,295.29,54.265,295.91,54.926z"/>
	<path style="fill:#625D6B;" d="M188.857,335.436c-21.723-2.373-41.247,13.341-43.572,35.069l-3.543,33.105
		c-0.822,7.684-4.486,14.375-9.834,19.142c4.504,4.023,10.259,6.73,16.722,7.422l0,0c16.429,1.758,31.173-10.135,32.931-26.564
		L188.857,335.436L188.857,335.436z"/>
</g>
<path style="fill:#ED5A5A;" d="M246.728,206.506L246.728,206.506c-4.339,6.239-4.473,14.149-1.005,20.368
	c0.89,1.597-0.404,3.469-2.21,3.189c-7.039-1.091-14.412,1.787-18.753,8.028l0,0c-6.066,8.722-3.914,20.71,4.808,26.777l0,0
	c7.765,5.401,47.893-3.838,56.602-5.929c0.956-0.23,1.587-1.137,1.47-2.113c-1.069-8.893-6.369-49.727-14.134-55.128l0,0
	C264.783,195.631,252.794,197.784,246.728,206.506z"/>
<path style="fill:#E04B4B;" d="M273.505,201.697L273.505,201.697c-5.571-3.874-12.468-4.382-18.31-1.981
	c1.257,0.52,2.48,1.172,3.642,1.981l0,0c4.39,3.053,7.991,17.429,10.486,30.956c2.707,14.677-7.133,28.724-21.835,31.289
	c-4.965,0.866-10.085,1.631-14.794,2.102c12.102,2.486,45.383-5.165,53.394-7.086c1.004-0.241,1.665-1.192,1.542-2.217
	C286.537,247.678,281.246,207.082,273.505,201.697z"/>
<g>
	<path style="fill:#C1C2C4;" d="M262.476,224.652c-2.081,0-4.157-0.817-5.709-2.44c-3.016-3.152-2.905-8.152,0.249-11.168
		L415.493,75.708c3.15-3.016,8.151-2.906,11.168,0.249c3.016,3.152,2.905,8.152-0.249,11.168L267.934,222.462
		C266.405,223.925,264.438,224.652,262.476,224.652z"/>
	<path style="fill:#C1C2C4;" d="M268.754,248.925c-2.89,0-5.674-1.592-7.062-4.351c-1.961-3.897-0.392-8.646,3.505-10.606
		l187.135-94.841c3.896-1.963,8.646-0.393,10.606,3.505c1.961,3.897,0.392,8.646-3.505,10.606l-187.135,94.841
		C271.16,248.654,269.947,248.925,268.754,248.925z"/>
</g>
<circle style="fill:#ED5A5A;" cx="441.01" cy="62.228" r="26.324"/>
<path style="fill:#E04B4B;" d="M452.983,38.786c-4.134-2.111-8.564-3.02-12.896-2.864c12.361,6.845,17.158,22.308,10.683,34.988
	c-4.501,8.814-13.286,14.003-22.521,14.336c0.261,0.145,0.521,0.292,0.789,0.429c12.948,6.612,28.805,1.476,35.417-11.472
	S465.931,45.398,452.983,38.786z"/>
<path style="fill:#49BC6E;" d="M493.4,157.133c-12.516,7.027-28.358,2.234-35.385-10.704c-7.027-12.939-2.577-29.124,9.939-36.151
	s28.358-2.234,35.385,10.704C510.365,133.921,505.915,150.106,493.4,157.133z"/>
<path style="fill:#3CA56D;" d="M503.339,120.982c-3.75-6.905-10.012-11.488-16.938-13.194c1.522,1.635,2.87,3.491,3.992,5.556
	c7.026,12.939,2.577,29.124-9.939,36.151c-5.836,3.276-12.395,3.981-18.446,2.49c8.01,8.608,20.875,11.053,31.393,5.148
	C505.915,150.106,510.365,133.921,503.339,120.982z"/>
<g>
</g>
<g>
</g>
<g>
</g>
<g>
</g>
<g>
</g>
<g>
</g>
<g>
</g>
<g>
</g>
<g>
</g>
<g>
</g>
<g>
</g>
<g>
</g>
<g>
</g>
<g>
</g>
<g>
</g>
</svg>
