<?xml version="1.0" encoding="iso-8859-1"?>
<!-- Generator: Adobe Illustrator 19.0.0, SVG Export Plug-In . SVG Version: 6.00 Build 0)  -->
<svg version="1.1" id="Capa_1" xmlns="http://www.w3.org/2000/svg" xmlns:xlink="http://www.w3.org/1999/xlink" x="0px" y="0px"
	 viewBox="0 0 512 512" style="enable-background:new 0 0 512 512;" xml:space="preserve">
<rect x="169" y="366.8" style="fill:#FFCF65;" width="174" height="55.55"/>
<path style="fill:#FFB450;" d="M278.354,366.803H169v21.574c26.574,11.848,56.014,18.444,87,18.444c2.11,0,4.213-0.031,6.308-0.093
	c8.793-0.258,16.045,6.827,16.045,15.624l0,0H343v-33.976v-21.574h-64.646V366.803z"/>
<ellipse style="fill:#EDEDEE;" cx="256" cy="193.73" rx="194.12" ry="193.73"/>
<ellipse style="fill:#F9F9F9;" cx="204.72" cy="139.38" rx="103.92" ry="103.72"/>
<path style="fill:#FFFFFF;" d="M186.411,92.43l14.979-0.24c3.409-0.055,4.554,4.532,1.52,6.086l-13.333,6.832
	c-1.425,0.73-2.097,2.396-1.578,3.91l4.857,14.172c1.105,3.225-2.902,5.732-5.319,3.327l-10.618-10.569
	c-1.135-1.129-2.927-1.254-4.206-0.292l-11.978,8.999c-2.726,2.048-6.348-0.989-4.807-4.03l6.77-13.364
	c0.723-1.428,0.288-3.171-1.022-4.091l-12.26-8.611c-2.79-1.959-1.021-6.343,2.347-5.817l14.802,2.309
	c1.582,0.247,3.105-0.706,3.575-2.236l4.401-14.32c1.001-3.259,5.717-2.931,6.258,0.435l2.378,14.791
	C183.433,91.302,184.81,92.456,186.411,92.43z"/>
<path style="fill:#DCDBDE;" d="M256,0c-10.105,0-20.029,0.773-29.718,2.258c93.102,14.275,164.402,94.564,164.402,191.475
	s-71.299,177.2-164.402,191.475c9.689,1.486,19.613,2.258,29.718,2.258c107.209,0,194.119-86.737,194.119-193.733
	C450.119,86.737,363.209,0,256,0z"/>
<path style="fill:#83808C;" d="M399.697,472.708H112.303v-21.739c0-16.366,13.268-29.634,29.634-29.634h228.127
	c16.366,0,29.634,13.268,29.634,29.634v21.739H399.697z"/>
<g>
	<path style="fill:#736F7B;" d="M370.142,421.335h-61.496c16.323,0,29.555,13.303,29.555,29.713v21.659h61.497v-21.659
		C399.697,434.638,386.465,421.335,370.142,421.335z"/>
	<path style="fill:#736F7B;" d="M420.733,512H91.267v-29.51c0-5.554,4.502-10.056,10.056-10.056h309.353
		c5.554,0,10.056,4.502,10.056,10.056V512H420.733z"/>
</g>
<path style="fill:#625D6B;" d="M410.677,472.434h-55.825c5.554,0,10.056,4.502,10.056,10.056V512h55.825v-29.51
	C420.733,476.937,416.231,472.434,410.677,472.434z"/>
<g>
</g>
<g>
</g>
<g>
</g>
<g>
</g>
<g>
</g>
<g>
</g>
<g>
</g>
<g>
</g>
<g>
</g>
<g>
</g>
<g>
</g>
<g>
</g>
<g>
</g>
<g>
</g>
<g>
</g>
</svg>
