<?xml version="1.0" encoding="iso-8859-1"?>
<!-- Generator: Adobe Illustrator 19.0.0, SVG Export Plug-In . SVG Version: 6.00 Build 0)  -->
<svg version="1.1" id="Capa_1" xmlns="http://www.w3.org/2000/svg" xmlns:xlink="http://www.w3.org/1999/xlink" x="0px" y="0px"
	 viewBox="0 0 512 512" style="enable-background:new 0 0 512 512;" xml:space="preserve">
<path style="fill:#736F7B;" d="M256,0L256,0C128.249,0,24.686,103.563,24.686,231.314V488.16c0,13.167,10.674,23.84,23.84,23.84
	H179.63c7.578,0,13.722-6.143,13.722-13.722v-60.307c0-7.578-6.143-13.721-13.722-13.721h-55.164c-5.129,0-9.286-4.158-9.286-9.286
	V234.641c0-77.773,63.047-140.82,140.82-140.82l0,0c77.773,0,140.821,63.047,140.821,140.82v180.322
	c0,5.129-4.158,9.286-9.286,9.286H332.37c-7.578,0-13.722,6.143-13.722,13.721v60.307c0,7.579,6.143,13.722,13.722,13.722h131.104
	c13.167,0,23.84-10.674,23.84-23.84V231.314C487.314,103.563,383.751,0,256,0z M69.035,409.101c-8.937,0-16.181-7.244-16.181-16.181
	c0-8.936,7.244-16.181,16.181-16.181s16.181,7.245,16.181,16.181C85.216,401.857,77.971,409.101,69.035,409.101z M78.744,202.356
	c-8.937,0-16.181-7.244-16.181-16.181c0-8.936,7.244-16.181,16.181-16.181s16.181,7.245,16.181,16.181
	C94.925,195.112,87.68,202.356,78.744,202.356z M256,65.377c-8.937,0-16.181-7.245-16.181-16.181
	c0-8.937,7.244-16.181,16.181-16.181c8.937,0,16.181,7.244,16.181,16.181C272.181,58.132,264.937,65.377,256,65.377z
	 M435.049,170.297c8.937,0,16.181,7.245,16.181,16.181c0,8.937-7.244,16.181-16.181,16.181c-8.936,0-16.181-7.244-16.181-16.181
	C418.868,177.542,426.113,170.297,435.049,170.297z M439.364,409.101c-8.936,0-16.181-7.244-16.181-16.181
	c0-8.936,7.245-16.181,16.181-16.181c8.937,0,16.181,7.245,16.181,16.181C455.545,401.857,448.301,409.101,439.364,409.101z"/>
<g>
	<path style="fill:#625D6B;" d="M179.63,424.249h-55.164c-5.129,0-9.286-4.158-9.286-9.286V234.641
		c0-66.238,45.736-121.784,107.349-136.807c-4.211-0.379-8.472-0.583-12.781-0.583l0,0c-53.708,0-100.387,30.07-124.137,74.289
		c5.498,2.585,9.314,8.158,9.314,14.636c0,8.937-7.244,16.181-16.181,16.181c-1.756,0-3.442-0.288-5.024-0.805
		c-3.12,11.648-4.793,23.888-4.793,36.52v138.673c0.037,0,0.072-0.006,0.109-0.006c8.937,0,16.181,7.245,16.181,16.181
		c0,8.937-7.244,16.181-16.181,16.181c-0.037,0-0.072-0.005-0.109-0.006v9.297c0,5.129,4.158,9.286,9.286,9.286h55.164
		c7.578,0,13.722,6.143,13.722,13.721v60.307c0,4.105-1.811,7.777-4.667,10.292h37.198c7.578,0,13.722-6.143,13.722-13.722v-60.307
		C193.351,430.393,187.208,424.249,179.63,424.249z"/>
	<path style="fill:#625D6B;" d="M256,0L256,0c-13.746,0-27.21,1.206-40.297,3.505c102.872,2.6,189.048,72.366,216.335,167.082
		c0.976-0.184,1.98-0.29,3.01-0.29c8.937,0,16.181,7.245,16.181,16.181c0,7.653-5.319,14.049-12.457,15.733
		c1.497,10.631,2.288,21.489,2.288,32.532v142.085c8.139,0.849,14.484,7.728,14.484,16.091s-6.345,15.242-14.484,16.091v82.579
		c0,8.656-4.614,16.234-11.516,20.41h33.928c13.167,0,23.84-10.674,23.84-23.84V231.314C487.314,103.563,383.751,0,256,0z"/>
</g>
<g>
</g>
<g>
</g>
<g>
</g>
<g>
</g>
<g>
</g>
<g>
</g>
<g>
</g>
<g>
</g>
<g>
</g>
<g>
</g>
<g>
</g>
<g>
</g>
<g>
</g>
<g>
</g>
<g>
</g>
</svg>
