<?xml version="1.0" encoding="iso-8859-1"?>
<!-- Generator: Adobe Illustrator 19.0.0, SVG Export Plug-In . SVG Version: 6.00 Build 0)  -->
<svg version="1.1" id="Capa_1" xmlns="http://www.w3.org/2000/svg" xmlns:xlink="http://www.w3.org/1999/xlink" x="0px" y="0px"
	 viewBox="0 0 512 512" style="enable-background:new 0 0 512 512;" xml:space="preserve">
<path style="fill:#FF915A;" d="M271.913,495.276l200.965-348.082c7.073-12.25-1.768-27.563-15.913-27.563H55.035
	c-14.145,0-22.986,15.313-15.913,27.563l200.965,348.082C247.159,507.526,264.841,507.526,271.913,495.276z"/>
<path style="fill:#FFB864;" d="M472.879,364.806l-124.893-216.32c-1.838,101.243-53.401,190.329-131.306,243.883h240.286
	C471.11,392.369,479.951,377.057,472.879,364.806z"/>
<path style="fill:#FF7955;" d="M456.965,119.631H347.176c0.584,7.676,0.881,15.433,0.881,23.258
	c0,114.719-63.852,214.521-157.952,265.816l49.982,86.571c7.072,12.25,24.754,12.25,31.827,0l200.965-348.082
	C479.951,134.944,471.11,119.631,456.965,119.631z"/>
<path style="fill:#FFCF65;" d="M271.913,16.725l200.965,348.082c7.073,12.25-1.768,27.563-15.913,27.563H55.035
	c-14.145,0-22.986-15.313-15.913-27.563L240.087,16.725C247.159,4.474,264.841,4.474,271.913,16.725z"/>
<path style="fill:#FFB864;" d="M347.986,148.486c-1.838,101.244-53.401,190.33-131.306,243.883h114.647L410.059,256L347.986,148.486
	z"/>
<path style="fill:#AA4141;" d="M418.762,256l60.644-105.038c4.684-8.112,4.684-17.799,0-25.912
	c-4.684-8.112-13.073-12.956-22.441-12.956H335.678L278.44,12.956C273.756,4.844,265.368,0,256,0
	c-9.368,0-17.756,4.844-22.44,12.956l-57.237,99.138H55.035c-9.368,0-17.757,4.844-22.44,12.956c-4.684,8.112-4.684,17.8,0,25.912
	L93.238,256L32.594,361.038c-4.684,8.113-4.684,17.8,0,25.913c4.684,8.112,13.073,12.956,22.44,12.956h121.287l57.237,99.138
	C238.243,507.157,246.632,512,256,512c9.368,0,17.757-4.843,22.44-12.956l57.237-99.138h121.288c9.368,0,17.757-4.844,22.44-12.956
	c4.684-8.112,4.684-17.799,0-25.912L418.762,256z M456.965,127.168c3.919,0,7.427,2.026,9.386,5.419
	c1.959,3.393,1.959,7.445,0,10.838l-56.292,97.501l-65.678-113.758C344.381,127.168,456.965,127.168,456.965,127.168z M401.356,256
	l-74.382,128.833h-141.95L110.643,256l74.381-128.832h141.95L401.356,256z M246.614,20.493c1.959-3.393,5.468-5.419,9.386-5.419
	s7.427,2.026,9.386,5.419l52.886,91.601H193.728L246.614,20.493z M45.648,143.425c-1.959-3.393-1.959-7.445,0-10.838
	c1.959-3.393,5.468-5.419,9.386-5.419h112.584l-65.679,113.758L45.648,143.425z M55.035,384.833c-3.918,0-7.427-2.026-9.386-5.419
	c-1.959-3.394-1.959-7.445,0-10.839l56.292-97.501l65.679,113.759H55.035z M265.386,491.507c-1.959,3.394-5.468,5.419-9.386,5.419
	c-3.918,0-7.427-2.026-9.386-5.419l-52.886-91.601h124.544L265.386,491.507z M466.351,379.414c-1.959,3.393-5.468,5.419-9.386,5.419
	H344.38l65.679-113.759l56.292,97.501C468.311,371.968,468.311,376.02,466.351,379.414z"/>
<path style="fill:#FFEBBE;" d="M256.527,186.928c58.715-0.233,111.914,23.55,150.313,62.107c4.263,4.281,4.29,11.202,0.062,15.517
	c-38.092,38.861-91.1,63.066-149.815,63.299s-111.914-23.55-150.313-62.107c-4.263-4.281-4.291-11.202-0.062-15.517
	C144.803,211.366,197.812,187.161,256.527,186.928z"/>
<path style="fill:#F7DBB5;" d="M406.84,249.035c-18.575-18.652-40.621-33.832-65.072-44.523
	c-9.273,44.812-28.465,85.989-55.166,121.154c46.855-6.755,88.709-28.887,120.299-61.115
	C411.131,260.238,411.103,253.316,406.84,249.035z"/>
<path style="fill:#736F7B;" d="M325.826,198.299c1.462,5.649,2.254,11.569,2.279,17.671c0.157,39.467-31.71,71.588-71.177,71.745
	s-71.588-31.71-71.745-71.177c-0.024-6.103,0.721-12.028,2.138-17.689c21.663-7.625,44.945-11.824,69.206-11.921
	S304.103,190.846,325.826,198.299z"/>
<path style="fill:#FFFFFF;" d="M265.815,187.107c12.347,3.882,21.327,15.391,21.381,29.026
	c0.067,16.873-13.557,30.607-30.431,30.674s-30.606-13.557-30.673-30.431c-0.054-13.635,8.834-25.215,21.15-29.195
	c3.08-0.146,6.173-0.24,9.286-0.252C259.64,186.916,262.734,186.985,265.815,187.107z"/>
<g>
	<path style="fill:#AA4141;" d="M256.223,335.39c-58.52,0-113.454-22.822-154.79-64.328c-7.141-7.17-7.188-18.884-0.105-26.111
		c41.212-42.044,96.318-65.327,155.168-65.561c0.294-0.001,0.599-0.002,0.894-0.002c58.52,0,113.454,22.822,154.79,64.328
		c7.141,7.17,7.188,18.883,0.105,26.111c-41.211,42.044-96.318,65.327-155.168,65.561
		C256.822,335.389,256.518,335.39,256.223,335.39z M257.389,194.463c-0.277,0-0.554,0.001-0.832,0.002
		c-54.789,0.217-106.094,21.895-144.463,61.038c-1.335,1.363-1.326,3.571,0.02,4.923c38.482,38.641,89.633,59.89,144.111,59.891
		c0.277,0,0.554-0.001,0.832-0.002c54.79-0.218,106.094-21.895,144.463-61.038c1.335-1.363,1.327-3.571-0.02-4.923
		C363.018,215.713,311.867,194.463,257.389,194.463z"/>
	<circle style="fill:#AA4141;" cx="120.51" cy="174.04" r="24.15"/>
	<circle style="fill:#AA4141;" cx="120.51" cy="338.21" r="24.15"/>
</g>
<g>
	<circle style="fill:#963737;" cx="390.76" cy="174.04" r="24.15"/>
	<circle style="fill:#963737;" cx="390.76" cy="338.21" r="24.15"/>
	<circle style="fill:#963737;" cx="256" cy="417.14" r="24.15"/>
</g>
<circle style="fill:#AA4141;" cx="256" cy="92.8" r="24.15"/>
<path style="fill:#963737;" d="M418.564,256l60.644-105.038c4.684-8.112,4.684-17.799,0-25.912
	c-4.684-8.112-13.073-12.956-22.441-12.956h-110.26c0.504,4.99,0.887,10.015,1.146,15.074h109.114c3.919,0,7.427,2.026,9.386,5.419
	c1.959,3.393,1.959,7.445,0,10.838l-56.292,97.501L347.902,133.61c0.093,3.083,0.155,6.174,0.155,9.279
	c0,6.713-0.242,13.368-0.673,19.971l30.387,52.632c-10.963-7.274-22.511-13.502-34.518-18.638c-0.915,5.08-1.96,10.114-3.124,15.103
	c21.355,9.522,41.093,22.785,58.396,39.48l2.634,4.563l-4.836,8.375c-28.973,27.568-64.678,45.637-103.386,52.647
	c-4.129,5.856-8.462,11.557-12.987,17.097c34.509-3.699,67.203-15.441,95.915-34.31l-49.088,85.023h-99.6
	c-7.101,5.34-14.451,10.364-22.018,15.074h112.915l-52.886,91.601c-1.959,3.394-5.468,5.419-9.386,5.419s-7.427-2.026-9.386-5.419
	L196.529,405.1c-4.347,2.509-8.76,4.918-13.241,7.213l50.074,86.73c4.684,8.113,13.073,12.956,22.44,12.956
	c9.367,0,17.757-4.843,22.44-12.956l57.237-99.138h121.288c9.368,0,17.757-4.844,22.44-12.956c4.684-8.112,4.684-17.799,0-25.912
	L418.564,256z M466.153,379.414c-1.959,3.393-5.468,5.419-9.386,5.419H344.182l64.101-111.026c0.675-0.655,1.337-1.327,2.005-1.992
	l55.865,96.76C468.113,371.968,468.113,376.02,466.153,379.414z"/>
<g>
</g>
<g>
</g>
<g>
</g>
<g>
</g>
<g>
</g>
<g>
</g>
<g>
</g>
<g>
</g>
<g>
</g>
<g>
</g>
<g>
</g>
<g>
</g>
<g>
</g>
<g>
</g>
<g>
</g>
</svg>
