<?xml version="1.0" encoding="iso-8859-1"?>
<!-- Generator: Adobe Illustrator 19.0.0, SVG Export Plug-In . SVG Version: 6.00 Build 0)  -->
<svg version="1.1" id="Capa_1" xmlns="http://www.w3.org/2000/svg" xmlns:xlink="http://www.w3.org/1999/xlink" x="0px" y="0px"
	 viewBox="0 0 512 512" style="enable-background:new 0 0 512 512;" xml:space="preserve">
<path style="fill:#EDEDEE;" d="M498.157,256c0,141.385-100.773,256-242.157,256S0,397.385,0,256S114.615,0,256,0
	S498.157,114.615,498.157,256z"/>
<path style="fill:#DCDBDE;" d="M256,0c-13.133,0-26.034,0.993-38.635,2.9C340.418,21.528,434.731,127.748,434.731,256
	s-94.312,234.472-217.365,253.099C229.966,511.007,242.867,512,256,512c141.385,0,242.157-114.615,242.157-256
	C498.157,114.615,397.385,0,256,0z"/>
<path style="fill:#736F7B;" d="M256,512c141.385,0,256-114.615,256-256S397.385,0,256,0c-70.692,0-128,57.307-128,128
	c0,70.692,57.308,128,128,128s128,57.307,128,128C384,454.692,326.692,512,256,512z"/>
<path style="fill:#625D6B;" d="M512,256c0-106.065-64.503-197.063-156.421-235.91c-31.26-12.188-63.421-19.316-94.475-20.025
	C259.406,0.031,257.707,0,256,0c-11.025,0-21.724,1.395-31.932,4.016C343.825,25.42,434.731,130.088,434.731,256
	c0,59.369-20.221,114.009-54.137,157.432C367.297,469.937,316.563,512,256,512C397.385,512,512,397.385,512,256z"/>
<circle style="fill:#DCDBDE;" cx="256" cy="120.5" r="31.54"/>
<path style="fill:#EDEDEE;" d="M240.842,92.834c-9.763,5.361-16.382,15.738-16.382,27.662c0,11.925,6.619,22.301,16.382,27.662
	c9.763-5.361,16.382-15.738,16.382-27.662C257.225,108.572,250.605,98.196,240.842,92.834z"/>
<circle style="fill:#736F7B;" cx="256" cy="390.69" r="31.54"/>
<path style="fill:#625D6B;" d="M271.77,363.379c-9.425,5.454-15.77,15.638-15.77,27.31s6.345,21.856,15.77,27.31
	c9.425-5.454,15.77-15.638,15.77-27.31C287.54,379.017,281.195,368.833,271.77,363.379z"/>
<g>
</g>
<g>
</g>
<g>
</g>
<g>
</g>
<g>
</g>
<g>
</g>
<g>
</g>
<g>
</g>
<g>
</g>
<g>
</g>
<g>
</g>
<g>
</g>
<g>
</g>
<g>
</g>
<g>
</g>
</svg>
