<?xml version="1.0" encoding="iso-8859-1"?>
<!-- Generator: Adobe Illustrator 19.0.0, SVG Export Plug-In . SVG Version: 6.00 Build 0)  -->
<svg version="1.1" id="Capa_1" xmlns="http://www.w3.org/2000/svg" xmlns:xlink="http://www.w3.org/1999/xlink" x="0px" y="0px"
	 viewBox="0 0 512 512" style="enable-background:new 0 0 512 512;" xml:space="preserve">
<path style="fill:#FFCF65;" d="M174.918,512c-9.759,0-19.49-1.327-28.925-3.945l-0.727-0.211c-0.155-0.046-0.303-0.092-0.449-0.142
	l-12.798-4.365c-0.365-0.125-0.72-0.269-1.067-0.433l-0.51-0.241C71.044,477.325,26.574,407.639,22.296,333.175
	c-0.295-5.127,1.563-10.224,5.098-13.981c3.548-3.773,8.561-5.963,13.753-6.012l26.013-0.232c9.87,0,18.212,7.706,18.992,17.544
	c1.815,22.845,10.543,47.738,24.576,70.094c13.204,21.036,29.417,36.871,44.498,43.464l8.364,2.868
	c18.878,5.037,38.393-2.555,49.747-19.357c11.822-17.488,11.822-40.986,0.001-58.472c-10.775-15.941-28.679-23.63-46.734-20.072
	c-6.957,1.375-14.033-2.099-17.208-8.458l-14.963-29.941c-3.379-6.762-1.45-14.989,4.587-19.565c0.323-0.245,0.663-0.472,1.01-0.675
	l2.183-1.272c21.276-12.739,38.782-30.298,48.002-48.161c9.463-18.331,6.738-28.49,4.272-32.913
	c-3.327-5.966-11.631-9.378-28.662-11.776c-12.071-1.695-33.871,4.656-58.323,16.982c-8.222,4.147-18.312,1.193-22.975-6.72
	L69.95,181.793c-2.44-4.14-3.053-9.152-1.683-13.75c1.371-4.596,4.629-8.463,8.94-10.608c17.089-8.503,60.318-27.91,92.577-24.537
	c39.389,4.132,66.503,19.036,80.588,44.298c14.709,26.379,13.495,60.202-3.332,92.797c-3.141,6.083-6.873,12.173-11.122,18.149
	l5.046,0.492l32.228-0.002c2.917,0,5.27-2.221,6.031-5.674c0.029-0.368,25.799-79.998,44.821-97.234
	c21.182-19.212,48.278-27.713,74.331-23.334c49.891,8.394,86.421,58.054,90.9,123.57c4.342,63.532-22.548,119.085-68.507,141.527
	c-29.469,14.389-57.116,6.558-70.974,0.61c-4.184-1.794-7.429-5.284-8.902-9.572c-1.471-4.284-1.051-9.015,1.151-12.979
	l15.367-27.644c3.878-6.977,12.137-10.064,19.636-7.335c4.086,1.484,10.201,2.623,16.138-0.4
	c8.304-4.229,16.923-14.702,23.056-28.017c7.216-15.665,10.52-34.098,9.303-51.903c-1.21-17.689-6.55-34.357-15.035-46.933
	c-6.889-10.209-15.411-17.046-22.798-18.288c-7.229-1.219-13.408,1.065-20.658,7.643c-9.195,8.338-16.707,22.396-20.617,38.574
	l-4.198,21.779c-0.031,0.165-0.068,0.335-0.11,0.505c-7.957,49.587-45.805,51.679-68.961,51.585
	c8.549,16.485,13.015,34.985,12.94,53.689c-0.093,23.02-6.929,45.228-19.769,64.223c-20.725,30.663-54.897,48.972-91.41,48.974
	h0.001C174.926,512,174.921,512,174.918,512z"/>
<g>
	<path style="fill:#FFB450;" d="M155.226,444.052c-15.081-6.592-31.294-22.428-44.498-43.464
		c-14.033-22.356-22.761-47.248-24.576-70.094c-0.78-9.839-9.123-17.544-18.992-17.544l-26.013,0.232
		c-0.844,0.008-1.68,0.093-2.509,0.212c8.036,1.748,14.323,8.627,14.995,17.101c1.815,22.845,10.543,47.738,24.576,70.094
		c13.204,21.036,29.417,36.872,44.498,43.464l8.364,2.868c9.519,2.54,19.199,1.865,27.914-1.579L155.226,444.052z"/>
	<path style="fill:#FFB450;" d="M489.277,285.962c-4.479-65.516-41.009-115.176-90.9-123.57c-9.931-1.669-20.014-1.462-29.863,0.492
		c48.527,9.683,83.844,58.731,88.243,123.078c4.342,63.532-22.548,119.085-68.507,141.527c-6.52,3.184-12.95,5.276-19.163,6.545
		c14.303,2.769,32.608,2.768,51.682-6.545C466.729,405.047,493.619,349.494,489.277,285.962z"/>
	<path style="fill:#FFB450;" d="M217.853,177.196c14.709,26.379,13.495,60.202-3.332,92.797c-2.417,4.681-5.184,9.365-8.266,13.999
		c-1.254,1.884-0.062,4.423,2.191,4.643l0,0l32.228-0.002c0.047,0,0.09-0.012,0.137-0.013l-4.891-0.477
		c4.248-5.976,7.98-12.066,11.122-18.149c16.827-32.595,18.041-66.418,3.332-92.797c-14.085-25.262-41.199-40.166-80.588-44.298
		c-7.696-0.805-16.018-0.303-24.458,1.028C180.369,139.167,204.751,153.697,217.853,177.196z"/>
	<path style="fill:#FFB450;" d="M342.129,293.529c0.042-0.17,0.08-0.339,0.11-0.505l4.198-21.779
		c3.91-16.179,11.422-30.236,20.617-38.574c0.319-0.29,0.633-0.56,0.948-0.833c-4.306-3.725-8.731-6.124-12.811-6.811
		c-7.229-1.219-13.408,1.065-20.658,7.643c-9.195,8.338-16.707,22.396-20.617,38.574l-4.198,21.779
		c-0.031,0.166-0.068,0.335-0.11,0.505c-6.845,42.657-35.81,50.167-58.513,51.373c-4.823,0.256-7.91,5.182-6.086,9.654
		c5.698,13.965,8.639,29.039,8.578,44.247c-0.093,23.02-6.929,45.228-19.769,64.223c-17.599,26.039-44.897,43.161-75.089,47.737
		c5.357,0.813,10.767,1.237,16.187,1.237c0.003,0,0.008,0,0.011,0c36.512-0.002,70.684-18.311,91.41-48.974
		c12.84-18.995,19.676-41.203,19.769-64.223c0.075-18.704-4.391-37.204-12.94-53.689
		C296.323,345.208,334.171,343.116,342.129,293.529z"/>
	<path style="fill:#FFB450;" d="M85.649,208.177c5.023,6.644,14.235,8.905,21.852,5.064c13.833-6.973,26.813-12.029,37.668-14.803
		c-3.382-0.818-7.301-1.536-11.864-2.179C123.024,194.816,105.674,199.227,85.649,208.177z"/>
</g>
<path style="fill:#FFCF65;" d="M292.576,140.851c-5.185,0-10.416-0.354-15.549-1.054c-36.694-5.007-69.556-27.652-87.907-60.575
	c-2.699-4.844-0.935-10.97,3.931-13.656l38.212-21.096c2.325-1.286,5.125-1.604,7.68-0.873c2.591,0.739,4.74,2.438,6.047,4.786
	c8.781,15.756,23.627,26.13,40.731,28.462c16.939,2.308,33.662-3.621,45.883-16.275c3.856-3.99,10.259-4.119,14.272-0.283
	l31.487,30.091c1.945,1.858,3.046,4.359,3.1,7.042s-0.945,5.225-2.812,7.16C355.399,127.631,324.39,140.851,292.576,140.851z"/>
<g>
	<path style="fill:#FFB450;" d="M257.561,76.843c7.222,0.984,14.401,0.457,21.212-1.436c-14.139-3.882-26.217-13.448-33.784-27.026
		c-1.307-2.348-3.456-4.047-6.047-4.786c-2.555-0.73-5.354-0.412-7.68,0.874l-12.609,6.961
		C227.587,65.469,241.587,74.665,257.561,76.843z"/>
	<path style="fill:#FFB450;" d="M377.361,90.377l-31.487-30.091c-4.013-3.836-10.415-3.707-14.272,0.283
		c-2.221,2.3-4.594,4.37-7.087,6.216l24.686,23.592c1.945,1.858,3.046,4.359,3.1,7.042c0.054,2.683-0.945,5.225-2.812,7.16
		c-18.939,19.621-44.224,32.112-70.949,35.398c4.646,0.57,9.358,0.874,14.035,0.874c31.815,0,62.823-13.22,85.073-36.272
		c1.868-1.935,2.867-4.477,2.812-7.16C380.406,94.736,379.305,92.235,377.361,90.377z"/>
</g>
<path style="fill:#FFCF65;" d="M294.328,48.437c-13.033,0-23.636-10.863-23.636-24.217c0-13.356,10.602-24.22,23.634-24.22
	c13.032,0,23.635,10.864,23.635,24.218S307.359,48.437,294.328,48.437z"/>
<path style="fill:#FFB450;" d="M294.326,0c-1.746,0-3.445,0.201-5.084,0.57c10.596,2.39,18.551,12.083,18.551,23.648
	s-7.954,21.257-18.55,23.648c1.639,0.37,3.339,0.57,5.084,0.57c13.031,0,23.633-10.864,23.633-24.218
	C317.961,10.864,307.359,0,294.326,0z"/>
<g>
</g>
<g>
</g>
<g>
</g>
<g>
</g>
<g>
</g>
<g>
</g>
<g>
</g>
<g>
</g>
<g>
</g>
<g>
</g>
<g>
</g>
<g>
</g>
<g>
</g>
<g>
</g>
<g>
</g>
</svg>
