<?xml version="1.0" encoding="iso-8859-1"?>
<!-- Generator: Adobe Illustrator 19.0.0, SVG Export Plug-In . SVG Version: 6.00 Build 0)  -->
<svg version="1.1" id="Capa_1" xmlns="http://www.w3.org/2000/svg" xmlns:xlink="http://www.w3.org/1999/xlink" x="0px" y="0px"
	 viewBox="0 0 512 512" style="enable-background:new 0 0 512 512;" xml:space="preserve">
<path style="fill:#736F7B;" d="M395.702,512h-42.536c-6.112,0-11.066-4.955-11.066-11.066V72.328
	c0-6.112,4.955-11.066,11.066-11.066h42.536c6.112,0,11.066,4.955,11.066,11.066v428.606C406.768,507.045,401.814,512,395.702,512z"
	/>
<path style="fill:#625D6B;" d="M395.702,61.262h-25.756c6.112,0,11.066,4.954,11.066,11.066v219.521H342.1v64.669h12.606
	c14.529,0,26.308,11.778,26.308,26.308v118.108c0,6.111-4.955,11.066-11.066,11.066h25.756c6.112,0,11.066-4.955,11.066-11.066
	V356.518v-64.669V72.328C406.768,66.216,401.814,61.262,395.702,61.262z"/>
<path style="fill:#736F7B;" d="M474.737,266.094H244.161c21.051-27.378,33.733-61.525,34.193-98.62
	C279.493,75.679,204.787,0,112.986,0c-29.662,0-57.5,7.809-81.57,21.484c-6.007,3.413-7.814,11.238-3.924,16.948l21.641,31.774
	c3.404,4.998,10.05,6.721,15.369,3.846c14.791-7.994,31.776-12.447,49.822-12.216c54.118,0.693,100.11,46.692,100.788,100.811
	c0.67,53.443-39.579,97.598-91.448,102.912c-5.997,0.614-10.54,5.698-10.554,11.726l-0.101,43.692
	c-0.012,5.402,4.363,9.787,9.764,9.787h351.963c6.532,0,11.828-5.295,11.828-11.828v-41.014
	C486.565,271.389,481.269,266.094,474.737,266.094z"/>
<g>
	<path style="fill:#625D6B;" d="M239.388,167.473c-0.298,24.055-5.736,46.87-15.263,67.404
		c-6.758,14.566,3.978,31.216,20.036,31.216l0,0c21.051-27.377,33.733-61.525,34.193-98.62C279.493,75.679,204.787,0,112.986,0
		c-6.598,0-13.1,0.408-19.496,1.159C176.147,10.955,240.445,82.265,239.388,167.473z"/>
	<path style="fill:#625D6B;" d="M474.737,266.094H435.77c6.532,0,11.827,5.295,11.827,11.827v41.014
		c0,6.532-5.295,11.828-11.828,11.828h38.967c6.532,0,11.828-5.296,11.828-11.828v-41.014
		C486.565,271.389,481.269,266.094,474.737,266.094z"/>
</g>
<g>
</g>
<g>
</g>
<g>
</g>
<g>
</g>
<g>
</g>
<g>
</g>
<g>
</g>
<g>
</g>
<g>
</g>
<g>
</g>
<g>
</g>
<g>
</g>
<g>
</g>
<g>
</g>
<g>
</g>
</svg>
