<?xml version="1.0" encoding="iso-8859-1"?>
<!-- Generator: Adobe Illustrator 19.0.0, SVG Export Plug-In . SVG Version: 6.00 Build 0)  -->
<svg version="1.1" id="Capa_1" xmlns="http://www.w3.org/2000/svg" xmlns:xlink="http://www.w3.org/1999/xlink" x="0px" y="0px"
	 viewBox="0 0 512 512" style="enable-background:new 0 0 512 512;" xml:space="preserve">
<g>
	<rect x="224.159" y="87.73" style="fill:#2BB7FF;" width="63.68" height="141.74"/>
	<path style="fill:#2BB7FF;" d="M346.901,86.019l-46.256-45.603L262.673,2.981c-4.072-4.014-10.627-3.968-14.642,0.104
		l-37.436,37.972l-45.602,46.256c-4.014,4.072-3.968,10.627,0.104,14.642l30.599,30.167c4.072,4.014,10.627,3.968,14.642-0.104
		l13.823-14.021v111.472h63.676v-112.26l14.359,14.156c4.072,4.014,10.627,3.968,14.642-0.104l30.167-30.599
		C351.02,96.588,350.973,90.033,346.901,86.019z"/>
</g>
<g>
	<path style="fill:#2B96F5;" d="M346.901,86.019l-46.256-45.603L262.673,2.981c-4.072-4.014-10.627-3.968-14.642,0.104l-5.079,5.152
		l32.64,32.179l46.256,45.603c4.072,4.014,4.119,10.57,0.104,14.642l-25.088,25.447l5.332,5.256
		c4.072,4.014,10.627,3.968,14.642-0.104l30.167-30.599C351.02,96.588,350.973,90.033,346.901,86.019z"/>
	<path style="fill:#2B96F5;" d="M262.784,142.26v87.208h25.053v-112.26l0,0C274.001,117.207,262.784,128.424,262.784,142.26z"/>
</g>
<circle style="fill:#ED5A5A;" cx="255.999" cy="351.299" r="31.838"/>
<path style="fill:#E04B4B;" d="M255.999,319.466c-2.854,0-5.617,0.381-8.249,1.085c13.584,3.635,23.59,16.022,23.59,30.753
	c0,14.73-10.006,27.118-23.589,30.753c2.631,0.704,5.395,1.085,8.248,1.085c17.584,0,31.838-14.254,31.838-31.838
	S273.583,319.466,255.999,319.466z"/>
<path style="fill:#2BB7FF;" d="M377.339,249c-57.701-68.437-158.803-78.114-225.817-21.613S76.959,385.171,134.66,453.609
	s158.803,78.114,225.817,21.613C427.491,418.72,435.04,317.437,377.339,249z M320.011,427.226
	c-41.058,34.618-103.002,28.689-138.354-13.242c-35.353-41.93-30.728-103.984,10.33-138.602s103.002-28.689,138.354,13.242
	C365.694,330.555,361.069,392.609,320.011,427.226z"/>
<path style="fill:#2B96F5;" d="M377.339,249c-36.185-42.917-89.436-62.721-140.646-57.593c40.65,4.046,80.101,23.544,108.808,57.593
	c57.701,68.438,50.152,169.721-16.862,226.222c-24.989,21.069-54.719,32.931-85.171,35.98c41.056,4.086,83.336-7.589,117.009-35.98
	C427.491,418.72,435.04,317.437,377.339,249z"/>
<g>
</g>
<g>
</g>
<g>
</g>
<g>
</g>
<g>
</g>
<g>
</g>
<g>
</g>
<g>
</g>
<g>
</g>
<g>
</g>
<g>
</g>
<g>
</g>
<g>
</g>
<g>
</g>
<g>
</g>
</svg>
