<?xml version="1.0" encoding="iso-8859-1"?>
<!-- Generator: Adobe Illustrator 19.0.0, SVG Export Plug-In . SVG Version: 6.00 Build 0)  -->
<svg version="1.1" id="Capa_1" xmlns="http://www.w3.org/2000/svg" xmlns:xlink="http://www.w3.org/1999/xlink" x="0px" y="0px"
	 viewBox="0 0 512 512" style="enable-background:new 0 0 512 512;" xml:space="preserve">
<path style="fill:#49BC6E;" d="M183.692,0.003h-40.785c-5.405,0.139-9.7,5.782-9.7,10.286v392.585
	c0,4.706,4.672,10.192,10.319,10.047h40.784c5.405-0.139,9.7-5.542,9.7-10.047V10.289C194.012,5.583,189.339-0.143,183.692,0.003z"
	/>
<path style="fill:#3CA56D;" d="M183.692,0.003h-24.814c5.647-0.146,10.319,5.58,10.319,10.286v392.585
	c0,4.505-4.295,9.907-9.7,10.047h24.814c5.405-0.139,9.7-5.542,9.7-10.047V10.289C194.012,5.583,189.339-0.143,183.692,0.003z"/>
<path style="fill:#49BC6E;" d="M74.734,92.308V51.782c0-5.6,4.54-10.139,10.139-10.139h157.473c5.6,0,10.139,4.54,10.139,10.139
	v40.525c0,5.6-4.54,10.139-10.139,10.139H84.873C79.273,102.447,74.734,97.907,74.734,92.308z"/>
<path style="fill:#3CA56D;" d="M242.346,41.643h-25.848c5.6,0,10.139,4.54,10.139,10.139v40.525c0,5.6-4.539,10.139-10.139,10.139
	h25.848c5.6,0,10.139-4.539,10.139-10.139V51.782C252.486,46.182,247.946,41.643,242.346,41.643z"/>
<path style="fill:#49BC6E;" d="M194.01,163.164c25.554-19.983,57.726-31.893,92.679-31.893c83.161,0,150.577,67.416,150.577,150.577
	c0,55.199-29.701,103.461-73.994,129.675l-0.3,0.307c-6.374,3.462-10.701,10.215-10.701,17.979c0,9.649,6.683,17.737,15.674,19.887
	c2.875,0.688,4.893,3.281,5.023,6.234l2.154,49.01c0.181,4.118-3.334,7.417-7.437,7.027c-41.162-3.907-73.362-38.572-73.362-80.757
	c0-29.901,16.177-56.024,40.257-70.094l0.041,0.068c26.821-16.239,44.747-45.694,44.747-79.337
	c0-51.184-41.493-92.678-92.678-92.678s-92.678,41.493-92.678,92.678L194.01,163.164z"/>
<path style="fill:#3CA56D;" d="M362.972,411.831l0.3-0.307c44.293-26.215,73.994-74.476,73.994-129.675
	c0-83.161-67.416-150.577-150.577-150.577c-5.951,0-11.82,0.353-17.591,1.025c74.885,8.701,133.015,72.333,133.015,149.552
	c0,55.199-29.701,103.461-73.994,129.675l-0.3,0.307c-2.779,1.51-17.51,8.798-33.243,13.044c-0.162,2.092-0.253,4.203-0.253,6.337
	c0,42.185,32.2,76.85,73.362,80.757c4.103,0.389,7.618-2.909,7.437-7.027l-2.154-49.01c-0.13-2.953-2.147-5.547-5.022-6.234
	c-8.99-2.15-15.673-10.238-15.673-19.887C352.271,422.047,356.598,415.293,362.972,411.831z"/>
<g>
</g>
<g>
</g>
<g>
</g>
<g>
</g>
<g>
</g>
<g>
</g>
<g>
</g>
<g>
</g>
<g>
</g>
<g>
</g>
<g>
</g>
<g>
</g>
<g>
</g>
<g>
</g>
<g>
</g>
</svg>
