<?xml version="1.0" encoding="iso-8859-1"?>
<!-- Generator: Adobe Illustrator 19.0.0, SVG Export Plug-In . SVG Version: 6.00 Build 0)  -->
<svg version="1.1" id="Capa_1" xmlns="http://www.w3.org/2000/svg" xmlns:xlink="http://www.w3.org/1999/xlink" x="0px" y="0px"
	 viewBox="0 0 511.999 511.999" style="enable-background:new 0 0 511.999 511.999;" xml:space="preserve">
<g>
	<path style="fill:#ED5A5A;" d="M202.098,135.521C100.31,137.696,19.596,223.727,21.817,327.677s86.537,186.455,188.324,184.28
		s182.502-88.206,180.281-192.156S303.886,133.346,202.098,135.521z M208.758,447.238c-66.788,1.427-122.112-52.709-123.569-120.915
		c-1.457-68.207,51.504-124.656,118.292-126.083s122.112,52.709,123.569,120.915C328.507,389.362,275.546,445.811,208.758,447.238z"
		/>
	<path style="fill:#ED5A5A;" d="M490.186,158.733l-7.924-95.659l-4.357-52.591c-0.521-6.289-6.041-10.964-12.33-10.443
		l-52.591,4.356l-95.66,7.924c-6.289,0.521-10.964,6.041-10.444,12.33l3.413,41.205c0.521,6.289,6.041,10.964,12.33,10.443
		l47.564-3.94L269.04,198.578l50.096,40.145l102.647-128.092l4.424,53.403c0.521,6.289,6.041,10.964,12.33,10.443l41.204-3.413
		C486.032,170.541,490.707,165.021,490.186,158.733z"/>
</g>
<g>
	<path style="fill:#E04B4B;" d="M490.186,158.733l-7.924-95.659l-4.357-52.591c-0.521-6.289-6.041-10.964-12.33-10.443
		l-10.356,0.856l3.913,47.244l7.924,95.659c0.521,6.289-4.155,11.809-10.444,12.33l-30.848,2.555l0.443,5.348
		c0.521,6.289,6.041,10.964,12.33,10.443l41.204-3.413C486.032,170.541,490.707,165.021,490.186,158.733z"/>
	<path style="fill:#E04B4B;" d="M347.435,202.987l74.35-92.357l0,0c-11.21,0-21.818,5.076-28.85,13.807l-22.292,27.674
		c-16.45,20.421-45.63,25.444-67.799,11.438c-29.23-18.467-63.837-28.816-100.745-28.028c-5.803,0.124-11.534,0.534-17.188,1.191
		c90.248,10.519,161.296,87.785,163.332,183.089c2.094,98.023-69.564,180.1-163.093,190.965c8.186,0.954,16.527,1.372,24.993,1.191
		c101.787-2.175,182.502-88.206,180.281-192.156C389.471,275.266,373.441,234.676,347.435,202.987z"/>
</g>
<g>
</g>
<g>
</g>
<g>
</g>
<g>
</g>
<g>
</g>
<g>
</g>
<g>
</g>
<g>
</g>
<g>
</g>
<g>
</g>
<g>
</g>
<g>
</g>
<g>
</g>
<g>
</g>
<g>
</g>
</svg>
