<?xml version="1.0" encoding="iso-8859-1"?>
<!-- Generator: Adobe Illustrator 19.0.0, SVG Export Plug-In . SVG Version: 6.00 Build 0)  -->
<svg version="1.1" id="Capa_1" xmlns="http://www.w3.org/2000/svg" xmlns:xlink="http://www.w3.org/1999/xlink" x="0px" y="0px"
	 viewBox="0 0 512 512" style="enable-background:new 0 0 512 512;" xml:space="preserve">
<path style="fill:#736F7B;" d="M366.529,217.985c0-59.803-49.485-108.282-110.529-108.282s-110.529,48.48-110.529,108.282
	c0,48.975,33.192,90.349,78.738,103.728v180.396c0,5.463,4.428,9.891,9.891,9.891h43.8c5.462,0,9.891-4.428,9.891-9.891V321.713
	C333.337,308.334,366.529,266.96,366.529,217.985z M256,264.141c-26.02,0-47.114-20.665-47.114-46.156S229.98,171.829,256,171.829
	s47.114,20.665,47.114,46.156C303.114,243.477,282.02,264.141,256,264.141z"/>
<path style="fill:#625D6B;" d="M256,109.703c-5.398,0-10.704,0.387-15.895,1.119c53.511,7.551,94.633,52.649,94.633,107.163
	c0,45.189-28.258,83.906-68.405,100.132c-6.222,2.515-10.333,8.505-10.333,15.217v89.536h-31.791v63.581h16.132
	c8.648,0,15.658,7.01,15.658,15.658l0,0c0,5.463-4.428,9.891-9.891,9.891H277.9c5.462,0,9.891-4.428,9.891-9.891V321.713
	c45.546-13.379,78.738-54.753,78.738-103.728C366.529,158.182,317.043,109.703,256,109.703z"/>
<path style="fill:#736F7B;" d="M173.527,444.878v-44.017c0-5.403,4.38-9.782,9.782-9.782h145.382c5.402,0,9.782,4.38,9.782,9.782
	v44.017c0,5.403-4.38,9.782-9.782,9.782H183.309C177.907,454.66,173.527,450.281,173.527,444.878z"/>
<path style="fill:#625D6B;" d="M328.691,391.079h-35.359c5.402,0,9.782,4.38,9.782,9.782v44.017c0,5.403-4.38,9.782-9.782,9.782
	h35.359c5.402,0,9.782-4.38,9.782-9.782v-44.017C338.473,395.459,334.093,391.079,328.691,391.079z"/>
<path style="fill:#736F7B;" d="M312.905,0c-5.22,0-9.641,3.73-10.656,8.851C298.035,30.108,278.93,46.156,256,46.156
	S213.965,30.108,209.751,8.85C208.736,3.73,204.315,0,199.095,0h-42.157c-6.49,0-11.516,5.66-10.784,12.109
	c6.145,54.103,52.98,96.174,109.845,96.174S359.7,66.213,365.844,12.109C366.578,5.66,361.552,0,355.062,0H312.905z"/>
<g>
	<path style="fill:#625D6B;" d="M189.809,8.851c4.214,21.257,23.318,37.306,46.249,37.306c3.422,0,6.756-0.365,9.971-1.044
		c-18.327-3.87-32.692-18.177-36.277-36.262C208.736,3.73,204.316,0,199.095,0h-19.943C184.373,0,188.793,3.73,189.809,8.851z"/>
	<path style="fill:#625D6B;" d="M355.062,0h-19.943c6.49,0,11.516,5.66,10.784,12.109c-5.782,50.905-47.587,91.153-99.874,95.734
		c3.285,0.288,6.61,0.44,9.971,0.44c56.865,0,103.7-42.07,109.845-96.174C366.578,5.66,361.552,0,355.062,0z"/>
</g>
<g>
</g>
<g>
</g>
<g>
</g>
<g>
</g>
<g>
</g>
<g>
</g>
<g>
</g>
<g>
</g>
<g>
</g>
<g>
</g>
<g>
</g>
<g>
</g>
<g>
</g>
<g>
</g>
<g>
</g>
</svg>
