<?xml version="1.0" encoding="iso-8859-1"?>
<!-- Generator: Adobe Illustrator 19.0.0, SVG Export Plug-In . SVG Version: 6.00 Build 0)  -->
<svg version="1.1" id="Capa_1" xmlns="http://www.w3.org/2000/svg" xmlns:xlink="http://www.w3.org/1999/xlink" x="0px" y="0px"
	 viewBox="0 0 512 512" style="enable-background:new 0 0 512 512;" xml:space="preserve">
<path style="fill:#FFCF65;" d="M407.747,148.875c0-82.104-67.94-148.663-151.747-148.663c-83.808,0-151.747,66.559-151.747,148.663
	c0,71.565,51.62,131.312,120.371,145.474V502.15c0,5.44,4.41,9.85,9.85,9.85h43.053c5.44,0,9.85-4.41,9.85-9.85V294.349
	C356.127,280.187,407.747,220.44,407.747,148.875z M256,239.034c-50.826,0-92.03-40.366-92.03-90.159S205.173,58.716,256,58.716
	s92.03,40.366,92.03,90.159C348.03,198.669,306.826,239.034,256,239.034z"/>
<path style="fill:#FFB450;" d="M256,0c-5.297,0-10.531,0.268-15.688,0.787c76.436,7.691,136.059,70.961,136.059,147.876
	c0,63.905-41.16,118.386-98.924,139.4C264.625,292.728,256,304.796,256,318.44v86.88h-31.376v62.753l0,0
	c17.329,0,31.376,14.048,31.376,31.376v2.488c0,5.44-4.41,9.85-9.85,9.85h31.376c5.44,0,9.85-4.41,9.85-9.85v-207.8
	c68.751-14.161,120.371-73.908,120.371-145.474C407.747,66.559,339.808,0,256,0z"/>
<path style="fill:#FFCF65;" d="M163.97,416.625v-43.053c0-5.44,4.41-9.85,9.85-9.85h164.36c5.44,0,9.85,4.41,9.85,9.85v43.053
	c0,5.44-4.41,9.85-9.85,9.85H173.82C168.38,426.475,163.97,422.065,163.97,416.625z"/>
<path style="fill:#FFB450;" d="M338.18,363.722h-37.832c5.44,0,9.85,4.41,9.85,9.85v43.053c0,5.44-4.41,9.85-9.85,9.85h37.832
	c5.44,0,9.85-4.41,9.85-9.85v-43.053C348.03,368.132,343.62,363.722,338.18,363.722z"/>
<g>
</g>
<g>
</g>
<g>
</g>
<g>
</g>
<g>
</g>
<g>
</g>
<g>
</g>
<g>
</g>
<g>
</g>
<g>
</g>
<g>
</g>
<g>
</g>
<g>
</g>
<g>
</g>
<g>
</g>
</svg>
