<?xml version="1.0" encoding="iso-8859-1"?>
<!-- Generator: Adobe Illustrator 19.0.0, SVG Export Plug-In . SVG Version: 6.00 Build 0)  -->
<svg version="1.1" id="Capa_1" xmlns="http://www.w3.org/2000/svg" xmlns:xlink="http://www.w3.org/1999/xlink" x="0px" y="0px"
	 viewBox="0 0 512 512" style="enable-background:new 0 0 512 512;" xml:space="preserve">
<path style="fill:#FFCF65;" d="M256,0C114.615,0,0,114.615,0,256s114.615,256,256,256s256-114.615,256-256S397.385,0,256,0z
	 M257.886,445.454c-103.591,0-187.568-83.977-187.568-187.568S154.296,70.319,257.886,70.319s187.568,83.977,187.568,187.567
	S361.477,445.454,257.886,445.454z"/>
<path style="fill:#FFB450;" d="M256,0c-0.724,0-1.443,0.021-2.166,0.027c127.395,14.717,226.308,122.936,226.308,254.276
	c0,140.661-113.448,254.806-253.834,255.972C236.051,511.402,245.955,512,256,512c141.385,0,256-114.615,256-256S397.385,0,256,0z"
	/>
<circle style="fill:#ED5A5A;" cx="256" cy="256.94" r="51.641"/>
<path style="fill:#E04B4B;" d="M256,205.302c-5.162,0-10.143,0.767-14.846,2.177c21.282,6.379,36.795,26.106,36.795,49.465
	s-15.513,43.086-36.795,49.465c4.703,1.41,9.684,2.177,14.846,2.177c28.521,0,51.641-23.121,51.641-51.641
	C307.641,228.423,284.521,205.302,256,205.302z"/>
<g>
</g>
<g>
</g>
<g>
</g>
<g>
</g>
<g>
</g>
<g>
</g>
<g>
</g>
<g>
</g>
<g>
</g>
<g>
</g>
<g>
</g>
<g>
</g>
<g>
</g>
<g>
</g>
<g>
</g>
</svg>
