<?xml version="1.0" encoding="iso-8859-1"?>
<!-- Generator: Adobe Illustrator 19.0.0, SVG Export Plug-In . SVG Version: 6.00 Build 0)  -->
<svg version="1.1" id="Capa_1" xmlns="http://www.w3.org/2000/svg" xmlns:xlink="http://www.w3.org/1999/xlink" x="0px" y="0px"
	 viewBox="0 0 512.001 512.001" style="enable-background:new 0 0 512.001 512.001;" xml:space="preserve">
<path style="fill:#EDEDEE;" d="M229.377,285.637c-65.291-77.349-79.055-180.964-44.846-269.12
	c3.885-10.01-6.205-19.829-16.006-15.442c-23.033,10.312-44.992,24.089-65.124,41.408C-8.04,138.354-21.294,304.857,73.528,417.191
	c95.144,112.715,263.647,126.96,376.362,31.816c19.596-16.541,36.208-35.303,49.789-55.603c5.974-8.929-2.003-20.53-12.528-18.38
	C394.503,393.95,294.669,362.987,229.377,285.637z"/>
<g>
	<path style="fill:#DCDBDE;" d="M177.657,284.317c57.242,67.814,141.036,99.97,223.26,94.115
		c-64.508-7.9-126.312-39.214-171.539-92.795c-65.291-77.349-79.055-180.964-44.846-269.12c3.885-10.01-6.205-19.829-16.006-15.442
		c-13.166,5.895-25.979,12.927-38.303,21.1C99.367,108.779,114.08,208.999,177.657,284.317z"/>
	<path style="fill:#DCDBDE;" d="M487.151,375.025c-12.739,2.602-25.614,4.256-38.516,4.98c1.873,3.588,1.988,8.098-0.676,12.079
		c-13.581,20.299-30.193,39.061-49.789,55.603c-44.903,37.903-98.661,58.427-153.106,62.299
		c71.198,8.727,145.69-11.061,204.827-60.979c19.596-16.541,36.208-35.303,49.789-55.603
		C505.653,384.475,497.677,372.874,487.151,375.025z"/>
</g>
<g>
</g>
<g>
</g>
<g>
</g>
<g>
</g>
<g>
</g>
<g>
</g>
<g>
</g>
<g>
</g>
<g>
</g>
<g>
</g>
<g>
</g>
<g>
</g>
<g>
</g>
<g>
</g>
<g>
</g>
</svg>
