<?xml version="1.0" encoding="iso-8859-1"?>
<!-- Generator: Adobe Illustrator 19.0.0, SVG Export Plug-In . SVG Version: 6.00 Build 0)  -->
<svg version="1.1" id="Capa_1" xmlns="http://www.w3.org/2000/svg" xmlns:xlink="http://www.w3.org/1999/xlink" x="0px" y="0px"
	 viewBox="0 0 512 512" style="enable-background:new 0 0 512 512;" xml:space="preserve">
<path style="fill:#AA4141;" d="M405.511,86.502h-42.535c-5.294,0-9.748,4.001-10.268,9.269c-4.757,48.222-46.239,85.92-96.709,85.92
	s-91.953-37.698-96.709-85.92c-0.52-5.268-4.974-9.269-10.268-9.269h-42.534c-6.033,0-10.734,5.145-10.303,11.162
	c5.06,70.543,57.707,128.215,126.688,142.424v260.227c0,6.453,5.231,11.685,11.685,11.685h42.884
	c6.453,0,11.685-5.231,11.685-11.685V240.088c68.981-14.209,121.628-71.881,126.687-142.424
	C416.245,91.646,411.544,86.502,405.511,86.502z"/>
<g>
	<path style="fill:#963737;" d="M119.349,95.584c4.757,48.222,46.239,85.92,96.709,85.92c6.848,0,13.523-0.717,19.971-2.037
		c-41.072-8.41-72.627-42.205-76.739-83.883c-0.52-5.268-4.974-9.269-10.268-9.269h-39.941
		C114.375,86.315,118.83,90.316,119.349,95.584z"/>
	<path style="fill:#963737;" d="M405.511,86.315H365.57c6.033,0,10.734,5.145,10.303,11.162
		c-4.585,63.93-48.254,117.289-107.743,137.307c-11.381,3.83-18.944,14.636-18.944,26.645v107.136h-26.312v66.254l0,0
		c14.718,0.657,26.312,12.781,26.312,27.513v37.796c0,6.453-5.232,11.685-11.685,11.685h39.941c6.453,0,11.685-5.231,11.685-11.685
		V239.902c68.986-14.21,121.636-71.89,126.689-142.441C416.245,91.45,411.537,86.315,405.511,86.315z"/>
</g>
<path style="fill:#AA4141;" d="M158.836,379.277v-45.455c0-5.743,4.656-10.4,10.4-10.4h173.529c5.743,0,10.4,4.656,10.4,10.4v45.455
	c0,5.743-4.656,10.4-10.4,10.4h-173.53C163.492,389.676,158.836,385.02,158.836,379.277z"/>
<path style="fill:#963737;" d="M342.764,323.423H302.5c5.743,0,10.399,4.656,10.399,10.4v45.455c0,5.744-4.656,10.4-10.399,10.4
	h40.263c5.744,0,10.4-4.656,10.4-10.4v-45.455C353.163,328.079,348.507,323.423,342.764,323.423z"/>
<circle style="fill:#AA4141;" cx="256" cy="56.9" r="56.9"/>
<path style="fill:#963737;" d="M256,0c-4.572,0-9.012,0.554-13.272,1.573c25.021,5.981,43.628,28.475,43.628,55.328
	s-18.607,49.347-43.628,55.328c4.26,1.018,8.7,1.572,13.272,1.572c31.425,0,56.9-25.475,56.9-56.9C312.9,25.475,287.425,0,256,0z"/>
<g>
</g>
<g>
</g>
<g>
</g>
<g>
</g>
<g>
</g>
<g>
</g>
<g>
</g>
<g>
</g>
<g>
</g>
<g>
</g>
<g>
</g>
<g>
</g>
<g>
</g>
<g>
</g>
<g>
</g>
</svg>
