<?xml version="1.0" encoding="iso-8859-1"?>
<!-- Generator: Adobe Illustrator 19.0.0, SVG Export Plug-In . SVG Version: 6.00 Build 0)  -->
<svg version="1.1" id="Capa_1" xmlns="http://www.w3.org/2000/svg" xmlns:xlink="http://www.w3.org/1999/xlink" x="0px" y="0px"
	 viewBox="0 0 511.999 511.999" style="enable-background:new 0 0 511.999 511.999;" xml:space="preserve">
<path style="fill:#EDEDEE;" d="M407.648,148.725C407.648,66.586,339.68,0,255.838,0C175.471,0,109.69,61.18,104.374,138.594
	c-0.377,5.495,4.058,10.131,9.566,10.131h40.72c4.909,0,9.051-3.709,9.523-8.595c4.418-45.782,43.767-81.601,91.655-81.601
	c50.848,0,92.068,40.382,92.068,90.196s-41.22,90.196-92.068,90.196c-0.11,0-0.22,0-0.331-0.001
	c-17.084-0.059-31.06,13.531-31.06,30.615v24.731h0.001v207.879c0,5.442,4.412,9.854,9.854,9.854h43.07
	c5.442,0,9.854-4.412,9.854-9.854V294.258C356.007,280.091,407.648,220.319,407.648,148.725z"/>
<g>
	<path style="fill:#DCDBDE;" d="M224.286,58.528c-47.888,0-87.237,35.819-91.655,81.601c-0.472,4.886-4.614,8.595-9.523,8.595
		h31.552c4.909,0,9.051-3.709,9.523-8.595c3.923-40.657,35.403-73.433,75.939-80.267C234.977,58.988,229.687,58.528,224.286,58.528z
		"/>
	<path style="fill:#DCDBDE;" d="M255.838,0c-5.32,0-10.574,0.276-15.753,0.799c76.418,7.742,136.011,71.015,136.011,147.926
		c0,66.801-44.958,123.31-106.847,142.085c-8.079,2.451-13.574,9.937-13.574,18.379v96.126h-31.227v62.779l0,0
		c17.246,0,31.227,13.981,31.227,31.227v2.824c0,5.442-4.412,9.854-9.854,9.854h31.552c5.442,0,9.854-4.412,9.854-9.854V294.258
		c68.78-14.167,120.421-73.939,120.421-145.534C407.648,66.586,339.68,0,255.838,0z"/>
</g>
<path style="fill:#C1C2C4;" d="M163.77,417.009v-43.071c0-5.442,4.412-9.854,9.854-9.854h164.427c5.442,0,9.854,4.412,9.854,9.854
	v43.071c0,5.442-4.412,9.854-9.854,9.854H173.624C168.182,426.863,163.77,422.452,163.77,417.009z"/>
<path style="fill:#B2B1B0;" d="M338.051,364.085h-31.389c5.442,0,9.854,4.412,9.854,9.854v43.07c0,5.442-4.412,9.854-9.854,9.854
	h31.389c5.442,0,9.854-4.412,9.854-9.854v-43.07C347.905,368.497,343.494,364.085,338.051,364.085z"/>
<g>
</g>
<g>
</g>
<g>
</g>
<g>
</g>
<g>
</g>
<g>
</g>
<g>
</g>
<g>
</g>
<g>
</g>
<g>
</g>
<g>
</g>
<g>
</g>
<g>
</g>
<g>
</g>
<g>
</g>
</svg>
