<?xml version="1.0" encoding="iso-8859-1"?>
<!-- Generator: Adobe Illustrator 19.0.0, SVG Export Plug-In . SVG Version: 6.00 Build 0)  -->
<svg version="1.1" id="Capa_1" xmlns="http://www.w3.org/2000/svg" xmlns:xlink="http://www.w3.org/1999/xlink" x="0px" y="0px"
	 viewBox="0 0 512.001 512.001" style="enable-background:new 0 0 512.001 512.001;" xml:space="preserve">
<polygon style="fill:#FFEBBE;" points="500.888,224.618 287.181,224.618 287.181,6.477 225.692,6.477 225.692,224.618 
	11.985,224.618 11.985,287.382 225.692,287.382 225.692,505.523 287.181,505.523 287.181,287.382 500.888,287.382 "/>
<g>
	<path style="fill:#FFCF65;" d="M420.499,255.438c0.036,10.927-1.005,21.606-3.004,31.944h52.065
		c1.529-10.483,2.311-21.207,2.275-32.12c-0.034-10.407-0.82-20.635-2.277-30.645H417.5
		C419.428,234.599,420.465,244.899,420.499,255.438z"/>
	<path style="fill:#FFCF65;" d="M91.501,256.562c-0.036-10.927,1.005-21.606,3.004-31.944H42.439
		c-1.529,10.483-2.311,21.207-2.275,32.12c0.034,10.408,0.82,20.635,2.277,30.645h52.058
		C92.572,277.401,91.535,267.101,91.501,256.562z"/>
	<path style="fill:#FFCF65;" d="M225.692,42.295v52.003c9.652-1.799,19.6-2.762,29.768-2.797c10.849-0.037,21.452,0.988,31.72,2.957
		V42.403c-10.41-1.505-21.056-2.277-31.889-2.24C245.247,40.198,235.369,40.934,225.692,42.295z"/>
	<path style="fill:#FFCF65;" d="M287.181,469.58v-52.048c-9.926,1.906-20.165,2.932-30.641,2.967
		c-10.542,0.036-20.851-0.932-30.847-2.793v52.01c10.132,1.423,20.485,2.156,31.016,2.12
		C267.056,471.801,277.226,471.022,287.181,469.58z"/>
</g>
<path style="fill:#2BB7FF;" d="M255.16,0.002C113.776,0.485-0.462,115.491,0.001,256.875
	C0.465,398.259,115.456,512.482,256.84,511.998c141.384-0.483,255.623-115.489,255.159-256.873
	C511.535,113.741,396.544-0.482,255.16,0.002z M256.64,451.109c-107.756,0.368-195.395-86.686-195.749-194.442
	C60.538,148.911,147.604,61.259,255.36,60.891s195.395,86.687,195.749,194.442S364.396,450.741,256.64,451.109z"/>
<path style="fill:#2B96F5;" d="M255.16,0.002c-6.729,0.023-13.395,0.309-19.992,0.841
	C366.48,11.361,469.969,121.016,470.409,255.126c0.442,134.655-103.162,245.38-235.167,256.032
	c7.123,0.57,14.323,0.866,21.597,0.841c141.384-0.483,255.623-115.489,255.159-256.873C511.535,113.741,396.544-0.482,255.16,0.002z
	"/>
<g>
</g>
<g>
</g>
<g>
</g>
<g>
</g>
<g>
</g>
<g>
</g>
<g>
</g>
<g>
</g>
<g>
</g>
<g>
</g>
<g>
</g>
<g>
</g>
<g>
</g>
<g>
</g>
<g>
</g>
</svg>
