<?xml version="1.0" encoding="iso-8859-1"?>
<!-- Generator: Adobe Illustrator 19.0.0, SVG Export Plug-In . SVG Version: 6.00 Build 0)  -->
<svg version="1.1" id="Capa_1" xmlns="http://www.w3.org/2000/svg" xmlns:xlink="http://www.w3.org/1999/xlink" x="0px" y="0px"
	 viewBox="0 0 512 512" style="enable-background:new 0 0 512 512;" xml:space="preserve">
<path style="fill:#FFCF65;" d="M459.433,512H52.567C23.655,512,0,488.345,0,459.433V52.567C0,23.655,23.655,0,52.567,0h406.867
	C488.345,0,512,23.655,512,52.567v406.867C512,488.345,488.345,512,459.433,512z"/>
<path style="fill:#FFEBBE;" d="M454.146,488.72H57.854c-19.015,0-34.573-15.558-34.573-34.573V57.854
	c0-19.015,15.558-34.573,34.573-34.573h396.292c19.015,0,34.573,15.558,34.573,34.573v396.292
	C488.72,473.162,473.162,488.72,454.146,488.72z"/>
<path style="fill:#2BB7FF;" d="M375.253,315.052l0.035-0.017l44.173-109.493c6.049-14.164,9.4-29.754,9.4-46.129
	c0-64.924-52.631-117.555-117.555-117.555S193.751,94.489,193.751,159.413v58.771c-9.861-3.834-22.254-5.961-33.47-5.961
	c-48.483,0-87.786,39.303-87.786,87.786s39.303,87.786,87.786,87.786c43.794,0,80.088-32.071,86.702-74.006l0.005,0.001l0.001-0.036
	c0.704-4.479,1.079-9.068,1.079-13.745c0-2.753,0.248-5.472,0-8.16v-32.925v-99.512c0-32.847,30.392-59.475,63.239-59.475
	s59.475,26.628,59.475,59.475c0,10.367-2.652,20.114-7.315,28.6l-4.854,11.035l-32.461,76.991l-33.88,79.271l0.012-0.006
	c-5.819,10.936-9.128,23.411-9.128,36.663c0,43.175,35,78.175,78.175,78.175s78.175-35,78.175-78.175
	C439.506,353.546,411.782,321.623,375.253,315.052z M189.55,306.415c-2.934,13.47-14.921,23.559-29.27,23.559
	c-16.548,0-29.963-13.415-29.963-29.963s13.415-29.963,29.963-29.963c14.938,0,27.32,10.933,29.588,25.233L189.55,306.415z
	 M361.331,412.337c-11.25,0-20.37-9.12-20.37-20.37s9.12-20.37,20.37-20.37s20.37,9.12,20.37,20.37S372.581,412.337,361.331,412.337
	z"/>
<g>
	<path style="fill:#2B96F5;" d="M248.067,258.926v-99.512c0-26.988,20.521-49.763,46.059-57.035
		c-5.348-1.579-11.003-2.44-16.862-2.44c-32.847,0-63.239,26.628-63.239,59.475v99.512v32.925c0.248,2.688,0,5.407,0,8.16
		c0,4.677-0.374,9.265-1.079,13.745l-0.001,0.036l-0.005-0.001c-5.734,36.359-33.787,65.287-69.688,72.341
		c5.51,1.083,11.201,1.665,17.029,1.665c43.794,0,80.088-32.071,86.702-74.006l0.005,0.001l0.001-0.036
		c0.704-4.479,1.079-9.068,1.079-13.745c0-2.753,0.248-5.472,0-8.16v-32.925H248.067z"/>
	<path style="fill:#2B96F5;" d="M375.253,315.052l0.035-0.017l44.173-109.493c6.049-14.163,9.4-29.754,9.4-46.129
		c0-64.924-52.631-117.555-117.555-117.555c-5.781,0-11.463,0.425-17.021,1.231c56.857,8.248,100.534,57.182,100.534,116.324
		c0,16.375-3.352,31.965-9.4,46.129l-44.173,109.493l-0.035,0.017c36.529,6.57,64.253,38.494,64.253,76.914
		c0,37.327-26.168,68.523-61.154,76.295c5.482,1.218,11.173,1.88,17.021,1.88c43.175,0,78.175-35,78.175-78.175
		C439.506,353.546,411.782,321.623,375.253,315.052z"/>
</g>
<g>
</g>
<g>
</g>
<g>
</g>
<g>
</g>
<g>
</g>
<g>
</g>
<g>
</g>
<g>
</g>
<g>
</g>
<g>
</g>
<g>
</g>
<g>
</g>
<g>
</g>
<g>
</g>
<g>
</g>
</svg>
