<?xml version="1.0" encoding="iso-8859-1"?>
<!-- Generator: Adobe Illustrator 19.0.0, SVG Export Plug-In . SVG Version: 6.00 Build 0)  -->
<svg version="1.1" id="Capa_1" xmlns="http://www.w3.org/2000/svg" xmlns:xlink="http://www.w3.org/1999/xlink" x="0px" y="0px"
	 viewBox="0 0 512 512" style="enable-background:new 0 0 512 512;" xml:space="preserve">
<path style="fill:#FFCF65;" d="M459.433,512H52.567C23.655,512,0,488.345,0,459.433V52.567C0,23.655,23.655,0,52.567,0h406.867
	C488.345,0,512,23.655,512,52.567v406.867C512,488.345,488.345,512,459.433,512z"/>
<path style="fill:#FFEBBE;" d="M452.818,490.952H59.182c-20.974,0-38.134-17.16-38.134-38.134V59.182
	c0-20.974,17.16-38.134,38.134-38.134h393.636c20.974,0,38.134,17.16,38.134,38.134v393.636
	C490.952,473.792,473.792,490.952,452.818,490.952z"/>
<path style="fill:#49BC6E;" d="M440.022,45.446l-68.921,0.013c-3.566,0.001-6.861,1.903-8.644,4.992l-90.253,156.322h-16.2
	c-0.002,0-0.003,0-0.005,0c-0.002,0-0.003,0-0.005,0h-16.2L149.542,50.45c-1.783-3.088-5.078-4.991-8.644-4.992l-68.921-0.013
	c-5.514-0.001-9.985,4.469-9.985,9.983v37.855c0,5.514,4.47,9.983,9.983,9.983h35.528c3.567,0,6.862,1.903,8.646,4.992
	l69.008,119.525c-35.395,23.077-58.848,62.939-59.047,108.298c-0.311,70.902,57.144,129.473,128.039,130.46
	c72.585,1.01,131.742-57.525,131.742-129.878c0-44.434-22.316-83.65-56.346-107.069c-1.52-1.046-1.957-3.102-1.034-4.7
	l67.339-116.635c1.783-3.089,5.079-4.992,8.646-4.992h35.528c5.514,0,9.983-4.47,9.983-9.983V55.429
	C450.007,49.915,445.536,45.445,440.022,45.446z M256,408.363c-39.599,0-71.7-32.101-71.7-71.699s32.101-71.7,71.7-71.7
	s71.7,32.101,71.7,71.7S295.599,408.363,256,408.363z"/>
<g>
	<path style="fill:#3CA56D;" d="M440.009,45.446l-30.218,0.006c-2.531,0-4.16,2.748-2.877,4.929c0.871,1.48,1.37,3.206,1.37,5.048
		v34.547c0,7.341-5.951,13.292-13.292,13.292h-30.31c-4.749,0-9.136,2.533-11.511,6.646L292.258,215.42
		c-3.884,6.728-2.383,15.332,3.656,20.218c29.432,23.811,48.254,60.218,48.254,101.025c0,57.575-37.462,106.394-89.339,123.426
		c-3.573,1.173-2.802,6.458,0.958,6.465c0.071,0,0.142,0,0.213,0c71.737,0,129.891-58.154,129.891-129.891
		c0-44.325-22.207-83.459-56.097-106.898c-1.655-1.145-2.151-3.368-1.145-5.111l66.246-114.742
		c2.374-4.112,6.762-6.646,11.511-6.646h33.605c5.521,0,9.996-4.476,9.996-9.996V55.442C450.007,49.92,445.53,45.445,440.009,45.446
		z"/>
	<path style="fill:#3CA56D;" d="M99.176,45.459c3.566,0.001,6.861,1.903,8.644,4.992l82.153,142.293
		c5.012,8.681,14.275,14.029,24.3,14.029l0,0c0.002,0,0.003,0,0.005,0s0.003,0,0.005,0h16.2h9.314L149.542,50.45
		c-1.783-3.088-5.078-4.991-8.644-4.992l-68.921-0.013c-0.053,0-0.104,0.007-0.157,0.008L99.176,45.459z"/>
</g>
<g>
</g>
<g>
</g>
<g>
</g>
<g>
</g>
<g>
</g>
<g>
</g>
<g>
</g>
<g>
</g>
<g>
</g>
<g>
</g>
<g>
</g>
<g>
</g>
<g>
</g>
<g>
</g>
<g>
</g>
</svg>
