<?xml version="1.0" encoding="iso-8859-1"?>
<!-- Generator: Adobe Illustrator 19.0.0, SVG Export Plug-In . SVG Version: 6.00 Build 0)  -->
<svg version="1.1" id="Capa_1" xmlns="http://www.w3.org/2000/svg" xmlns:xlink="http://www.w3.org/1999/xlink" x="0px" y="0px"
	 viewBox="0 0 512 512" style="enable-background:new 0 0 512 512;" xml:space="preserve">
<path style="fill:#FFCF65;" d="M459.433,512H52.567C23.655,512,0,488.345,0,459.433V52.567C0,23.655,23.655,0,52.567,0h406.867
	C488.345,0,512,23.655,512,52.567v406.867C512,488.345,488.345,512,459.433,512z"/>
<path style="fill:#FFEBBE;" d="M461.104,490.997H50.896c-16.441,0-29.893-13.452-29.893-29.893V50.896
	c0-16.441,13.452-29.893,29.893-29.893h410.208c16.441,0,29.893,13.452,29.893,29.893v410.208
	C490.997,477.545,477.545,490.997,461.104,490.997z"/>
<path style="fill:#FFA5B5;" d="M449.927,58.182c-50.065,0-100.131,0-150.196,0c-50.74,0-101.479,0-152.219,0
	c-50.375,0-93.858,41.163-95.241,91.519c-1.463,53.257,41.304,96.882,94.245,96.82c50.425-0.059,92.277-40.475,94.001-90.87
	c0.482-14.087-2.136-27.51-7.218-39.645h216.628c5.434,0,9.839-4.405,9.839-9.839V68.021
	C459.766,62.587,455.361,58.182,449.927,58.182z M146.404,188.985c-20.232,0-36.633-16.401-36.633-36.633
	s16.401-36.633,36.633-36.633v0.287h4.516c18.1,2.227,32.117,17.644,32.117,36.346C183.037,172.584,166.636,188.985,146.404,188.985
	z"/>
<g>
	<path style="fill:#FF728B;" d="M449.927,58.182c-50.065,0-96.079,0-55.142,0c5.434,0,9.839,4.405,9.839,9.839v38.146
		c0,5.434-4.405,9.839-9.839,9.839h55.142c5.434,0,9.839-4.405,9.839-9.839V68.021C459.766,62.587,455.361,58.182,449.927,58.182z"
		/>
	<path style="fill:#FF728B;" d="M178.157,116.005c5.082,12.135,7.7,25.558,7.218,39.645c-1.399,40.899-29.23,75.223-66.622,86.739
		c8.778,2.693,18.1,4.143,27.763,4.132c50.425-0.059,92.277-40.475,94.001-90.87c0.482-14.087-2.136-27.51-7.218-39.645
		L178.157,116.005L178.157,116.005z"/>
</g>
<path style="fill:#FFA5B5;" d="M365.484,265.479c-50.425,0.059-92.278,40.475-94.002,90.87c-0.482,14.087,2.136,27.51,7.218,39.645
	H62.073c-5.434,0-9.839,4.405-9.839,9.839v38.146c0,5.434,4.405,9.839,9.839,9.839c50.065,0,100.131,0,150.196,0
	c50.74,0,101.479,0,152.219,0c50.375,0,93.858-41.163,95.241-91.519C461.192,309.043,418.425,265.417,365.484,265.479z
	 M365.596,396.282v-0.287h-4.516c-18.1-2.227-32.117-17.644-32.117-36.346c0-20.232,16.401-36.633,36.633-36.633
	s36.633,16.401,36.633,36.633C402.23,379.88,385.828,396.282,365.596,396.282z"/>
<path style="fill:#FF728B;" d="M365.484,265.479c-6.494,0.008-12.843,0.696-18.985,1.977c43.588,9.071,76.127,48.275,74.848,94.843
	c-1.383,50.356-44.866,91.519-95.241,91.519c-44.3,0-12.358,0,38.382,0c50.375,0,93.858-41.163,95.241-91.519
	C461.192,309.043,418.425,265.417,365.484,265.479z"/>
<g>
</g>
<g>
</g>
<g>
</g>
<g>
</g>
<g>
</g>
<g>
</g>
<g>
</g>
<g>
</g>
<g>
</g>
<g>
</g>
<g>
</g>
<g>
</g>
<g>
</g>
<g>
</g>
<g>
</g>
</svg>
