<?xml version="1.0" encoding="iso-8859-1"?>
<!-- Generator: Adobe Illustrator 19.0.0, SVG Export Plug-In . SVG Version: 6.00 Build 0)  -->
<svg version="1.1" id="Capa_1" xmlns="http://www.w3.org/2000/svg" xmlns:xlink="http://www.w3.org/1999/xlink" x="0px" y="0px"
	 viewBox="0 0 512 512" style="enable-background:new 0 0 512 512;" xml:space="preserve">
<path style="fill:#FFCF65;" d="M459.433,512H52.567C23.655,512,0,488.345,0,459.433V52.567C0,23.655,23.655,0,52.567,0h406.867
	C488.345,0,512,23.655,512,52.567v406.867C512,488.345,488.345,512,459.433,512z"/>
<path style="fill:#FFEBBE;" d="M458.313,490.997H53.687c-17.976,0-32.684-14.708-32.684-32.684V53.687
	c0-17.976,14.708-32.684,32.684-32.684h404.626c17.976,0,32.684,14.708,32.684,32.684v404.626
	C490.997,476.289,476.289,490.997,458.313,490.997z"/>
<path style="fill:#817FE2;" d="M472.223,201.572l-89.324-89.324l0,0l-27.31-27.31c-3.749-3.749-9.828-3.749-13.578,0l-27.31,27.31
	c0,0,0,0-0.001,0.001l-55.244,55.244l-55.244-55.244l-27.31-27.31c-3.749-3.749-9.828-3.749-13.578,0l-27.31,27.31L46.69,201.573
	c-3.749,3.749-3.749,9.828,0,13.577L74,242.46c3.749,3.749,9.828,3.749,13.578,0l82.535-82.535l82.535,82.535
	c1.879,1.879,4.344,2.816,6.807,2.811c2.463,0.005,4.928-0.932,6.807-2.811l82.535-82.535l82.535,82.535
	c3.749,3.749,9.828,3.749,13.578,0l27.31-27.31C475.972,211.4,475.972,205.321,472.223,201.572z"/>
<g>
	<path style="fill:#6565C1;" d="M472.223,201.572l-89.324-89.324l0,0l-27.31-27.31c-3.749-3.749-9.828-3.749-13.578,0L330.5,96.45
		l15.798,15.798c0,0,0,0,0.001,0.001l73.525,73.525c12.474,12.474,12.474,32.7,0,45.174l0,0l11.512,11.512
		c3.749,3.749,9.828,3.749,13.578,0l27.31-27.31C475.972,211.4,475.972,205.321,472.223,201.572z"/>
	<path style="fill:#6565C1;" d="M167.612,112.248l55.244,55.244c10.107,10.107,26.494,10.107,36.601,0l0,0l-55.244-55.244
		l-27.31-27.31c-3.749-3.749-9.828-3.749-13.577,0L151.814,96.45L167.612,112.248z"/>
	<path style="fill:#6565C1;" d="M133.514,159.924L62.49,230.948l11.511,11.512c3.749,3.749,9.828,3.749,13.577,0l82.536-82.535l0,0
		C160.007,149.817,143.621,149.817,133.514,159.924z"/>
	<path style="fill:#6565C1;" d="M312.199,159.924l-71.043,71.043l11.493,11.493c1.879,1.879,4.344,2.816,6.808,2.811
		c2.463,0.005,4.928-0.932,6.807-2.811l82.536-82.535l0,0C338.693,149.817,322.306,149.817,312.199,159.924z"/>
</g>
<path style="fill:#817FE2;" d="M472.223,387.626l-89.324-89.324l-0.001-0.001l-27.31-27.31c-3.749-3.749-9.828-3.749-13.578,0
	l-27.31,27.31l-0.001,0.001l-55.244,55.244l-55.244-55.244l-27.31-27.31c-3.749-3.749-9.828-3.749-13.578,0l-27.31,27.31
	l-89.324,89.324c-3.749,3.749-3.749,9.828,0,13.578l27.31,27.31c3.749,3.749,9.828,3.749,13.578,0l82.535-82.535l82.535,82.535
	c1.879,1.879,4.344,2.816,6.807,2.811c2.463,0.005,4.928-0.932,6.807-2.811l82.535-82.535l82.535,82.535
	c3.749,3.749,9.828,3.749,13.578,0l27.31-27.31C475.972,397.454,475.972,391.375,472.223,387.626z"/>
<g>
	<path style="fill:#6565C1;" d="M160.384,298.302l55.244,55.244c12.103,12.103,31.726,12.103,43.829,0l0,0l-55.244-55.244
		l-27.31-27.31c-3.749-3.749-9.828-3.749-13.577,0L148.2,286.118L160.384,298.302z"/>
	<path style="fill:#6565C1;" d="M126.285,345.978l-67.41,67.41l15.126,15.126c3.749,3.749,9.828,3.749,13.578,0l82.536-82.535l0,0
		C158.011,333.875,138.388,333.875,126.285,345.978z"/>
	<path style="fill:#6565C1;" d="M472.223,387.626l-89.324-89.324l-0.001-0.001l-27.31-27.31c-3.749-3.749-9.828-3.749-13.578,0
		l-15.126,15.126l12.184,12.184l0.001,0.001l77.14,77.14c10.478,10.478,10.478,27.467,0,37.946l0,0l15.126,15.126
		c3.749,3.749,9.828,3.749,13.578,0l27.31-27.31C475.972,397.454,475.972,391.375,472.223,387.626z"/>
	<path style="fill:#6565C1;" d="M304.971,345.978l-67.428,67.428l15.107,15.107c1.879,1.879,4.344,2.816,6.808,2.811
		c2.463,0.005,4.928-0.932,6.807-2.811l82.536-82.535l0,0C336.697,333.875,317.074,333.875,304.971,345.978z"/>
</g>
<g>
</g>
<g>
</g>
<g>
</g>
<g>
</g>
<g>
</g>
<g>
</g>
<g>
</g>
<g>
</g>
<g>
</g>
<g>
</g>
<g>
</g>
<g>
</g>
<g>
</g>
<g>
</g>
<g>
</g>
</svg>
