<?xml version="1.0" encoding="iso-8859-1"?>
<!-- Generator: Adobe Illustrator 19.0.0, SVG Export Plug-In . SVG Version: 6.00 Build 0)  -->
<svg version="1.1" id="Capa_1" xmlns="http://www.w3.org/2000/svg" xmlns:xlink="http://www.w3.org/1999/xlink" x="0px" y="0px"
	 viewBox="0 0 512 512" style="enable-background:new 0 0 512 512;" xml:space="preserve">
<path style="fill:#FFCF65;" d="M459.433,512H52.567C23.655,512,0,488.345,0,459.433V52.567C0,23.655,23.655,0,52.567,0h406.867
	C488.345,0,512,23.655,512,52.567v406.867C512,488.345,488.345,512,459.433,512z"/>
<path style="fill:#FFEBBE;" d="M457.113,490.997H54.887c-18.636,0-33.884-15.248-33.884-33.884V54.887
	c0-18.636,15.248-33.884,33.884-33.884h402.225c18.636,0,33.884,15.248,33.884,33.884v402.225
	C490.997,475.749,475.749,490.997,457.113,490.997z"/>
<path style="fill:#49BC6E;" d="M410.206,69.208c-46.108-13.841-94.802,12.231-110.189,57.846L298.349,132l-38.741,114.839
	c-1.165,3.454-6.051,3.454-7.216,0L213.651,132l-1.669-4.948C196.594,81.438,147.9,55.367,101.793,69.208
	c-48.448,14.544-74.852,66.169-58.814,113.711c10.551,31.276,36.787,52.831,66.988,58.859c5.666,1.131,11.064-2.88,11.51-8.641
	l3.027-39.096c0.34-4.389-2.338-8.504-6.537-9.826c-9.803-3.087-17.941-10.96-20.817-21.837c-3.96-14.978,3.974-30.89,18.317-36.747
	c16.81-6.864,35.662,1.935,41.377,18.875l2.016,5.977l67.698,200.676c0.35,1.039,0.529,2.128,0.529,3.224v82.037
	c0,5.57,4.515,10.085,10.085,10.085h37.653c5.57,0,10.085-4.515,10.085-10.085v-82.036c0-1.096,0.179-2.185,0.529-3.224
	l67.698-200.677l2.016-5.977c5.715-16.942,24.569-25.74,41.38-18.874c14.343,5.858,22.275,21.77,18.314,36.748
	c-2.876,10.876-11.014,18.749-20.816,21.835c-4.199,1.322-6.877,5.437-6.537,9.826l3.027,39.096
	c0.446,5.761,5.844,9.771,11.51,8.641c30.201-6.027,56.437-27.583,66.988-58.859C485.059,135.377,458.655,83.752,410.206,69.208z"/>
<g>
	<path style="fill:#3CA56D;" d="M179.664,127.052l1.669,4.948l25.061,74.287c6.21,18.409,20.679,32.973,39.186,38.884
		c4.24,1.354,6.813,1.668,6.813,1.668L213.651,132l-1.669-4.948c-14.389-42.653-57.9-68.21-101.186-60.033
		C141.854,72.84,168.904,95.157,179.664,127.052z"/>
	<path style="fill:#3CA56D;" d="M117.968,184.215c-9.803-3.087-17.941-10.96-20.817-21.837c-3.541-13.395,2.434-27.53,13.994-34.559
		c-8.109-4.91-18.384-6.112-27.995-2.188c-14.343,5.857-22.277,21.768-18.317,36.747c2.876,10.877,11.014,18.75,20.817,21.837
		c4.199,1.322,6.877,5.437,6.537,9.826l-3.027,39.096c-0.043,0.553-0.144,1.083-0.274,1.601c6.685,3.2,13.765,5.58,21.082,7.04
		c5.666,1.131,11.064-2.88,11.51-8.641l3.027-39.096C124.844,189.652,122.167,185.537,117.968,184.215z"/>
	<path style="fill:#3CA56D;" d="M368.537,127.819c-1.366-0.83-2.805-1.568-4.32-2.187c-16.811-6.866-35.665,1.933-41.38,18.874
		l-2.016,5.977l-65.579,194.394c-1.754,5.199-2.648,10.65-2.648,16.137v75.406c0,5.57-4.515,10.085-10.085,10.085h32.318
		c5.57,0,10.085-4.515,10.085-10.085v-82.036c0-1.096,0.179-2.185,0.529-3.224l67.698-200.677l2.016-5.977
		C357.603,137.252,362.464,131.497,368.537,127.819z"/>
	<path style="fill:#3CA56D;" d="M410.206,69.208c-13.867-4.163-27.962-4.692-41.32-2.188c3.005,0.568,6.009,1.29,9.002,2.188
		c48.449,14.544,74.853,66.169,58.815,113.711c-7.995,23.699-24.999,41.809-45.907,51.819c1.223,4.876,6.113,8.062,11.236,7.04
		c30.201-6.027,56.437-27.583,66.988-58.859C485.059,135.377,458.655,83.752,410.206,69.208z"/>
</g>
<g>
</g>
<g>
</g>
<g>
</g>
<g>
</g>
<g>
</g>
<g>
</g>
<g>
</g>
<g>
</g>
<g>
</g>
<g>
</g>
<g>
</g>
<g>
</g>
<g>
</g>
<g>
</g>
<g>
</g>
</svg>
