<?xml version="1.0" encoding="iso-8859-1"?>
<!-- Generator: Adobe Illustrator 19.0.0, SVG Export Plug-In . SVG Version: 6.00 Build 0)  -->
<svg version="1.1" id="Capa_1" xmlns="http://www.w3.org/2000/svg" xmlns:xlink="http://www.w3.org/1999/xlink" x="0px" y="0px"
	 viewBox="0 0 512 512" style="enable-background:new 0 0 512 512;" xml:space="preserve">
<path style="fill:#FFCF65;" d="M459.433,512H52.567C23.655,512,0,488.345,0,459.433V52.567C0,23.655,23.655,0,52.567,0h406.867
	C488.345,0,512,23.655,512,52.567v406.867C512,488.345,488.345,512,459.433,512z"/>
<path style="fill:#FFEBBE;" d="M460.671,489.089H51.329c-15.63,0-28.419-12.788-28.419-28.419V51.329
	c0-15.63,12.788-28.419,28.419-28.419h409.342c15.63,0,28.419,12.788,28.419,28.419v409.342
	C489.089,476.301,476.301,489.089,460.671,489.089z"/>
<g>
	<path style="fill:#FFB450;" d="M72.935,60.49v44.484c0,3.243,1.504,6.3,4.07,8.284c43.228,33.422,71.072,85.78,71.072,144.65
		s-27.843,111.228-71.072,144.65c-2.566,1.984-4.07,5.041-4.07,8.284v44.472c0,8.159,8.904,13.189,15.902,8.993
		c70.087-42.028,117.002-118.729,117.002-206.399c0-87.672-46.912-164.383-117.002-206.411
		C81.839,47.301,72.935,52.331,72.935,60.49z"/>
	<path style="fill:#FFB450;" d="M445.238,59.876v44.484c0,3.243-1.504,6.3-4.07,8.284c-43.228,33.422-71.072,85.78-71.072,144.65
		s27.843,111.228,71.072,144.65c2.566,1.984,4.07,5.041,4.07,8.284V454.7c0,8.159-8.904,13.189-15.902,8.993
		c-70.087-42.028-117.002-118.729-117.002-206.399c0-87.672,46.912-164.383,117.002-206.411
		C436.334,46.687,445.238,51.717,445.238,59.876z"/>
</g>
<g>
	<path style="fill:#FF9822;" d="M88.837,51.497c-6.527-3.914-14.706,0.202-15.778,7.395
		c62.128,42.244,103.439,112.81,105.367,193.14h-30.447c0.062,1.952,0.098,3.91,0.098,5.876c0,18.049-2.628,35.48-7.503,51.947l0,0
		c16.822,0,28.574,16.794,22.662,32.542c-17.595,46.872-49.403,86.791-90.176,114.515c1.071,7.192,9.251,11.308,15.778,7.395
		c70.087-42.028,117.002-118.729,117.002-206.399C205.838,170.236,158.926,93.525,88.837,51.497z"/>
	<path style="fill:#FF9822;" d="M441.162,112.649c2.568-1.986,4.076-5.043,4.076-8.289V59.876c0-8.147-8.891-13.195-15.879-9.006
		c-3.936,2.359-7.794,4.834-11.579,7.408c0.077,0.518,0.124,1.05,0.124,1.598v44.484c0,3.246-1.508,6.304-4.076,8.289
		c-41.932,32.423-69.383,82.665-70.988,139.382h-30.442c-0.038,1.75-0.063,3.503-0.063,5.263c0,18.055,1.994,35.643,5.766,52.561
		h1.485c17.387,0,33.275,9.959,40.728,25.668c12.412,26.158,30.853,48.9,53.53,66.43c2.562,1.981,4.059,5.037,4.059,8.276v44.472
		c0,0.549-0.047,1.08-0.124,1.598c3.785,2.574,7.644,5.049,11.579,7.408c6.988,4.189,15.879-0.859,15.879-9.006v-44.472
		c0-3.243-1.504-6.3-4.07-8.284c-43.228-33.422-71.072-85.78-71.072-144.65c0-1.76,0.028-3.514,0.078-5.263l0,0l0,0
		C371.779,195.314,399.23,145.072,441.162,112.649z"/>
</g>
<path style="fill:#FFB450;" d="M451.933,285.674H66.24c-5.302,0-9.601-4.298-9.601-9.601v-38.622c0-5.302,4.298-9.601,9.601-9.601
	h385.693c5.302,0,9.601,4.298,9.601,9.601v38.622C461.534,281.375,457.235,285.674,451.933,285.674z"/>
<path style="fill:#FF9822;" d="M451.933,227.85h-27.335c5.302,0,9.601,4.298,9.601,9.601v38.622c0,5.302-4.298,9.601-9.601,9.601
	h27.335c5.302,0,9.601-4.298,9.601-9.601v-38.622C461.534,232.149,457.235,227.85,451.933,227.85z"/>
<g>
</g>
<g>
</g>
<g>
</g>
<g>
</g>
<g>
</g>
<g>
</g>
<g>
</g>
<g>
</g>
<g>
</g>
<g>
</g>
<g>
</g>
<g>
</g>
<g>
</g>
<g>
</g>
<g>
</g>
</svg>
