<?xml version="1.0" encoding="iso-8859-1"?>
<!-- Generator: Adobe Illustrator 19.0.0, SVG Export Plug-In . SVG Version: 6.00 Build 0)  -->
<svg version="1.1" id="Capa_1" xmlns="http://www.w3.org/2000/svg" xmlns:xlink="http://www.w3.org/1999/xlink" x="0px" y="0px"
	 viewBox="0 0 512 512" style="enable-background:new 0 0 512 512;" xml:space="preserve">
<path style="fill:#FFCF65;" d="M459.433,512H52.567C23.655,512,0,488.345,0,459.433V52.567C0,23.655,23.655,0,52.567,0h406.867
	C488.345,0,512,23.655,512,52.567v406.867C512,488.345,488.345,512,459.433,512z"/>
<path style="fill:#FFEBBE;" d="M453.565,489.089H58.435c-19.539,0-35.525-15.986-35.525-35.525V58.435
	c0-19.539,15.986-35.525,35.525-35.525h395.129c19.539,0,35.525,15.986,35.525,35.525v395.129
	C489.089,473.103,473.103,489.089,453.565,489.089z"/>
<path style="fill:#2BB7FF;" d="M259.749,73.357c-15.346-13.739-35.605-22.103-57.823-22.103c-29.323,0-55.228,14.566-70.927,36.842
	c-2.967-2.078-6.832-4.365-11.603-6.353c-12.616-5.257-24.005-3.154-24.005-3.154l0,0c-2.419,0-4.381,1.961-4.381,4.381v54.319
	c0,2.419,1.961,4.381,4.381,4.381h1.767c9.965,0,18.048,8.068,18.066,18.033l0.473,184.521c0.011,4.263,3.47,7.712,7.732,7.712
	h41.824c4.27,0,7.732-3.462,7.732-7.732V156.387l0.029-18.398c0-15.968,12.944-28.912,28.912-28.912s28.912,12.944,28.912,28.912
	l0.305,54.144v173.412h57.269V165.849l0.249-27.86c0.09-7.306-0.699-19.775-6.578-33.756
	C275.407,88.36,265.445,78.329,259.749,73.357z"/>
<g>
	<path style="fill:#2B96F5;" d="M176.694,109.077c-15.967,0-28.912,12.944-28.912,28.912l-0.028,18.398v187.816
		c0,4.27-3.462,7.732-7.732,7.732h25.232c4.27,0,7.732-3.462,7.732-7.732V156.387l0.028-18.398c0-11.444,6.65-21.333,16.296-26.019
		C185.497,110.118,181.217,109.077,176.694,109.077z"/>
	<path style="fill:#2B96F5;" d="M94.164,81.743c0.901,0.376,1.771,0.762,2.607,1.155c5.405,2.542,11.786,1.138,15.807-3.278
		l0.074-0.081c-9.66-2.352-17.262-0.95-17.262-0.95l0,0c-1.616,0-3.011,0.885-3.771,2.186C92.46,81.067,93.309,81.386,94.164,81.743
		z"/>
	<path style="fill:#2B96F5;" d="M288.661,137.989c0.09-7.306-0.699-19.775-6.578-33.756c-6.676-15.874-16.638-25.905-22.334-30.876
		c-15.346-13.739-35.605-22.103-57.823-22.103c-4.285,0-8.494,0.32-12.611,0.92c17.232,2.515,32.818,10.095,45.203,21.183
		c5.696,4.972,15.658,15.003,22.334,30.876c5.88,13.981,6.668,26.449,6.578,33.756l-0.249,27.86v65.616
		c0,18.64-6.858,36.762-19.705,50.268c-4.656,4.894-8.796,10.284-12.333,16.082v67.73h32.037h16.66h8.572v-46.818l0,0v-63.536l0,0
		v-89.342L288.661,137.989z"/>
</g>
<path style="fill:#2BB7FF;" d="M325.789,270.344c-52.578,0-95.201,42.623-95.201,95.201s42.623,95.201,95.201,95.201
	s95.201-42.623,95.201-95.201S378.367,270.344,325.789,270.344z M325.789,402.923c-20.643,0-37.377-16.734-37.377-37.377
	c0-20.643,16.734-37.377,37.377-37.377s37.377,16.734,37.377,37.377C363.167,386.188,346.432,402.923,325.789,402.923z"/>
<path style="fill:#2B96F5;" d="M289.374,373.956h-37.759c0,11.563-5.252,21.897-13.499,28.753
	c7.738,18.231,20.998,33.548,37.679,43.862c14.818-12.574,25.74-29.599,30.693-49.014
	C297.963,392.406,291.672,383.945,289.374,373.956z"/>
<path style="fill:#2BB7FF;" d="M230.589,365.545c0,20.643-16.734,37.377-37.377,37.377v57.823c52.578,0,95.201-42.623,95.201-95.201
	"/>
<g>
</g>
<g>
</g>
<g>
</g>
<g>
</g>
<g>
</g>
<g>
</g>
<g>
</g>
<g>
</g>
<g>
</g>
<g>
</g>
<g>
</g>
<g>
</g>
<g>
</g>
<g>
</g>
<g>
</g>
</svg>
