<?xml version="1.0" encoding="iso-8859-1"?>
<!-- Generator: Adobe Illustrator 19.0.0, SVG Export Plug-In . SVG Version: 6.00 Build 0)  -->
<svg version="1.1" id="Capa_1" xmlns="http://www.w3.org/2000/svg" xmlns:xlink="http://www.w3.org/1999/xlink" x="0px" y="0px"
	 viewBox="0 0 512 512" style="enable-background:new 0 0 512 512;" xml:space="preserve">
<path style="fill:#FFCF65;" d="M459.433,512H52.567C23.655,512,0,488.345,0,459.433V52.567C0,23.655,23.655,0,52.567,0h406.867
	C488.345,0,512,23.655,512,52.567v406.867C512,488.345,488.345,512,459.433,512z"/>
<path style="fill:#FFEBBE;" d="M460.814,486.571H51.186c-14.166,0-25.757-11.591-25.757-25.757V51.186
	c0-14.166,11.591-25.757,25.757-25.757h409.627c14.166,0,25.757,11.591,25.757,25.757v409.627
	C486.571,474.98,474.98,486.571,460.814,486.571z"/>
<path style="fill:#FFA5B5;" d="M65.027,430.703v-42.662c0-4.187,3.394-7.581,7.581-7.581h366.784c4.187,0,7.581,3.394,7.581,7.581
	v42.662c0,4.187-3.394,7.581-7.581,7.581H72.608C68.421,438.284,65.027,434.889,65.027,430.703z"/>
<path style="fill:#FF728B;" d="M439.392,380.46h-29.503c4.187,0,7.581,3.394,7.581,7.581v42.662c0,4.187-3.394,7.581-7.581,7.581
	h29.503c4.187,0,7.581-3.394,7.581-7.581v-42.662C446.972,383.854,443.578,380.46,439.392,380.46z"/>
<path style="fill:#FFA5B5;" d="M363.904,264.813c11.441-18.997,18.022-41.251,18.008-65.046
	c-0.041-68.601-55.693-125.06-124.287-126.037c-70.501-1.005-127.967,55.844-127.967,126.114c0,23.766,6.578,45.993,18.006,64.97
	H72.608c-4.187,0-7.581,3.394-7.581,7.581v42.662c0,4.187,3.394,7.581,7.581,7.581h146.684c4.187,0,7.581-3.394,7.581-7.581v-50.243
	l0,0V264.3c0-1.533-0.842-2.953-2.206-3.653c-22.073-11.318-37.185-34.289-37.186-60.8c-0.002-37.8,30.814-68.475,68.614-68.306
	c37.58,0.167,67.993,30.683,67.993,68.303c0,26.511-15.11,49.482-37.182,60.802c-1.365,0.7-2.21,2.12-2.21,3.654v50.747
	c0,4.188,3.386,7.583,7.574,7.581c27.221-0.013,119.912,0.003,147.129,0.008c4.187,0.001,7.572-3.393,7.572-7.581v-42.66
	c0-4.187-3.394-7.581-7.581-7.581L363.904,264.813L363.904,264.813z"/>
<g>
	<path style="fill:#FF728B;" d="M352.982,199.767c0.008,14.157-2.318,27.769-6.613,40.474c-4.078,12.061,4.803,24.573,17.535,24.573
		l0,0c11.412-18.949,17.989-41.14,18.008-64.869c0.054-68.407-55.187-124.853-123.58-126.203c-5.776-0.114-11.465,0.161-17.044,0.8
		C303.972,81.753,352.943,135.417,352.982,199.767z"/>
	<path style="fill:#FF728B;" d="M224.663,260.645c-22.071-11.319-37.181-34.289-37.182-60.798
		c-0.002-32.739,23.12-60.116,53.869-66.755c-4.576-0.989-9.318-1.529-14.185-1.551c-37.8-0.168-68.616,30.506-68.614,68.306
		c0.001,26.326,14.903,49.162,36.726,60.562c1.64,0.857,2.666,2.554,2.666,4.404l0,0v50.243c0,4.187-3.394,7.581-7.581,7.581h28.93
		c4.187,0,7.581-3.394,7.581-7.581v-50.243V264.3C226.873,262.765,226.028,261.346,224.663,260.645z"/>
	<path style="fill:#FF728B;" d="M439.392,264.813h-28.93c4.187,0,7.581,3.394,7.581,7.581v42.66c0,4.155-3.334,7.525-7.476,7.576
		c12.145,0.002,22.35,0.004,28.834,0.005c4.187,0.001,7.573-3.393,7.573-7.581v-42.66
		C446.972,268.207,443.578,264.813,439.392,264.813z"/>
</g>
<path style="fill:#2B84E9;" d="M292.177,322.622c0.032,0,0.062,0.005,0.094,0.005c5.084-0.002,12.452-0.004,21.25-0.004
	C306.018,322.622,298.808,322.622,292.177,322.622z"/>
<g>
</g>
<g>
</g>
<g>
</g>
<g>
</g>
<g>
</g>
<g>
</g>
<g>
</g>
<g>
</g>
<g>
</g>
<g>
</g>
<g>
</g>
<g>
</g>
<g>
</g>
<g>
</g>
<g>
</g>
</svg>
