<?xml version="1.0" encoding="iso-8859-1"?>
<!-- Generator: Adobe Illustrator 19.0.0, SVG Export Plug-In . SVG Version: 6.00 Build 0)  -->
<svg version="1.1" id="Capa_1" xmlns="http://www.w3.org/2000/svg" xmlns:xlink="http://www.w3.org/1999/xlink" x="0px" y="0px"
	 viewBox="0 0 512 512" style="enable-background:new 0 0 512 512;" xml:space="preserve">
<path style="fill:#FFCF65;" d="M459.433,512H52.567C23.655,512,0,488.345,0,459.433V52.567C0,23.655,23.655,0,52.567,0h406.867
	C488.345,0,512,23.655,512,52.567v406.867C512,488.345,488.345,512,459.433,512z"/>
<path style="fill:#FFEBBE;" d="M459.487,490.298H52.513c-16.946,0-30.811-13.865-30.811-30.811V52.513
	c0-16.946,13.865-30.811,30.811-30.811h406.974c16.946,0,30.811,13.865,30.811,30.811v406.974
	C490.298,476.433,476.433,490.298,459.487,490.298z"/>
<path style="fill:#817FE2;" d="M376.065,398.193c-4.437,0-8.033-3.597-8.032-8.033l0.045-243.236v-3.634
	c0-47.361-37.741-86.674-85.098-87.298c-22.676-0.299-43.377,8.116-58.992,22.095c-15.346-13.739-35.605-22.103-57.823-22.103
	c-29.323,0-55.228,14.566-70.927,36.842c-2.967-2.078-6.832-4.365-11.603-6.353c-12.616-5.257-24.005-3.154-24.005-3.154l0,0
	c-2.419,0-4.381,1.961-4.381,4.381v54.319c0,2.419,1.961,4.381,4.381,4.381h1.767c9.965,0,18.048,8.068,18.066,18.033l0.473,184.522
	c0.011,4.263,3.47,7.712,7.732,7.712h41.824c4.27,0,7.732-3.462,7.732-7.732V161.117l0.028-18.398
	c0-15.968,12.944-28.912,28.912-28.912s28.912,12.944,28.912,28.912l0.305,54.144v152.071c0,4.27,3.462,7.732,7.732,7.732h41.805
	c4.27,0,7.732-3.462,7.732-7.732V170.579l0.249-27.86c0-15.968,12.944-28.912,28.912-28.912s28.912,12.944,28.912,28.912
	l0.085,16.296v239.179l0,0c0,31.935,25.888,57.823,57.823,57.823h58.79l27.439-25.202c2.563-2.354,2.514-6.412-0.105-8.704
	l-27.334-23.917h-51.356V398.193z"/>
<g>
	<path style="fill:#6565C1;" d="M209.421,67.607l0.155-0.09c-12.769-7.405-27.588-11.665-43.412-11.665
		c-4.927,0-9.754,0.42-14.456,1.21c10.669,1.782,20.681,5.504,29.655,10.799C190.016,72.964,200.742,72.663,209.421,67.607z"/>
	<path style="fill:#6565C1;" d="M339.25,143.158v3.634l-0.045,243.236c-0.001,4.436,3.595,8.033,8.032,8.033h28.827
		c-4.436,0-8.033-3.597-8.032-8.033l0.045-243.236v-3.634c0-47.361-37.741-86.674-85.098-87.298
		c-5.323-0.07-10.532,0.357-15.598,1.207C308.347,64.042,339.25,100.303,339.25,143.158z"/>
	<path style="fill:#6565C1;" d="M73.797,83.594l0.081-0.087c-8.18-1.437-14.248-0.321-14.248-0.321l0,0
		c-2.08,0-3.813,1.453-4.261,3.398c0.468,0.2,0.926,0.403,1.376,0.608C62.587,89.857,69.428,88.3,73.797,83.594z"/>
	<path style="fill:#6565C1;" d="M252.984,113.676c-15.967,0-28.912,12.944-28.912,28.912l-0.249,27.86v178.354
		c0,4.27-3.462,7.732-7.732,7.732h28.827c4.271,0,7.732-3.462,7.732-7.732V170.448l0.249-27.86c0-10.717,5.836-20.065,14.498-25.059
		C263.154,115.082,258.235,113.676,252.984,113.676z"/>
	<path style="fill:#6565C1;" d="M137.337,113.676c-15.967,0-28.912,12.944-28.912,28.912l-0.028,18.398v187.816
		c0,4.27-3.462,7.732-7.732,7.732h28.827c4.271,0,7.732-3.462,7.732-7.732V160.986l0.028-18.398
		c0-10.717,5.836-20.065,14.498-25.059C147.507,115.082,142.588,113.676,137.337,113.676z"/>
	<path style="fill:#6565C1;" d="M454.755,421.979l-27.334-23.917h-28.827l0,0c17.208,15.057,17.53,41.723,0.689,57.19l-0.689,0.633
		h28.827l27.439-25.202C457.423,428.329,457.374,424.271,454.755,421.979z"/>
</g>
<g>
</g>
<g>
</g>
<g>
</g>
<g>
</g>
<g>
</g>
<g>
</g>
<g>
</g>
<g>
</g>
<g>
</g>
<g>
</g>
<g>
</g>
<g>
</g>
<g>
</g>
<g>
</g>
<g>
</g>
</svg>
