<?xml version="1.0" encoding="iso-8859-1"?>
<!-- Generator: Adobe Illustrator 19.0.0, SVG Export Plug-In . SVG Version: 6.00 Build 0)  -->
<svg version="1.1" id="Capa_1" xmlns="http://www.w3.org/2000/svg" xmlns:xlink="http://www.w3.org/1999/xlink" x="0px" y="0px"
	 viewBox="0 0 512 512" style="enable-background:new 0 0 512 512;" xml:space="preserve">
<path style="fill:#FFCF65;" d="M459.433,512H52.567C23.655,512,0,488.345,0,459.433V52.567C0,23.655,23.655,0,52.567,0h406.867
	C488.345,0,512,23.655,512,52.567v406.867C512,488.345,488.345,512,459.433,512z"/>
<path style="fill:#FFEBBE;" d="M454.837,487.726H57.163c-18.089,0-32.888-14.8-32.888-32.888V57.163
	c0-18.089,14.8-32.888,32.888-32.888h397.675c18.089,0,32.888,14.8,32.888,32.888v397.675
	C487.726,472.926,472.926,487.726,454.837,487.726z"/>
<path style="fill:#ED5A5A;" d="M379.397,168.348l-82.51-82.51L262.699,51.65c-3.7-3.7-9.698-3.7-13.398,0l-34.188,34.188
	l-82.51,82.51c-3.7,3.7-3.7,9.698,0,13.398l27.489,27.489c3.7,3.7,9.698,3.7,13.398,0l53.47-53.47l0.128,168.046v57.823v66.222
	c0,5.232,4.242,9.474,9.474,9.474h38.876c5.232,0,9.474-4.242,9.474-9.474v-64.12V323.81l0.128-168.046l0.029,0.029l53.441,53.441
	c3.7,3.7,9.698,3.7,13.398,0l27.489-27.489C383.097,178.046,383.097,172.048,379.397,168.348z"/>
<g>
	<path style="fill:#E04B4B;" d="M190.246,168.657l-35.366,35.366l5.213,5.213c3.7,3.7,9.698,3.7,13.398,0l53.441-53.598l-5.564,0.03
		C209.688,155.73,198.505,160.398,190.246,168.657z"/>
	<path style="fill:#E04B4B;" d="M379.397,168.348l-82.51-82.51L262.699,51.65c-3.7-3.7-9.698-3.7-13.398,0l-5.213,5.213
		l28.976,28.976l60.233,60.233c16.003,16.003,16.003,41.948,0,57.951l0,0l5.213,5.213c3.7,3.7,9.698,3.7,13.398,0l27.489-27.489
		C383.097,178.046,383.097,172.048,379.397,168.348z"/>
</g>
<path style="fill:#49BC6E;" d="M358.505,335.388v38.876c0,5.232-4.242,9.474-9.474,9.474H162.969c-5.232,0-9.474-4.242-9.474-9.474
	v-38.876c0-5.232,4.242-9.474,9.474-9.474h186.063C354.264,325.914,358.505,330.155,358.505,335.388z"/>
<path style="fill:#E04B4B;" d="M284.912,155.794c-13.09,0-23.703,10.606-23.713,23.695l-0.11,144.322v31.014h-34.157v26.809v31.014
	h6.21c15.434,0,27.946,12.512,27.946,27.946v7.262c0,5.232-4.242,9.474-9.474,9.474h23.823c5.232,0,9.474-4.242,9.474-9.474v-64.12
	V323.81L284.912,155.794L284.912,155.794z"/>
<path style="fill:#ED5A5A;" d="M358.348,335.388v38.876c0,5.232-4.242,9.474-9.474,9.474H162.812c-5.232,0-9.474-4.242-9.474-9.474
	v-38.876c0-5.232,4.242-9.474,9.474-9.474h186.063C354.107,325.914,358.348,330.155,358.348,335.388z"/>
<g>
</g>
<g>
</g>
<g>
</g>
<g>
</g>
<g>
</g>
<g>
</g>
<g>
</g>
<g>
</g>
<g>
</g>
<g>
</g>
<g>
</g>
<g>
</g>
<g>
</g>
<g>
</g>
<g>
</g>
</svg>
