<?xml version="1.0" encoding="iso-8859-1"?>
<!-- Generator: Adobe Illustrator 19.0.0, SVG Export Plug-In . SVG Version: 6.00 Build 0)  -->
<svg version="1.1" id="Capa_1" xmlns="http://www.w3.org/2000/svg" xmlns:xlink="http://www.w3.org/1999/xlink" x="0px" y="0px"
	 viewBox="0 0 512 512" style="enable-background:new 0 0 512 512;" xml:space="preserve">
<path style="fill:#FFCF65;" d="M459.433,512H52.567C23.655,512,0,488.345,0,459.433V52.567C0,23.655,23.655,0,52.567,0h406.867
	C488.345,0,512,23.655,512,52.567v406.867C512,488.345,488.345,512,459.433,512z"/>
<path style="fill:#FFEBBE;" d="M451.599,490.097H60.401c-21.174,0-38.498-17.324-38.498-38.498V60.401
	c0-21.174,17.324-38.498,38.498-38.498h391.198c21.174,0,38.498,17.324,38.498,38.498v391.198
	C490.097,472.773,472.773,490.097,451.599,490.097z"/>
<path style="fill:#FFB450;" d="M383.737,115.647c-11.045,0-21.608,2.065-31.325,5.829l0.002,0.066
	c-8.25-38.766-42.077-68.426-83.156-68.967c-22.676-0.299-43.377,8.116-58.991,22.096c-15.346-13.739-35.605-22.103-57.823-22.103
	c-29.323,0-55.228,14.566-70.927,36.842c-2.967-2.078-6.832-4.316-11.603-6.304C57.298,77.848,45.908,80,45.908,80h0.236
	C43.725,80,42,81.863,42,84.282v54.319c0,2.419,1.489,4.399,3.908,4.399h1.767c9.965,0,18.048,8.059,18.066,18.024l0.473,184.393
	c0.011,4.263,3.47,7.584,7.732,7.584h41.825c4.27,0,8.229-3.213,8.229-7.484V157.7l-0.22-18.398
	c0-15.968,12.82-28.912,28.788-28.912s29.019,12.944,29.019,28.912L182,193.446v152.071c0,4.27,3.123,7.484,7.393,7.484h41.805
	c4.27,0,7.802-3.213,7.802-7.484V167.162l0.214-27.86c0-15.968,12.927-28.912,28.894-28.912s28.859,12.944,28.859,28.912
	L297,155.598v215.114c-24,11.586-42.994,14.886-52.105,15.814c-3.328,0.339-5.895,3.144-5.895,6.489v40.462
	c0,3.86,3.373,6.883,7.213,6.494c9.657-0.979,28.787-3.696,50.787-11.136v5.716v20.193c0,2.589,2.186,4.255,4.776,4.255h47.893
	c2.589,0,4.332-1.666,4.332-4.255v-39.818V401h0.178c13.009-8,26.094-18.586,38.406-31.139
	c53.618-54.669,77.843-115.902,77.843-167.583C470.428,151.288,431.64,115.647,383.737,115.647z M354.647,330.119
	c-0.157,0.148,0.353,0.286-0.647,0.434V188.354l0.647,16.131c0-15.967,13.033-28.912,29.001-28.912
	c15.967,0,28.867,12.944,28.867,28.912C412.515,204.485,423.938,264.505,354.647,330.119z"/>
<g>
	<path style="fill:#FF9822;" d="M111.867,62.636c5.199-0.974,10.562-1.484,16.045-1.484c15.34,0,29.745,3.987,42.245,10.977
		c9.637,5.389,21.413,5.473,31.044,0.073c1.212-0.68,2.443-1.332,3.69-1.955c-14.567-11.084-32.731-17.681-52.448-17.681
		C137.781,52.567,123.972,56.209,111.867,62.636z"/>
	<path style="fill:#FF9822;" d="M45.383,91.641c0.048,0.02,0.095,0.04,0.143,0.06c6.855,2.876,14.774,1.392,19.932-3.961
		c1.522-1.579,3.102-3.101,4.738-4.562c0-0.002,0-0.002-0.001-0.004c-12.727-5.406-24.287-3.272-24.287-3.272l0,0
		c-2.419,0-4.381,1.961-4.381,4.381v5.96C42.793,90.638,44.08,91.099,45.383,91.641z"/>
	<path style="fill:#FF9822;" d="M127.912,118.976C111.945,118.976,99,131.92,99,147.888l-0.028,18.398v186.962h16.799
		c4.27,0,7.732-3.462,7.732-7.732V157.7l0.028-18.398c0-7.802,3.096-14.876,8.119-20.077
		C130.426,119.066,129.18,118.976,127.912,118.976z"/>
	<path style="fill:#FF9822;" d="M243.559,118.976c-15.967,0-28.912,12.944-28.912,28.912l-0.249,27.86v177.5h16.799
		c4.27,0,7.732-3.462,7.732-7.732V167.162l0.249-27.86c0-7.802,3.096-14.876,8.119-20.077
		C246.073,119.066,244.827,118.976,243.559,118.976z"/>
	<path style="fill:#FF9822;" d="M376.807,115.93c-8.589,0.665-16.761,2.56-24.467,5.546l0.038,0.066
		c-8.255-38.786-42.096-68.455-83.199-68.968c-15.066-0.188-29.239,3.488-41.646,10.069c7-1.309,14.381-1.794,21.87-1.301
		C294.91,64.341,330,102.917,330,148.523v3.57v224.789c-12,8.389-23,14.834-33,19.762v32.189v5.718v20.193
		c0,0.007,0.056,0.009,0.066,0.016c5.319-1.76,10.877-4.004,16.565-6.336c7.712-3.161,16.195,2.575,16.195,10.575h19.843
		c2.589,0,4.332-1.666,4.332-4.255v-27.393v-12.425v-13.508v-44.933V188.354l0.502,16.131c0-14.8,11.498-26.995,25.498-28.7v-32.277
		v-3.635C380,131.588,378.967,123.558,376.807,115.93z"/>
</g>
<g>
</g>
<g>
</g>
<g>
</g>
<g>
</g>
<g>
</g>
<g>
</g>
<g>
</g>
<g>
</g>
<g>
</g>
<g>
</g>
<g>
</g>
<g>
</g>
<g>
</g>
<g>
</g>
<g>
</g>
</svg>
