<svg id="Layer_1" enable-background="new 0 0 511 511" height="512" viewBox="0 0 511 511" width="512" xmlns="http://www.w3.org/2000/svg"><path d="m19.95 126.273 235.55 8.697 235.55-8.697c-24.276-41.285-68.305-69.036-118.594-69.036-24.268 0-47.078 6.426-66.913 17.716-30.995 17.641-69.09 17.641-100.086 0-19.836-11.29-42.645-17.716-66.913-17.716-50.289 0-94.318 27.751-118.594 69.036z" fill="#ef7d92"/><path d="m.091 196.737 254.334 10.127 256.485-10.127c-.823-25.025-7.899-50.316-19.678-70.464h-471.464c-11.778 20.148-18.854 45.439-19.677 70.464z" fill="#f7ad55"/><path d="m0 196.737c0 23.258 5.397 47.801 14.663 67.293l240.837 11.751 239.585-11.751c10.022-19.876 15.915-44.489 15.915-67.293 0-1.539-.032 1.527-.079 0h-510.842c-.047 1.527-.079-1.54-.079 0z" fill="#f9ef90"/><path d="m68.094 332.908 186.331 7.825 186.327-7.825c22.274-20.759 41.496-43.859 54.176-68.878h-480.112c12.231 25.587 31.135 48.517 53.278 68.878z" fill="#7ce0cf"/><path d="m162.195 401.787 93.726 7.864 93.711-7.864c30.444-19.987 62.964-43.019 90.776-68.878h-371.969c28.387 26.033 62.042 48.7 93.756 68.878z" fill="#99ddfc"/><path d="m291.987 441.926c16.452-11.944 35.042-25.626 57.164-40.14h-186.458c22.133 14.075 38.996 27.165 55.676 39.624 21.785 16.274 51.613 16.492 73.618.516z" fill="#b9a0db"/><path d="m144.199 107.831c9.009-18.299 23.474-32.204 40.479-42.476-14.433-5.249-29.957-8.119-46.135-8.119-50.289 0-94.318 27.751-118.594 69.036l116.208 4.291c1.844-7.805 4.444-15.423 8.042-22.732z" fill="#eb6773"/><path d="m133.7 200.068c-1.96-24.324-2.99-50.055 3.556-73.795h-117.488c-11.778 20.148-18.854 45.439-19.677 70.464l133.782 5.327c-.058-.666-.12-1.331-.173-1.996z" fill="#f49634"/><path d="m144.8 254.068c-6.328-17.365-9.62-35.617-11.101-54.001-.089-1.107-.176-2.218-.26-3.331h-133.36c-.047 1.527-.079-1.539-.079 0 0 23.258 5.397 47.801 14.663 67.293l136.968 6.683c-2.472-5.475-4.78-11.017-6.831-16.644z" fill="#f4d37f"/><path d="m169.646 305.031c-7.761-13.172-15.002-26.844-20.919-41.001h-133.911c12.231 25.587 31.135 48.517 53.278 68.878l122.98 5.164c-7.593-10.729-14.77-21.741-21.428-33.041z" fill="#55cb94"/><path d="m238.792 396.442c-18.526-19.884-35.866-41.092-51.325-63.534h-119.028c28.387 26.034 62.043 48.7 93.757 68.879l89.237 7.488c-4.317-4.171-8.544-8.435-12.641-12.833z" fill="#66cdf7"/><path d="m243.894 401.787h-81.202c22.133 14.075 38.996 27.165 55.676 39.624 21.34 15.94 50.393 16.464 72.254 1.464-16.425-12.734-32.239-26.221-46.728-41.088z" fill="#928fd4"/></svg>