<svg id="Layer_1" enable-background="new 0 0 511 511" height="512" viewBox="0 0 511 511" width="512" xmlns="http://www.w3.org/2000/svg"><path d="m498.084 302.639c.063-.117.131-.231.194-.348.022-.042.042-.084.064-.125 8.077-15.142 12.658-32.431 12.658-50.791 0-17.994-4.512-35.874-13.13-51.675-8.372-15.353-20.489-28.587-35.034-38.294-14.876-9.928-32.164-16.04-49.974-17.665-.043-.004-.086-.008-.129-.012-6.454-.579-11.231-6.279-10.458-12.713.625-5.198.792-10.451.493-15.684-1.514-26.397-14.747-49.654-34.437-64.822-30.14-23.645-70.913-23.185-102.737-3.526-12.907 7.973-15.797 1.812-28.001-4.645-16.569-8.766-35.854-12.029-54.387-9.207-29.787 4.536-55.834 24.695-67.858 52.322-3.579 8.224-5.891 17.015-6.8 25.939-.72 7.071 1.93 16.577.17 23.329-2.325 8.923-10.302 8.905-18.026 10.311-9.445 1.719-18.619 4.762-27.277 8.901-19.155 8.847-35.846 23.081-46.955 41.038-2.197 3.552-4.154 7.24-5.895 11.025-.429.879-.859 1.758-1.264 2.649-4.482 9.864-7.432 20.413-8.651 31.181-.434 3.833-.65 7.69-.65 11.548 0 50.573 34.737 93.019 81.65 104.813 7.328 1.935 14.896 3.11 22.474 3.399-7.121 27.658-1.302 57.733 15.767 80.632 17.055 22.929 44.13 38.005 74.539 38.618 17.569.354 34.071-4.059 48.324-12.023.26-.145.526-.272.789-.408 3.218-1.434 6.515-2.578 10.013-2.8 6.014-.381 11.678 1.999 17.228 4.573 13.66 7.098 29.25 10.991 45.786 10.658 19.768-.399 38.128-6.91 53.243-17.715 31.999-22.436 46.85-63.993 36.99-101.72 2.37-.085 4.805-.262 7.179-.517 35.235-3.585 65.463-24.088 82.429-53.261.117-.2.231-.401.346-.601.452-.789.894-1.583 1.327-2.384z" fill="#ef7d92"/><ellipse cx="150.843" cy="241.703" fill="#fff" rx="31.376" ry="24.986"/><ellipse cx="360.157" cy="241.703" fill="#fff" rx="31.376" ry="24.986"/><path d="m255.5 308.792c-4.259 0-7.711 3.453-7.711 7.711v108.88c0 4.259 3.452 7.711 7.711 7.711s7.711-3.452 7.711-7.711v-108.88c0-4.259-3.452-7.711-7.711-7.711z" fill="#f6a7ae"/><path d="m255.5 73.804c-4.259 0-7.711 3.452-7.711 7.711v70.138c0 4.259 3.452 7.711 7.711 7.711s7.711-3.452 7.711-7.711v-70.137c0-4.259-3.452-7.712-7.711-7.712z" fill="#f6a7ae"/><path d="m261.16 223.446c-1.801 2.74-4.484 3.112-5.576 3.13s-3.832-.232-5.677-2.943c-2.562-3.761-7.687-4.734-11.448-2.173s-4.734 7.687-2.173 11.448c4.414 6.483 11.731 10.275 19.572 10.144 7.841-.13 15.028-4.164 19.224-10.79 2.435-3.844 1.292-8.935-2.552-11.369-1.41-.892-7.615-3.162-11.37 2.553z" fill="#3f4750"/><path d="m188.271 228.483c-1.039-.841-2.066-1.052-2.64-1.043-.574.01-1.674.169-2.604 1.13-3.165 3.271-8.381 3.358-11.651.194-3.272-3.164-3.358-8.38-.195-11.651 3.749-3.876 8.784-6.06 14.175-6.15s10.496 1.926 14.372 5.675c3.271 3.164 3.357 8.381.193 11.651-1.58 1.636-6.376 4.46-11.65.194z" fill="#3f4750"/><path d="m328.166 226.225c-1.039-.841-2.066-1.052-2.64-1.043-.574.01-1.674.169-2.604 1.13-3.165 3.271-8.381 3.358-11.651.194-3.272-3.164-3.358-8.38-.195-11.651 3.749-3.876 8.784-6.06 14.175-6.15s10.496 1.926 14.372 5.675c3.271 3.164 3.357 8.381.193 11.651-1.581 1.635-6.377 4.46-11.65.194z" fill="#3f4750"/><path d="m143.997 406.45c.036-1.054.365-1.913.867-2.593-6.059-36.957-27.837-69.341-34.811-106.087-24.658-8.492-45.987-27.031-62.216-46.947-13.526-16.599-26.119-36.746-29.818-58.291-11.487 16.88-18.019 37.055-18.019 58.843 0 58.393 46.308 105.963 104.202 108.009-2.02 7.722-3.103 15.823-3.103 24.178 0 42.967 28.438 79.286 67.517 91.178-16.235-18.624-25.447-43.779-24.619-68.29z" fill="#eb6773"/><path d="m366.753 406.45c-.036-1.054-.365-1.913-.867-2.593 6.059-36.957 27.837-69.341 34.811-106.087 24.658-8.492 45.987-27.031 62.216-46.947 13.526-16.599 26.649-37.247 30.348-58.792 11.486 16.88 17.488 37.556 17.488 59.343 0 58.393-46.308 105.963-104.202 108.009 2.02 7.722 3.103 15.823 3.103 24.178 0 42.967-28.438 79.286-67.517 91.178 16.236-18.623 25.448-43.778 24.62-68.289z" fill="#eb6773"/><g fill="#ef7d92"><path d="m350.674 395.923c13.328 16.799 34.461 26.93 57.461 25.26 36.956-2.684 64.738-34.819 62.054-71.774-2.349-32.336-27.245-57.65-58.19-61.674 0 0-23.746-2.011-35.155 0"/><path d="m148.6 403.798c-24.727 19.035-60.231 18.741-84.757-2.464-28.03-24.234-31.107-66.602-6.873-94.631 15.083-17.445 37.19-25.225 58.493-22.77"/><path d="m132.332 413.002c11.665-6.552 12.84 5.216 13.598 7.332 0-.001 7.139-33.327-13.598-7.332z"/><path d="m76.585 278.767c8.975 9.921-2.239 13.677-4.133 14.886 0 0 34.079-.429 4.133-14.886z"/><path d="m433.429 279.318c-12.615 8.197-1.508 15.511.202 17.371.001 0-36.917-10.288-.202-17.371z"/><path d="m378.869 416.798c-11.665-6.552-12.84 5.216-13.598 7.332 0-.001-7.139-33.327 13.598-7.332z"/></g></svg>