<svg id="Layer_1" enable-background="new 0 0 511 511" height="512" viewBox="0 0 511 511" width="512" xmlns="http://www.w3.org/2000/svg"><path d="m65.917 264.882 7.956 14.547c1.355 2.478 3.392 4.515 5.87 5.87l14.547 7.956c10.241 5.601 10.241 20.309 0 25.91l-14.547 7.956c-2.478 1.355-4.515 3.392-5.87 5.87l-7.956 14.547c-5.601 10.241-20.309 10.241-25.91 0l-7.956-14.547c-1.355-2.478-3.392-4.515-5.87-5.87l-14.547-7.956c-10.241-5.601-10.241-20.309 0-25.91l14.547-7.956c2.478-1.355 4.515-3.392 5.87-5.87l7.956-14.547c5.601-10.241 20.309-10.241 25.91 0z" fill="#f3d37e"/><path d="m447.986 218.818 15.912 4.661c2.71.794 5.591.794 8.301 0l15.912-4.661c11.202-3.281 21.602 7.119 18.321 18.321l-4.661 15.912c-.794 2.71-.794 5.591 0 8.301l4.661 15.912c3.281 11.202-7.119 21.602-18.321 18.321l-15.912-4.661c-2.71-.794-5.591-.794-8.301 0l-15.912 4.661c-11.202 3.281-21.602-7.119-18.321-18.321l4.661-15.912c.794-2.71.794-5.591 0-8.301l-4.661-15.912c-3.281-11.202 7.119-21.602 18.321-18.321z" fill="#f3d37e"/><path d="m283.278 391.504s67.388 11.04 139.998-16.446c9.854-3.73 19.077 6.709 14.122 16.008l-11.633 21.827 24.673 8.294c10.075 3.387 10.456 17.522.563 21.408-34.622 13.598-98.306 33.024-167.723 26.611 0-5.681 0-77.702 0-77.702z" fill="#f9ef90"/><path d="m356.753 429.505c4.81-12.33 10.451-26.086 7.766-39.279-46.485 6.971-81.241 1.277-81.241 1.277s0 72.021 0 77.701c22.003 2.033 43.426 1.464 63.534-.687.215-13.497 4.974-26.282 9.941-39.012z" fill="#f4d37f"/><path d="m313.883 281.801v189.023c0 22.188-16.142 40.175-36.054 40.175h-66.379c-19.912 0-36.054-17.987-36.054-40.175v-203.463z" fill="#f5dbcd"/><path d="m233.831 472.109c-.895-21.766-1.148-43.718.253-65.466.735-11.406 1.999-22.813 4.163-34.041 1.663-8.629 3.213-18.683 8.207-26.123 7.995-11.911 22.933-17.117 36.442-19.527 10.179-1.816 20.635-2.448 30.987-1.802v-43.349l-138.488-14.441v203.464c0 22.188 16.142 40.175 36.054 40.175h26.113c-2.384-12.815-3.201-26.01-3.731-38.89z" fill="#f0c9bc"/><path d="m250.539 303.494h-22.737c-53.775 0-97.772-43.997-97.772-97.772v-46.516c0-53.775 43.997-97.772 97.772-97.772h22.737c53.775 0 97.772 43.997 97.772 97.772v46.516c0 53.774-43.997 97.772-97.772 97.772z" fill="#f0c9bc"/><g fill="#f5dbcd"><path d="m179.241 139.304c0 16.661-13.507 30.168-30.168 30.168-16.661 0-30.168-13.507-30.168-30.168v-79.526c0-16.661 13.507-30.168 30.168-30.168 16.661 0 30.168 13.507 30.168 30.168z"/><path d="m238.577 139.304c0 16.661-13.507 30.168-30.168 30.168-16.661 0-30.168-13.507-30.168-30.168v-99.904c0-16.661 13.507-30.168 30.168-30.168 16.661 0 30.168 13.507 30.168 30.168z"/><path d="m296.913 152.816v-99.904c0-16.661 13.507-30.168 30.168-30.168 16.661 0 30.168 13.507 30.168 30.168v93.689z"/><path d="m297.913 152.086c0 16.661-13.507 30.168-30.168 30.168-16.661 0-30.168-13.507-30.168-30.168v-121.918c0-16.661 13.506-30.168 30.168-30.168 16.661 0 30.168 13.507 30.168 30.168v32.184z"/></g><path d="m217.116 110.76c-7.649-8.148-12.915-20.033-15.632-30.791-5.622-22.261-4.257-48.733 3.691-70.562-15.14 1.614-26.934 14.425-26.934 29.993v99.904c0 16.661 13.507 30.168 30.168 30.168 16.661 0 30.168-13.507 30.168-30.168v-20.642c-7.899-.124-15.447-1.497-21.461-7.902z" fill="#f0c9bc"/><path d="m277.965 107.876c-9.497-7.133-11.087-19.398-11.945-30.449-1.116-14.377-2.014-27.552-1.64-41.99.368-14.192 1.461-21.286 2.743-35.421-16.373.332-29.546 13.699-29.546 30.152v121.918c0 16.661 13.507 30.168 30.168 30.168 16.661 0 30.168-13.507 30.168-30.168v-39.223c-7.007-.304-13.955-.486-19.948-4.987z" fill="#f0c9bc"/><path d="m329.154 91.095c-5.029-10.151-4.838-22.978-4.117-34.011.752-11.52 2.818-22.928 5.612-34.123-1.171-.138-2.36-.217-3.568-.217-16.661 0-30.168 13.507-30.168 30.168v99.904l60.336-6.215v-38.469c-10.759-3.743-22.428-5.596-28.095-17.037z" fill="#f0c9bc"/><path d="m302.764 202.005c2.511-1.647 1.358-5.544-1.645-5.569-23.88-.196-67.9-2.856-75.387-24.238-9.346-26.689 26.85-33.219 43.709-38.087 34.04-9.83 88.747-23.508 111.356 12.986 27.324 44.104-14.052 142.129-61.047 157.207-55.671 17.862-103.533-21.999-66.116-70.077z" fill="#f5dbcd"/><path d="m150.257 104.005c-5.615-9.914-6.669-21.781-7.134-32.941-.579-13.868.739-27.773 3.57-41.352-15.547 1.215-27.788 14.206-27.788 30.066v79.527c0 16.661 13.507 30.168 30.168 30.168s30.168-13.507 30.168-30.168v-15.891c-11.788-2.737-22.63-8.189-28.984-19.409z" fill="#f0c9bc"/><path d="m314.12 429.704h-136.296c-15.439 0-27.954-12.516-27.954-27.954v-10.944c0-15.439 12.516-27.954 27.954-27.954h136.296c15.439 0 27.954 12.516 27.954 27.954v10.944c.001 15.439-12.515 27.954-27.954 27.954z" fill="#7ce0cf"/><path d="m240.337 362.851h-62.514c-15.439 0-27.954 12.516-27.954 27.955v10.944c0 15.439 12.516 27.955 27.954 27.955h56.048c-.775-22.439.653-44.792 6.466-66.854z" fill="#55cb94"/></svg>