<svg id="Layer_1" enable-background="new 0 0 511.005 511.005" height="512" viewBox="0 0 511.005 511.005" width="512" xmlns="http://www.w3.org/2000/svg"><path d="m149.96 182.805 105.492 23.301 105.636-23.383 73.165-126.969c14.307-24.78-3.576-55.754-32.189-55.754h-293.224c-28.612 0-46.495 30.974-32.189 55.754z" fill="#f6a7ae"/><path d="m230.699 94.845c25.814-16.45 59.071-19.702 88.943-20.265 33.13-.625 66.987.962 99.615 7.198l14.996-26.024c14.307-24.78-3.576-55.754-32.189-55.754h-293.224c-28.612 0-46.495 30.974-32.189 55.754l73.309 127.051 61.9 13.672c-15.541-37.099-19.575-77.153 18.839-101.632z" fill="#f1919b"/><path d="m402.165 182.728h-40.975l-114.873 19.173-96.399-19.173h-40.975c-28.613 0-46.496 30.974-32.189 55.754l146.612 253.939c14.306 24.779 50.072 24.779 64.379 0l146.612-253.939c14.304-24.779-3.579-55.754-32.192-55.754z" fill="#eaf9ff"/><path d="m266.292 284.608c-13.902-17.28-26.4-23.21-36.582-42.948-5.545-10.749-10.357-21.88-14.786-33.13-1.884-4.786-3.745-9.318-5.143-13.895l-59.864-11.907h-40.975c-28.613 0-46.496 30.974-32.189 55.754l146.612 253.939c14.306 24.779 50.072 24.779 64.379 0l78.173-136.291c-63.018-17.672-86.403-55.087-99.625-71.522z" fill="#b3e5fc"/><path d="m361.189 182.728h-211.272l75.375 130.554c13.449 23.295 47.072 23.295 60.522 0l75.375-130.554h-211.272" fill="#b9a0db"/><path d="m243.862 253.522c-12.88-19.184-28.669-44.826-37.143-70.794-22.332 0-56.802 0-56.802 0l75.375 130.554c13.449 23.295 47.072 23.295 60.521 0l1.519-2.631c-15.445-18.304-30.123-37.249-43.47-57.129z" fill="#928fd4"/><g fill="#3f4750"><path d="m289.628 92.396c-4.143 0-7.5 3.358-7.5 7.5 0 5.273-4.29 9.563-9.563 9.563s-9.563-4.29-9.563-9.563c0-4.142-3.357-7.5-7.5-7.5s-7.5 3.358-7.5 7.5c0 5.273-4.29 9.563-9.563 9.563s-9.563-4.29-9.563-9.563c0-4.142-3.357-7.5-7.5-7.5s-7.5 3.358-7.5 7.5c0 13.544 11.019 24.563 24.563 24.563 6.624 0 12.64-2.64 17.063-6.918 4.422 4.278 10.438 6.918 17.063 6.918 13.544 0 24.563-11.019 24.563-24.563 0-4.142-3.358-7.5-7.5-7.5z"/><path d="m174.478 72.61c-4.143 0-7.5 3.358-7.5 7.5v12.802c0 4.142 3.357 7.5 7.5 7.5s7.5-3.358 7.5-7.5v-12.802c0-4.142-3.357-7.5-7.5-7.5z"/><path d="m336.527 72.61c-4.143 0-7.5 3.358-7.5 7.5v12.802c0 4.142 3.357 7.5 7.5 7.5s7.5-3.358 7.5-7.5v-12.802c0-4.142-3.357-7.5-7.5-7.5z"/></g></svg>