<svg id="Layer_1" enable-background="new 0 0 511 511" height="512" viewBox="0 0 511 511" width="512" xmlns="http://www.w3.org/2000/svg"><path d="m80.369 188.754-38.569 186.423c-11.741 56.752 31.596 109.973 89.549 109.973h248.301c57.954 0 101.291-53.221 89.549-109.973l-38.569-186.422h-350.261z" fill="#f49634"/><path d="m96.72 455.313c-16.349 0-27.593-16.295-21.948-31.64 12.884-35.025 46.544-60.008 86.04-60.008h189.377c39.495 0 73.156 24.983 86.04 60.008 5.644 15.344-5.599 31.64-21.948 31.64z" fill="#f5dbcd"/><circle cx="85.538" cy="254.089" fill="#f0c9bc" r="47.38"/><circle cx="425.462" cy="254.089" fill="#f0c9bc" r="47.38"/><path d="m273.273 407.503h-35.546c-89.788 0-163.25-73.463-163.25-163.25v-76.489c0-99.21 81.172-84.344 180.382-84.344h1.282c99.21 0 180.383-14.866 180.383 84.344v76.489c-.001 89.788-73.463 163.25-163.251 163.25z" fill="#f5dbcd"/><path d="m255.568 243.554c-70.177 0-127.067 53.331-127.067 119.119 0 .655.008 1.308.021 1.96.009.453.206.883.544 1.185 28.916 25.889 67.032 41.685 108.661 41.685h35.546c41.692 0 79.896-15.622 108.828-41.578.344-.309.541-.749.542-1.211.002-.682-.008-1.42-.008-2.041 0-65.787-56.89-119.119-127.067-119.119z" fill="#e7bb9f"/><path d="m189.684 319.446c-3.778-26.359-6.266-54.257-.937-80.56 2.566-12.668 7.367-25.111 15.1-35.544 8.824-11.906 20.075-18.475 33.574-24.039 30.185-12.442 56.476-31.324 78.912-54.992 10.674-11.26 20.414-23.995 26.174-38.525.348-.878.716-1.784 1.093-2.71-25.946-1.167-55.78.344-87.46.344h-1.282c-99.21 0-180.382-14.866-180.382 84.344v76.489c0 81.838 61.033 150.102 139.827 161.551-11.609-27.698-20.344-56.533-24.619-86.358z" fill="#f0c9bc"/><path d="m189.684 319.446c-2.638-18.402-4.636-37.554-3.796-56.39-34.562 21.289-57.387 57.952-57.387 99.618 0 .676-.012 1.492-.009 2.234.002.432.185.843.507 1.131 23.401 20.957 52.866 35.06 85.309 39.774-11.612-27.701-20.349-56.539-24.624-86.367z" fill="#da9d75"/><g fill="#3f4750"><path d="m255.5 322.685c-17.197 0-31.136-13.94-31.136-31.137v-22.638c0-4.695 3.805-8.5 8.5-8.5h45.274c4.695 0 8.5 3.805 8.5 8.5v22.638c-.002 17.196-13.941 31.137-31.138 31.137z"/><path d="m166.128 262.403c-4.259 0-7.711-3.452-7.711-7.711v-14.122c0-4.259 3.452-7.711 7.711-7.711s7.711 3.452 7.711 7.711v14.121c0 4.26-3.453 7.712-7.711 7.712z"/><path d="m344.872 262.403c-4.259 0-7.711-3.452-7.711-7.711v-14.122c0-4.259 3.452-7.711 7.711-7.711s7.711 3.452 7.711 7.711v14.121c.001 4.26-3.452 7.712-7.711 7.712z"/></g><path d="m327.469 160.424 51.389 30.607c26.159 18.168 54.625 24.12 74.206 24.129 10.083.005 18.054-8.542 17.437-18.606-4.218-68.867-8.441-155.512-126.48-187.441-22.909-6.196-46.581-9.115-70.313-9.113l-36.381.003c-24.901.002-49.731 3.224-73.682 10.036-113.539 32.294-118.864 116.449-123.01 184.288-.673 11.011 8.856 19.833 19.801 18.453 50.616-6.382 119.21-55 151.218-105.199z" fill="#f7ad55"/><path d="m74.477 426.301-.567-.168c-3.077 9.166-4.746 18.978-4.746 29.18v25.269c0 16.799 13.618 30.418 30.418 30.418h311.837c16.799 0 30.418-13.618 30.418-30.418v-25.269c0-10.225-1.676-20.058-4.766-29.242l-.547.23c-150.454 33.546-263.369 21.933-362.047 0z" fill="#ef7d92"/><path d="m374.924 473.326c-4.259 0-7.711 3.452-7.711 7.711v29.963h15.423v-29.963c-.001-4.259-3.454-7.711-7.712-7.711z" fill="#eb6773"/><path d="m147.186 511v-29.963c0-4.259-3.452-7.711-7.711-7.711s-7.711 3.452-7.711 7.711v29.963z" fill="#eb6773"/><path d="m194.981 110.024c-6.586-5.155-13.607-10.514-19.802-16.573-3.934-3.848-10.333-3.37-13.64 1.029-6.211 8.261-12.564 16.413-19.156 24.374-9.414 11.369-19.327 22.332-29.894 32.643-9.891 9.651-20.561 18.293-31.083 27.222-10.773 9.142-23.765 20.88-38.067 26.073 3.513 5.491 10.006 8.882 17.096 7.987 47.177-5.948 109.967-48.59 144.199-95.004-3.192-2.613-6.402-5.207-9.653-7.751z" fill="#f49634"/><path d="m346.21 114.055c2.197 20.055 4.499 50.302 7.889 62.23l24.759 14.746c26.159 18.168 54.625 24.12 74.206 24.129 7.514.004 13.849-4.744 16.337-11.328-2.616-1.745-5.239-3.48-7.885-5.18-12.794-8.217-61.764-31.889-103.572-90.707-4.865-4.276-12.44-.33-11.734 6.11z" fill="#f49634"/><path d="m170.448 84.735c-2.681 67.419 108.753 124.729 175.361 125.806 11.104.18 20.109-8.877 20.105-19.982-.006-18.494-3.541-50.172-21.382-92.098" fill="#f7ad55"/></svg>