<svg id="Layer_1" enable-background="new 0 0 511 511" height="512" viewBox="0 0 511 511" width="512" xmlns="http://www.w3.org/2000/svg"><path d="m411.418 511h-85.628l-70.373-12.085-70.208 12.085h-85.627c-16.799 0-30.418-13.618-30.418-30.418v-25.269c0-50.616 41.032-91.648 91.648-91.648h189.377c50.616 0 91.648 41.032 91.648 91.648v25.269c-.001 16.8-13.619 30.418-30.419 30.418z" fill="#66cdf7"/><path d="m185.209 385.58h140.581v125.42h-140.581z" fill="#fff"/><path d="m201.666 425.388c17.107 16.513 72.459 27.529 107.898.107l41.362-33.991-95.426-19.004-101.606 19.004z" fill="#f0c9bc"/><path d="m117.098 351.115c-29.831 22.795-13.259 69.605 47.109 87.518 12.282 3.644 25.567-.22 34.205-9.681l40.287-44.124z" fill="#99ddfc"/><path d="m394.297 351.115c31.165 25.328 12.863 69.605-47.504 87.518-12.282 3.644-25.567-.22-34.205-9.681l-40.287-44.124z" fill="#99ddfc"/><circle cx="85.538" cy="249.687" fill="#f0c9bc" r="47.38"/><circle cx="425.462" cy="249.687" fill="#f0c9bc" r="47.38"/><path d="m273.273 407.503h-35.546c-90.833 0-164.852-71.253-164.034-163.25v-76.489c0-99.21 81.956-84.014 181.166-84.014h1.282c99.21 0 180.383-15.196 180.383 84.014v76.489c-.001 89.788-73.463 163.25-163.251 163.25z" fill="#f5dbcd"/><path d="m73.732 249.359c1.728 81.044 61.676 144.974 139.168 156.344.223.035.405.064.682.095-11.61-27.698-20.407-55.678-24.682-85.503-3.778-26.358-6.266-54.256-.937-80.56 2.566-12.668 7.367-25.111 15.1-35.544 8.824-11.906 20.075-18.475 33.574-24.039 30.185-12.442 56.476-31.324 78.912-54.992 10.674-11.26 20.414-23.995 26.174-38.525.347-.877.985-2.405 1.362-3.331-.241-.01-.48-.022-.722-.032-.325-.014-.656-.024-.982-.037-25.422-.945-54.461.516-85.241.516h-.784-.497-.784c-99.21 0-180.382-14.347-180.382 84.863v75.64c-.004.477.006.949.005 1.424.003 1.232.013 2.459.034 3.681z" fill="#f0c9bc"/><path d="m255.5 322.685c-17.197 0-31.136-13.94-31.136-31.137v-22.638c0-4.695 3.805-8.5 8.5-8.5h45.274c4.695 0 8.5 3.805 8.5 8.5v22.638c-.002 17.196-13.941 31.137-31.138 31.137z" fill="#3f4750"/><path d="m374.923 473.326c-4.259 0-7.711 3.452-7.711 7.711v29.963h15.423v-29.963c-.001-4.259-3.453-7.711-7.712-7.711z" fill="#99ddfc"/><path d="m147.186 511v-29.963c0-4.259-3.452-7.711-7.711-7.711s-7.711 3.452-7.711 7.711v29.963z" fill="#99ddfc"/><path d="m286.637 506.58c0-17.197-13.941-31.137-31.137-31.137s-31.137 13.941-31.137 31.137v4.42h62.274z" fill="#89b0e0"/><ellipse cx="147.763" cy="281.241" fill="#ec9eb0" rx="32.324" ry="25.741"/><ellipse cx="363.406" cy="281.241" fill="#ec9eb0" rx="32.324" ry="25.741"/><path d="m166.128 232.859c-4.259 0-7.711 3.452-7.711 7.711v14.121c0 4.259 3.452 7.711 7.711 7.711s7.711-3.452 7.711-7.711v-14.121c0-4.258-3.453-7.711-7.711-7.711z" fill="#3f4750"/><path d="m344.872 232.859c-4.259 0-7.711 3.452-7.711 7.711v14.121c0 4.259 3.452 7.711 7.711 7.711s7.711-3.452 7.711-7.711v-14.121c.001-4.258-3.451-7.711-7.711-7.711z" fill="#3f4750"/><path d="m327.469 160.424 51.389 30.607c26.159 18.168 54.625 24.12 74.206 24.129 10.083.005 18.054-8.542 17.437-18.606-4.218-68.867-8.441-155.512-126.48-187.441-22.909-6.196-46.581-9.115-70.313-9.113l-36.381.003c-24.901.002-49.731 3.224-73.682 10.036-113.539 32.294-118.864 116.449-123.01 184.288-.673 11.011 8.856 19.833 19.801 18.453 50.616-6.382 119.21-55 151.218-105.199z" fill="#4b555f"/><path d="m194.981 110.024c-6.586-5.155-13.607-10.514-19.802-16.573-3.934-3.848-10.333-3.37-13.64 1.029-6.211 8.261-12.564 16.413-19.156 24.374-9.414 11.369-19.327 22.332-29.894 32.643-9.891 9.651-20.561 18.293-31.083 27.222-10.773 9.142-23.765 20.88-38.067 26.073 3.513 5.491 10.006 8.882 17.096 7.987 47.177-5.948 109.967-48.59 144.199-95.004-3.192-2.613-6.402-5.207-9.653-7.751z" fill="#3f4750"/><path d="m346.21 114.055c2.197 20.055 4.499 50.302 7.889 62.23l24.759 14.746c26.159 18.168 54.625 24.12 74.206 24.129 7.514.004 13.849-4.744 16.337-11.328-2.616-1.745-5.239-3.48-7.885-5.18-12.794-8.217-61.764-31.889-103.572-90.707-4.865-4.276-12.44-.33-11.734 6.11z" fill="#3f4750"/><path d="m170.448 84.735c-2.681 67.419 108.753 124.729 175.361 125.806 11.104.18 20.109-8.877 20.105-19.982-.006-18.494-3.541-50.172-21.382-92.098" fill="#4b555f"/></svg>