<svg id="Layer_1" enable-background="new 0 0 511 511" height="512" viewBox="0 0 511 511" width="512" xmlns="http://www.w3.org/2000/svg"><path d="m464.251 60.758-151.944 151.944-83.802-100.379 99.619-99.619z" fill="#f6a7ae"/><path d="m339.07 129.711c-9.208-12.306-12.985-27.444-13.124-42.66-.231-25.251 11.634-46.943 27.524-65.4l-25.346-8.947-99.619 99.619 83.802 100.379 55.526-55.526c-10.349-8.407-20.687-16.673-28.763-27.465z" fill="#f1919b"/><path d="m401.2 73.201c-39.178-6.927-73.75-28.446-77.219-48.064-3.469-19.617 25.479-29.905 64.658-22.977s73.75 28.446 77.219 48.064-25.48 29.905-64.658 22.977z" fill="#ef7d92"/><path d="m341.822 177.861-87.083-87.083c-10.927-10.927-28.643-10.927-39.57 0l-24.786 24.786c-10.927 10.927-10.927 28.643 0 39.57l87.083 87.083c10.927 10.927 28.643 10.927 39.57 0l24.786-24.786c10.927-10.927 10.927-28.643 0-39.57z" fill="#f9ef90"/><path d="m241.877 112.703c-1.935-9.498 1.659-17.793 7.962-25.83-10.809-6.804-25.256-5.508-34.669 3.905l-24.786 24.786c-10.927 10.927-10.927 28.643 0 39.57l87.083 87.083c10.927 10.927 28.643 10.927 39.57 0l22.482-22.482c-10.414-8.678-94.098-89.641-97.642-107.032z" fill="#f4d37f"/><path d="m168.355 372.27-108.025-108.025c-20.626-20.626-20.626-54.067 0-74.693l73.29-73.29c20.626-20.626 54.067-20.626 74.693 0l108.025 108.025c20.626 20.626 20.626 54.067 0 74.693l-73.29 73.29c-20.626 20.626-54.067 20.626-74.693 0z" fill="#fffdde"/><path d="m101.106 305.021-40.776-40.776c-20.626-20.626-20.626-54.067 0-74.693l73.29-73.29c20.626-20.626 54.067-20.626 74.693 0l2.664 2.664c-55.961 32.581-140.681 72.714-109.871 186.095z" fill="#fdf3b4"/><path d="m433.906 387.026v82.468c0 22.923-18.583 41.505-41.505 41.505h-273.015c-22.923 0-41.505-18.583-41.505-41.505v-82.468c0-13.973 11.328-25.301 25.301-25.301h305.423c13.973 0 25.301 11.328 25.301 25.301z" fill="#7ce0cf"/><g fill="#3f4750"><path d="m134.381 207.186c-1.974 0-3.947-.753-5.453-2.259-3.011-3.012-3.011-7.894.001-10.906l7.802-7.801c3.011-3.011 7.894-3.011 10.905.001s3.011 7.894-.001 10.905l-7.802 7.801c-1.505 1.506-3.479 2.259-5.452 2.259z"/><path d="m233.126 305.929c-1.973 0-3.947-.753-5.453-2.259-3.011-3.011-3.011-7.894 0-10.905l7.801-7.801c3.012-3.011 7.894-3.011 10.906 0 3.011 3.011 3.011 7.894 0 10.905l-7.801 7.801c-1.506 1.506-3.48 2.259-5.453 2.259z"/><path d="m197.852 270.649c-.517 0-1.041-.052-1.566-.161-19.171-3.957-30.352-15.148-34.182-34.213-.838-4.175 1.867-8.24 6.042-9.079s8.24 1.867 9.079 6.042c2.58 12.847 9.212 19.47 22.177 22.146 4.171.861 6.855 4.94 5.993 9.111-.752 3.645-3.962 6.154-7.543 6.154z"/></g><path d="m156 474.14c-1.251-15.05-.316-31.523 9.276-43.874 15.559-20.035 44.152-20.607 67.307-20.62 33.329-.018 167.568-3.176 201.322-4.273v-18.347c0-13.973-11.328-25.301-25.301-25.301h-305.422c-13.973 0-25.301 11.328-25.301 25.301v82.468c0 22.923 18.583 41.505 41.505 41.505h42.769c-2.91-12.122-5.122-24.438-6.155-36.859z" fill="#55cb94"/></svg>