<svg id="Layer_1" enable-background="new 0 0 511 511" height="512" viewBox="0 0 511 511" width="512" xmlns="http://www.w3.org/2000/svg"><ellipse cx="252.885" cy="255.5" fill="#6f8197" rx="167.522" ry="255.5"/><g fill="#b3e5fc"><path d="m372.441 255.5c0 23.896-2.692 47.114-7.476 68.287-.736 3.258-3.65 9.037-3.65 9.037s-.54 7.23-1.616 10.717c-19.703 63.825-60.168 107.794-106.815 107.794-39.997 0-75.82-33.121-97.524-82.528-.889-10.417-3.026-29.236-3.026-29.236s-9.375-13.305-12.822-21.751c-3.931-19.404-6.185-40.754-6.185-62.319 0-30.666 4.425-60.071 12.096-85.912 2.195-3.737 4.443-7.308 4.443-7.308s.486-5.594 1.022-8.989c21.044-55.972 58.92-93.625 101.996-93.625 66.03-.001 119.557 87.677 119.557 195.833z"/><path d="m435.62 406.019 18.308-38.842c1.259-2.671 4.266-4.038 7.107-3.231l30.325 8.62c5.038 1.432 5.983 8.163 1.535 10.927l-48.633 30.222c-5.107 3.173-11.206-2.258-8.642-7.696z"/><path d="m21.821 393.813-6.308 26.475c-1.325 5.56 2.61 10.994 8.305 11.472l35.989 3.02c8.688.729 13.549-9.787 7.365-15.933l-29.681-29.495c-5.174-5.14-13.979-2.633-15.67 4.461z"/><path d="m428.017 462.903 21.21-2.587c6.795-.829 12.785 4.474 12.785 11.32v11.232c0 6.298-5.106 11.404-11.404 11.404h-23.564c-7.517 0-12.978-7.146-11.004-14.399l2.353-8.646c1.218-4.472 5.022-7.763 9.624-8.324z"/></g><path d="m289.23 197.202c-2.582-3.387-7.42-4.042-10.808-1.459l-47.877 36.484-79.656-78.936c-1.973 5.273-3.797 10.71-5.465 16.297l79.031 78.316c1.493 1.479 3.457 2.234 5.43 2.234 1.639 0 3.284-.52 4.672-1.578l53.214-40.551c3.387-2.581 4.039-7.42 1.459-10.807z" fill="#eaf9ff"/><path d="m364.966 323.787-95.73 46.905c-3.825 1.874-5.406 6.493-3.532 10.317 1.339 2.733 4.08 4.32 6.931 4.32 1.139 0 2.295-.253 3.387-.788l83.678-41c1.967-6.392 3.728-12.984 5.266-19.754z" fill="#eaf9ff"/><path d="m155.36 368.807 38.432 12.327c5.993 1.922 12.421-1.307 14.457-7.262l9.478-27.729c2.272-6.647-1.866-13.766-8.766-15.082l-69.449-13.242c3.76 18.361 9.133 35.509 15.848 50.988z" fill="#eaf9ff"/><path d="m150.51 53.265c-39.625 46.729-65.148 119.931-65.148 202.235 0 133.949 67.587 243.808 153.585 254.613-121.995-110.977-156.604-216.093-88.437-456.848z" fill="#56697e"/></svg>