<svg id="Layer_1" enable-background="new 0 0 511 511" height="512" viewBox="0 0 511 511" width="512" xmlns="http://www.w3.org/2000/svg"><path d="m401.278 50.471c30.12 0 54.536 24.417 54.536 54.536v84.165c0 34.874-28.271 63.144-63.144 63.144h-123.51l75.153-170.641 18.174-31.205h39.445" fill="#f6a7ae"/><path d="m415.543 191.325c12.509-1.747 27.06-2.087 40.19 1.081.054-1.071.082-2.149.082-3.233v-84.165c0-30.12-24.417-54.536-54.536-54.536l-43.693 1.07-88.424 200.776h107.928c-2.548-26.598 8.952-56.872 38.453-60.993z" fill="#f1919b"/><path d="m55.186 295.932 137.993 10.881 148.988-10.881v-82.298l-143.491-11.88-143.49 11.88z" fill="#fff"/><path d="m0 137.315v-1.513c0-14.835 12.026-26.86 26.86-26.86h457.28c14.835 0 26.86 12.026 26.86 26.86v1.513c0 14.835-12.026 26.86-26.86 26.86h-457.28c-14.834.001-26.86-12.025-26.86-26.86z" fill="#6f8197"/><path d="m397.101 133.92c18.881-9.143 90.246-5.729 113.462-2.927-2.268-12.539-13.23-22.052-26.423-22.052h-457.28c-14.835 0-26.86 12.026-26.86 26.86v1.513c0 14.835 12.026 26.86 26.86 26.86h353.516c-.227-5.506-1.251-20.992 16.725-30.254z" fill="#56697e"/><path d="m328.433 378.231-140.427-8.985-119.205 8.985c22.923 48.635 72.383 82.298 129.712 82.298 57.388 0 106.907-33.654 129.92-82.298z" fill="#99ddfc"/><path d="m342.167 115.921c0-42.478 29.583-65.433 60.502-65.433 9.974-.017-287.717-.017-287.717-.017-36.298 0-59.765 22.973-59.765 65.45v15.414l137.993 5.224 148.988-5.224v-15.414z" fill="#99ddfc"/><path d="m55.186 131.335h286.981v82.298h-286.981z" fill="#f6a7ae"/><path d="m157.795 132.177c.077-.281.158-.561.236-.842h-102.845v82.298h87.01c3.174-27.499 8.315-54.756 15.599-81.456z" fill="#f1919b"/><path d="m142.196 213.634h-87.01v82.298h83.217c-.564-27.469.642-55.003 3.793-82.298z" fill="#eaf9ff"/><path d="m55.186 317.2c0 21.828 4.888 42.512 13.616 61.03h259.631c8.803-18.607 13.733-39.403 13.733-61.354v-20.945h-286.98z" fill="#f6a7ae"/><g fill="#3f4750"><path d="m109.955 265.932c-4.259 0-7.711-3.452-7.711-7.711v-13.149c0-4.259 3.452-7.711 7.711-7.711s7.711 3.452 7.711 7.711v13.149c0 4.259-3.452 7.711-7.711 7.711z"/><path d="m276.402 265.932c-4.259 0-7.711-3.452-7.711-7.711v-13.149c0-4.259 3.453-7.711 7.711-7.711s7.711 3.452 7.711 7.711v13.149c0 4.259-3.452 7.711-7.711 7.711z"/><path d="m193.106 274.004c-9.297 0-18.569-3.121-27.949-9.363-3.546-2.359-4.507-7.146-2.148-10.692 2.359-3.545 7.146-4.508 10.691-2.147 13.575 9.032 25.235 9.027 38.99-.023 3.557-2.34 8.339-1.354 10.68 2.204 2.34 3.558 1.354 8.34-2.204 10.68-9.464 6.227-18.774 9.341-28.06 9.341z"/></g><path d="m188.006 50.472c-41.855-.001-73.055-.001-73.055-.001-36.298 0-59.766 22.973-59.766 65.45v15.414h102.845c7.657-27.87 17.705-54.907 29.976-80.863z" fill="#66cdf7"/><path d="m140.493 336.334c-1.114-13.427-1.813-26.907-2.09-40.402h-83.217v21.268c0 21.828 4.888 42.512 13.616 61.03h76.414c-1.974-13.916-3.561-27.888-4.723-41.896z" fill="#f1919b"/><path d="m160.018 454.43c-6.198-25.127-11.167-50.57-14.802-76.199h-76.414c17.631 37.406 50.968 65.936 91.501 77.125-.102-.306-.207-.61-.285-.926z" fill="#66cdf7"/></svg>