<svg id="Layer_1" enable-background="new 0 0 511 511" height="512" viewBox="0 0 511 511" width="512" xmlns="http://www.w3.org/2000/svg"><path d="m269.161 252.317h123.51c34.874 0 63.144-28.271 63.144-63.144v-84.165c0-30.12-24.417-54.536-54.536-54.536h-9.584l-58.55 4.361z" fill="#89b0e0"/><path d="m415.543 191.325c12.509-1.747 27.06-2.087 40.19 1.081.054-1.071.082-2.149.082-3.233v-84.165c0-30.12-24.417-54.536-54.536-54.536l-43.693 1.07-88.424 200.776h107.928c-2.548-26.598 8.952-56.872 38.453-60.993z" fill="#6197d5"/><path d="m0 137.315v-1.513c0-14.835 12.026-26.86 26.86-26.86h457.28c14.835 0 26.86 12.026 26.86 26.86v1.513c0 14.835-12.026 26.86-26.86 26.86h-457.28c-14.834.001-26.86-12.025-26.86-26.86z" fill="#6f8197"/><path d="m397.101 133.92c18.881-9.143 90.246-5.729 113.462-2.927-2.268-12.539-13.23-22.052-26.423-22.052h-457.28c-14.835 0-26.86 12.026-26.86 26.86v1.513c0 14.835 12.026 26.86 26.86 26.86h353.516c-.227-5.506-1.251-20.992 16.725-30.254z" fill="#56697e"/><path d="m114.951 50.471c-36.298 0-59.765 22.973-59.765 65.45v67.497l131.906 10.366 155.075-10.366v-67.497c0-42.478 23.468-65.45 59.765-65.45z" fill="#ef7d92"/><path d="m153.244 193.777c2.598-49.539 10.952-105.114 44.661-143.306h-82.954c-36.298 0-59.765 22.973-59.765 65.45v77.863h98.058c0-.002 0-.005 0-.007z" fill="#eb6773"/><path d="m342.167 400.551v-79.207l-153.945-10.366-133.036 10.366v79.53c0 32.946 26.708 59.655 59.655 59.655h167.348c33.124 0 59.978-26.853 59.978-59.978z" fill="#89b0e0"/><path d="m166.09 413.964c-5.104-34.167-9.096-68.529-11.497-102.986h-99.407v89.896c0 32.946 26.708 59.655 59.655 59.655h58.969c-2.649-15.508-5.395-30.999-7.72-46.565z" fill="#6197d5"/><path d="m55.186 183.418h286.981v137.926h-286.981z" fill="#b9a0db"/><path d="m153.244 193.777c.18-3.426.389-6.882.63-10.359h-98.688v137.926h100.182c-3.346-42.425-4.356-85.009-2.124-127.567z" fill="#928fd4"/><g fill="#3f4750"><path d="m110.71 250.874c-4.259 0-7.711-3.452-7.711-7.711v-13.525c0-4.259 3.452-7.711 7.711-7.711s7.711 3.452 7.711 7.711v13.525c0 4.259-3.452 7.711-7.711 7.711z"/><path d="m281.912 250.874c-4.259 0-7.711-3.452-7.711-7.711v-13.525c0-4.259 3.453-7.711 7.711-7.711s7.711 3.452 7.711 7.711v13.525c0 4.259-3.453 7.711-7.711 7.711z"/><ellipse cx="196.311" cy="258.241" rx="22.058" ry="26.119"/></g></svg>