<svg id="Layer_1" enable-background="new 0 0 511 511" height="512" viewBox="0 0 511 511" width="512" xmlns="http://www.w3.org/2000/svg"><path d="m269.161 252.317h123.51c34.874 0 63.144-28.271 63.144-63.144v-84.165c0-30.12-24.417-54.536-54.536-54.536h-9.584l-58.55 4.361z" fill="#f9ef90"/><path d="m415.543 191.325c12.509-1.747 27.06-2.087 40.19 1.081.054-1.071.082-2.149.082-3.233v-84.165c0-30.12-24.417-54.536-54.536-54.536l-43.693 1.07-88.425 200.776h107.928c-2.547-26.598 8.953-56.872 38.454-60.993z" fill="#f3d37e"/><path d="m0 137.315v-1.513c0-14.835 12.026-26.86 26.86-26.86h457.28c14.835 0 26.86 12.026 26.86 26.86v1.513c0 14.835-12.026 26.86-26.86 26.86h-457.28c-14.834.001-26.86-12.025-26.86-26.86z" fill="#6f8197"/><path d="m397.101 133.92c18.881-9.143 90.246-5.729 113.462-2.927-2.268-12.539-13.23-22.052-26.423-22.052h-457.28c-14.835 0-26.86 12.026-26.86 26.86v1.513c0 14.835 12.026 26.86 26.86 26.86h353.516c-.227-5.506-1.251-20.992 16.725-30.254z" fill="#56697e"/><path d="m401.932 50.471c-36.298 0-59.766 22.973-59.766 65.45v119.258c0 124.457-100.892 225.35-225.35 225.35-34.038 0-61.631-27.593-61.631-61.631v-282.977c0-42.478 23.468-65.45 59.765-65.45z" fill="#f9ef90"/><path d="m186.891 395.935c-6.814-57.851-8.983-116.279-4.911-174.419 4.053-57.856 3.229-118.336 29.63-171.044h-96.659c-36.298 0-59.766 22.973-59.766 65.45v282.977c0 34.038 27.593 61.631 61.631 61.631 27.103 0 53.088-4.788 77.157-13.559-2.696-16.963-5.073-33.975-7.082-51.036z" fill="#f3d37e"/><path d="m192.969 226.122c-41.817 0-75.838 34.021-75.838 75.838s34.021 75.838 75.838 75.838 75.838-34.021 75.838-75.838-34.021-75.838-75.838-75.838zm0 117.205c-22.81 0-41.368-18.557-41.368-41.367s18.558-41.368 41.368-41.368 41.368 18.558 41.368 41.368c-.001 22.81-18.558 41.367-41.368 41.367z" fill="#b9a0db"/><path d="m181.931 341.82c-17.467-4.843-30.33-20.873-30.33-39.86 0-18.33 11.988-33.904 28.532-39.319.249-11.896.749-23.788 1.502-35.669-36.46 5.488-64.504 37.023-64.504 74.988 0 39.084 29.721 71.349 67.748 75.401-1.185-11.829-2.179-23.678-2.948-35.541z" fill="#928fd4"/><g fill="#3f4750"><path d="m214.184 128.446-42.331.186c-4.39.019-7.932 3.593-7.912 7.982l.093 21.166c.071 16.078 13.161 29.055 29.24 28.985 16.079-.071 29.055-13.162 28.986-29.24l-.093-21.166c-.02-4.39-3.593-7.932-7.983-7.913z"/><path d="m109.378 103.179c-.011 0-.023 0-.034 0-4.259.019-7.696 3.486-7.678 7.745l.058 13.203c.019 4.247 3.468 7.678 7.711 7.678h.034c4.259-.019 7.696-3.486 7.678-7.745l-.058-13.203c-.019-4.247-3.468-7.678-7.711-7.678z"/><path d="m284.214 110.124c-.018-4.247-3.467-7.678-7.71-7.678-.011 0-.023 0-.034 0-4.259.019-7.696 3.486-7.678 7.745l.057 13.203c.018 4.247 3.467 7.678 7.71 7.678h.034c4.259-.019 7.696-3.486 7.678-7.745z"/></g></svg>