<svg id="Layer_1" enable-background="new 0 0 511.056 511.056" height="512" viewBox="0 0 511.056 511.056" width="512" xmlns="http://www.w3.org/2000/svg"><path d="m269.217 247.912h123.51c34.874 0 63.144-28.271 63.144-63.144v-84.165c0-30.12-24.417-54.536-54.536-54.536h-9.584l-58.55 4.361z" fill="#7ce0cf"/><path d="m415.599 186.92c12.509-1.747 27.06-2.087 40.19 1.081.054-1.071.082-2.149.082-3.233v-84.165c0-30.12-24.538-54.658-54.658-54.658l-43.571 1.191-88.425 200.776h107.928c-2.547-26.597 8.953-56.871 38.454-60.992z" fill="#55cb94"/><path d="m.056 132.786v-1.513c0-14.835 12.026-26.86 26.86-26.86h457.279c14.835 0 26.86 12.026 26.86 26.86v1.513c0 14.835-12.026 26.86-26.86 26.86h-457.279c-14.834 0-26.86-12.026-26.86-26.86z" fill="#6f8197"/><path d="m397.101 129.365c18.881-9.143 90.246-5.729 113.462-2.927-2.268-12.539-13.23-22.052-26.423-22.052h-457.28c-14.835 0-26.86 12.026-26.86 26.86v1.513c0 14.835 12.026 26.86 26.86 26.86l353.516.025c-.226-5.505-1.251-21.017 16.725-30.279z" fill="#56697e"/><path d="m115.007 45.942c-36.298 0-59.765 22.973-59.765 65.45v85.609l143.915 8.2 143.066-8.2v-85.609c0-42.478 23.468-65.45 59.765-65.45z" fill="#b9a0db"/><path d="m211.462 45.941h-96.455c-36.298 0-59.765 22.973-59.765 65.45v85.609h115.043c2.205-52.596 10.028-107.97 41.177-151.059z" fill="#928fd4"/><path d="m144.218 444.917c31.277 26.928 77.443 26.927 108.733.014 37.1-31.909 80.801-77.536 88.182-120.336l-141.976-5.842-142.877 5.843c7.206 42.756 50.857 88.397 87.938 120.321z" fill="#7ce0cf"/><path d="m183.478 414.673c-5.676-29.745-9.335-59.846-11.506-90.077h-115.692c7.206 42.755 50.857 88.396 87.938 120.321 14.857 12.791 33.074 19.493 51.459 20.134-4.947-16.553-8.959-33.398-12.199-50.378z" fill="#55cb94"/><path d="m55.242 312.671c0 3.818.34 7.674.975 11.553h284.978c.668-3.988 1.028-7.951 1.028-11.876v-114.974h-286.981z" fill="#fff"/><path d="m169.736 214.232c.128-5.574.3-11.2.534-16.858h-115.028v115.297c0 3.818.34 7.674.975 11.553h115.728c-2.614-36.607-3.048-73.404-2.209-109.992z" fill="#eaf9ff"/><g fill="#3f4750"><path d="m234.243 256.448c-4.259 0-7.711 3.453-7.711 7.711 0 5.421-4.411 9.832-9.832 9.832s-9.832-4.41-9.832-9.832c0-4.259-3.452-7.711-7.711-7.711s-7.711 3.453-7.711 7.711c0 5.421-4.411 9.832-9.832 9.832s-9.832-4.41-9.832-9.832c0-4.259-3.452-7.711-7.711-7.711s-7.711 3.453-7.711 7.711c0 13.925 11.329 25.254 25.254 25.254 6.811 0 12.996-2.715 17.543-7.113 4.547 4.398 10.732 7.113 17.543 7.113 13.925 0 25.254-11.329 25.254-25.254 0-4.258-3.452-7.711-7.711-7.711z"/><path d="m115.85 236.105c-4.259 0-7.711 3.452-7.711 7.711v13.163c0 4.259 3.452 7.711 7.711 7.711s7.711-3.453 7.711-7.711v-13.163c0-4.259-3.452-7.711-7.711-7.711z"/><path d="m282.463 236.105c-4.259 0-7.711 3.452-7.711 7.711v13.163c0 4.259 3.452 7.711 7.711 7.711s7.711-3.453 7.711-7.711v-13.163c0-4.259-3.452-7.711-7.711-7.711z"/></g></svg>