<svg id="Layer_1" enable-background="new 0 0 511.056 511.056" height="512" viewBox="0 0 511.056 511.056" width="512" xmlns="http://www.w3.org/2000/svg"><path d="m269.217 268.616h123.51c34.874 0 63.144-28.271 63.144-63.144v-84.165c0-30.12-24.298-54.078-54.418-54.078h-9.584l-58.669 3.902z" fill="#99ddfc"/><path d="m415.599 207.624c12.509-1.747 27.06-2.087 40.19 1.081.054-1.071.082-2.149.082-3.233v-84.165c0-30.12-23.763-54.078-53.882-54.078l-44.347.612-88.425 200.776h107.928c-2.547-26.598 8.953-56.872 38.454-60.993z" fill="#66cdf7"/><path d="m.056 154.073v-1.513c0-14.835 12.026-26.86 26.86-26.86h457.279c14.835 0 26.86 12.026 26.86 26.86v1.513c0 14.835-12.026 26.86-26.86 26.86h-457.279c-14.834 0-26.86-12.026-26.86-26.86z" fill="#6f8197"/><path d="m397.101 150.069c18.881-9.143 90.246-5.729 113.462-2.927-2.268-12.539-13.23-22.052-26.423-22.052h-457.28c-14.835 0-26.86 12.026-26.86 26.86v1.513c0 14.835 12.026 26.86 26.86 26.86l353.516.025c-.226-5.506-1.251-21.017 16.725-30.279z" fill="#56697e"/><path d="m55.242 333.958c0 39.911 16.316 76.007 42.639 101.993 9.359 9.239 24.559 8.736 33.326-1.066l46.423-51.905c8.838-9.881 24.172-10.28 33.512-.871l54.48 54.884c8.783 8.848 23.086 9.178 32.105.571 27.413-26.158 44.495-63.046 44.495-103.929v-15.34l-148.267-3.809-138.714 3.809v15.663z" fill="#99ddfc"/><path d="m144.095 67.228h-29.088c-36.298 0-59.765 22.973-59.765 65.45v35.473l137.529 6.886 149.452-6.886v-35.473c0-42.478 23.468-65.45 59.766-65.45h-226.71" fill="#ef7d92"/><path d="m201.581 67.228h-86.574c-36.298 0-59.765 22.973-59.765 65.45v35.473h100.868c7.447-36.86 20.408-73.311 45.471-100.923z" fill="#eb6773"/><path d="m55.242 168.151h286.981v150.143h-286.981z" fill="#f9ef90"/><path d="m156.11 168.151h-100.868v150.143h91.51c-2.47-43.372-1.336-105.742 9.358-150.143z" fill="#f3d37e"/><path d="m146.752 318.295h-91.51v15.663c0 39.911 16.316 76.007 42.639 101.993 9.359 9.239 24.559 8.736 33.326-1.066l25.798-28.844c-1.443-8.277-9.748-44.874-10.253-87.746z" fill="#66cdf7"/><g fill="#3f4750"><path d="m108.36 201.37c-4.259 0-7.711 3.452-7.711 7.711v13.163c0 4.259 3.452 7.711 7.711 7.711s7.711-3.452 7.711-7.711v-13.163c.001-4.258-3.451-7.711-7.711-7.711z"/><path d="m274.973 201.37c-4.259 0-7.711 3.452-7.711 7.711v13.163c0 4.259 3.452 7.711 7.711 7.711s7.711-3.452 7.711-7.711v-13.163c0-4.258-3.452-7.711-7.711-7.711z"/><path d="m181.818 220.557c4.259 0 7.711-3.452 7.711-7.711s-3.452-7.711-7.711-7.711c-13.925 0-25.254 11.329-25.254 25.254 0 6.811 2.715 12.996 7.113 17.543-4.399 4.547-7.113 10.732-7.113 17.543 0 13.925 11.329 25.254 25.254 25.254 4.259 0 7.711-3.453 7.711-7.711 0-4.259-3.452-7.711-7.711-7.711-5.421 0-9.832-4.41-9.832-9.832s4.411-9.832 9.832-9.832c4.259 0 7.711-3.452 7.711-7.711s-3.452-7.711-7.711-7.711c-5.421 0-9.832-4.41-9.832-9.832s4.411-9.832 9.832-9.832z"/></g></svg>