<svg id="Layer_1" enable-background="new 0 0 511 511" height="512" viewBox="0 0 511 511" width="512" xmlns="http://www.w3.org/2000/svg"><path d="m401.278 50.471c30.12 0 54.536 24.417 54.536 54.536v84.165c0 34.874-28.271 63.144-63.144 63.144h-123.51l75.153-170.641 18.174-31.205h39.445" fill="#b9a0db"/><path d="m415.543 191.325c12.509-1.747 27.06-2.087 40.19 1.081.054-1.071.082-2.149.082-3.233v-84.165c0-30.12-24.417-54.536-54.536-54.536l-43.693 1.07-88.424 200.776h107.928c-2.548-26.598 8.952-56.872 38.453-60.993z" fill="#928fd4"/><path d="m0 137.315v-1.513c0-14.835 12.026-26.86 26.86-26.86h457.28c14.835 0 26.86 12.026 26.86 26.86v1.513c0 14.835-12.026 26.86-26.86 26.86h-457.28c-14.834.001-26.86-12.025-26.86-26.86z" fill="#6f8197"/><path d="m397.101 133.92c18.881-9.143 90.246-5.729 113.462-2.927-2.268-12.539-13.23-22.052-26.423-22.052h-457.28c-14.835 0-26.86 12.026-26.86 26.86v1.513c0 14.835 12.026 26.86 26.86 26.86h353.516c-.227-5.506-1.251-20.992 16.725-30.254z" fill="#56697e"/><path d="m342.167 404.531v-46.516l-143.49-9.966-143.49 9.966v46.84c0 30.748 24.926 55.675 55.675 55.675h.776c14.443 0 27.221-8.858 32.847-22.16 8.643-20.434 28.876-34.771 52.457-34.771s43.815 14.338 52.457 34.771c5.626 13.302 18.404 22.16 32.847 22.16h3.922c30.927-.001 55.999-25.072 55.999-55.999z" fill="#b9a0db"/><path d="m143.638 50.471h-28.687c-36.298 0-59.765 22.973-59.765 65.45v37.064l137.993 7.039 148.988-7.039v-37.064c0-42.478 23.468-65.45 59.765-65.45h-227.194" fill="#4b555f"/><path d="m204.893 50.471h-89.942c-36.298 0-59.766 22.973-59.766 65.45v37.064h102.525c8.209-36.399 22.44-74.397 47.183-102.514z" fill="#3f4750"/><path d="m55.186 255.5 139.022 7.554 147.959-7.554v-102.514h-286.981z" fill="#6f8197"/><path d="m145.92 251.354c.989-29.213 3.827-58.461 9.431-87.168.724-3.707 1.511-7.446 2.358-11.2h-102.523v102.514h90.611c.041-1.382.077-2.764.123-4.146z" fill="#56697e"/><path d="m55.186 255.5h286.981v102.514h-286.981z" fill="#fff"/><path d="m145.796 255.5h-90.61v102.514h94.103c-3.844-34.007-4.517-68.281-3.493-102.514z" fill="#eaf9ff"/><path d="m152.796 383.543c-1.386-8.489-2.543-17-3.507-25.528h-94.103v46.84c0 30.748 24.926 55.675 55.675 55.675h.776c14.443 0 27.221-8.858 32.847-22.16 3.338-7.892 8.411-14.869 14.732-20.467-2.486-11.465-4.562-22.977-6.42-34.36z" fill="#928fd4"/><g fill="#3f4750"><path d="m194.136 324.611c-9.083 0-18.14-3.147-27.305-9.441-3.51-2.411-4.401-7.212-1.99-10.722 2.411-3.509 7.211-4.401 10.722-1.99 12.993 8.925 24.154 8.917 37.321-.023 3.524-2.394 8.32-1.475 10.711 2.047 2.393 3.523 1.476 8.319-2.047 10.711-9.244 6.278-18.341 9.418-27.412 9.418z"/><path d="m127.602 316.525c-2.129 0-4.248-.876-5.771-2.594-2.197-2.477-5.404-5.43-8.21-5.438-.004 0-.008 0-.012 0-2.814 0-6.074 2.974-8.315 5.471-2.845 3.169-7.72 3.433-10.889.588-3.17-2.845-3.433-7.72-.588-10.889 6.395-7.127 12.87-10.592 19.789-10.592.02 0 .039 0 .059.001 6.836.019 13.465 3.594 19.702 10.625 2.826 3.186 2.535 8.06-.651 10.886-1.468 1.301-3.295 1.942-5.114 1.942z"/><path d="m288.861 316.525c-2.129 0-4.248-.876-5.771-2.594-2.197-2.477-5.404-5.43-8.21-5.438-.004 0-.008 0-.012 0-2.814 0-6.074 2.974-8.315 5.471-2.845 3.169-7.721 3.433-10.889.588-3.17-2.845-3.433-7.72-.588-10.889 6.414-7.147 12.887-10.65 19.848-10.592 6.836.019 13.465 3.594 19.702 10.625 2.826 3.186 2.535 8.06-.651 10.886-1.468 1.302-3.295 1.943-5.114 1.943z"/></g></svg>