<svg id="Layer_1" enable-background="new 0 0 511 511" height="512" viewBox="0 0 511 511" width="512" xmlns="http://www.w3.org/2000/svg"><path d="m282.031 511h-48.517c-15.433 0-26.998-14.226-23.728-29.309 20.322-93.727 18.387-323.71 18.387-323.71h54.652s-.993 214.148 22.891 323.528c3.31 15.153-8.175 29.491-23.685 29.491z" fill="#e7bb9f"/><path d="m258.508 332.775c1.008-16.244 2.783-34.607 10.576-49.531 4.881-9.347 10.579-14.017 15.741-17.255-2.216-61.11-1.999-108.008-1.999-108.008h-54.652s1.934 229.983-18.387 323.71c-3.27 15.082 8.295 29.309 23.728 29.309h23.185c-2.75-14.421-.956-133.677 1.808-178.225z" fill="#da9d75"/><path d="m429.529 21.416c-6.057-10.213-19.237-13.56-29.349-7.337-40.539 24.95-88.258 28.661-122.294 27.124h-44.769c-34.037 1.537-81.756-2.174-122.294-27.124-10.112-6.224-23.292-2.876-29.349 7.337-30.581 51.561-29.224 138.52-1.006 185.282 6.277 10.403 20.041 13.422 30.042 6.521 21.786-15.033 65.525-39.266 122.608-40.646h44.769c57.084 1.38 100.823 25.613 122.608 40.646 10 6.901 23.764 3.882 30.042-6.521 28.215-46.762 29.573-133.721-1.008-185.282z" fill="#fffdde"/><g fill="#fdf3b4"><path d="m265.515 0h-20.03c-18.773 0-33.991 15.218-33.991 33.991v146.214c0 18.773 15.218 33.991 33.991 33.991h20.03c18.773 0 33.991-15.218 33.991-33.991v-146.214c0-18.773-15.218-33.991-33.991-33.991z"/><path d="m131.008 200.623c-37.566-52.348-28.743-132.097-3.698-177.687l.006-.008c-5.592-2.603-11.108-5.533-16.495-8.849-10.112-6.224-23.292-2.876-29.349 7.337-30.581 51.561-29.224 138.52-1.006 185.282 6.277 10.403 20.041 13.422 30.042 6.521 5.485-3.786 12.367-8.155 20.5-12.596z"/><path d="m429.529 21.416c-6.057-10.213-19.237-13.56-29.349-7.337-4.829 2.972-9.761 5.634-14.758 8.03l.512.827c25.045 45.59 33.868 125.339-3.698 177.687l-.906.741c7.547 4.184 13.983 8.28 19.163 11.855 10 6.901 23.764 3.882 30.042-6.521 28.217-46.762 29.575-133.721-1.006-185.282z"/></g></svg>