<svg id="Layer_1" enable-background="new 0 0 510.996 510.996" height="512" viewBox="0 0 510.996 510.996" width="512" xmlns="http://www.w3.org/2000/svg"><path d="m478.897 261.561c21.538-64.367-58.487-196.752-187.197-217.482-.379-.061-.745-.248-.961-.565-.554-.813-.451-1.959.341-2.654 1.354-1.187 3.223-2.815 4.903-4.234.889-.751.62-2.182-.48-2.561l-.038-.013c-73.559-16.464-195.975 18.777-249.133 143.463-.514 1.206-2.2 1.256-2.78.08-2.939-5.957-5.164-11.971-6.737-17.986-.979-3.743-6.364-3.461-7.064.344-14.497 78.788 42.759 189.64 75.561 226.35 3.075 3.441.853 8.953-3.747 9.316-14.593 1.149-28.25-1.435-40.5-6.692-.58-.249-1.1.466-.681.939.828.933 1.79 1.927 2.909 2.976 76.821 67.61 209.37 73.904 240.603 62.454 1.39-.509 185.102-51.111 116.614-246.374-.332-.766-.723-1.496-1.159-2.193-.037-.074-.074-.147-.111-.221-21.169-54.734-80.361-115.545-194.009-98.965.039.036.079.07.118.106-1.554.185-3.117.505-4.661.95-56.096 16.181-156.302 129.958-73.359 243.78 1.334 1.831-.266 4.352-2.485 3.898-62.732-12.83-89.583-90.267-62.955-134.515l.017-.028c4.182-6.941 9.679-13.066 16.562-17.994 3.153-2.258 4.173-6.439 2.55-9.961-29.793-64.669 44.482-130.604 105.738-99.219 3.353 1.718 7.416.93 9.862-1.936 46.467-54.453 144.65-31.676 154.688 28.78.62 3.732 3.875 6.399 7.658 6.476 50.378 1.013 78.533 49.126 71.281 91.853-.452 2.661.455 5.347 2.431 7.185 10.474 9.741 18.044 21.737 22.861 34.667.586 1.576 2.826 1.571 3.36-.024zm-86.422 4.046c.446-3.693 5.33-4.634 7.198-1.417 40.913 70.464-32.624 156.199-93.923 135.087-4.536-1.562-9.592.126-12.193 4.158-39.428 61.121-142.426 30.414-142.271-42.69.003-1.425 1.351-2.469 2.73-2.107l.027.007c195.801 75.695 233.518-52.368 238.432-93.038zm-232.564-41.199c3.411-2.842 4.672-7.499 3.135-11.665-13.705-37.142 27.525-73.407 62.998-57.709 3.952 1.749 8.614.94 11.615-2.17 26.803-27.786 78.115-18.146 88.552 15.968 1.305 4.267 5.171 7.172 9.628 7.375 31.069 1.417 48.495 33.904 40.794 60.661l-.001.004c-2.658 9.232-8.304 17.782-17.419 24.137-3.696 2.577-5.409 7.241-4.048 11.537 12.296 38.814-24.964 79.592-60.421 69.548-4.345-1.231-8.935.363-11.567 4.033-17.985 25.079-54.304 22.225-72.677 1.616l-.294-.337c-5.454-6.24-9.267-14.076-10.471-23.229-.605-4.595-4.156-8.278-8.743-8.941-44.941-6.489-61.215-65.717-31.081-90.828z" fill="#65d6c0"/><g fill="#7ce0cf"><path d="m154.043 358.645-.027-.007c-1.378-.362-2.727.682-2.73 2.107-.154 73.104 102.844 103.81 142.271 42.69 2.601-4.032 7.656-5.72 12.193-4.158 61.299 21.112 134.837-64.623 93.923-135.087-1.868-3.217-6.752-2.276-7.198 1.417-4.914 40.67-42.631 168.733-238.432 93.038z"/><path d="m190.992 315.236c4.587.662 8.138 4.345 8.743 8.941 1.204 9.153 5.017 16.989 10.471 23.229l.294.337c18.373 20.609 54.693 23.463 72.677-1.616 2.632-3.67 7.222-5.264 11.567-4.033 35.457 10.044 72.717-30.734 60.421-69.548-1.361-4.296.352-8.96 4.048-11.537 9.114-6.355 14.761-14.905 17.419-24.137l.001-.004c7.701-26.756-9.726-59.243-40.794-60.661-4.457-.203-8.323-3.108-9.628-7.375-10.437-34.114-61.749-43.754-88.552-15.968-3 3.11-7.663 3.919-11.615 2.17-35.473-15.699-76.703 20.566-62.998 57.709 1.537 4.165.276 8.822-3.135 11.665-30.134 25.111-13.86 84.339 31.081 90.828z"/><path d="m464.545 124.549c-5.049-2.223-8.093-7.533-7.212-12.979 10.851-67.077-87.641-128.356-155.271-79.658-.292.21-.649.319-1.007.283-1.061-.109-2.125-.589-4.842-2.732l-.001.003c-38.084-36.924-100.473-40.045-131.824 6.98-2.18 3.269-6.352 4.535-9.954 2.965-52.637-22.952-118.421 30.947-120.543 93.936-.134 3.985-1.968 7.699-4.997 10.292-30.113 25.788-41.611 73.193-10.303 108.373 1.258 1.413 1.207 3.543-.09 4.92-34.719 36.859-11.793 103.653 36.109 128.913 1.072.565 1.89 1.508 2.261 2.662 1.661 5.162 4.449 13.7 5.185 15.164l.004-.029c11.309 29.09 38.59 51.688 75 48.563 3.41-.293 6.573 1.845 7.426 5.159 16.146 62.773 126.387 74.364 162.761 4.521 1.809-3.474 6.113-4.73 9.564-2.876 50.846 27.318 123.021-13.23 113.654-76.847-.545-3.699 1.657-7.28 5.194-8.491 38.833-13.293 54.504-62.821 42.174-105.161-.205-.705.043-1.455.625-1.902 45.783-35.14 45.115-116.073-13.913-142.059zm10.991 137.036c-4.817-12.93-12.387-24.926-22.861-34.667-1.976-1.838-2.883-4.524-2.431-7.185 7.252-42.727-20.903-90.839-71.281-91.853-3.782-.076-7.038-2.744-7.658-6.476-10.039-60.456-108.222-83.233-154.688-28.78-2.445 2.866-6.509 3.654-9.862 1.936-61.256-31.385-135.531 34.55-105.738 99.219 1.623 3.522.603 7.703-2.55 9.961-6.883 4.928-12.38 11.053-16.562 17.994l-.017.028c-26.628 44.248.224 121.685 62.955 134.515 2.219.454 3.819-2.068 2.485-3.898-82.942-113.821 17.263-227.599 73.359-243.78 1.544-.445 3.107-.765 4.661-.95-.039-.036-.079-.07-.118-.106 113.649-16.579 172.84 44.231 194.009 98.965.037.074.074.147.111.221.436.697.828 1.426 1.159 2.193 68.488 195.263-115.224 245.864-116.614 246.374-31.233 11.45-163.782 5.155-240.603-62.454-1.119-1.049-2.081-2.043-2.909-2.976-.419-.473.101-1.188.681-.939 12.249 5.257 25.907 7.842 40.5 6.692 4.6-.362 6.822-5.875 3.747-9.316-32.802-36.709-90.058-147.561-75.561-226.35.7-3.805 6.085-4.087 7.064-.344 1.573 6.016 3.798 12.03 6.737 17.986.58 1.175 2.266 1.125 2.78-.08 53.159-124.686 175.575-159.927 249.134-143.463l.038.013c1.1.379 1.369 1.81.48 2.561-1.679 1.419-3.549 3.047-4.903 4.234-.792.695-.896 1.84-.341 2.654.216.317.582.504.961.565 128.709 20.73 208.735 153.115 187.197 217.482-.534 1.595-2.774 1.6-3.361.024z"/></g></svg>