<svg id="Layer_1" enable-background="new 0 0 512 512" height="512" viewBox="0 0 512 512" width="512" xmlns="http://www.w3.org/2000/svg"><path d="m263.841 153.787c9.092 24.688 12.148 49.115 12.824 75.838.275 10.855-8.358 19.806-19.155 19.244-9.417-.49-17.01-8.198-17.243-17.823-1.143-47.445-9.776-82.152-52.041-129.602-6.706-7.53-6.065-19.092 1.43-25.827 7.496-6.734 19.008-6.092 25.715 1.437 24.479 27.48 39.448 52.235 48.47 76.733z" fill="#f9ef90"/><path d="m28.725 135.884c-9.092 24.688-12.148 49.115-12.824 75.838-.275 10.855 8.358 19.806 19.155 19.244 9.417-.49 17.01-8.198 17.243-17.823 1.143-47.445 9.776-82.152 52.041-129.602 6.706-7.53 6.065-19.092-1.43-25.827-7.496-6.734-19.008-6.092-25.715 1.437-24.479 27.48-39.448 52.235-48.47 76.733z" fill="#f9ef90"/><path d="m204.91 0c-14.877 0-28.756 4.42-40.477 12.059-14.427 9.403-32.994 9.403-47.421 0-11.721-7.639-25.6-12.059-40.477-12.059-41.993 0-76.035 35.209-76.035 78.641 0 63.439 70.724 102.104 116.512 128.866 15.84 9.258 31.793 10.239 48.077.087 43.5-27.121 115.856-69.16 115.856-128.953 0-43.432-34.042-78.641-76.035-78.641z" fill="#ef7d92"/><path d="m111.358 8.728c-10.434-5.572-22.27-8.728-34.823-8.728-41.993 0-76.035 35.209-76.035 78.641 0 63.439 70.724 102.104 116.512 128.866 15.84 9.258 31.793 10.239 48.077.087 1.521-.948 3.08-1.916 4.667-2.901-66.762-19.417-158.71-117.285-58.398-195.965z" fill="#eb6773"/><path d="m239.086 304.643c-4.444-25.941-3.002-50.518 1.198-76.914 1.706-10.723 11.823-17.937 22.336-15.402 9.169 2.211 15.23 11.183 13.708 20.689-7.513 46.855-5.344 82.563 27.57 136.974 5.222 8.634 2.487 19.884-6.108 25.129-8.595 5.244-19.797 2.499-25.019-6.135-19.064-31.513-29.275-58.599-33.685-84.341z" fill="#f3d37e"/><path d="m495.958 417.701c6.821 25.415 7.655 50.02 5.911 76.694-.708 10.835-10.115 18.962-20.817 17.416-9.333-1.348-16.198-9.716-15.559-19.322 3.153-47.353-2.305-82.704-40.103-133.814-5.997-8.111-4.313-19.566 3.76-25.589 8.074-6.023 19.481-4.332 25.478 3.777 21.893 29.6 34.561 55.618 41.33 80.838z" fill="#f3d37e"/><path d="m435.465 279.74c-14.877 0-28.756 4.42-40.477 12.059-14.427 9.403-32.994 9.403-47.421 0-11.721-7.639-25.599-12.058-40.477-12.058-41.993 0-76.035 35.209-76.035 78.641 0 63.439 70.724 102.104 116.512 128.866 15.84 9.258 31.793 10.239 48.077.087 43.5-27.121 115.856-69.16 115.856-128.953 0-43.434-34.042-78.642-76.035-78.642z" fill="#99ddfc"/><path d="m341.913 288.468c-10.434-5.572-22.27-8.728-34.823-8.728-41.993 0-76.035 35.209-76.035 78.641 0 63.439 70.724 102.104 116.512 128.866 15.84 9.258 31.793 10.239 48.077.087 1.521-.948 3.08-1.916 4.667-2.901-66.762-19.417-141.851-134.698-58.398-195.965z" fill="#66cdf7"/><g fill="#3f4750"><path d="m191.064 107.259c-4.333 0-7.844 3.527-7.844 7.878 0 3.527-2.857 6.396-6.368 6.396s-6.368-2.869-6.368-6.396c0-4.351-3.511-7.878-7.844-7.878s-7.844 3.527-7.844 7.878c0 3.527-2.857 6.396-6.368 6.396s-6.368-2.869-6.368-6.396c0-4.351-3.511-7.878-7.844-7.878s-7.844 3.527-7.844 7.878c0 12.215 9.894 22.152 22.056 22.152 5.413 0 10.37-1.977 14.212-5.239 3.842 3.262 8.799 5.239 14.212 5.239 12.162 0 22.056-9.938 22.056-22.152.001-4.351-3.511-7.878-7.844-7.878z"/><path d="m95.15 90.706c-4.333 0-7.844 3.527-7.844 7.878v10.711c0 4.351 3.511 7.878 7.844 7.878s7.844-3.527 7.844-7.878v-10.711c0-4.351-3.511-7.878-7.844-7.878z"/><path d="m230.13 90.706c-4.333 0-7.844 3.527-7.844 7.878v10.711c0 4.351 3.511 7.878 7.844 7.878s7.844-3.527 7.844-7.878v-10.711c0-4.351-3.512-7.878-7.844-7.878z"/><path d="m382.732 336.467c-4.333 0-7.844 3.527-7.844 7.878 0 3.527-2.857 6.396-6.368 6.396s-6.368-2.869-6.368-6.396c0-4.351-3.511-7.878-7.844-7.878s-7.844 3.527-7.844 7.878c0 3.527-2.857 6.396-6.368 6.396s-6.368-2.869-6.368-6.396c0-4.351-3.511-7.878-7.844-7.878s-7.844 3.527-7.844 7.878c0 12.215 9.894 22.152 22.056 22.152 5.413 0 10.37-1.977 14.212-5.239 3.842 3.262 8.799 5.239 14.212 5.239 12.162 0 22.056-9.938 22.056-22.152 0-4.35-3.511-7.878-7.844-7.878z"/><path d="m286.818 319.915c-4.333 0-7.844 3.527-7.844 7.878v10.71c0 4.351 3.511 7.878 7.844 7.878s7.844-3.527 7.844-7.878v-10.71c0-4.351-3.512-7.878-7.844-7.878z"/><path d="m421.797 319.915c-4.333 0-7.844 3.527-7.844 7.878v10.71c0 4.351 3.511 7.878 7.844 7.878s7.844-3.527 7.844-7.878v-10.71c0-4.351-3.511-7.878-7.844-7.878z"/></g></svg>