<svg id="Layer_1" enable-background="new 0 0 511 511" height="512" viewBox="0 0 511 511" width="512" xmlns="http://www.w3.org/2000/svg"><path d="m301.736 304.543c-9.572-15.208-26.783-24.331-46.04-24.404-.078-.001-.155-.001-.233-.001-19.151 0-36.378 9.062-46.114 24.272-6.123 9.565-3.333 22.282 6.232 28.405 9.566 6.122 22.281 3.334 28.406-6.232 3.178-4.964 9.662-5.305 11.551-5.318 4.949.019 9.42 2.054 11.39 5.185 3.909 6.21 10.591 9.613 17.423 9.612 3.744 0 7.533-1.022 10.934-3.162 9.612-6.05 12.5-18.746 6.451-28.357z" fill="#6f8197"/><circle cx="255.5" cy="439.28" fill="#6f8197" r="19.117"/><path d="m85.163 427.162c-20.052-11.413-35.751-29.919-43.646-52.592-6.869-19.724-7.367-41.739-1.443-63.664 6.385-23.633 19.973-47.029 40.385-69.539 7.51-8.282 20.314-8.902 28.596-1.398 8.283 7.511 8.909 20.314 1.397 28.596-39.589 43.658-36.226 76.813-30.697 92.69 6.726 19.315 23.883 33.916 43.714 37.2 11.43 1.893 33.408 1.48 52.181-22.548 6.885-8.811 19.617-10.364 28.417-3.489 8.811 6.884 10.373 19.607 3.489 28.417-23.119 29.589-56.177 43.282-90.701 37.566-11.318-1.873-22.013-5.73-31.692-11.239z" fill="#6f8197"/><ellipse cx="95.329" cy="243.261" fill="#4b555f" rx="28.581" ry="40.157"/><path d="m425.837 427.162c20.052-11.413 35.751-29.919 43.646-52.592 6.869-19.724 7.367-41.739 1.443-63.664-6.385-23.633-19.973-47.029-40.385-69.539-7.51-8.282-20.314-8.902-28.596-1.398-8.283 7.511-8.909 20.314-1.397 28.596 39.589 43.658 36.226 76.813 30.697 92.69-6.726 19.315-23.883 33.916-43.714 37.2-11.43 1.893-33.408 1.48-52.181-22.548-6.885-8.811-19.617-10.364-28.417-3.489-8.811 6.884-10.373 19.607-3.489 28.417 23.119 29.589 56.177 43.282 90.701 37.566 11.318-1.873 22.013-5.73 31.692-11.239z" fill="#6f8197"/><ellipse cx="415.672" cy="243.261" fill="#4b555f" rx="28.581" ry="40.157"/><path d="m0 147.933c0 52.649 42.68 95.329 95.329 95.329s95.329-42.68 95.329-95.329-42.68-95.329-95.329-95.329-95.329 42.68-95.329 95.329zm149.45 0c0 29.89-24.231 54.121-54.121 54.121s-54.121-24.231-54.121-54.121 24.231-54.121 54.121-54.121 54.121 24.23 54.121 54.121z" fill="#6f8197"/><path d="m511 147.933c0-52.649-42.68-95.329-95.329-95.329s-95.329 42.68-95.329 95.329 42.68 95.329 95.329 95.329 95.329-42.681 95.329-95.329zm-149.449 0c0-29.89 24.231-54.121 54.121-54.121s54.121 24.231 54.121 54.121-24.231 54.121-54.121 54.121c-29.891 0-54.121-24.231-54.121-54.121z" fill="#6f8197"/><g fill="#56697e"><path d="m3.656 174.122c11.381 39.912 48.108 70.29 91.673 70.29 37.337 0 69.636-22.629 85.277-53.893-54.543 38.065-128.347 39.147-176.95-16.397z"/><path d="m323.999 174.122c11.381 39.912 48.108 70.609 91.673 70.609 37.337 0 69.636-22.948 85.277-54.213-54.544 38.066-128.347 39.148-176.95-16.396z"/><path d="m87.617 52.915v41.453c2.52-.36 5.092-.556 7.712-.556 2.619 0 5.191.197 7.711.556v-41.453c-2.544-.204-5.115-.311-7.711-.311-2.597 0-5.168.108-7.712.311z"/><path d="m361.55 147.933c0-2.619.197-5.191.556-7.711h-41.453c-.204 2.544-.311 5.115-.311 7.711s.108 5.167.311 7.711h41.453c-.359-2.52-.556-5.092-.556-7.711z"/><path d="m36.944 326.56 39.507 14.427c.002-4.772.505-10.043 1.759-15.776l-38.224-13.959c-1.364 5.109-2.374 10.221-3.042 15.308z"/><path d="m92.524 381.942c-3.587-3.723-6.683-7.94-9.165-12.534l-35.248 19.971c2.491 4.557 5.318 8.881 8.457 12.934z"/><path d="m124.516 439.343 6.657-40.204c-2.894-.04-5.497-.317-7.704-.682-2.555-.423-5.065-1.037-7.514-1.822l-6.654 40.187c2.485.621 5.001 1.158 7.554 1.581 2.563.423 5.117.728 7.661.94z"/><path d="m432.789 325.211c1.254 5.733 1.758 11.004 1.759 15.776l39.507-14.427c-.668-5.087-1.678-10.199-3.043-15.307z"/><path d="m462.889 389.379-35.248-19.971c-2.481 4.593-5.578 8.811-9.164 12.534l35.956 20.372c3.139-4.054 5.965-8.378 8.456-12.935z"/><path d="m401.7 436.821-6.654-40.187c-2.45.785-4.959 1.399-7.514 1.822-2.207.365-4.81.642-7.704.682l6.657 40.204c2.544-.212 5.097-.516 7.661-.941 2.553-.422 5.069-.96 7.554-1.58z"/></g></svg>