<svg id="Layer_1" enable-background="new 0 0 511 511" height="512" viewBox="0 0 511 511" width="512" xmlns="http://www.w3.org/2000/svg"><path d="m511 86.483v267.83c0 22.373-18.137 40.51-40.51 40.51h-429.98c-22.373 0-40.51-18.137-40.51-40.51v-267.83c0-22.373 18.137-40.51 40.51-40.51h429.979c22.374 0 40.511 18.137 40.511 40.51z" fill="#fffdde"/><path d="m215.797 360.982c-13.644-23.06-27.461-45.902-39.608-69.811-12.536-24.677-23.814-50.083-33.331-76.08-19.137-52.276-27.045-108.052-32.525-163.194-.211-2.124.157-4.117.94-5.924h-70.763c-22.373 0-40.51 18.137-40.51 40.51v267.83c0 22.373 18.137 40.51 40.51 40.51h197.787c-8.116-10.864-15.611-22.197-22.5-33.841z" fill="#fdf3b4"/><path d="m64.23 285.524h157.659c4.259 0 7.711-3.453 7.711-7.711 0-4.259-3.452-7.711-7.711-7.711h-157.659c-4.259 0-7.711 3.452-7.711 7.711 0 4.258 3.452 7.711 7.711 7.711z" fill="#f3d37e"/><path d="m221.889 324.017h-157.659c-4.259 0-7.711 3.452-7.711 7.711s3.452 7.711 7.711 7.711h157.659c4.259 0 7.711-3.453 7.711-7.711s-3.452-7.711-7.711-7.711z" fill="#f3d37e"/><path d="m175.551 109.068c-7.531 0-14.556 2.228-20.489 6.077-7.303 4.739-16.702 4.739-24.004 0-5.933-3.85-12.958-6.077-20.489-6.077-21.257 0-38.488 17.745-38.488 39.635 0 31.973 35.8 51.46 58.978 64.949 8.018 4.666 16.094 5.161 24.336.044 22.02-13.669 58.646-34.857 58.646-64.992-.002-21.891-17.234-39.636-38.49-39.636z" fill="#ef7d92"/><path d="m304.833 235.66c2.625 25.974 6.396 96.715-18.264 175.074-7.105 22.577 16.78 42.396 37.676 31.279l.845-.449c5.223-2.779 11.691-.201 13.571 5.408 8.042 23.984 41.951 24.107 50.123.167 17.776-52.075 36.527-129.391 30.589-213.069-.354-4.994-4.535-8.855-9.542-8.859l-95.467-.071c-5.667-.005-10.101 4.881-9.531 10.52z" fill="#f7ad56"/><path d="m304.956 316.861c40.769 33.235 95.064 22.578 111.243 14.037 3.947-30.42 5.568-63.106 3.174-96.828-.354-4.994-4.535-8.855-9.542-8.859l-95.467-.071c-5.667-.004-10.102 4.882-9.532 10.52 1.497 14.808 3.364 44.173.124 81.201z" fill="#f49634"/><path d="m387.886 149.308c4.831 11.046 16.259 17.691 28.248 16.424 23.91-2.527 39.436 24.553 25.175 43.911-7.151 9.706-7.191 22.926-.099 32.676 14.143 19.444-1.546 46.429-25.441 43.758-11.981-1.34-23.45 5.236-28.347 16.252-9.767 21.97-40.982 21.876-50.616-.153-4.83-11.046-16.259-17.69-28.248-16.423-23.91 2.527-39.436-24.553-25.175-43.911 7.151-9.706 7.191-22.926.099-32.675-14.143-19.444 1.546-46.429 25.441-43.758 11.981 1.34 23.45-5.236 28.347-16.252 9.767-21.973 40.982-21.878 50.616.151z" fill="#f9ef90"/><circle cx="362.349" cy="224.879" fill="#f3d37e" r="35.138"/><path d="m142.858 215.091c-12.456-34.026-20.153-69.535-25.521-105.387-2.2-.402-4.456-.636-6.768-.636-21.257 0-38.488 17.745-38.488 39.635 0 31.973 35.8 51.46 58.977 64.949 4.193 2.44 8.402 3.726 12.642 3.679-.278-.748-.568-1.491-.842-2.24z" fill="#eb6773"/></svg>