<svg id="Layer_1" enable-background="new 0 0 511 511" height="512" viewBox="0 0 511 511" width="512" xmlns="http://www.w3.org/2000/svg"><path d="m0 144.725v154.941c0 59.487 48.223 107.71 107.71 107.71h108.334c56.46 0 112.385 10.935 164.688 32.2l77.817 31.639c24.274 9.869 52.204-7.84 52.446-34.042v-291.452c.554-59.874-46.481-108.706-106.357-108.706h-296.928c-59.487 0-107.71 48.223-107.71 107.71z" fill="#f6a7ae"/><path d="m418.209 311.567c-39.461-2.603-79.582-7.203-117.55-18.671-38.319-11.574-74.243-30.267-99.106-62.391-22.305-28.819-35.6-64.159-43.426-99.513-6.523-29.467-11.146-63.532-4.294-93.978h-46.123c-59.487.001-107.71 48.224-107.71 107.711v154.941c0 59.487 48.223 107.71 107.71 107.71h108.334c56.46 0 112.385 10.935 164.688 32.2l77.817 31.639c24.274 9.869 52.204-7.84 52.446-34.042v-123.97c-24.243.05-67.433.037-92.786-1.636z" fill="#f2959e"/><path d="m323.291 114.86c-15.64 0-30.23 4.626-42.551 12.622-15.167 9.842-34.685 9.842-49.852 0-12.321-7.996-26.911-12.622-42.551-12.622-44.145 0-79.932 36.853-79.932 82.313 0 66.401 74.349 106.872 122.484 134.884 16.651 9.69 33.423 10.717 50.541.091 45.73-28.388 121.794-72.39 121.794-134.975-.001-45.46-35.787-82.313-79.933-82.313z" fill="#fff"/><path d="m300.659 292.896c-38.319-11.574-74.243-30.267-99.106-62.391-22.305-28.819-35.6-64.159-43.426-99.513-.668-3.016-1.313-6.082-1.931-9.185-28.136 12.743-47.791 41.683-47.791 75.366 0 66.401 74.349 106.872 122.484 134.884 16.651 9.69 33.423 10.717 50.541.091 14.441-8.965 31.907-19.489 49.048-31.661-10.051-2.13-20.008-4.628-29.819-7.591z" fill="#eaf9ff"/><g fill="#3f4750"><path d="m285.696 220.755c-4.27 0-7.732 3.462-7.732 7.732 0 3.975-3.234 7.209-7.209 7.209-3.976 0-7.21-3.234-7.21-7.209 0-4.27-3.462-7.732-7.732-7.732s-7.732 3.462-7.732 7.732c0 3.975-3.234 7.209-7.209 7.209s-7.209-3.234-7.209-7.209c0-4.27-3.462-7.732-7.732-7.732s-7.732 3.462-7.732 7.732c0 12.501 10.171 22.672 22.672 22.672 5.72 0 10.948-2.134 14.941-5.641 3.993 3.507 9.221 5.641 14.941 5.641 12.501 0 22.672-10.171 22.672-22.672.002-4.271-3.459-7.732-7.729-7.732z"/><path d="m184.865 203.429c-4.27 0-7.732 3.462-7.732 7.732v11.21c0 4.27 3.462 7.732 7.732 7.732s7.732-3.462 7.732-7.732v-11.21c-.001-4.27-3.462-7.732-7.732-7.732z"/><path d="m326.763 203.429c-4.27 0-7.732 3.462-7.732 7.732v11.21c0 4.27 3.462 7.732 7.732 7.732s7.732-3.462 7.732-7.732v-11.21c-.001-4.27-3.462-7.732-7.732-7.732z"/></g></svg>