<svg id="Layer_1" enable-background="new 0 0 511 511" height="512" viewBox="0 0 511 511" width="512" xmlns="http://www.w3.org/2000/svg"><path d="m499.714 12.458c-8.47-7.781-19.985-12.458-32.854-12.458h-70.072c-21.119 0-38.397 17.279-38.397 38.397 0 15.521 9.336 28.96 22.667 34.996 3.034 1.373 3.758 5.352 1.403 7.707l-139.667 139.667 49.158 49.158 194.436-194.436 13.88-13.881c13.638-13.637 13.65-36.103-.554-49.15z" fill="#6f8197"/><path d="m302.63 160.931-59.836 59.836 49.158 49.158 60.102-60.102c-7.538-19.405-35.411-42.771-49.424-48.892z" fill="#56697e"/><path d="m172.541 167.052c-94.979 0-171.974 76.995-171.974 171.974s76.996 171.974 171.974 171.974 171.974-76.995 171.974-171.974-76.995-171.974-171.974-171.974zm0 278.328c-58.737 0-106.354-47.616-106.354-106.354s47.616-106.354 106.354-106.354c58.737 0 106.354 47.616 106.354 106.354s-47.616 106.354-106.354 106.354z" fill="#99ddfc"/><path d="m167.052 445.24c-56.186-2.857-100.864-49.318-100.864-106.214 0-49.502 33.82-91.103 79.614-102.962.587-10.396 1.476-20.771 2.783-31.1 1.542-12.187 3.469-24.762 6.494-37.036-86.777 8.752-154.512 82.014-154.512 171.098 0 94.979 76.996 171.974 171.974 171.974 8.311 0 16.481-.602 24.477-1.742-8.352-13.429-23.601-46.741-29.966-64.018z" fill="#66cdf7"/></svg>