<svg id="Layer_1" enable-background="new 0 0 511 511" height="512" viewBox="0 0 511 511" width="512" xmlns="http://www.w3.org/2000/svg"><path d="m308.555 155.79h-16.372c-3.109 0-5.63-2.521-5.63-5.63v-30.763c0-3.832 3.735-6.511 7.385-5.343 11.864 3.798 25.423 1.016 34.795-8.356 13.341-13.341 13.341-35.171 0-48.512l-44.265-44.265c-16.493-17.342-40.823-17.115-57.938 0l-44.265 44.265c-13.341 13.341-13.341 35.171 0 48.512 9.372 9.372 22.932 12.154 34.795 8.356 3.65-1.168 7.385 1.51 7.385 5.343v30.763c0 3.109-2.521 5.63-5.63 5.63h-16.372c-14.961 0-27.09 12.129-27.09 27.09 0 14.962 12.129 27.09 27.09 27.09h16.372c3.109 0 5.63 2.521 5.63 5.63v93.032h62.107v-93.032c0-3.109 2.521-5.63 5.63-5.63h16.372c14.962 0 27.09-12.129 27.09-27.09.001-14.961-12.127-27.09-27.089-27.09z" fill="#b9a0db"/><path d="m224.447 230.544v78.089h62.107v-78.089c-19.932-3.106-51.206-2.566-62.107 0z" fill="#928fd4"/><path d="m347.925 287.866c-51.045-51.045-133.805-51.045-184.85 0s-51.045 133.805 0 184.85 133.805 51.045 184.85 0 51.045-133.805 0-184.85zm-42.147 142.703c-27.768 27.768-72.788 27.768-100.556 0s-27.768-72.788 0-100.556 72.788-27.768 100.556 0 27.768 72.788 0 100.556z" fill="#b9a0db"/><path d="m246.024 457.609c-2.075-2.613-4.09-5.263-6.058-7.943-12.732-2.838-24.838-9.19-34.744-19.097-20.77-20.77-25.999-51.19-15.698-76.826-8.901-23.588-15.617-48.044-18.803-72.942-2.618 2.236-5.17 4.588-7.646 7.064-51.045 51.045-51.045 133.805 0 184.85 35.01 35.01 84.938 46.004 129.321 32.99-16.661-14.815-32.491-30.623-46.372-48.096z" fill="#928fd4"/></svg>