<svg id="Layer_1" enable-background="new 0 0 511 511" height="512" viewBox="0 0 511 511" width="512" xmlns="http://www.w3.org/2000/svg"><path d="m228.569 485.082h151.035c57.932 0 101.253-53.201 89.516-109.932l-38.555-186.353h-206.19z" fill="#f3d37e"/><path d="m255.5 363.643h94.653c50.597 0 91.613 41.017 91.613 91.613v25.26c0 16.793-13.613 30.406-30.406 30.406h-155.86z" fill="#f0c9bc"/><path d="m255.5 447.274v63.648h155.86c16.793 0 30.406-13.613 30.406-30.406v-25.26c0-10.191-1.666-19.992-4.737-29.149l-.573.148c-67.098 14.961-126.727 20.936-180.956 21.019z" fill="#928fd4"/><path d="m255.5 510.923h-115.982l-70.284-52.784v-2.882c0-50.597 41.017-91.613 91.613-91.613h94.653z" fill="#b9a0db"/><circle cx="85.601" cy="258.219" fill="#f0c9bc" r="47.362"/><circle cx="425.399" cy="258.219" fill="#f0c9bc" r="47.362"/><path d="m273.267 407.465h-35.533c-89.754 0-163.189-73.435-163.189-163.189v-76.461c0-99.173 81.142-84.312 180.315-84.312h1.281c99.173 0 180.315-14.861 180.315 84.313v76.46c-.001 89.754-73.436 163.189-163.189 163.189z" fill="#f5dbcd"/><path d="m255.357 84.288h-1.282c-99.21 0-180.382-14.866-180.382 84.344v76.489c0 84.51 61.075 149.154 139.87 160.603-92.91-216.926 190.246-323.011 41.794-321.436z" fill="#f0c9bc"/><ellipse cx="147.763" cy="281.259" fill="#ec9eb0" rx="32.324" ry="25.741"/><ellipse cx="363.406" cy="281.259" fill="#ec9eb0" rx="32.324" ry="25.741"/><path d="m255.5 322.678c-17.191 0-31.125-13.935-31.125-31.125v-22.629c0-4.693 3.804-8.497 8.497-8.497h45.257c4.693 0 8.497 3.804 8.497 8.497v22.629c-.002 17.19-13.936 31.125-31.126 31.125z" fill="#3f4750"/><path d="m128.167 477.283-58.933-19.144v22.378c0 16.793 13.613 30.406 30.406 30.406h39.878v-18.017c0-7.117-4.583-13.424-11.351-15.623z" fill="#f5dbcd"/><path d="m166.161 262.419c-4.258 0-7.708-3.451-7.708-7.708v-14.116c0-4.257 3.451-7.708 7.708-7.708s7.708 3.451 7.708 7.708v14.116c.001 4.257-3.45 7.708-7.708 7.708z" fill="#3f4750"/><path d="m344.839 262.419c-4.258 0-7.708-3.451-7.708-7.708v-14.116c0-4.257 3.451-7.708 7.708-7.708 4.258 0 7.708 3.451 7.708 7.708v14.116c0 4.257-3.45 7.708-7.708 7.708z" fill="#3f4750"/><path d="m255.5.115-18.166.001c-24.892.002-49.712 3.222-73.654 10.032-112.304 31.944-118.697 114.645-122.833 182.077-.728 11.87 8.517 22.015 20.406 22.313 58.95 1.474 162.027-17.587 194.247-68.119z" fill="#f7ad55"/><path d="m255.5 146.418s43.844 71.544 194.28 67.422c11.856-.325 21.059-10.472 20.33-22.31-4.18-67.966-11.005-151.166-126.123-182.305-22.9-6.194-46.563-9.112-70.286-9.111l-18.201.001z" fill="#f9ef90"/><path d="m40.847 192.225c-.728 11.87 8.517 22.015 20.406 22.313 58.95 1.474 162.027-17.587 194.247-68.119 0 0 11.85-48.586 0-56.079-61.136 50.549-214.653 101.885-214.653 101.885z" fill="#f49634"/><path d="m255.5 90.34c-11.6 7.873 0 56.079 0 56.079s43.844 71.544 194.28 67.422c11.856-.325 21.059-10.472 20.33-22.31-24.928-5.453-148.057-34.059-214.61-101.191z" fill="#f3d37e"/><path d="m247.792 510.923v-510.809c5.147-.152 9.449-.152 15.417 0v510.809c-8.345.108-9.751.098-15.417 0z" fill="#3f4750"/><path d="m374.879 473.263c-4.258 0-7.708 3.451-7.708 7.708v29.952h15.417v-29.952c-.001-4.257-3.452-7.708-7.709-7.708z" fill="#b9a0db"/></svg>