<svg id="Layer_1" enable-background="new 0 0 511 511" height="512" viewBox="0 0 511 511" width="512" xmlns="http://www.w3.org/2000/svg"><path d="m286.602 293.816h-62.205l-.315 91.832c-.013 3.862-3.148 6.986-7.01 6.986h-14.712c-14.985 0-27.133 12.148-27.133 27.133 0 14.985 12.148 27.133 27.133 27.133h14.688c3.871 0 7.01 3.138 7.01 7.01v25.818c0 17.271 14.001 31.272 31.272 31.272 17.271 0 31.272-14.001 31.272-31.272z" fill="#6f8197"/><path d="m286.602 376.557v-82.74h-62.205l-.273 82.081c16.668 4.734 44.911 4.244 62.478.659z" fill="#56697e"/><path d="m255.5 0c-95.136 0-172.259 77.123-172.259 172.259s77.123 172.259 172.259 172.259 172.259-77.123 172.259-172.259-77.123-172.259-172.259-172.259zm0 278.789c-58.835 0-106.53-47.695-106.53-106.53s47.695-106.53 106.53-106.53 106.53 47.695 106.53 106.53-47.695 106.53-106.53 106.53z" fill="#f6a7ae"/><path d="m164.138 227.067c-9.627-16.013-15.167-34.763-15.167-54.808 0-52.522 38.01-96.163 88.022-104.924 18.987-22.767 40.899-43.208 64.977-60.987-14.784-4.132-30.368-6.348-46.47-6.348-95.136 0-172.259 77.123-172.259 172.259 0 60.185 30.872 113.151 77.637 143.952-3.159-29.535-1.684-59.798 3.26-89.144z" fill="#f1919b"/></svg>