<svg id="Layer_1" enable-background="new 0 0 511 511" height="512" viewBox="0 0 511 511" width="512" xmlns="http://www.w3.org/2000/svg"><path d="m84.073 285.076-1.093 163.813c-.134 16.078 12.792 29.219 28.869 29.353l53.596.445c16.078.134 29.219-12.792 29.353-28.869l1.224-179.64z" fill="#f5dbcd"/><path d="m128.374 476.923c-1.413-37.677 1.408-76.426 18.073-110.837 7.609-15.711 18.034-29.072 34.077-36.669 4.76-2.254 9.861-4.461 15.139-6.363l.36-52.877-111.95 14.898-1.093 163.814c-.134 16.078 12.792 29.219 28.869 29.353l16.654.138c-.065-.48-.111-.966-.129-1.457z" fill="#f0c9bc"/><path d="m171.567 311.18c35.067-8.1 61.341-39.379 61.653-76.949l1.15-150.561c.112-13.453-10.155-24.444-22.932-24.551-12.777-.106-23.225 10.714-23.337 24.166v89.721" fill="#f5dbcd"/><path d="m188.161 174.857.806-109.103c.115-13.871-10.471-25.205-23.646-25.315-13.174-.109-23.948 11.047-24.063 24.918v106.94" fill="#f5dbcd"/><path d="m94.939 169.696.67-92.721c.112-13.453-10.155-24.444-22.932-24.551-12.777-.106-23.226 10.714-23.337 24.166l-.628 107.752" fill="#f5dbcd"/><path d="m141.99 172.218.851-114.507c.116-13.918-10.506-25.289-23.725-25.399-13.218-.11-24.028 11.084-24.143 25.001l-.223 114.508" fill="#f5dbcd"/><path d="m85.218 412.366 108.117.898c12.999.108 23.625-10.343 23.733-23.342l.057-6.904c.108-12.999-10.343-23.625-23.342-23.733l-108.117-.898c-12.999-.108-23.625 10.343-23.733 23.342l-.057 6.904c-.108 13 10.343 23.625 23.342 23.733z" fill="#f6a7ae"/><g fill="#f0c9bc"><path d="m72.649 156.555c-6.463-11.382-7.545-76.801-4.375-101.857.083-.653.204-1.293.343-1.927-10.858 1.93-19.178 11.824-19.277 23.819l-.628 137.341 46.228-14.647.164-29.798c-9-1.045-17.35-4.78-22.455-12.931z"/><path d="m135.446 168.393c-7.111-1.838-12.665-6.721-15.165-13.639-2.103-5.821-2.481-94.335-2.438-122.247 0-.058.008-.112.009-.17-12.636.587-22.767 11.505-22.879 24.976l-.223 144.096 47.241.398.192-32.45c-2.277-.156-4.579-.406-6.737-.964z"/><path d="m182.535 168.375c-7.264-.958-13.359-5.229-16.296-12.005-2.158-4.98-1.963-57.941-2.119-64.428-.645-26.815-1.763-24.582-1.042-51.408-12.132 1.09-21.712 11.748-21.82 24.823v136.529l46.903 2.559.209-35.811c-1.938.036-3.879-.001-5.835-.259z"/><path d="m229.404 179.974c-7.014-2.159-11.863-7.846-13.996-14.729-2.977-9.608-2.568-56.081-2.8-68.598-.222-11.975.163-24.181-1.444-36.076-.065-.481-.113-.962-.147-1.442-12.584.133-22.805 10.854-22.916 24.159v119.309l-16.534 108.583c35.067-8.1 61.341-39.379 61.653-76.949l.531-53.393c-1.455-.164-2.905-.42-4.347-.864z"/><path d="m173.7 311.18h-50.736c-40.973 0-74.189-33.215-74.189-74.189v-66.36h156.756z"/></g><path d="m84.735 214.211c-2.542-2.134-4.837-4.542-6.846-7.184-14.617-19.222-43.976-57.645-48.55-60.865-14.489-10.201-27.94-.066-29.147 15.639-2.806 36.51 25.073 118.832 80.989 148.384 2.912 1.539 5.995 2.745 9.185 3.565 17.926 4.607 38.654 2.131 48.596-15.369 4.93-8.679 5.274-18.25 2.652-27.214-2.398-8.201-7.386-15.407-13.93-20.9z" fill="#f5dbcd"/><path d="m426.927 285.076 1.093 163.813c.134 16.078-12.792 29.219-28.869 29.353l-53.596.445c-16.078.134-29.219-12.792-29.353-28.869l-1.224-179.64z" fill="#d19f85"/><path d="m382.626 476.923c1.413-37.677-1.408-76.426-18.073-110.837-7.609-15.711-18.034-29.072-34.077-36.669-4.76-2.254-9.861-4.461-15.139-6.363l-.36-52.877 111.95 14.898 1.093 163.813c.134 16.078-12.792 29.219-28.869 29.353l-16.654.138c.065-.479.111-.965.129-1.456z" fill="#be886f"/><path d="m339.433 311.18c-35.067-8.1-61.341-39.379-61.653-76.949l-1.15-150.561c-.112-13.453 10.155-24.444 22.932-24.551 12.777-.106 23.225 10.714 23.337 24.166v89.721" fill="#d19f85"/><path d="m322.839 174.857-.806-109.103c-.115-13.871 10.471-25.205 23.646-25.315 13.174-.109 23.948 11.047 24.063 24.918v106.94" fill="#d19f85"/><path d="m416.061 169.696-.67-92.721c-.112-13.453 10.155-24.444 22.932-24.551 12.777-.106 23.225 10.714 23.337 24.166l.628 107.752" fill="#d19f85"/><path d="m369.01 172.218-.851-114.507c-.116-13.918 10.506-25.289 23.725-25.399 13.218-.11 24.028 11.084 24.143 25.001l.223 114.507" fill="#d19f85"/><path d="m425.782 412.366-108.117.898c-12.999.108-23.625-10.343-23.733-23.342l-.057-6.904c-.108-12.999 10.343-23.625 23.342-23.733l108.117-.898c12.999-.108 23.625 10.343 23.733 23.342l.057 6.904c.108 13-10.343 23.625-23.342 23.733z" fill="#b9a0db"/><path d="m438.351 156.555c6.463-11.382 7.545-76.801 4.375-101.857-.083-.653-.204-1.293-.343-1.927 10.858 1.93 19.178 11.824 19.278 23.819l.628 137.341-46.228-14.647-.164-29.798c8.999-1.045 17.349-4.78 22.454-12.931z" fill="#be886f"/><path d="m375.553 168.393c7.111-1.838 12.665-6.721 15.165-13.639 2.103-5.821 2.481-94.335 2.438-122.247 0-.058-.008-.112-.009-.17 12.636.587 22.767 11.505 22.879 24.976l.223 144.095-47.241.398-.192-32.45c2.278-.155 4.58-.405 6.737-.963z" fill="#be886f"/><path d="m328.465 168.375c7.264-.958 13.359-5.229 16.296-12.005 2.158-4.98 1.963-57.941 2.119-64.428.645-26.815 1.763-24.582 1.042-51.408 12.132 1.09 21.712 11.748 21.82 24.823v136.529l-46.903 2.559-.209-35.811c1.938.036 3.879-.001 5.835-.259z" fill="#be886f"/><path d="m281.596 179.974c7.014-2.159 11.863-7.846 13.996-14.729 2.977-9.608 2.568-56.081 2.8-68.598.222-11.975-.163-24.181 1.444-36.076.065-.481.113-.962.147-1.442 12.584.133 22.805 10.854 22.916 24.159v119.309l16.534 108.584c-35.067-8.1-61.341-39.379-61.653-76.949l-.531-53.393c1.455-.165 2.905-.421 4.347-.865z" fill="#be886f"/><path d="m337.3 311.18h50.736c40.973 0 74.189-33.215 74.189-74.189v-66.36h-156.756z" fill="#be886f"/><path d="m426.265 214.211c2.542-2.134 4.837-4.542 6.846-7.184 14.617-19.222 43.976-57.645 48.55-60.865 14.489-10.201 27.94-.066 29.147 15.639 2.806 36.51-25.073 118.832-80.989 148.384-2.912 1.539-5.995 2.745-9.185 3.565-17.926 4.607-38.654 2.131-48.596-15.369-4.93-8.679-5.274-18.25-2.652-27.214 2.398-8.201 7.386-15.407 13.93-20.9z" fill="#d19f85"/><path d="m150.257 358.932-63.963-.54c-13.346-.111-24.255 10.618-24.366 23.964l-.047 5.649c-.111 13.346 10.618 24.255 23.964 24.366l45.964.394c2.434-18.744 10.574-36.837 18.448-53.833z" fill="#f1919b"/><path d="m360.77 358.932 63.963-.54c13.346-.111 24.255 10.618 24.366 23.964l.047 5.649c.111 13.346-10.618 24.255-23.964 24.366l-45.964.394c-2.434-18.744-10.575-36.837-18.448-53.833z" fill="#928fd4"/></svg>