<svg id="Layer_1" enable-background="new 0 0 511 511" height="512" viewBox="0 0 511 511" width="512" xmlns="http://www.w3.org/2000/svg"><path d="m235.159 145.728h40.284v249.049h-40.284z" fill="#fef2d3"/><path d="m265.41 305.416c3.581 2.039 6.899 4.584 10.033 7.393v-167.081h-40.284v164.845c8.993-6.709 18.938-11.599 30.251-5.157z" fill="#ffe2c2"/><path d="m232.562 508.188c-29.004 9.601-60.412-6.185-70.013-35.189-2.883-8.709 1.84-18.105 10.549-20.988 8.708-2.883 18.105 1.84 20.988 10.549 3.845 11.615 16.422 17.936 28.037 14.092 11.615-3.845 17.937-16.422 14.092-28.037-2.883-8.709 1.84-18.105 10.549-20.988 8.708-2.883 18.105 1.84 20.988 10.549 9.6 29.004-6.186 60.412-35.19 70.012z" fill="#d19f85"/><path d="m235.397 464.638c11.387.305 22.766.85 34.145 1.397 1.745-9.002 1.29-18.552-1.79-27.859-2.883-8.709-12.279-13.431-20.988-10.549-8.708 2.883-13.431 12.279-10.549 20.988 1.809 5.465 1.366 11.142-.818 16.023z" fill="#be886f"/><path d="m271.68 452.146h-32.758c-8.558 0-15.495-6.937-15.495-15.495v-47.163c0-8.558 6.937-15.495 15.495-15.495h32.758c8.558 0 15.495 6.937 15.495 15.495v47.163c0 8.558-6.937 15.495-15.495 15.495z" fill="#e7bb9f"/><path d="m255.5 0c-.065 0-.13 0-.196 0-168.649 60.754-169.04 200.777-169.04 253.267 2.026 21.425 20.452 38.189 42.407 38.189 20.605 0 37.755-14.766 41.462-34.292-.001-45.846-16.508-197.746 85.367-257.164z" fill="#f7ad55"/><path d="m255.304 0c-137.674 0-245.206 110.039-253.182 246.683-1.469 25.166 18.309 44.773 42.127 44.773 21.955 0 39.989-16.764 42.016-38.189-.001-52.49.39-192.513 169.039-253.267z" fill="#ef7d92"/><path d="m255.5 0c-101.875 59.418-85.368 211.318-85.368 257.163.243-1.279 5.556 34.292 42.961 34.292 21.955 0 40.38-16.764 42.407-38.189v-41.275z" fill="#f9ef90"/><path d="m255.5 0h.196c168.649 60.754 168.649 200.777 168.649 253.267-2.026 21.425-20.06 38.189-42.016 38.189-20.605 0-37.755-14.766-41.462-34.292.001-45.846 16.508-197.746-85.367-257.164z" fill="#99ddfc"/><path d="m255.696 0c137.674 0 245.206 110.039 253.182 246.683 1.469 25.166-18.309 44.773-42.127 44.773-21.955 0-40.38-16.764-42.407-38.189.001-52.49.001-192.513-168.648-253.267z" fill="#b9a0db"/><path d="m255.5 0c101.875 59.418 85.368 211.318 85.368 257.163-.945 3.731-10.614 34.292-42.961 34.292-21.955 0-40.38-16.764-42.407-38.189v-41.275z" fill="#7ce0cf"/><g fill="#3f4750"><path d="m169.7 139.603c-4.259 0-7.711-3.452-7.711-7.711v-13.525c0-4.259 3.452-7.711 7.711-7.711s7.711 3.452 7.711 7.711v13.525c0 4.259-3.452 7.711-7.711 7.711z"/><path d="m340.902 139.603c-4.259 0-7.711-3.452-7.711-7.711v-13.525c0-4.259 3.452-7.711 7.711-7.711s7.711 3.452 7.711 7.711v13.525c0 4.259-3.452 7.711-7.711 7.711z"/><ellipse cx="255.301" cy="146.97" rx="22.058" ry="26.119"/></g><path d="m169.753 180.495c-26.384-8.31-50.93-24.047-63.01-48.882-20.381 48.505-20.479 95.744-20.479 121.654 2.026 21.425 20.452 38.188 42.407 38.188 20.605 0 37.755-14.766 41.462-34.292-.001-15.736-1.945-43.97-.38-76.668z" fill="#f49634"/><path d="m101.945 119.061c-6.577-23.319-2.492-47.355 5.248-70.247-60.457 44.905-100.332 116.691-105.071 197.869-1.469 25.166 18.309 44.773 42.127 44.773 21.955 0 39.989-16.764 42.016-38.188 0-25.91.098-73.149 20.479-121.654-1.925-3.956-3.551-8.129-4.799-12.553z" fill="#eb6773"/><path d="m191.778 185.719c-7.331-1.199-14.747-2.932-22.025-5.224-1.565 32.699.379 60.932.379 76.669.243-1.279 5.556 34.292 42.961 34.292 21.955 0 40.38-16.764 42.407-38.188v-64.218c-21.277.502-42.52.135-63.722-3.331z" fill="#f4d37f"/><path d="m341.485 186.237c1.101 30.244-.617 56.12-.617 70.927 3.706 19.527 20.856 34.292 41.462 34.292 21.955 0 39.989-16.764 42.015-38.188 0-16.611-.002-41.989-5.347-70.845-25.827 1.551-51.658 2.855-77.513 3.814z" fill="#66cdf7"/><path d="m495.492 176.601c-21.072 2.614-43.328 4.05-76.494 5.821 5.345 28.856 5.347 54.235 5.347 70.845 2.026 21.425 20.452 38.188 42.407 38.188 23.817 0 43.596-19.607 42.127-44.773-1.423-24.366-6.027-47.879-13.387-70.081z" fill="#928fd4"/><path d="m305.241 187.349c-16.598.393-33.18 1.31-49.741 1.701v64.217c2.026 21.425 20.452 38.188 42.407 38.188 32.347 0 42.016-30.562 42.961-34.292 0-14.807 1.718-40.683.617-70.927-12.076.448-24.156.827-36.244 1.113z" fill="#55cb94"/><path d="m282.251 422.222c-12.959 1.583-27.21.438-36.882-9.424-10.008-10.205-8.234-25.681-6.927-38.781-8.334.257-15.015 7.123-15.015 15.575v47.481c0 8.615 6.937 15.599 15.495 15.599h32.758c8.558 0 15.495-6.984 15.495-15.599v-15.512c-1.639.235-3.279.46-4.924.661z" fill="#d9a37d"/></svg>