<svg id="Layer_1" enable-background="new 0 0 511 511" height="512" viewBox="0 0 511 511" width="512" xmlns="http://www.w3.org/2000/svg"><path d="m511 51.645v132.774l-255.5 37.662-255.5-37.942v-132.494c0-23.003 18.648-41.651 41.651-41.651h427.697c23.004 0 41.652 18.648 41.652 41.651z" fill="#b3e5fc"/><path d="m114.153 184.683c1.295 5.717 2.776 11.415 4.443 17.067l-118.596-17.611v-132.494c0-23.003 18.648-41.651 41.651-41.651h64.827c-2.472 58.267-5.294 117.435 7.675 174.689z" fill="#66cdf7"/><path d="m408.65 184.419h-408.65v132.774c0 23.003 18.648 41.651 41.651 41.651h427.697c23.004 0 41.651-18.648 41.651-41.651v-132.774h-17.075z" fill="#fffdde"/><path d="m232.291 339.152c-30.466-19.89-60.223-41.238-81.84-70.919-17.987-24.697-29.576-53.874-36.298-83.549-.02-.088-.038-.176-.057-.264h-114.096v132.774c0 23.003 18.648 41.651 41.651 41.651h223.209c-11.085-6.176-21.945-12.758-32.569-19.693z" fill="#fdf3b4"/><path d="m135.382 302.721h-25.476c-12.101 0-21.91-9.81-21.91-21.91v-25.476c0-12.101 9.81-21.91 21.91-21.91h25.476c12.101 0 21.91 9.81 21.91 21.91v25.476c0 12.101-9.809 21.91-21.91 21.91z" fill="#f3d37e"/><path d="m274.059 302.721h-25.476c-12.101 0-21.91-9.81-21.91-21.91v-25.476c0-12.101 9.81-21.91 21.91-21.91h25.476c12.101 0 21.91 9.81 21.91 21.91v25.476c.001 12.101-9.809 21.91-21.91 21.91z" fill="#f9ef90"/><g fill="#fff"><path d="m172.023 62.439c-4.021-1.412-8.42.706-9.828 4.725l-14.808 42.234-18.967-29.56c-1.419-2.211-3.865-3.546-6.49-3.546-.015 0-.03 0-.046 0-2.642.016-5.093 1.384-6.493 3.625l-18.161 29.057-14.109-41.728c-1.363-4.034-5.739-6.198-9.775-4.835-4.034 1.364-6.199 5.74-4.835 9.775l19.322 57.152c.954 2.822 3.45 4.844 6.41 5.189.3.035.599.052.897.052 2.636 0 5.118-1.354 6.538-3.625l20.336-32.538 20.929 32.616c1.592 2.481 4.456 3.837 7.388 3.494 2.928-.343 5.404-2.325 6.379-5.108l20.037-57.152c1.41-4.018-.705-8.418-4.724-9.827z"/><path d="m290.607 62.302c-3.311-.945-6.848.417-8.666 3.339l-20.252 32.534-21.054-32.638c-1.855-2.875-5.382-4.185-8.659-3.217-3.28.966-5.532 3.977-5.532 7.397v57.152c0 4.259 3.452 7.711 7.711 7.711s7.711-3.452 7.711-7.711v-30.974l13.46 20.865c1.421 2.203 3.862 3.531 6.48 3.531h.062c2.642-.021 5.089-1.394 6.484-3.636l12.424-19.96v30.172c0 4.259 3.452 7.711 7.711 7.711s7.711-3.452 7.711-7.711v-57.151c.001-3.443-2.281-6.469-5.591-7.414z"/><path d="m410.172 96.835 19.046-25.407c2.554-3.408 1.863-8.241-1.544-10.796-3.409-2.555-8.239-1.863-10.796 1.544l-16.344 21.802-16.344-21.802c-2.554-3.407-7.386-4.098-10.796-1.544-3.407 2.554-4.099 7.388-1.544 10.796l19.046 25.407-19.046 25.407c-2.554 3.408-1.863 8.241 1.544 10.796 1.388 1.04 3.01 1.541 4.62 1.541 2.344 0 4.661-1.065 6.176-3.086l16.344-21.802 16.344 21.802c1.515 2.02 3.831 3.086 6.176 3.086 1.61 0 3.232-.502 4.62-1.541 3.407-2.554 4.099-7.388 1.544-10.796z"/></g><path d="m403.113 302.072c-3.874 0-7.635-1.523-10.433-4.306l-27.955-27.816c-5.79-5.762-5.812-15.128-.051-20.918 5.765-5.79 15.129-5.811 20.918-.051l8.529 8.488c2.458 2.446 6.549 1.908 8.312-1.078 10.205-17.285 22.517-33.28 36.788-47.772 5.677-5.768 14.923-5.893 20.757-.316 5.981 5.719 5.892 15.397.094 21.302-18.193 18.529-32.751 39.827-43.278 63.317-1.157 2.581-2.907 4.887-5.232 6.496-2.635 1.82-5.576 2.654-8.449 2.654z" fill="#7ce0cf"/><path d="m242.85 409.572 7.388 58.707 36.523-25.962c5.273-3.728 4.4-11.798-1.549-14.313z" fill="#65d6c0"/><path d="m364.123 456.026 91.111 33.042c18.196 6.599 38.297-2.802 44.896-20.999 6.599-18.196-2.802-38.297-20.999-44.896l-77.382-28.063c-7.582-2.75-15.958 1.168-18.707 8.75z" fill="#7ce0cf"/><path d="m10.822 464.935c2.082 19.244 19.37 33.156 38.614 31.074l195.866-21.193c4.609-.499 7.941-4.639 7.442-9.248l-5.734-52.997c-.499-4.609-4.639-7.941-9.248-7.442l-195.866 21.192c-19.244 2.082-33.156 19.37-31.074 38.614z" fill="#7ce0cf"/><path d="m104.626 97.14-7.396 11.834-14.109-41.728c-1.363-4.034-5.739-6.198-9.775-4.835-4.034 1.364-6.199 5.74-4.835 9.775l19.322 57.152c.954 2.822 3.45 4.844 6.41 5.189.3.035.599.052.897.052 2.636 0 5.118-1.353 6.537-3.625l4.006-6.41c.045-.334-1.306-21.645-1.057-27.404z" fill="#eaf9ff"/><path d="m250.56 442.704c-39.138 10.282-80.031 20.275-120.619 20.702-16.969.179-36.48-1.286-51.057-10.94-10.718-7.099-16.436-16.968-18.389-28.157l-18.6 2.013c-19.244 2.082-33.156 19.37-31.073 38.614 2.082 19.244 19.37 33.156 38.614 31.074l195.866-21.193c4.609-.499 7.941-4.639 7.442-9.248z" fill="#65d6c0"/><path d="m479.309 423.243c-.038.206-.062.407-.105.616-3.001 14.508-17.492 19.675-30.707 20.007-23.11.582-47.3-7.484-68.781-15.381-1.717-.631-3.294-1.514-4.662-2.601l-10.931 30.141 91.111 33.042c18.196 6.599 38.297-2.803 44.896-20.999 6.577-18.135-2.743-38.159-20.821-44.825z" fill="#65d6c0"/><path d="m419.171 499.743-61.641-22.354c-10.897-3.952-16.527-15.989-12.575-26.886l.403-1.112c3.952-10.897 15.989-16.527 26.886-12.575l61.641 22.354c10.897 3.952 16.527 15.989 12.575 26.886l-.403 1.112c-3.951 10.897-15.989 16.527-26.886 12.575z" fill="#7ce0cf"/></svg>