<svg id="Layer_1" enable-background="new 0 0 511 511" height="512" viewBox="0 0 511 511" width="512" xmlns="http://www.w3.org/2000/svg"><path d="m204.743 243.193c-24.814 50.598-56.108 97.944-92.821 140.691-17.095 19.905-37.791 40.446-41.013 67.848-2.735 23.264 10.218 43.002 31.097 52.667 46.679 21.608 104.989-14.413 141.053-42.235 42.864-33.067 76.864-77.757 96.536-128.247z" fill="#f7ad56"/><path d="m204.743 243.193c-23.313 47.537-52.348 92.203-86.221 132.882 6.762 32.255 41.954 93.47 69.967 119.96.131.132.268.258.399.39 20.282-9.675 39.155-22.677 54.17-34.26 42.864-33.067 76.864-77.757 96.536-128.247z" fill="#f49634"/><path d="m438.889 324.517c20.901 136.473-174.246 167.434-181.575 23.317-6.194-121.82 162.39-148.584 181.575-23.317z" fill="#f3d37e"/><path d="m235.007 340.937c-115.154 76.167-225.042-88.045-97.261-155.092 108.012-56.673 202.959 85.18 97.261 155.092z" fill="#f3d37e"/><path d="m201.203 225.774c32.789-45.834 59.642-95.833 79.877-148.423 9.422-24.488 17.697-52.448 40.298-68.275 19.187-13.436 42.708-11.388 61.115 2.414 41.154 30.857 37.079 99.275 29.678 144.218-8.796 53.417-32.028 104.539-67.159 145.794z" fill="#fffdde"/><path d="m220.672 196.935c-6.238 9.778-12.718 19.403-19.469 28.839l143.81 75.728c23.063-27.083 40.972-58.428 53.061-91.874-.648-.165-75.808-18.342-177.402-12.693z" fill="#fdf3b4"/><path d="m198.046 217.969c61.016-11.339 147.497 31.277 175.464 86.428 28.198 55.606-13.601 155.135-71.883 177.263-98.844 37.527-248.04-236.846-103.581-263.691z" fill="#f9ef90"/></svg>