<svg id="Layer_1" enable-background="new 0 0 512.014 512.014" height="512" viewBox="0 0 512.014 512.014" width="512" xmlns="http://www.w3.org/2000/svg"><path d="m303.465 355.249 37.609 65.141c11.91 20.629-2.977 46.414-26.797 46.414h-116.54c-23.82 0-38.707-25.786-26.797-46.414l37.609-65.141c21.092-36.534 73.824-36.534 94.916 0z" fill="#fffdde"/><path d="m253.759 435.795c19.052-10.182 42.676-12.688 64.006-13.03 7.895-.127 16.642.142 25.207 1.485-.534-1.301-1.163-2.591-1.896-3.86l-37.609-65.141c-21.093-36.533-73.824-36.533-94.917 0l-37.609 65.141c-11.91 20.628 2.977 46.414 26.797 46.414h31.243c3.01-13.508 12.672-24.539 24.778-31.009z" fill="#fdf3b4"/><path d="m213.564 45.21h84.887v310.425h-84.887z" fill="#e7bb9f"/><path d="m279.247 274.346c-34.539-18.339-30.477-56.819-32.39-94.142-2.304-44.958-1.006-89.99-.196-134.994h-33.098v310.425h84.887v-77.048c-6.616-.648-13.428-1.174-19.203-4.241z" fill="#da9d75"/><path d="m346.244 395.359h-180.473c-18.995 0-34.394-15.399-34.394-34.394v-.943c0-18.995 15.399-34.394 34.394-34.394h180.473c18.995 0 34.394 15.399 34.394 34.394v.943c0 18.995-15.399 34.394-34.394 34.394z" fill="#e7bb9f"/><path d="m441.429 120.718v-46.231h-15v46.92c0 1.048-.36 2.064-1.021 2.879l-55.271 68.138 11.649 9.449 48.844-60.215c1.833-2.26 5.285-2.253 7.109.014l48.313 60.054 11.688-9.402-55.302-68.742c-.653-.812-1.009-1.822-1.009-2.864z" fill="#f3d37e"/><path d="m85.585 74.487h-15v46.919c0 1.048-.36 2.064-1.021 2.879l-55.271 68.139 11.649 9.449 48.844-60.215c1.833-2.26 5.285-2.253 7.109.014l48.313 60.054 11.688-9.402-55.302-68.741c-.653-.812-1.009-1.822-1.009-2.864z" fill="#f3d37e"/><path d="m132.527 189.197h-108.884c-7.522 0-14.42 3.457-18.927 9.483-4.497 6.014-5.859 13.589-3.738 20.783 4.806 16.301 14.945 30.965 28.549 41.292 14.065 10.676 30.856 16.319 48.557 16.319s34.492-5.644 48.557-16.319c13.604-10.327 23.743-24.991 28.549-41.292 2.121-7.194.758-14.77-3.739-20.784-4.504-6.026-11.402-9.482-18.924-9.482z" fill="#f9ef90"/><path d="m507.298 198.68c-4.506-6.026-11.405-9.483-18.927-9.483h-108.884c-7.521 0-14.419 3.456-18.926 9.482-4.497 6.015-5.86 13.59-3.739 20.784 4.806 16.301 14.945 30.965 28.549 41.292 14.065 10.676 30.856 16.319 48.557 16.319s34.492-5.644 48.557-16.319c13.604-10.327 23.743-24.991 28.549-41.292 2.122-7.194.76-14.769-3.736-20.783z" fill="#f9ef90"/><path d="m430.781 89.771h-349.548c-12.139 0-21.979-9.84-21.979-21.979v-.603c0-12.139 9.84-21.979 21.979-21.979h349.547c12.139 0 21.979 9.84 21.979 21.979v.603c.001 12.139-9.84 21.979-21.978 21.979z" fill="#da9d75"/><path d="m177.766 349.878c-8.583-6.858-14.818-14.296-16.513-23.946-16.859 2.214-29.876 16.626-29.876 34.089v.943c0 18.995 15.399 34.394 34.394 34.394h180.473c17.698 0 32.268-13.369 34.176-30.558-3.52.303-174.183 7.827-202.654-14.922z" fill="#da9d75"/><g fill="#f4d37f"><path d="m42.503 189.172h-18.86c-7.522 0-14.42 3.482-18.927 9.508-4.497 6.014-5.859 13.589-3.738 20.783 4.806 16.301 14.945 30.965 28.549 41.292 14.065 10.676 30.856 16.319 48.557 16.319s34.492-5.644 48.557-16.319c7.203-5.468 13.422-12.161 18.405-19.66-86.83 6.869-103.763-39.381-102.543-51.923z"/><path d="m398.369 189.172h-18.859c-7.522 0-14.42 3.482-18.927 9.508-4.497 6.014-5.859 13.589-3.738 20.783 4.806 16.301 14.945 30.965 28.549 41.292 14.065 10.676 30.856 16.319 48.557 16.319s34.492-5.644 48.557-16.319c7.203-5.468 13.422-12.161 18.405-19.66-86.831 6.869-103.764-39.381-102.544-51.923z"/></g></svg>