<svg id="Layer_1" enable-background="new 0 0 511 511" height="512" viewBox="0 0 511 511" width="512" xmlns="http://www.w3.org/2000/svg"><path d="m118.12 0h-54.774c-21.029 0-38.076 17.048-38.076 38.077v17.871c0 19.959-3.865 39.729-11.383 58.219l-11.185 27.509c-3.489 8.581 2.771 18.455 12.034 18.54h103.031c21.166.196 38.429-16.432 38.429-37.598v-84.541c0-21.029-17.047-38.077-38.076-38.077z" fill="#fffdde"/><path d="m71.379 466.331c-3.622-4.046-10.195-3.42-12.912 1.282-11.472 19.854-8.619 37.484 5.57 42.644 14.745 5.361 29.49-19.185 7.342-43.926z" fill="#eaf9ff"/><circle cx="146.056" cy="320.309" fill="#6f8197" r="98.764"/><path d="m82.23 244.946c-21.37 18.116-34.938 45.153-34.938 75.363 0 54.546 44.218 98.764 98.764 98.764 48.09 0 88.146-34.374 96.955-79.891-44.055-34.806-158.19 58.619-160.781-94.236z" fill="#56697e"/><path d="m269.281 498.832c13.973 0 24.846-12.169 23.245-26.05-7.107-61.644-58.193-146.319-117.88-100.307-18.249 14.067-29.6 35.583-35.549 57.843-3.781 14.147-5.576 28.689-6.64 43.318-.988 13.594 9.692 25.197 23.322 25.197h113.502z" fill="#99ddfc"/><path d="m179.016 427.948c-2.414-11.112-13.377-18.162-24.487-15.748-48.794 10.597-85.396-41.855-92.238-52.475-6.156-9.555-18.898-12.316-28.455-6.159-9.559 6.157-12.317 18.897-6.159 28.455 7.407 11.501 16.483 22.877 26.947 33.103 28.073 27.432 66.127 46.545 108.644 37.31 11.111-2.413 18.16-13.376 15.748-24.486z" fill="#f5dbcd"/><path d="m506.306 464.877c.155-8.325-6.094-15.41-14.381-16.217-32.525-3.169-65.331-23.658-72.645-29.108-9.673-7.207-23.363-5.212-30.572 4.461-7.211 9.675-5.213 23.363 4.461 30.573 11.64 8.676 24.891 16.608 39.095 22.879 18.072 7.979 37.68 13.263 57.444 13.948 8.873.307 16.232-6.831 16.397-15.708z" fill="#f5dbcd"/><path d="m153.092 459.3h-39.862c-4.765 0-8.627-3.863-8.627-8.627v-53.52c0-4.765 3.863-8.627 8.627-8.627h39.863c19.008 0 34.418 15.409 34.418 34.418v1.939c-.001 19.008-15.41 34.417-34.419 34.417z" fill="#66cdf7"/><path d="m243.753 50.542v72.705c0 27.914 22.629 50.542 50.542 50.542 0 0 185.109-.01 190.63-.216 28.632-1.068 35.001-44.85 2.873-49.979 0-21.504 0-37.79 0-73.053.174-34.751-16.344-50.387-50.121-50.387-1.353-.101-143.382-.154-143.382-.154-27.914 0-50.542 22.629-50.542 50.542z" fill="#fffdde"/><path d="m487.798 123.596v-24.922c-5.507.668-11.033 1.234-16.582 1.755-26.872 2.521-53.936 4.004-80.914 2.497-21.975-1.228-43.014-5.205-62.055-16.815-29.519-18-48.362-49.133-51.653-82.917-19.182 7.175-32.842 25.663-32.842 47.349v72.705c0 27.914 22.629 50.542 50.542 50.542 0 0 185.109-.01 190.63-.216 28.634-1.067 35.002-44.849 2.874-49.978z" fill="#fdf3b4"/><path d="m466.703 227.102h-111.394c-22.317 0-40.408 18.091-40.408 40.408v58.127c0 22.317 18.091 40.408 40.408 40.408h40.642c21.181 0 42.162 4.102 61.783 12.08l29.193 11.87c9.106 3.703 19.584-2.941 19.675-12.771v-109.34c.209-22.462-17.437-40.782-39.899-40.782z" fill="#fffdde"/><path d="m330.352 235.743c-9.404 7.399-15.45 18.873-15.45 31.767v58.127c0 22.317 18.091 40.408 40.408 40.408h40.642c21.181 0 42.162 4.102 61.783 12.08l29.193 11.87c9.106 3.703 19.584-2.941 19.675-12.771v-63.835c-92.821-.737-171.08-62.179-176.251-77.646z" fill="#fdf3b4"/><path d="m339.947 69.831c4.214-.619 7.128-4.536 6.509-8.749-.939-6.392 2.156-13.366 7.525-16.959 5.37-3.595 12.997-3.793 18.547-.488 5.551 3.306 9.008 10.109 8.406 16.541-.74 7.905-8.441 17.497-21.256 19.706-3.699.637-6.402 3.846-6.402 7.599l.01 14.61c0 4.259 3.452 7.711 7.711 7.711s7.711-3.452 7.711-7.711l-.006-8.589c16.687-5.416 26.423-19.458 27.586-31.888 1.155-12.337-5.222-24.887-15.868-31.229-10.646-6.341-24.718-5.97-35.016.92-10.298 6.891-16.008 19.758-14.207 32.018.619 4.213 4.537 7.135 8.75 6.508z" fill="#ef7d92"/><path d="m361.378 124.421c-4.259 0-7.711 3.452-7.711 7.711v4.456c0 4.259 3.452 7.711 7.711 7.711s7.711-3.452 7.711-7.711v-4.456c0-4.259-3.452-7.711-7.711-7.711z" fill="#ef7d92"/><path d="m166.105 187.477c19.576-7.164 42.556-4.215 59.69 7.659 10.006 6.934 17.862 16.805 22.7 27.968 3.798 8.766-1.115 19.103-10.415 21.288-4.185.983-8.268 3.125-11.4 5.963-7.515 6.813-11.828 16.454-18.577 24.027-13.777 15.456-38.088 20.345-56.769 11.415-18.68-8.93-30.143-30.92-26.765-51.348 3.713-22.46 20.158-39.149 41.536-46.972z" fill="#56697e"/><path d="m58.165.36c-18.577 2.529-32.895 18.446-32.895 37.717v17.871c0 19.959-3.865 39.73-11.383 58.219l-11.185 27.509c-3.489 8.581 2.771 18.455 12.034 18.54h103.031c21.166.196 38.429-16.432 38.429-37.598v-22.705c-88.126 9.607-107.02-69.958-98.031-99.553z" fill="#fdf3b4"/><path d="m88.345 99.913c4.259 0 7.711-3.452 7.711-7.711l-.01-54.57c0-4.259-3.452-7.711-7.711-7.711s-7.711 3.452-7.711 7.711l.01 54.57c0 4.259 3.452 7.711 7.711 7.711z" fill="#b9a0db"/><path d="m88.727 108.362c-4.259 0-7.711 3.452-7.711 7.711v4.456c0 4.259 3.452 7.711 7.711 7.711s7.711-3.452 7.711-7.711v-4.456c0-4.259-3.452-7.711-7.711-7.711z" fill="#b9a0db"/><path d="m452.594 268.004c-2.554-3.407-7.388-4.098-10.795-1.544l-31.046 23.273-31.046-23.273c-3.409-2.555-8.241-1.863-10.795 1.544-2.554 3.408-1.863 8.241 1.545 10.796l27.44 20.57-27.44 20.57c-3.408 2.554-4.099 7.388-1.545 10.796 1.515 2.02 3.831 3.086 6.176 3.086 1.61 0 3.233-.502 4.619-1.541l31.046-23.273 31.046 23.273c1.387 1.04 3.01 1.541 4.619 1.541 2.345 0 4.661-1.065 6.176-3.086 2.554-3.408 1.863-8.241-1.545-10.796l-27.44-20.57 27.44-20.57c3.408-2.555 4.099-7.388 1.545-10.796z" fill="#f3d37e"/></svg>