<svg id="Layer_1" enable-background="new 0 0 511 511" height="512" viewBox="0 0 511 511" width="512" xmlns="http://www.w3.org/2000/svg"><path d="m394.309 116.343c-14.104 6.866-25.23 17.443-32.832 30.063-9.356 15.534-26.959 24.103-44.957 21.886-14.622-1.801-29.81.432-43.914 7.298-39.81 19.38-55.904 68.325-35.946 109.321 29.151 59.881 113.966 63.737 169.671 67.867 19.271 1.429 34.846-5.008 45.618-22.106 28.777-45.676 78.054-118.751 50.579-175.19-19.958-40.996-68.409-58.519-108.219-39.139z" fill="#ef7d92"/><path d="m328.542 168.176c-3.928.554-7.963.616-12.022.116-14.622-1.801-29.81.432-43.914 7.298-39.81 19.38-55.904 68.325-35.946 109.321 29.151 59.881 113.966 63.737 169.671 67.867 19.271 1.429 34.846-5.008 45.618-22.106 6.004-9.529 12.899-20.254 19.804-31.768-.292-.129-.579-.27-.87-.401-52.967-12.709-113.37-51.523-142.341-130.327z" fill="#eb6773"/><path d="m8.17 116.835c-10.725 20.333-10.903 45.88-.463 66.361 6.097 11.961 15.721 22.006 27.205 28.944 9.017 5.448 21.04 1.608 24.804-8.231 1.694-4.428 4.638-8.573 8.203-11.575 8.557-7.204 19.731-10.491 29.005-16.746 18.929-12.768 27.868-38.612 20.874-60.347s-29.329-37.514-52.152-36.846c-25.094.735-45.764 16.235-57.476 38.44z" fill="#f49634"/><circle cx="216.109" cy="212.461" fill="#f5dbcd" r="108.912"/><ellipse cx="241.371" cy="214.627" fill="#ec9eb0" rx="27.113" ry="21.591"/><path d="m140.059 172.95c-3.907-8.379-7.911-16.709-11.575-25.194-10.544 14.252-17.754 31.283-20.301 50.092-8.071 59.606 33.707 114.47 93.314 122.54 32.336 4.378 63.272-5.918 86.103-25.769-43.455-3.558-72.233-19.732-93.369-37.866-1.557-1.335-2.741 1.858-4.209.476-31.587-29.736-43.057-69.468-49.963-84.279z" fill="#f0c9bc"/><path d="m220.446 87.304c-65.668-8.891-126.11 37.135-135.002 102.803-6.989 51.617 19.952 100.005 63.692 122.667 15.938 8.258 34.528-5.191 31.786-22.931-9.924-64.2 2.217-113.516 28.815-150.036z" fill="#f7ad55"/><path d="m177.617 255.276c-.103-.006-.205-.016-.308-.022-61.223-8.375-88.771-56.74-92.009-63.891-6.386 51.143 20.453 98.932 63.837 121.41 15.938 8.258 34.528-5.191 31.786-22.931-1.862-12.04-2.947-23.558-3.306-34.566z" fill="#f49634"/><path d="m190.649 256.164c-2.144 1.322-4.468 2.428-6.951 3.279-17.992 6.16-37.572-3.432-43.732-21.424s3.432-37.571 21.424-43.732c12.674-4.339 26.135-.863 35.138 7.86z" fill="#f5dbcd"/><path d="m270.831 83.173c7.482 10.836 7.778 27.039-1.509 36.374-5.532 5.561-13.374 8.014-20.885 10.274-17.841 5.368-35.683 10.736-53.524 16.104-3.228.971-6.866 1.908-9.83.304-3.982-2.155-4.547-7.568-4.366-12.092.761-19.038 6.633-55.524 24.976-66.691 18.58-11.312 53.34-1.361 65.138 15.727z" fill="#f49634"/><path d="m253.517 198.236c-3.205 0-6.199-2.013-7.295-5.215l-4.831-14.111c-1.38-4.029.769-8.414 4.798-9.794 4.03-1.382 8.414.768 9.793 4.797l4.831 14.111c1.38 4.029-.768 8.414-4.797 9.794-.828.284-1.671.418-2.499.418z" fill="#3f4750"/><path d="m256.192 448.377c14.693 0 26.125-12.795 24.442-27.391-7.473-64.817-61.189-153.851-123.949-105.471-19.188 14.791-31.124 37.415-37.379 60.821-3.975 14.876-5.863 30.165-6.982 45.548-1.039 14.294 10.191 26.494 24.523 26.494h119.345z" fill="#928fd4"/><path d="m266.949 346.243c-26.457 3.18-51.23.453-77.701-5.167-10.753-2.283-17.525-12.927-14.419-23.472 2.709-9.197 12.092-14.891 21.624-12.856 46.984 10.036 83.198 9.668 139.907-20.96 8.999-4.859 20.231-1.504 25.091 7.493 4.859 8.997 1.505 20.231-7.493 25.091-32.844 17.738-60.756 26.715-87.009 29.871z" fill="#f5dbcd"/><path d="m191.967 293.505h33.426c8.988 0 16.274 7.286 16.274 16.274v36.13c0 8.988-7.286 16.274-16.274 16.274h-33.426c-16.984 0-30.752-13.768-30.752-30.752v-7.175c0-16.983 13.768-30.751 30.752-30.751z" fill="#b9a0db"/><path d="m436.319 111.183c-10.975 2.069-18.201 12.645-16.134 23.621 2.068 10.979 12.644 18.202 23.622 16.134 13.209-2.487 26.922-6.539 40.101-12.281 8.081-3.521 15.957-7.68 23.39-12.501 2.308-1.497 3.701-4.065 3.701-6.816v-29.785c0-6.766-7.832-10.6-13.116-6.373-22.449 17.959-53.721 26.522-61.564 28.001z" fill="#f5dbcd"/><path d="m324.3 199.734c-.672-5.747-1.805-11.378-3.353-16.854-2.897 3.486-14.401 9.986-25.264 9.986-4.259 0-7.711 3.452-7.711 7.711s3.452 7.711 7.711 7.711c9.643.001 20.515-3.519 28.617-8.554z" fill="#3f4750"/><circle cx="191.969" cy="259.327" fill="#f0c9bc" r="3.426"/></svg>