<svg id="Layer_1" enable-background="new 0 0 511 511" height="512" viewBox="0 0 511 511" width="512" xmlns="http://www.w3.org/2000/svg"><path d="m143.383 225.548h-120.769c-12.489 0-22.614-10.125-22.614-22.615v-62.108c0-68.219 55.303-123.522 123.522-123.522h19.861z" fill="#4b555f"/><path d="m367.617 225.548h120.769c12.49 0 22.614-10.125 22.614-22.614v-62.108c0-68.219-55.303-123.522-123.522-123.522h-19.861z" fill="#4b555f"/><path d="m437.525 163.129c-16.344.306-61.547.981-69.908.417v62.003h120.132c1.32 0 2.613-.116 3.873-.327-6.704-6.643-33.858-40.815-45.114-57.431-2.017-2.978-5.388-4.73-8.983-4.662z" fill="#3f4750"/><path d="m73.475 163.129c16.344.306 61.547.981 69.908.417v62.003h-120.131c-1.32 0-2.613-.116-3.873-.327 6.704-6.643 33.858-40.815 45.114-57.431 2.016-2.978 5.387-4.73 8.982-4.662z" fill="#3f4750"/><path d="m376.417 17.216-44.173.063c-8.57.012-16.128 5.884-17.975 14.253-6.819 30.883-33.346 46.196-58.769 46.196-25.11 0-52.005-17.391-58.797-46.172-1.97-8.349-9.396-14.265-17.974-14.277l-44.146-.063c-34.734 0-62.891 28.157-62.891 62.891v383.231c0 16.814 13.631 30.445 30.445 30.445h306.727c16.814 0 30.445-13.631 30.445-30.445v-383.231c-.001-34.733-28.158-62.891-62.892-62.891z" fill="#6f8197"/><path d="m284.451 233.051v-79.097c0-15.732-12.52-28.739-28.249-29.044-.22-.004-.439-.008-.659-.011-16.021-.206-28.995 13.026-28.995 29.048v79.848c18.907 5.485 39.113 5.226 57.903-.744z" fill="#dde9ed"/><path d="m354.274 302.191h-197.548c-6.232 18.79-6.503 38.997-.777 57.903h199.102c5.725-18.907 5.455-39.113-.777-57.903z" fill="#dde9ed"/><path d="m255.5 450.696c-65.922 0-119.555-53.632-119.555-119.555s53.633-119.553 119.555-119.553 119.555 53.631 119.555 119.554-53.633 119.554-119.555 119.554zm0-197.981c-43.245 0-78.428 35.183-78.428 78.427 0 43.245 35.183 78.428 78.428 78.428s78.428-35.183 78.428-78.428-35.183-78.427-78.428-78.427z" fill="#fff"/><path d="m71.692 313.453v149.885c0 16.814 13.631 30.445 30.445 30.445h102.03c-105.526-57.105-132.475-180.33-132.475-180.33z" fill="#56697e"/></svg>