<svg id="Layer_1" enable-background="new 0 0 510.999 510.999" height="512" viewBox="0 0 510.999 510.999" width="512" xmlns="http://www.w3.org/2000/svg"><path d="m8.996 215.191c-11.995 11.995-11.995 31.443 0 43.438 11.995 11.995 31.443 11.995 43.438 0l129.121-129.121c-23.873-23.873-62.568-23.908-86.485-.079z" fill="#4b555f"/><path d="m502.003 295.809c11.995-11.995 11.995-31.443 0-43.438-11.995-11.995-31.443-11.995-43.438 0l-129.121 129.121c23.873 23.873 62.568 23.908 86.485.079z" fill="#4b555f"/><path d="m427.458 347.737c10.825-27.292 18.343-55.482 20.406-84.666l-118.42 118.421c22.139 22.139 57.016 23.762 81.041 4.879 6.199-12.625 11.793-25.576 16.973-38.634z" fill="#3f4750"/><path d="m83.542 163.262c-10.825 27.292-18.343 55.482-20.406 84.666l118.421-118.421c-22.139-22.139-57.016-23.762-81.041-4.879-6.201 12.626-11.795 25.576-16.974 38.634z" fill="#3f4750"/><path d="m375.139 135.861c-66.075-66.075-173.203-66.075-239.278 0s-66.075 173.203 0 239.278 173.203 66.075 239.278 0 66.075-173.203 0-239.278zm-45.651 193.627c-40.863 40.863-107.114 40.863-147.976 0s-40.862-107.114 0-147.976c40.863-40.862 107.114-40.862 147.976 0s40.862 107.113 0 147.976z" fill="#4b555f"/><circle cx="255.5" cy="255.5" fill="#3f4750" r="46.681"/></svg>