<svg id="Layer_1" enable-background="new 0 0 511 511" height="512" viewBox="0 0 511 511" width="512" xmlns="http://www.w3.org/2000/svg"><path d="m45.632 268.749c0-115.906 93.96-209.867 209.866-209.867 115.835-.001 209.275 92.939 209.866 208.773.17 33.218-7.509 64.904-21.086 92.873 24.17 10.658 52.371-3.112 58.874-28.714 5.262-20.716 7.993-42.442 7.842-64.831-.949-140.196-115.88-254.047-256.078-253.733-140.84.315-254.916 114.585-254.916 255.499 0 22.05 2.794 43.447 8.046 63.857 6.6 25.649 34.713 39.171 58.862 28.297-13.62-27.82-21.276-59.091-21.276-92.154z" fill="#ef7d92"/><path d="m255.5 58.881c-115.907 0-209.868 93.961-209.868 209.867 0 33.063 7.656 64.334 21.276 92.154l40.188-18.096c-11.146-22.292-17.428-47.44-17.428-74.058 0-91.586 74.245-165.832 165.832-165.832s165.832 74.246 165.832 165.832c0 26.492-6.302 51.686-17.348 73.899l40.295 17.88c13.428-27.662 21.089-58.964 21.089-91.778 0-115.907-93.961-209.868-209.868-209.868z" fill="#f7ad55"/><path d="m135.289 268.749c0-66.391 53.82-120.211 120.211-120.211s120.211 53.82 120.211 120.211c0 19.942-4.862 38.748-13.456 55.304l41.728 18.595c11.047-22.213 17.348-47.407 17.348-73.899 0-91.586-74.245-165.832-165.832-165.832s-165.831 74.245-165.831 165.832c0 26.619 6.282 51.766 17.428 74.058l41.649-18.754c-8.595-16.556-13.456-35.361-13.456-55.304z" fill="#f9ef90"/><path d="m255.5 148.537c-66.391 0-120.211 53.82-120.211 120.211 0 19.943 4.862 38.748 13.456 55.305l42.399-19.092c-6.035-10.702-9.495-23.05-9.495-36.213 0-40.787 33.064-73.851 73.851-73.851s73.851 33.064 73.851 73.851c0 13.292-3.439 25.595-9.585 36.37l42.49 18.934c8.594-16.556 13.456-35.362 13.456-55.304-.001-66.39-53.821-120.211-120.212-120.211z" fill="#7ce0cf"/><path d="m225.901 268.749c0-16.347 13.252-29.599 29.599-29.599s29.599 13.252 29.599 29.599c0 6.973-2.191 13.09-6.225 18.148l40.892 18.222c6.146-10.775 9.585-23.078 9.585-36.37 0-40.787-33.064-73.851-73.851-73.851s-73.851 33.064-73.851 73.851c0 13.163 3.46 25.511 9.495 36.213l40.756-18.352c-3.763-4.965-5.999-11.151-5.999-17.861z" fill="#99ddfc"/><path d="m21.878 354.615c12.046 10.123 29.368 13.34 45.03 6.288-10.931-22.328-18.009-46.883-20.382-72.8-14.183 19.877-22.873 42.894-24.648 66.512z" fill="#eb6773"/><path d="m91.231 245.997c-14.579 9.324-27.704 20.934-38.614 34.152-2.135 2.586-4.158 5.244-6.092 7.954 2.373 25.917 9.451 50.471 20.382 72.8l40.188-18.096c-11.146-22.292-17.428-47.44-17.428-74.058.001-7.72.542-15.313 1.564-22.752z" fill="#f49634"/><path d="m143.743 224.424c-18.597 3.807-36.44 11.294-52.512 21.572-1.022 7.439-1.563 15.032-1.563 22.752 0 26.619 6.282 51.766 17.428 74.058l41.649-18.754c-8.595-16.556-13.456-35.362-13.456-55.305 0-15.655 3.008-30.605 8.454-44.323z" fill="#f4d37f"/><path d="m196.612 224.239c-7.988-1.694-16.168-2.599-24.43-2.655-9.585-.065-19.106.93-28.439 2.84-5.446 13.717-8.455 28.667-8.455 44.324 0 19.943 4.862 38.748 13.456 55.305l42.399-19.092c-6.035-10.702-9.495-23.05-9.495-36.213.001-16.725 5.588-32.131 14.964-44.509z" fill="#55cb94"/><path d="m196.612 224.239c-9.376 12.379-14.963 27.784-14.963 44.51 0 13.163 3.46 25.511 9.495 36.213l40.756-18.352c-3.763-4.965-5.999-11.151-5.999-17.861 0-10.234 5.195-19.255 13.092-24.571-16.634-12.119-31.653-17.665-42.381-19.939z" fill="#66cdf7"/><path d="m489.083 354.116c-12.046 10.123-29.142 13.463-44.804 6.411 10.931-22.328 17.822-46.507 20.195-72.424 14.183 19.877 22.834 42.396 24.609 66.013z" fill="#eb6773"/><path d="m419.769 245.997c14.579 9.324 27.704 20.934 38.614 34.152 2.135 2.586 4.158 5.244 6.092 7.954-2.373 25.917-9.264 50.095-20.195 72.424l-40.295-17.88c11.146-22.292 17.348-47.28 17.348-73.899-.001-7.719-.542-15.312-1.564-22.751z" fill="#f49634"/><path d="m367.257 224.424c18.597 3.807 36.44 11.294 52.512 21.572 1.022 7.439 1.563 15.032 1.563 22.752 0 26.619-6.202 51.607-17.348 73.899l-41.728-18.595c8.595-16.556 13.456-35.361 13.456-55.304-.001-15.656-3.009-30.606-8.455-44.324z" fill="#f4d37f"/><path d="m314.388 224.239c7.988-1.694 16.168-2.599 24.43-2.655 9.585-.065 19.106.93 28.439 2.84 5.446 13.717 8.455 28.667 8.455 44.324 0 19.943-4.861 38.748-13.456 55.304l-42.49-18.934c6.035-10.702 9.585-23.207 9.585-36.37 0-16.725-5.587-32.131-14.963-44.509z" fill="#55cb94"/><path d="m314.388 224.239c9.376 12.379 14.963 27.784 14.963 44.51 0 13.163-3.55 25.668-9.585 36.37l-40.892-18.222c3.763-4.965 6.225-11.438 6.225-18.148 0-10.234-5.195-19.255-13.092-24.571 16.634-12.119 31.653-17.665 42.381-19.939z" fill="#66cdf7"/><path d="m329.866 249.928c-17.236 0-33.316 5.098-46.895 13.91-16.715 10.847-38.226 10.847-54.941 0-13.579-8.812-29.659-13.91-46.895-13.91-48.652 0-88.092 40.615-88.092 90.716 0 73.18 81.939 117.782 134.987 148.654 18.351 10.68 36.835 11.812 55.7.1 50.398-31.286 134.228-79.78 134.228-148.754 0-50.101-39.44-90.716-88.092-90.716z" fill="#b9a0db"/><path d="m136.225 360.679c-2.947-23.778.376-51.958 15.929-71.063 8.44-10.368 20.211-18.169 32.749-22.654 12.516-4.477 25.731-4.85 38.87-4.865.115-.212.218-.433.335-.644-12.713-7.333-27.366-11.524-42.974-11.524-48.652 0-88.092 40.615-88.092 90.716 0 62.764 60.273 104.506 110.899 134.594-33.249-30.228-62.1-69.25-67.716-114.56z" fill="#928fd4"/></svg>