<svg id="Layer_1" enable-background="new 0 0 511 511" height="512" viewBox="0 0 511 511" width="512" xmlns="http://www.w3.org/2000/svg"><path d="m245.253 478.106 35.968 7.793 11.198-51.68-35.968-7.793c-13.88-3.007-27.57 5.806-30.577 19.686l-.307 1.416c-3.008 13.881 5.806 27.571 19.686 30.578z" fill="#7ce0cf"/><path d="m225.566 447.529.307-1.416c3.007-13.88 16.697-22.694 30.577-19.686l.599.13c-1.237 15.669 5.287 30.727 20.26 37.276 2.522 1.103 5.236 2.096 8.055 2.942l-4.144 19.125-35.968-7.793c-13.879-3.008-22.693-16.698-19.686-30.578z" fill="#55cb94"/><path d="m256.206 427.16 35.968 7.793 11.198-51.68-35.968-7.793c-13.88-3.007-27.57 5.806-30.577 19.686l-.307 1.416c-3.007 13.881 5.807 27.571 19.686 30.578z" fill="#99ddfc"/><path d="m236.52 396.583.307-1.416c3.007-13.88 16.697-22.694 30.577-19.686l.599.13c-1.237 15.669 5.287 30.727 20.26 37.276 2.522 1.103 5.236 2.096 8.055 2.942l-4.144 19.125-35.968-7.793c-13.879-3.008-22.693-16.698-19.686-30.578z" fill="#66cdf7"/><path d="m322.721 119.407-210.862-116.385c-14.151-7.811-31.831.223-35.254 16.021l-47.2 217.837c-3.368 15.545 8.958 30.042 24.843 29.217l239.384-12.438z" fill="#f9ef90"/><path d="m29.405 236.88 47.2-217.837c3.423-15.798 21.103-23.832 35.254-16.021l32.313 17.835c-.142.681-.263 1.367-.335 2.056-2.534 24.203-.205 48.478 10.34 70.626 8.275 17.379 21.931 31.977 36.745 44.011 19.956 16.21 41.925 30.224 65.098 41.362 16.12 7.748 32.719 14.051 49.907 18l-12.296 56.747-239.383 12.437c-15.885.826-28.211-13.671-24.843-29.216z" fill="#f4d37f"/><path d="m409.644 222.917-6.118 253.954c-.315 13.069-10.272 23.879-23.272 25.264l-81.801 8.714c-17.767 1.893-32.118-14.264-28.143-31.683l75.6-331.306z" fill="#b9a0db"/><path d="m270.311 479.165 75.6-331.306 63.734 75.058-2.69 111.654c-11.717 4.284-22.607 10.563-31.781 19.184-20.299 19.076-28.105 46.539-33.205 73.009-5.112 26.532-8.559 53.492-10.03 80.518l-33.485 3.567c-17.768 1.893-32.118-14.264-28.143-31.684z" fill="#928fd4"/><path d="m400.602 276.836-44.056-9.546c-9.623-2.085-15.733-11.576-13.648-21.198l21.465-99.065c2.085-9.623 11.576-15.733 21.198-13.648l44.056 9.546c35.965 7.793 58.804 43.266 51.011 79.231l-.795 3.669c-7.792 35.966-43.265 58.804-79.231 51.011z" fill="#ef7d92"/><path d="m342.899 246.092 21.465-99.065c2.085-9.623 11.576-15.733 21.198-13.648l40.299 8.732c-7.781 24.487-1.672 52.526 9.801 74.815 6.254 12.149 15.214 23.271 24.956 32.799 1.68 1.643 3.419 3.218 5.182 4.766-15.389 18.347-40.168 27.769-65.197 22.346l-44.056-9.546c-9.623-2.085-15.733-11.576-13.648-21.199z" fill="#eb6773"/><path d="m281.494 331.599 3.622.785c35.505 7.693 70.523-14.853 78.216-50.358l34.506-159.252c7.693-35.505-14.853-70.523-50.358-78.217l-3.622-.785c-35.505-7.693-70.523 14.853-78.216 50.358l-34.506 159.252c-7.692 35.505 14.854 70.524 50.358 78.217z" fill="#f7ad55"/><path d="m231.137 253.383 34.506-159.253c7.617-35.153 42.021-57.583 77.161-50.558-7.783 19.743-11.814 40.437-16.401 61.215-4.899 22.193-9.801 44.344-13.762 66.732-3.486 19.701-8.612 40.726-7.031 60.835 1.68 21.361 11.536 42.796 30.443 54.175 7.17 4.315 15.112 6.66 23.276 7.902-12.265 28.157-43.049 44.706-74.214 37.953l-3.622-.785c-35.503-7.693-58.049-42.712-50.356-78.216z" fill="#f49634"/></svg>