<svg id="Layer_1" enable-background="new 0 0 511 511" height="512" viewBox="0 0 511 511" width="512" xmlns="http://www.w3.org/2000/svg"><path d="m393.898 317.723c9.733-10.796 15.661-25.088 15.661-40.767 0-33.639-27.27-60.909-60.909-60.909-5.461 0-10.75.73-15.786 2.078.019-.69.03-1.383.03-2.078-.534-38.905-33.377-74.551-74.551-74.551-40.276 0-73.086 31.94-74.497 71.871-5.326-1.393-10.913-2.14-16.676-2.14-36.301 0-65.729 29.428-65.729 65.729 0 15.405 5.314 29.561 14.19 40.767z" fill="#ef7d92"/><path d="m401.303 253.379c-27.403.578-54.83 3.121-82.238 2.901-11.861-.095-23.805-.9-35.598-2.207-11.653-1.291-22.076-3.855-31.401-11.308-16.545-13.223-22.18-36.366-24.256-56.44-1.356-13.111-.465-27.445 4.305-40.051-27.433 10.314-47.18 36.317-48.268 67.092-5.326-1.393-10.913-2.14-16.676-2.14-36.301 0-65.729 29.428-65.729 65.729 0 15.405 5.314 29.561 14.19 40.767h278.267c9.733-10.795 15.661-25.088 15.661-40.767 0-8.397-1.711-16.389-4.788-23.663-1.157.032-2.313.062-3.469.087z" fill="#eb6773"/><circle cx="74.679" cy="357.157" fill="#f0c9bc" r="48.821"/><circle cx="436.321" cy="357.157" fill="#f0c9bc" r="48.821"/><path d="m138.587 478.163c-40.627-30.902-69.617-81.296-69.617-135.976v-34.181c0-13.826 11.208-25.033 25.033-25.033h322.992c13.826 0 25.033 11.208 25.033 25.033v34.181c.002 92.847-75.964 168.813-168.812 168.813h-35.432c-24.858 0-48.507-5.445-69.811-15.202l-5.015-2.762z" fill="#f5dbcd"/><path d="m146.047 381.198c13.729-10.864 28.361-19.459 44.63-25.95 15.774-6.293 32.687-9.368 49.449-11.654 39.608-5.401 79.503-3.063 119.369-2.685 28.31.268 65.953 1.437 82.556 1.271v-34.75c0-13.512-10.974-24.458-24.486-24.458h-324.129c-13.512 0-24.465 10.953-24.465 24.465v34.749c0 35.664 12.338 69.499 32.187 97.297 9.665-22.684 25.189-42.697 44.889-58.285z" fill="#f0c9bc"/><ellipse cx="148.032" cy="374.892" fill="#ec9eb0" rx="32.324" ry="25.741"/><ellipse cx="363.675" cy="374.892" fill="#ec9eb0" rx="32.324" ry="25.741"/><g fill="#3f4750"><path d="m278.821 353.189-46.533.204c-4.825.021-8.719 3.949-8.698 8.774l.102 23.267c.078 17.674 14.467 31.939 32.142 31.862s31.939-14.468 31.863-32.142l-.102-23.267c-.02-4.826-3.948-8.719-8.774-8.698z"/><path d="m163.612 326.18c-.011 0-.023 0-.034 0-4.259.019-7.696 3.486-7.678 7.745l.064 14.514c.019 4.247 3.468 7.677 7.711 7.677h.034c4.259-.019 7.696-3.486 7.678-7.745l-.064-14.514c-.019-4.248-3.468-7.677-7.711-7.677z"/><path d="m355.036 333.051c-.019-4.248-3.467-7.678-7.71-7.678-.012 0-.023 0-.034 0-4.259.019-7.696 3.486-7.678 7.744l.063 14.514c.019 4.248 3.467 7.678 7.71 7.678h.034c4.259-.019 7.696-3.486 7.678-7.744z"/></g><path d="m112.04 106.661c-13.549-.113-22.744-13.996-17.931-26.662 35.968-80.801 113.357-80.355 159.709-79.939 52.288.469 141.447 1.015 163.639 79.938 3.486 12.397-5.982 26.77-18.859 26.662h-286.558z" fill="#f5dbcd"/><path d="m180.88 72.678c13.427-15.773 28.652-29.941 44.757-42.938 13.057-10.539 26.506-20.757 40.831-29.535-4.402-.072-8.636-.109-12.65-.145-46.352-.416-123.741-.862-159.709 79.938-4.813 12.666 4.382 26.549 17.931 26.662h44.391c7.125-11.931 15.284-23.216 24.449-33.982z" fill="#f0c9bc"/></svg>