<svg id="Layer_1" enable-background="new 0 0 511 511" height="512" viewBox="0 0 511 511" width="512" xmlns="http://www.w3.org/2000/svg"><path d="m459.006 501.09h-6.299c-14.407 0-26.086-11.679-26.086-26.086v-416.689h58.47v416.689c0 14.407-11.679 26.086-26.085 26.086z" fill="#e7bb9f"/><path d="m58.293 501.09h-6.299c-14.407 0-26.086-11.679-26.086-26.086v-416.689h58.47v416.689c.001 14.407-11.678 26.086-26.085 26.086z" fill="#e7bb9f"/><path d="m84.379 300.327v-242.012h-58.47v262.736c18.947-8.327 38.508-15.251 58.47-20.724z" fill="#d9a37d"/><path d="m426.621 300.327v-242.012h58.47v262.736c-18.947-8.327-38.508-15.251-58.47-20.724z" fill="#d9a37d"/><path d="m39.547 265.199c114.951-40.918 331.204-37.253 430.868 3.526 19.375 7.928 40.585-6.432 40.585-27.367v-160.25c0-9.801-4.838-18.991-12.973-24.456-85.205-57.228-364.25-64.097-481.366-8.411-10.224 4.861-16.661 15.256-16.661 26.577v162.615c0 20.46 20.271 34.628 39.547 27.766z" fill="#fef2d3"/><path d="m478.681 151.095c-102.646-25.872-213.049-35.829-317.812-20.071-9.285 1.397-18.064 3.209-27.047 5.861-8.36 2.468-16.753 4.897-25.374 6.276-19.943 3.189-40.687.512-50.648-19.435-8.53-17.081-9.321-37.509-8.94-56.247.221-10.854 1.06-21.668 2.143-32.461-12.532 3.932-24.063 8.335-34.342 13.223-10.224 4.861-16.661 15.256-16.661 26.577v162.615c0 20.46 20.271 34.628 39.547 27.766 114.951-40.918 331.204-37.253 430.868 3.526 19.375 7.928 40.585-6.432 40.585-27.367v-81.886c-10.763-2.897-21.561-5.666-32.319-8.377z" fill="#ffe2c2"/><path d="m283.38 62.798c-8.627 0-16.676 2.552-23.473 6.962-8.366 5.429-19.134 5.429-27.5 0-6.797-4.411-14.845-6.962-23.473-6.962-24.352 0-44.093 20.329-44.093 45.406 0 36.629 41.013 58.954 67.566 74.406 9.185 5.346 18.437 5.912 27.88.05 25.226-15.66 67.186-39.932 67.186-74.456 0-25.077-19.741-45.406-44.093-45.406z" fill="#ef7d92"/><path d="m323.809 125.692c-10.757 25.413-42.79 44.1-63.521 56.969-9.443 5.862-18.694 5.295-27.88-.05-20.897-12.161-50.75-28.579-62.52-52.875 62.208-9.572 153.921-4.044 153.921-4.044z" fill="#eb6773"/></svg>