<svg id="Layer_1" enable-background="new 0 0 511 511" height="512" viewBox="0 0 511 511" width="512" xmlns="http://www.w3.org/2000/svg"><path d="m164.076 511h-104.141c-17.544 0-31.766-14.222-31.766-31.766v-420.136c0-17.544 14.222-31.766 31.766-31.766h104.141z" fill="#f9ef90"/><path d="m451.065 511h-286.989v-483.668h286.989c17.544 0 31.766 14.222 31.766 31.766v420.136c0 17.544-14.222 31.766-31.766 31.766z" fill="#fffdde"/><path d="m404.165 132.298c.121.126.237.254.348.385v-.385z" fill="#b9a0db"/><path d="m412.225 116.876h-51.975c-4.259 0-7.711 3.452-7.711 7.711s3.452 7.711 7.711 7.711h32.795l-46.38 46.38c-9.832-7.495-21.775-11.563-34.349-11.563-15.177 0-29.444 5.91-40.177 16.641-22.152 22.153-22.152 58.199.001 80.353 9.176 9.176 20.737 14.539 32.706 16.113v39.506h-24.09c-4.259 0-7.711 3.452-7.711 7.711s3.452 7.711 7.711 7.711h24.09v21.141c0 4.259 3.452 7.711 7.711 7.711s7.711-3.452 7.711-7.711v-21.141h24.09c4.259 0 7.711-3.452 7.711-7.711s-3.452-7.711-7.711-7.711h-24.09v-39.563c11.797-1.654 23.17-7.003 32.224-16.055 10.732-10.732 16.641-25 16.641-40.177 0-12.574-4.068-24.517-11.562-34.349l46.492-46.492c.16-.16.307-.328.45-.498v32.843c0 4.259 3.452 7.711 7.711 7.711s7.711-3.452 7.711-7.711v-50.85c.001-4.259-3.451-7.711-7.71-7.711zm-129.179 136.329c-16.139-16.14-16.139-42.402 0-58.541 7.819-7.819 18.214-12.125 29.271-12.125 11.054 0 21.446 4.303 29.263 12.118.002.002.004.005.006.007s.005.004.007.007c7.815 7.817 12.118 18.209 12.118 29.263 0 11.057-4.306 21.452-12.125 29.271-16.14 16.138-42.402 16.136-58.54 0zm121.119-120.907h.348v.385c-.11-.131-.227-.259-.348-.385z" fill="#b9a0db"/><path d="m406.67 419.02h-166.588c-4.259 0-7.711 3.452-7.711 7.711s3.452 7.711 7.711 7.711h166.588c4.259 0 7.711-3.452 7.711-7.711s-3.452-7.711-7.711-7.711z" fill="#f3d37e"/><path d="m184.316 162.538-20.24-18.245-20.24 18.245c-9.771 8.808-25.357 1.874-25.357-11.281v-121.291c0-16.55 13.416-29.966 29.965-29.966h31.263c16.55 0 29.966 13.416 29.966 29.966v121.291c0 13.155-15.586 20.089-25.357 11.281z" fill="#b9a0db"/><path d="m116.366 267.804c-30.671-75.732-44.096-159.812-28.57-240.472h-27.861c-17.544 0-31.766 14.222-31.766 31.766v420.136c0 17.544 14.222 31.766 31.766 31.766h104.141v-149.525c-18.558-29.73-34.521-61.104-47.71-93.671z" fill="#f3d37e"/><path d="m260.57 478.963c-37.267-34.786-69.606-74.411-96.494-117.488v149.525h134.052c-12.959-10.152-25.524-20.804-37.558-32.037z" fill="#fdf3b4"/><path d="m193.86 109.294c-25.322-5.626-39.528-31.408-45.391-54.58-4.457-17.617-5.901-36.188-4.381-54.395-14.484 2.11-25.609 14.578-25.609 29.647v121.291c0 13.155 15.586 20.089 25.357 11.281l20.24-18.245 20.24 18.245c9.771 8.808 25.357 1.874 25.357-11.281v-40.817c-5.207.369-10.496.035-15.813-1.146z" fill="#928fd4"/></svg>