<svg id="Layer_1" enable-background="new 0 0 511 511" height="512" viewBox="0 0 511 511" width="512" xmlns="http://www.w3.org/2000/svg"><path d="m304.269 94.119-30.117-49.306c-8.521-13.951-28.782-13.951-37.303 0l-30.117 49.306 48.769 9.978z" fill="#ef7d92"/><path d="m162.56 170.625 92.94 10.836 92.94-10.836-44.171-76.506h-97.538z" fill="#f7ad55"/><path d="m118.389 247.131 137.111 13.015 137.111-13.015-44.171-76.506h-185.88z" fill="#f9ef90"/><path d="m74.218 323.637 181.282 12.552 181.282-12.552-44.171-76.506h-274.222z" fill="#7ce0cf"/><path d="m30.048 400.144 229.298 12.488 221.606-12.488-44.17-76.507h-362.564z" fill="#99ddfc"/><path d="m30.048 400.144-27.429 47.508c-7.441 12.888 1.86 28.999 16.742 28.999h472.278c14.882 0 24.183-16.11 16.742-28.999l-27.429-47.508z" fill="#b9a0db"/><path d="m268.71 38.773c-9.827-7.472-24.834-5.465-31.862 6.04l-30.117 49.306 47.506 9.719c4.543-21.778 9.42-43.47 14.473-65.065z" fill="#eb6773"/><path d="m256.291 94.119h-49.56l-44.171 76.506 77.522 9.038c4.641-28.64 10.158-57.166 16.209-85.544z" fill="#f49634"/><path d="m241.575 170.625h-79.015l-44.171 76.506 111.518 10.586c2.784-29.13 6.794-58.171 11.668-87.092z" fill="#f4d37f"/><path d="m230.966 247.131h-112.577l-44.171 76.506 151.433 10.485c.365-29.066 2.259-58.073 5.315-86.991z" fill="#55cb94"/><path d="m228.205 407.873c-2.378-28.117-3.045-56.205-2.345-84.236h-151.642l-44.171 76.506 198.433 10.807c-.091-1.025-.189-2.05-.275-3.077z" fill="#66cdf7"/><path d="m228.205 407.873c-.218-2.577-.397-5.153-.586-7.73h-197.571l-27.429 47.508c-7.441 12.888 1.86 28.999 16.742 28.999h218.122c-4.242-22.747-7.327-45.707-9.278-68.777z" fill="#928fd4"/></svg>