<svg id="Layer_1" enable-background="new 0 0 511 511" height="512" viewBox="0 0 511 511" width="512" xmlns="http://www.w3.org/2000/svg"><path d="m254.472 479.904c-10.744 0-19.453-8.709-19.453-19.453v-197.183c0-10.744 8.709-19.453 19.453-19.453s19.453 8.709 19.453 19.453v197.182c0 10.744-8.709 19.454-19.453 19.454z" fill="#fef2d3"/><path d="m273.925 369.361v-106.093c0-10.744-8.709-19.453-19.454-19.453-10.744 0-19.453 8.709-19.453 19.453v106.093z" fill="#ffe2c2"/><path d="m141.84 441.947c-5.852 0-11.637-2.629-15.467-7.637-23.208-30.348-41.894-131.067-29.805-200.995 1.829-10.586 11.894-17.688 22.483-15.855 10.587 1.83 17.685 11.896 15.855 22.484-10.917 63.148 8.072 152.032 22.372 170.732 6.527 8.535 4.899 20.743-3.635 27.27-3.527 2.696-7.682 4.001-11.803 4.001z" fill="#fef2d3"/><path d="m134.943 330.256c-3.849-29.627-4.851-62.47-.037-90.313 1.83-10.587-5.268-20.653-15.855-22.483-10.589-1.833-20.654 5.269-22.483 15.855-4.826 27.915-4.744 60.736-1.431 92.029 13.125 2.57 26.41 4.03 39.806 4.912z" fill="#ffe2c2"/><path d="m83.749 258.403c-16.371 29.786-9.565 52.428 12.831 44.443 16.805-5.991 15.85-6.917 32.289.676s28.068-19.958 6.667-46.329z" fill="#eb6773"/><path d="m46.098 53.097c16.481-13.542 39.364-22 60.813-22 59.046 0 106.912 52.259 106.912 116.723s-47.866 116.723-106.912 116.723-106.911-52.259-106.911-116.723c0-25.294 7.369-48.709 19.892-67.826 6.39-9.755 16.505-19.379 26.206-26.897z" fill="#ef7d92"/><path d="m370.189 441.947c-4.122 0-8.276-1.304-11.803-4.002-8.534-6.527-10.162-18.735-3.635-27.27 14.301-18.7 33.289-107.584 22.372-170.732-1.83-10.587 5.268-20.653 15.855-22.484 10.592-1.825 20.653 5.269 22.483 15.855 12.089 69.928-6.597 170.647-29.805 200.995-3.83 5.008-9.616 7.638-15.467 7.638z" fill="#fef2d3"/><path d="m376.941 331.345c16.806-2.966 38.779-4.349 39.784-4.416 3.479-31.767 3.643-65.228-1.264-93.614-1.83-10.586-11.891-17.68-22.483-15.855-10.587 1.83-17.685 11.896-15.855 22.483 4.872 28.185 3.785 61.493-.182 91.402z" fill="#ffe2c2"/><path d="m427.251 258.403c16.371 29.786 9.565 52.428-12.831 44.443-16.805-5.991-15.85-6.917-32.289.676s-28.616-18.146-7.216-44.517z" fill="#55cb94"/><ellipse cx="404.088" cy="147.82" fill="#7ce0cf" rx="106.912" ry="116.723"/><path d="m351.859 45.949c-2.645.949-9.354 6.487-10.106 7.043-26.992 21.187-44.576 55.762-44.576 94.827 0 64.465 47.854 116.797 106.912 116.794.232 0 .462-.008.693-.01 28.538-64.071 5.07-186.107-52.923-218.654z" fill="#55cb94"/><path d="m159.141 45.949c2.645.949 9.354 6.487 10.106 7.043 26.992 21.187 44.576 55.762 44.576 94.827 0 64.465-48.515 116.797-106.912 116.794-.232 0-.462-.008-.693-.01-28.538-64.071-5.07-186.107 52.923-218.654z" fill="#eb6773"/><path d="m283.197 294.042c16.371 29.786 9.565 52.428-12.831 44.443-16.805-5.991-15.85-6.917-32.289.676s-29.553-15.966-8.152-42.337z" fill="#f4d37f"/><ellipse cx="255.5" cy="183.459" fill="#f9ef90" rx="106.912" ry="116.723"/><path d="m200.926 272.19c-1.282-12.708-.394-25.606 1.231-38.24 6.413-49.854 21.764-100.594 50.274-142.413 5.695-8.353 11.934-16.209 18.69-23.557-5.1-.815-10.315-1.244-15.622-1.244-59.046 0-106.912 52.259-106.912 116.723 0 43.559 21.857 81.54 54.248 101.596-.885-4.274-1.48-8.606-1.909-12.865z" fill="#f4d37f"/><g fill="#3f4750"><path d="m186.674 173.007c-4.142 0-7.5 3.357-7.5 7.5v10.875c0 4.143 3.358 7.5 7.5 7.5s7.5-3.357 7.5-7.5v-10.875c0-4.143-3.358-7.5-7.5-7.5z"/><path d="m324.326 173.007c-4.142 0-7.5 3.357-7.5 7.5v10.875c0 4.143 3.358 7.5 7.5 7.5s7.5-3.357 7.5-7.5v-10.875c0-4.143-3.358-7.5-7.5-7.5z"/><ellipse cx="255.5" cy="203.505" rx="17.736" ry="21.001"/></g></svg>