<svg id="Layer_1" enable-background="new 0 0 511 511" height="512" viewBox="0 0 511 511" width="512" xmlns="http://www.w3.org/2000/svg"><path d="m109.374 394.741-5.251 17.928c-.894 3.053-.894 6.299 0 9.352l5.251 17.928c3.697 12.621-8.021 24.338-20.642 20.642l-17.928-5.251c-3.053-.894-6.299-.894-9.352 0l-17.928 5.251c-12.621 3.697-24.338-8.021-20.642-20.642l5.251-17.928c.894-3.053.894-6.299 0-9.352l-5.251-17.928c-3.697-12.621 8.021-24.338 20.642-20.642l17.928 5.251c3.053.894 6.299.894 9.352 0l17.928-5.251c12.621-3.696 24.338 8.021 20.642 20.642z" fill="#f4d37f"/><path d="m422.269 150.968 17.928 5.251c3.053.894 6.299.894 9.352 0l17.928-5.251c12.621-3.697 24.338 8.021 20.642 20.642l-5.251 17.928c-.894 3.053-.894 6.299 0 9.352l5.251 17.928c3.697 12.621-8.021 24.338-20.642 20.642l-17.928-5.251c-3.053-.894-6.299-.894-9.352 0l-17.928 5.251c-12.621 3.697-24.338-8.021-20.642-20.642l5.251-17.928c.894-3.053.894-6.299 0-9.352l-5.251-17.928c-3.697-12.621 8.021-24.338 20.642-20.642z" fill="#f4d37f"/><circle cx="255.5" cy="417.346" fill="#b9a0db" r="93.655"/><path d="m256.075 478.251c45.886-.276 83.942-33.553 91.648-77.294-5.902-44.729-46.09-77.266-92.223-77.266-46.127 0-85.923 33.33-92.221 77.25 7.824 44.071 46.752 77.586 92.796 77.31z" fill="#928fd4"/><circle cx="255.5" cy="352.607" fill="#99ddfc" r="93.655"/><path d="m256.075 413.401c45.886-.276 83.942-33.553 91.648-77.294-5.902-44.729-46.09-77.266-92.223-77.266-46.127 0-85.923 33.33-92.221 77.25 7.824 44.071 46.752 77.587 92.796 77.31z" fill="#66cdf7"/><circle cx="255.5" cy="287.869" fill="#7ce0cf" r="93.655"/><path d="m256.075 348.615c45.886-.276 83.942-33.553 91.648-77.294-5.902-44.729-46.09-77.266-92.223-77.266-46.127 0-85.923 33.33-92.221 77.25 7.824 44.071 46.752 77.586 92.796 77.31z" fill="#55cb94"/><circle cx="255.5" cy="223.131" fill="#f9ef90" r="93.655"/><path d="m256.075 284.036c45.886-.276 83.942-33.553 91.648-77.294-5.902-44.729-46.09-77.266-92.223-77.266-46.127 0-85.923 33.33-92.221 77.25 7.824 44.071 46.752 77.587 92.796 77.31z" fill="#f4d37f"/><circle cx="255.5" cy="158.393" fill="#f7ad55" r="93.655"/><path d="m256.075 219.298c45.886-.276 83.942-33.553 91.648-77.294-7.75-43.91-46.09-77.266-92.223-77.266-46.127 0-84.464 33.348-92.221 77.25 7.824 44.071 46.752 77.587 92.796 77.31z" fill="#f49634"/><path d="m254.412.006c.823-.009 1.649-.008 2.477.004 50.22.728 91.301 41.619 92.249 91.836.988 52.359-41.002 95.149-93.063 95.462-50.885.306-93.081-40.658-94.206-91.531-1.095-49.53 43.121-95.208 92.543-95.771z" fill="#ef7d92"/><path d="m256.075 155.543c45.886-.276 83.942-33.553 91.648-77.294-7.75-43.91-46.09-77.266-92.223-77.266-46.127 0-84.464 33.348-92.221 77.25 7.824 44.072 46.752 77.587 92.796 77.31z" fill="#eb6773"/><g fill="#3f4750"><path d="m260.314 91.57c-1.625 2.473-4.047 2.808-5.033 2.825-.986.016-3.458-.21-5.124-2.656-2.312-3.395-6.938-4.273-10.332-1.961-3.394 2.311-4.272 6.937-1.961 10.332 3.984 5.851 10.587 9.273 17.664 9.155s13.563-3.758 17.35-9.738c2.197-3.469 1.166-8.064-2.304-10.261-1.271-.805-6.87-2.853-10.26 2.304z"/><path d="m203.812 96.116c-.938-.759-1.864-.95-2.382-.941s-1.511.152-2.35 1.02c-2.856 2.952-7.564 3.03-10.515.175-2.953-2.855-3.031-7.563-.176-10.515 3.383-3.498 7.927-5.469 12.793-5.55s9.473 1.738 12.97 5.121c2.952 2.856 3.03 7.564.174 10.515-1.427 1.476-5.755 4.025-10.514.175z"/><path d="m311.508 94.078c-.938-.759-1.864-.95-2.382-.941s-1.511.152-2.35 1.02c-2.856 2.952-7.564 3.03-10.515.175-2.953-2.855-3.031-7.563-.176-10.515 3.383-3.498 7.927-5.469 12.793-5.55s9.473 1.738 12.97 5.121c2.952 2.856 3.03 7.564.174 10.515-1.426 1.476-5.755 4.025-10.514.175z"/></g></svg>