<svg id="Layer_1" enable-background="new 0 0 511 511" height="512" viewBox="0 0 511 511" width="512" xmlns="http://www.w3.org/2000/svg"><path d="m107.979 327.156-81.671 81.671c-8.961 8.961-2.891 24.296 9.776 24.695l36.863 1.162c7.79.246 13.986 6.617 14.014 14.411l.12 33.155c.046 12.866 15.604 19.278 24.702 10.18l80.735-80.735c5.651-5.651 5.651-14.813 0-20.464l-64.075-64.075c-5.651-5.651-14.813-5.651-20.464 0z" fill="#ef7d92"/><path d="m150.853 453.36 41.665-41.665c5.651-5.651 5.651-14.813 0-20.464l-64.075-64.075c-5.651-5.651-14.813-5.651-20.464 0l-35.27 35.27c7.203 20.783 46.719 67.783 78.144 90.934z" fill="#eb6774"/><path d="m319.414 411.695 81.671 81.671c8.961 8.961 24.296 2.891 24.695-9.776l1.162-36.863c.246-7.79 6.617-13.986 14.411-14.014l33.155-.12c12.866-.046 19.278-15.604 10.18-24.702l-80.735-80.735c-5.651-5.651-14.813-5.651-20.464 0l-64.075 64.075c-5.651 5.651-5.651 14.813 0 20.464z" fill="#ef7d92"/><path d="m361.079 453.36-41.665-41.665c-5.651-5.651-5.651-14.813 0-20.464l64.075-64.075c5.651-5.651 14.813-5.651 20.464 0l35.27 35.27c-7.203 20.783-46.719 67.783-78.144 90.934z" fill="#eb6774"/><path d="m22.677 193.033c47.261 94.897 347.279 123.891 476.632 1.058 19.487-71.624-425.561-129.667-476.632-1.058z" fill="#eb6773"/><circle cx="255.621" cy="267.196" fill="#99ddfc" r="180.321"/><path d="m85.873 232.049c22.057-4.396 44.196-7.845 66.599-9.955 73.195-6.894 147.999-7.638 221.112.482 19.716 2.19 39.324 5.042 58.758 8.65-6.091-30.071-19.94-58.988-41.75-83.606-66.04-74.543-180.005-81.435-254.547-15.395-31.102 27.555-50.417 63.454-57.581 101.35 2.482-.531 4.955-1.037 7.409-1.526z" fill="#66cdf7"/><path d="m220.387 328.33c12.189 10.066 31.263 11.99 43.91 2.507 7.912-5.933 12.563-15.363 14.891-24.974 6.743-27.837-6.543-58.031-36.215-64.168-27.097-5.605-39.369 24.768-39.477 47.319-.069 14.628 5.398 29.825 16.891 39.316z" fill="#eaf9ff"/><path d="m78.622 250.967c14.004 8.854 28.965 19.355 35.54 34.573 4.89 11.319 7.02 29.629 21.108 31.601 18.413 2.578 22.958-23.466 22.732-38.988-.584-40.237 6.66-46.098 24.407-79.443 16.151-30.349 13.715-67.926-14.956-88.975-11.05 6.201-21.617 13.655-31.488 22.4-35.543 31.489-56.406 68.465-59.934 117.678z" fill="#eaf9ff"/><path d="m85.873 232.049c22.057-4.396 44.196-7.845 66.599-9.955 5.993-.564 12.001-1.072 18.014-1.552 3.274-6.12 7.227-13.01 11.922-21.832 16.151-30.349 13.715-67.926-14.956-88.975-11.05 6.201-21.617 13.655-31.488 22.4-31.554 27.955-51.526 60.242-58.083 101.568 2.678-.578 5.347-1.127 7.992-1.654z" fill="#99ddfc"/><path d="m120.182 379.391-3.377 3.069c27.362 33.436 54.75 47.607 85.184 57.048 15.308-39.931-32.158-101.037-81.807-60.117z" fill="#eaf9ff"/><path d="m390.682 147.54c-20.992-23.695-46.827-40.548-74.696-50.412-2.145 1.337-3.557 2.185-3.557 2.185-24.02 15.345-34.773 48.55-24.308 75.062 10.395 26.335 37.643 43.263 47.712 69.724 8.23 21.626 3.518 46.138-5.183 67.58-8.701 21.441-21.209 41.222-29.246 62.921-8.029 21.678-11.201 46.674-1.048 67.438 26.935-6.868 52.681-20.079 74.919-39.782 77.989-65.248 80.428-182.501 15.407-254.716z" fill="#eaf9ff"/><path d="m319.727 218.179c18.021.965 35.99 2.412 53.857 4.397 19.917 2.212 39.725 5.1 59.354 8.76-6.367-30.544-20.544-59.682-42.256-83.796-20.992-23.695-46.827-40.548-74.696-50.412-2.145 1.337-3.557 2.185-3.557 2.185-24.02 15.345-34.773 48.55-24.308 75.062 6.627 16.788 20.098 29.755 31.606 43.804z" fill="#99ddfc"/><path d="m20.464 188.166-19.916-74.6c-1.868-6.998 1.145-14.405 7.395-18.063 164.442-107.683 339.518-111.548 496.317.667 4.756 3.404 7.294 9.128 6.637 14.939l-8.505 75.157c-1.226 10.838-12.626 17.368-22.586 12.921-62.27-27.801-258.859-100.286-435.787-1.161-9.219 5.165-20.829.35-23.555-9.86z" fill="#ef7d92"/><ellipse cx="147.678" cy="103.374" fill="#fff" rx="32.324" ry="25.741"/><ellipse cx="363.321" cy="103.374" fill="#fff" rx="32.324" ry="25.741"/><g fill="#3f4750"><path d="m290.587 81.311c-4.259 0-7.711 3.452-7.711 7.711 0 5.421-4.411 9.832-9.832 9.832s-9.832-4.411-9.832-9.832c0-4.259-3.452-7.711-7.711-7.711s-7.711 3.452-7.711 7.711c0 5.421-4.411 9.832-9.832 9.832s-9.832-4.411-9.832-9.832c0-4.259-3.452-7.711-7.711-7.711s-7.711 3.452-7.711 7.711c0 13.925 11.329 25.254 25.254 25.254 6.811 0 12.996-2.715 17.543-7.113 4.547 4.399 10.732 7.113 17.543 7.113 13.925 0 25.254-11.329 25.254-25.254 0-4.259-3.452-7.711-7.711-7.711z"/><path d="m172.194 60.969c-4.259 0-7.711 3.452-7.711 7.711v13.162c0 4.259 3.452 7.711 7.711 7.711s7.711-3.452 7.711-7.711v-13.162c0-4.259-3.452-7.711-7.711-7.711z"/><path d="m338.806 60.969c-4.259 0-7.711 3.452-7.711 7.711v13.162c0 4.259 3.452 7.711 7.711 7.711s7.711-3.452 7.711-7.711v-13.162c0-4.259-3.452-7.711-7.711-7.711z"/></g></svg>