<svg id="Layer_1" enable-background="new 0 0 511.001 511.001" height="512" viewBox="0 0 511.001 511.001" width="512" xmlns="http://www.w3.org/2000/svg"><path d="m103.785 236.723 151.832-106.014 151.599 105.851z" fill="#f3d37e"/><path d="m441.85 166.143-142.957 38.059c-28.433 7.57-58.352 7.57-86.785 0l-142.957-38.059v201.967h372.699z" fill="#f9ef90"/><path d="m177.278 295.151c-76.788 0-75.385-106.098-75.11-120.217l-33.017-8.79v201.966h372.699v-75.623c-21.709.924-231.315 3.771-264.572 2.664z" fill="#f3d37e"/><circle cx="255.617" cy="130.709" fill="#f49634" r="35.028"/><circle cx="69.151" cy="166.143" fill="#f7ad56" r="35.028"/><circle cx="441.85" cy="166.143" fill="#f7ad56" r="35.028"/><path d="m494.022 330.459c-20.783-13.535-42.152-11.575-57.167-1.119-4.631 3.225-10.749 3.384-15.364.136-7.675-5.402-17.031-8.576-27.13-8.576-10.02 0-19.308 3.124-26.949 8.449-4.668 3.253-10.863 3.253-15.531 0-7.641-5.325-16.929-8.449-26.949-8.449s-19.308 3.124-26.949 8.449c-4.668 3.253-10.863 3.253-15.531 0-7.641-5.325-16.929-8.449-26.949-8.449s-19.308 3.124-26.949 8.449c-4.668 3.253-10.863 3.253-15.531 0-7.641-5.325-16.929-8.449-26.949-8.449s-19.308 3.124-26.949 8.449c-4.668 3.253-10.863 3.253-15.531 0-7.641-5.325-16.929-8.449-26.949-8.449-10.099 0-19.455 3.174-27.13 8.576-4.615 3.248-10.732 3.089-15.363-.136-15.014-10.456-36.382-12.416-57.165 1.117-2.471 1.609-5.824 4.961-7.433 7.433-24.547 37.708 1.919 77.43 37.662 77.43 8.189 0 15.889-2.087 22.601-5.756 7.563-4.135 16.665-4.135 24.228 0 6.712 3.669 14.412 5.756 22.601 5.756s15.889-2.087 22.601-5.756c7.563-4.135 16.665-4.135 24.228 0 6.712 3.669 14.412 5.756 22.601 5.756s15.889-2.087 22.601-5.756c7.563-4.135 16.665-4.135 24.228 0 6.712 3.669 14.412 5.756 22.601 5.756s15.889-2.087 22.601-5.756c7.563-4.135 16.665-4.135 24.228 0 6.712 3.669 14.412 5.756 22.601 5.756s15.889-2.087 22.601-5.756c7.563-4.135 16.665-4.135 24.228 0 6.712 3.669 14.412 5.756 22.601 5.756s15.889-2.087 22.601-5.756c7.563-4.135 16.665-4.135 24.228 0 6.712 3.669 14.412 5.756 22.601 5.756 35.743 0 62.208-39.721 37.663-77.428-1.614-2.471-4.967-5.824-7.437-7.433z" fill="#f7ad55"/><g fill="#343841"><path d="m172.783 271.353c-4.233 0-7.664-3.431-7.664-7.664v-13.069c0-4.233 3.431-7.664 7.664-7.664s7.664 3.431 7.664 7.664v13.069c.001 4.233-3.43 7.664-7.664 7.664z"/><path d="m338.217 271.353c-4.233 0-7.664-3.431-7.664-7.664v-13.069c0-4.233 3.431-7.664 7.664-7.664s7.664 3.431 7.664 7.664v13.069c.001 4.233-3.43 7.664-7.664 7.664z"/><path d="m255.428 279.375c-9.24 0-18.456-3.102-27.779-9.305-3.524-2.345-4.48-7.103-2.135-10.627 2.344-3.525 7.1-4.479 10.627-2.135 13.491 8.978 25.083 8.972 38.753-.022 3.537-2.328 8.29-1.345 10.615 2.191 2.326 3.537 1.345 8.289-2.191 10.615-9.406 6.188-18.66 9.283-27.89 9.283z"/></g><path d="m510.079 363.694c-82.521 14.978-364.881 13.392-379.263 12.678-14.733-.731-29.369-2.287-42.97-8.293-13.277-5.863-21.94-17.149-25.501-31.063-1.158-4.524-1.985-9.401-2.308-14.347-12.947-3.65-28.152-1.915-43.056 7.791-2.471 1.609-5.824 4.962-7.433 7.433-24.547 37.708 1.919 77.43 37.662 77.43 8.189 0 15.889-2.086 22.601-5.756 7.563-4.135 16.665-4.135 24.228 0 6.712 3.669 14.412 5.756 22.601 5.756s15.889-2.086 22.601-5.756c7.563-4.135 16.665-4.135 24.228 0 6.712 3.669 14.412 5.756 22.601 5.756s15.889-2.086 22.601-5.756c7.563-4.135 16.665-4.135 24.228 0 6.712 3.669 14.412 5.756 22.601 5.756s15.889-2.086 22.601-5.756c7.563-4.135 16.665-4.135 24.228 0 6.712 3.669 14.412 5.756 22.601 5.756s15.889-2.086 22.601-5.756c7.563-4.135 16.665-4.135 24.228 0 6.712 3.669 14.412 5.756 22.601 5.756s15.889-2.086 22.601-5.756c7.563-4.135 16.665-4.135 24.228 0 6.712 3.669 14.412 5.756 22.601 5.756 27.571 0 49.615-23.636 46.99-51.75-.233.037-.466.082-.701.121z" fill="#f49634"/></svg>