<svg id="Layer_1" enable-background="new 0 0 511.002 511.002" height="512" viewBox="0 0 511.002 511.002" width="512" xmlns="http://www.w3.org/2000/svg"><path d="m71.459 168.426-65.382-65.383c-8.102-8.102-8.102-21.239 0-29.341l37.42-37.42c23.546-23.546 61.72-23.546 85.266 0l9.458 9.458c23.546 23.546 23.546 61.72 0 85.266l-37.42 37.42c-8.103 8.102-21.239 8.102-29.342 0z" fill="#66cdf7"/><path d="m439.543 168.426 65.383-65.383c8.102-8.102 8.102-21.239 0-29.341l-37.42-37.42c-23.546-23.546-61.72-23.546-85.266 0l-9.458 9.458c-23.546 23.546-23.546 61.72 0 85.266l37.42 37.42c8.102 8.102 21.239 8.102 29.341 0z" fill="#66cdf7"/><path d="m418.509 12.359h-25.824c-4.325 0-7.83 3.506-7.83 7.83 0 0-.039 1.627-.041 1.74-1.754 69.912-58.977 126.048-129.312 126.048s-127.558-56.135-129.312-126.048c-.003-.113-.041-1.74-.041-1.74 0-4.325-3.506-7.83-7.83-7.83h-25.826c-4.325 0-7.83 3.506-7.83 7.83v433.469c0 24.845 20.141 44.986 44.986 44.986h251.706c24.845 0 44.986-20.141 44.986-44.986v-433.469c-.001-4.325-3.507-7.83-7.832-7.83z" fill="#99ddfc"/><path d="m255.501 147.977c71.44 0 129.354-57.914 129.354-129.354h-258.708c0 71.44 57.914 129.354 129.354 129.354z" fill="#eaf9ff"/><path d="m350.919 187.564c-6.41 0-12.39 1.896-17.44 5.173-6.216 4.034-14.216 4.034-20.433 0-5.05-3.277-11.03-5.173-17.44-5.173-18.094 0-32.762 15.105-32.762 33.738 0 27.216 30.473 43.803 50.202 55.285 6.825 3.972 13.699 4.393 20.715.037 18.743-11.635 49.92-29.67 49.92-55.322 0-18.634-14.668-33.738-32.762-33.738z" fill="#fff"/><path d="m84.663 184.481v269.177c0 24.845 20.141 44.986 44.986 44.986h251.706c14.149 0 26.765-6.538 35.01-16.752-17.946-3.456-244.888-94.729-331.702-297.411z" fill="#66cdf7"/></svg>