<svg id="Layer_1" enable-background="new 0 0 511 511" height="512" viewBox="0 0 511 511" width="512" xmlns="http://www.w3.org/2000/svg"><path d="m436.166 74.834c-48.258-48.257-112.419-74.834-180.666-74.834s-132.408 26.577-180.666 74.834c-48.257 48.257-74.834 112.42-74.834 180.666s26.577 132.409 74.834 180.666c48.258 48.257 112.419 74.834 180.666 74.834s132.408-26.577 180.666-74.834c48.257-48.257 74.834-112.42 74.834-180.666s-26.577-132.409-74.834-180.666zm-14.289 269.939-135.232-98.74c-3.226-2.355-5.133-6.11-5.133-10.104v-167.488c0-7.964 7.331-13.844 15.132-12.236 92.541 19.077 162.333 101.188 162.333 199.295 0 30.066-6.562 58.626-18.319 84.332-3.302 7.218-12.371 9.622-18.781 4.941zm-192.389-276.332v167.26c0 4.036-1.947 7.824-5.229 10.173l-135.974 97.333c-6.448 4.615-15.496 2.14-18.727-5.101-11.266-25.256-17.535-53.212-17.535-82.606 0-98.107 69.792-180.218 162.333-199.295 7.801-1.608 15.132 4.272 15.132 12.236zm0 262.009v112.106c0 7.95-7.312 13.85-15.098 12.246-36.982-7.619-70.328-25.31-97.043-50.062-5.78-5.355-5.113-14.699 1.295-19.285l91.054-65.178c8.279-5.927 19.792-.009 19.792 10.173zm52.024 112.106v-111.23c0-10.236 11.622-16.14 19.888-10.104l89.738 65.523c6.36 4.644 6.947 13.989 1.121 19.287-26.513 24.11-59.397 41.331-95.795 48.801-7.728 1.585-14.952-4.388-14.952-12.277z" fill="#f9ef90"/><path d="m167.273 440.033c-.128-.463-.248-.929-.374-1.392-18.187-8.837-34.872-20.3-49.551-33.901-5.78-5.355-5.113-14.699 1.295-19.285l33.383-23.896c-1.227-10.189-2.201-20.404-2.924-30.622-.711-10.063-1.126-20.146-1.439-30.233l-59.377 42.503c-6.448 4.615-15.496 2.14-18.727-5.101-11.266-25.257-17.535-53.212-17.535-82.606 0-80.482 46.975-150.19 114.941-183.174 7.944-22.775 18.806-44.231 29.898-65.587-45.839 10.714-87.911 33.977-122.029 68.095-48.257 48.257-74.834 112.42-74.834 180.666s26.577 132.409 74.834 180.666c32.511 32.511 72.245 55.163 115.578 66.497-9.788-20.02-17.231-41.266-23.139-62.63z" fill="#f4d37f"/></svg>