<svg id="Layer_1" enable-background="new 0 0 511 511" height="512" viewBox="0 0 511 511" width="512" xmlns="http://www.w3.org/2000/svg"><path d="m411.658 492.76 9.685-9.685c3.727-3.727 9.771-3.727 13.498 0l18.114 18.114c13.081 13.081 34.289 13.08 47.37 0 13.081-13.081 13.081-34.289 0-47.369l-18.114-18.114c-3.727-3.727-3.727-9.771 0-13.498l9.941-9.941c11.35-11.35 11.35-29.751 0-41.1-11.35-11.349-29.751-11.349-41.1 0l-9.941 9.941c-3.727 3.727-9.771 3.727-13.498 0l-68.095-68.094-47.113 47.113 67.884 68.351c3.706 3.731 3.695 9.756-.023 13.475l-9.708 9.708c-11.35 11.35-11.35 29.751 0 41.1 11.35 11.348 29.751 11.348 41.1-.001z" fill="#b9a0db"/><path d="m190.587 145.31-64.774-65.458c-4.22-4.265-3.526-11.352 1.489-14.646 9.62-6.319 16.019-17.188 16.054-29.496.056-19.471-15.828-35.447-35.299-35.503l-64.603-.188c-24.689-.69-42.33 17.179-42.402 42.159l-.187 64.706c-.056 19.471 15.828 35.401 35.299 35.401 12.284.035 23.172-6.276 29.551-15.828 3.343-5.005 10.453-5.651 14.686-1.373l64.733 65.417z" fill="#99ddfc"/><path d="m96.929 141.786 48.205 48.715 45.453-45.191-48.469-48.982c-.111.087-26.245 17.728-45.189 45.458z" fill="#66cdf7"/><path d="m412.03 365.525-48.97-52.513-51.821 47.058 51.82 51.028c.119-.087 28.162-17.427 48.971-45.573z" fill="#928fd4"/><path d="m55.074 402.818c.395 16.827 14.357 30.148 31.184 29.753 16.827-.395 30.148-14.357 29.753-31.184l-4.252-181.139c-33.491.786-60.021 28.541-59.295 62.033z" fill="#f6a7ae"/><path d="m61.528 251.199c.431 4.894.542 9.794 1.034 14.685 2.42 24.062 10.134 47.696 18.997 70.081 8.121 20.511 33.885 57.85 34.285 58.292l-4.084-174.008c-21.426.503-39.989 12.054-50.403 29.075.057.625.116 1.25.171 1.875z" fill="#f1919b"/><path d="m450.64 104.112c-.395-16.827-14.357-30.148-31.184-29.753-16.827.395-30.148 14.357-29.753 31.184l4.252 181.139c33.491-.786 60.021-28.541 59.295-62.033z" fill="#f6a7ae"/><path d="m444.652 239.616c-2.861-24.014-11.008-47.502-20.281-69.721-8.497-20.359-34.269-57.218-34.677-57.653l3.815 173.904c23.206.535 41.915-11.244 52.481-31.268-.068-.624-.757-10.382-1.338-15.262z" fill="#f1919b"/><path d="m415.777 249.641c-2.112-89.978-76.766-161.208-166.744-159.096s-161.208 76.766-159.096 166.744 76.766 161.208 166.744 159.096 161.208-76.766 159.096-166.744zm-160.555 104.578c-55.645 1.306-101.813-42.744-103.119-98.389s42.744-101.813 98.389-103.119 101.813 42.744 103.119 98.389c1.307 55.645-42.744 101.813-98.389 103.119z" fill="#6f8197"/><path d="m200.19 339.4c-28.161-17.296-47.254-48.071-48.087-83.57-1.306-55.645 42.744-101.813 98.389-103.119 11.378-.267 22.359 1.364 32.642 4.601 13.461-17.341 28.239-33.671 44.254-48.802-23.436-12.076-50.141-18.627-78.354-17.965-89.978 2.112-161.208 76.766-159.096 166.744 1.589 67.695 44.241 124.771 103.585 147.994.363-22.091 2.613-44.151 6.667-65.883z" fill="#56697e"/></svg>