<svg id="Layer_1" enable-background="new 0 0 510.999 510.999" height="512" viewBox="0 0 510.999 510.999" width="512" xmlns="http://www.w3.org/2000/svg"><path d="m285.799 307.101-47.483-.171.337-281.967c.02-13.752-11.102-24.923-24.854-24.963-13.78-.04-24.978 11.109-24.998 24.889l-.337 281.861-44.475-.16c-13.75-.017-24.917 11.104-24.957 24.854-.04 13.783 11.113 24.981 24.895 24.998l44.475.16-.143 115.577 49.852.144.143-115.542 47.47.171c13.753.02 24.923-11.101 24.963-24.854.041-13.779-11.108-24.977-24.888-24.997z" fill="#f9ef90"/><path d="m230.038 429.322 3.125-3.107c10.739-10.677 28.262-10.627 38.94.113 10.677 10.739 10.627 28.262-.113 38.94l-35.634 35.428c-13.778 13.698-33.308 13.824-46.507-.135l-35.428-35.634c-10.678-10.739-10.627-28.262.113-38.94 10.739-10.677 28.262-10.627 38.94.113 11.168 14.23 23.657 16.395 36.564 3.222z" fill="#99ddfc"/><g fill="#f4d37f"><path d="m238.542 134.124.095-42.014h-49.853l-.095 42.014z"/><path d="m238.363 277.204.104-43.409h-49.853l-.103 43.409z"/><path d="m238.316 363.794.028-7.022h-49.852l-.028 6.969-.062 14.779-.026 6.28h49.853l.025-6.226z"/></g><path d="m230.038 429.322 3.125-3.107c10.739-10.677 28.262-10.627 38.94.113 10.677 10.739 10.627 28.262-.113 38.94l-35.634 35.428c-13.778 13.698-33.308 13.824-46.507-.135l-35.428-35.634c-10.678-10.739-10.627-28.262.113-38.94 10.739-10.677 28.262-10.627 38.94.113 11.168 14.23 23.657 16.395 36.564 3.222z" fill="#99ddfc"/><path d="m294.667 53.094h-150.834c-14.527 0-26.347 11.819-26.347 26.347s11.819 26.347 26.347 26.347h150.834c25.448 0 46.152 20.704 46.152 46.153 0 25.448-20.704 46.151-46.152 46.151h-150.834c-14.527 0-26.347 11.819-26.347 26.347s11.819 26.347 26.347 26.347h150.834c54.504 0 98.847-44.342 98.847-98.846s-44.344-98.846-98.847-98.846z" fill="#ef7d92"/><path d="m164.906 419.522c-3.792 1.306-7.35 3.461-10.372 6.465-10.74 10.677-10.79 28.2-.113 38.94l35.428 35.634c13.199 13.958 32.729 13.833 46.507.135l12.445-12.373c-36.486-9.713-71.461-32.575-83.895-68.801z" fill="#66cdf7"/></svg>